<svg width="242" height="216" viewBox="0 0 242 216" fill="none" xmlns="http://www.w3.org/2000/svg">
<g clip-path="url(#clip0_43_455)">
<rect width="242" height="216" rx="6" fill="#F9FAFB"/>
<rect x="32.35" y="64.35" width="57.3" height="79.3" rx="15.65" fill="white" stroke="#E3E3E3" stroke-width="0.7"/>
<rect x="32.35" y="-25.65" width="57.3" height="79.3" rx="15.65" fill="white" stroke="#E3E3E3" stroke-width="0.7"/>
<rect x="32.35" y="154.35" width="57.3" height="79.3" rx="15.65" fill="white" stroke="#E3E3E3" stroke-width="0.7"/>
<rect x="99.35" y="68.35" width="57.3" height="79.3" rx="15.65" fill="white" stroke="#E3E3E3" stroke-width="0.7"/>
<rect x="99.35" y="-25.65" width="57.3" height="79.3" rx="15.65" fill="white" stroke="#E3E3E3" stroke-width="0.7"/>
<rect x="99.35" y="154.35" width="57.3" height="79.3" rx="15.65" fill="white" stroke="#E3E3E3" stroke-width="0.7"/>
<rect x="166.35" y="64.35" width="57.3" height="79.3" rx="15.65" fill="white" stroke="#E3E3E3" stroke-width="0.7"/>
<rect x="166.35" y="-25.65" width="57.3" height="79.3" rx="15.65" fill="white" stroke="#E3E3E3" stroke-width="0.7"/>
<rect x="166.35" y="154.35" width="57.3" height="79.3" rx="15.65" fill="white" stroke="#E3E3E3" stroke-width="0.7"/>
<rect x="-34.65" y="64.35" width="57.3" height="79.3" rx="15.65" fill="white" stroke="#E3E3E3" stroke-width="0.7"/>
<rect x="-34.65" y="-25.65" width="57.3" height="79.3" rx="15.65" fill="white" stroke="#E3E3E3" stroke-width="0.7"/>
<rect x="-34.65" y="154.35" width="57.3" height="79.3" rx="15.65" fill="white" stroke="#E3E3E3" stroke-width="0.7"/>
<path d="M56.9574 76.9091V90H55.3722V78.571H55.2955L52.0994 80.6932V79.0824L55.3722 76.9091H56.9574ZM60.4155 87.3153V86.0114L66.1683 76.9091H67.1143V78.929H66.4751L62.1286 85.8068V85.9091H69.8757V87.3153H60.4155ZM66.5774 90V86.919V86.3118V76.9091H68.0859V90H66.5774Z" fill="black"/>
<path d="M52.3551 180V178.849L56.6761 174.119C57.1832 173.565 57.6009 173.084 57.929 172.675C58.2571 172.261 58.5 171.874 58.6577 171.511C58.8196 171.145 58.9006 170.761 58.9006 170.361C58.9006 169.901 58.7898 169.502 58.5682 169.165C58.3509 168.829 58.0526 168.569 57.6733 168.386C57.294 168.202 56.8679 168.111 56.3949 168.111C55.892 168.111 55.4531 168.215 55.0781 168.424C54.7074 168.629 54.4197 168.916 54.2152 169.287C54.0149 169.658 53.9148 170.092 53.9148 170.591H52.4062C52.4062 169.824 52.5831 169.151 52.9368 168.571C53.2905 167.991 53.772 167.54 54.3814 167.216C54.995 166.892 55.6832 166.73 56.446 166.73C57.2131 166.73 57.8928 166.892 58.4851 167.216C59.0774 167.54 59.5419 167.977 59.8786 168.526C60.2152 169.076 60.3835 169.688 60.3835 170.361C60.3835 170.842 60.2962 171.313 60.1214 171.773C59.951 172.229 59.6527 172.739 59.2266 173.301C58.8047 173.859 58.2188 174.541 57.4688 175.347L54.5284 178.491V178.594H60.6136V180H52.3551ZM67.8558 166.909V180H66.2706V168.571H66.1939L62.9979 170.693V169.082L66.2706 166.909H67.8558Z" fill="black"/>
<path d="M123.957 76.9091V90H122.372V78.571H122.295L119.099 80.6932V79.0824L122.372 76.9091H123.957ZM131.813 90.179C131.063 90.179 130.388 90.0298 129.787 89.7315C129.186 89.4332 128.705 89.0241 128.342 88.5043C127.98 87.9844 127.782 87.392 127.748 86.7273H129.282C129.342 87.3196 129.61 87.8097 130.087 88.1974C130.569 88.581 131.144 88.7727 131.813 88.7727C132.35 88.7727 132.827 88.647 133.245 88.3956C133.667 88.1442 133.997 87.799 134.236 87.3601C134.479 86.9169 134.6 86.4162 134.6 85.858C134.6 85.2869 134.474 84.7777 134.223 84.3303C133.976 83.8786 133.635 83.5227 133.2 83.2628C132.766 83.0028 132.269 82.8707 131.711 82.8665C131.31 82.8622 130.899 82.924 130.477 83.0518C130.055 83.1754 129.708 83.3352 129.435 83.5312L127.952 83.3523L128.745 76.9091H135.546V78.3153H130.075L129.614 82.1761H129.691C129.96 81.9631 130.296 81.7862 130.701 81.6456C131.106 81.505 131.528 81.4347 131.967 81.4347C132.768 81.4347 133.482 81.6264 134.108 82.0099C134.739 82.3892 135.233 82.9091 135.591 83.5696C135.953 84.2301 136.134 84.9844 136.134 85.8324C136.134 86.6676 135.947 87.4134 135.572 88.0696C135.201 88.7216 134.69 89.2372 134.038 89.6165C133.386 89.9915 132.644 90.179 131.813 90.179Z" fill="black"/>
<path d="M119.355 180V178.849L123.676 174.119C124.183 173.565 124.601 173.084 124.929 172.675C125.257 172.261 125.5 171.874 125.658 171.511C125.82 171.145 125.901 170.761 125.901 170.361C125.901 169.901 125.79 169.502 125.568 169.165C125.351 168.829 125.053 168.569 124.673 168.386C124.294 168.202 123.868 168.111 123.395 168.111C122.892 168.111 122.453 168.215 122.078 168.424C121.707 168.629 121.42 168.916 121.215 169.287C121.015 169.658 120.915 170.092 120.915 170.591H119.406C119.406 169.824 119.583 169.151 119.937 168.571C120.29 167.991 120.772 167.54 121.381 167.216C121.995 166.892 122.683 166.73 123.446 166.73C124.213 166.73 124.893 166.892 125.485 167.216C126.077 167.54 126.542 167.977 126.879 168.526C127.215 169.076 127.384 169.688 127.384 170.361C127.384 170.842 127.296 171.313 127.121 171.773C126.951 172.229 126.653 172.739 126.227 173.301C125.805 173.859 125.219 174.541 124.469 175.347L121.528 178.491V178.594H127.614V180H119.355ZM130.254 180V178.849L134.575 174.119C135.082 173.565 135.499 173.084 135.827 172.675C136.156 172.261 136.398 171.874 136.556 171.511C136.718 171.145 136.799 170.761 136.799 170.361C136.799 169.901 136.688 169.502 136.467 169.165C136.249 168.829 135.951 168.569 135.572 168.386C135.192 168.202 134.766 168.111 134.293 168.111C133.79 168.111 133.352 168.215 132.977 168.424C132.606 168.629 132.318 168.916 132.114 169.287C131.913 169.658 131.813 170.092 131.813 170.591H130.305C130.305 169.824 130.482 169.151 130.835 168.571C131.189 167.991 131.67 167.54 132.28 167.216C132.893 166.892 133.582 166.73 134.344 166.73C135.112 166.73 135.791 166.892 136.384 167.216C136.976 167.54 137.44 167.977 137.777 168.526C138.114 169.076 138.282 169.688 138.282 170.361C138.282 170.842 138.195 171.313 138.02 171.773C137.849 172.229 137.551 172.739 137.125 173.301C136.703 173.859 136.117 174.541 135.367 175.347L132.427 178.491V178.594H138.512V180H130.254Z" fill="black"/>
<path d="M190.957 76.9091V90H189.372V78.571H189.295L186.099 80.6932V79.0824L189.372 76.9091H190.957ZM199.069 90.179C198.532 90.1705 197.995 90.0682 197.458 89.8722C196.921 89.6761 196.431 89.3459 195.988 88.8814C195.545 88.4126 195.189 87.7798 194.92 86.983C194.652 86.1818 194.518 85.1761 194.518 83.9659C194.518 82.8068 194.626 81.7798 194.844 80.8849C195.061 79.9858 195.376 79.2294 195.79 78.6158C196.203 77.9979 196.702 77.5291 197.286 77.2095C197.874 76.8899 198.536 76.7301 199.273 76.7301C200.006 76.7301 200.658 76.8771 201.229 77.1712C201.805 77.4609 202.273 77.8658 202.636 78.3857C202.998 78.9055 203.232 79.5043 203.339 80.1818H201.779C201.634 79.5937 201.353 79.1058 200.935 78.718C200.518 78.3303 199.964 78.1364 199.273 78.1364C198.259 78.1364 197.46 78.5774 196.876 79.4595C196.297 80.3416 196.005 81.5795 196.001 83.1733H196.103C196.342 82.8111 196.625 82.5021 196.953 82.2464C197.286 81.9865 197.652 81.7862 198.053 81.6456C198.453 81.505 198.877 81.4347 199.325 81.4347C200.075 81.4347 200.761 81.6222 201.383 81.9972C202.005 82.3679 202.504 82.8814 202.879 83.5376C203.254 84.1896 203.441 84.9375 203.441 85.7812C203.441 86.5909 203.26 87.3324 202.898 88.0057C202.536 88.6747 202.026 89.2074 201.37 89.6037C200.718 89.9957 199.951 90.1875 199.069 90.179ZM199.069 88.7727C199.606 88.7727 200.087 88.6385 200.513 88.37C200.944 88.1016 201.283 87.7415 201.53 87.2898C201.781 86.8381 201.907 86.3352 201.907 85.7812C201.907 85.2401 201.786 84.7479 201.543 84.3047C201.304 83.8572 200.974 83.5014 200.552 83.2372C200.134 82.973 199.657 82.8409 199.12 82.8409C198.715 82.8409 198.338 82.9219 197.989 83.0838C197.639 83.2415 197.332 83.4588 197.068 83.7358C196.808 84.0128 196.604 84.3303 196.455 84.6882C196.305 85.0419 196.231 85.4148 196.231 85.8068C196.231 86.3267 196.352 86.8125 196.595 87.2642C196.842 87.7159 197.179 88.0803 197.605 88.3572C198.036 88.6342 198.523 88.7727 199.069 88.7727Z" fill="#FF5C5C"/>
<path d="M186.355 180V178.849L190.676 174.119C191.183 173.565 191.601 173.084 191.929 172.675C192.257 172.261 192.5 171.874 192.658 171.511C192.82 171.145 192.901 170.761 192.901 170.361C192.901 169.901 192.79 169.502 192.568 169.165C192.351 168.829 192.053 168.569 191.673 168.386C191.294 168.202 190.868 168.111 190.395 168.111C189.892 168.111 189.453 168.215 189.078 168.424C188.707 168.629 188.42 168.916 188.215 169.287C188.015 169.658 187.915 170.092 187.915 170.591H186.406C186.406 169.824 186.583 169.151 186.937 168.571C187.29 167.991 187.772 167.54 188.381 167.216C188.995 166.892 189.683 166.73 190.446 166.73C191.213 166.73 191.893 166.892 192.485 167.216C193.077 167.54 193.542 167.977 193.879 168.526C194.215 169.076 194.384 169.688 194.384 170.361C194.384 170.842 194.296 171.313 194.121 171.773C193.951 172.229 193.653 172.739 193.227 173.301C192.805 173.859 192.219 174.541 191.469 175.347L188.528 178.491V178.594H194.614V180H186.355ZM201.677 180.179C200.833 180.179 200.081 180.034 199.42 179.744C198.764 179.455 198.242 179.052 197.854 178.536C197.471 178.016 197.262 177.413 197.228 176.727H198.839C198.873 177.149 199.018 177.513 199.273 177.82C199.529 178.123 199.864 178.357 200.277 178.523C200.69 178.69 201.148 178.773 201.651 178.773C202.214 178.773 202.712 178.675 203.147 178.479C203.582 178.283 203.923 178.01 204.17 177.661C204.417 177.311 204.54 176.906 204.54 176.446C204.54 175.964 204.421 175.54 204.183 175.174C203.944 174.803 203.594 174.513 203.134 174.305C202.674 174.096 202.112 173.991 201.447 173.991H200.398V172.585H201.447C201.967 172.585 202.423 172.491 202.815 172.304C203.211 172.116 203.52 171.852 203.741 171.511C203.967 171.17 204.08 170.77 204.08 170.31C204.08 169.866 203.982 169.481 203.786 169.153C203.59 168.825 203.313 168.569 202.955 168.386C202.602 168.202 202.184 168.111 201.702 168.111C201.251 168.111 200.825 168.194 200.424 168.36C200.028 168.522 199.704 168.759 199.452 169.07C199.201 169.376 199.065 169.747 199.043 170.182H197.509C197.535 169.496 197.741 168.895 198.129 168.379C198.517 167.859 199.024 167.455 199.651 167.165C200.281 166.875 200.974 166.73 201.728 166.73C202.538 166.73 203.232 166.894 203.812 167.222C204.391 167.546 204.837 167.974 205.148 168.507C205.459 169.04 205.614 169.615 205.614 170.233C205.614 170.97 205.42 171.599 205.033 172.119C204.649 172.638 204.127 172.999 203.467 173.199V173.301C204.293 173.437 204.939 173.789 205.403 174.356C205.868 174.918 206.1 175.615 206.1 176.446C206.1 177.158 205.906 177.797 205.518 178.364C205.135 178.926 204.611 179.369 203.946 179.693C203.281 180.017 202.525 180.179 201.677 180.179Z" fill="#FF5C5C"/>
<path d="M-10.0426 76.9091V90H-11.6278V78.571H-11.7045L-14.9006 80.6932V79.0824L-11.6278 76.9091H-10.0426ZM-1.8544 90.179C-2.69815 90.179 -3.45028 90.0341 -4.1108 89.7443C-4.76705 89.4545 -5.28906 89.0518 -5.67685 88.5362C-6.06037 88.0163 -6.26918 87.4134 -6.30327 86.7273H-4.69247C-4.65838 87.1491 -4.51349 87.5135 -4.25781 87.8203C-4.00213 88.1229 -3.66761 88.3572 -3.25426 88.5234C-2.84091 88.6896 -2.38281 88.7727 -1.87997 88.7727C-1.31747 88.7727 -0.818892 88.6747 -0.384233 88.4787C0.0504264 88.2827 0.391335 88.0099 0.638495 87.6605C0.885654 87.3111 1.00923 86.9062 1.00923 86.446C1.00923 85.9645 0.889915 85.5405 0.651279 85.174C0.412642 84.8033 0.0632107 84.5135 -0.397017 84.3047C-0.857244 84.0959 -1.41974 83.9915 -2.08452 83.9915H-3.13281V82.5852H-2.08452C-1.56463 82.5852 -1.10866 82.4915 -0.716619 82.304C-0.320312 82.1165 -0.0113635 81.8523 0.210227 81.5114C0.43608 81.1705 0.549006 80.7699 0.549006 80.3097C0.549006 79.8665 0.450995 79.4808 0.254972 79.1527C0.058949 78.8246 -0.21804 78.5689 -0.575994 78.3857C-0.929687 78.2024 -1.3473 78.1108 -1.82884 78.1108C-2.28054 78.1108 -2.70668 78.1939 -3.10724 78.3601C-3.50355 78.522 -3.82741 78.7585 -4.07884 79.0696C-4.33026 79.3764 -4.46662 79.7472 -4.48793 80.1818H-6.02202C-5.99645 79.4957 -5.78977 78.8949 -5.40199 78.3793C-5.0142 77.8594 -4.5071 77.4545 -3.88068 77.1648C-3.25 76.875 -2.55753 76.7301 -1.80327 76.7301C-0.993608 76.7301 -0.299005 76.8942 0.28054 77.2223C0.860085 77.5462 1.3054 77.9744 1.61648 78.5071C1.92756 79.0398 2.0831 79.6151 2.0831 80.233C2.0831 80.9702 1.8892 81.5987 1.50142 82.1186C1.1179 82.6385 0.595881 82.9986 -0.0646304 83.1989V83.3011C0.762074 83.4375 1.40767 83.7891 1.87216 84.3558C2.33665 84.9183 2.56889 85.6151 2.56889 86.446C2.56889 87.1577 2.375 87.7969 1.98722 88.3636C1.60369 88.9261 1.07955 89.3693 0.414773 89.6932C-0.25 90.017 -1.00639 90.179 -1.8544 90.179Z" fill="black"/>
<path d="M-14.6449 180V178.849L-10.3239 174.119C-9.81676 173.565 -9.39915 173.084 -9.07102 172.675C-8.7429 172.261 -8.5 171.874 -8.34233 171.511C-8.1804 171.145 -8.09943 170.761 -8.09943 170.361C-8.09943 169.901 -8.21023 169.502 -8.43182 169.165C-8.64915 168.829 -8.94744 168.569 -9.3267 168.386C-9.70597 168.202 -10.1321 168.111 -10.6051 168.111C-11.108 168.111 -11.5469 168.215 -11.9219 168.424C-12.2926 168.629 -12.5803 168.916 -12.7848 169.287C-12.9851 169.658 -13.0852 170.092 -13.0852 170.591H-14.5938C-14.5938 169.824 -14.4169 169.151 -14.0632 168.571C-13.7095 167.991 -13.228 167.54 -12.6186 167.216C-12.005 166.892 -11.3168 166.73 -10.554 166.73C-9.78693 166.73 -9.10724 166.892 -8.51491 167.216C-7.92258 167.54 -7.4581 167.977 -7.12145 168.526C-6.7848 169.076 -6.61648 169.688 -6.61648 170.361C-6.61648 170.842 -6.70384 171.313 -6.87855 171.773C-7.04901 172.229 -7.3473 172.739 -7.77344 173.301C-8.19531 173.859 -8.78125 174.541 -9.53125 175.347L-12.4716 178.491V178.594H-6.38636V180H-14.6449ZM0.523438 180.179C-0.439631 180.179 -1.25994 179.917 -1.9375 179.393C-2.61506 178.864 -3.13281 178.099 -3.49077 177.098C-3.84872 176.092 -4.0277 174.878 -4.0277 173.455C-4.0277 172.04 -3.84872 170.832 -3.49077 169.83C-3.12855 168.825 -2.60866 168.058 -1.93111 167.529C-1.24929 166.996 -0.431108 166.73 0.523438 166.73C1.47798 166.73 2.29403 166.996 2.97159 167.529C3.65341 168.058 4.1733 168.825 4.53125 169.83C4.89347 170.832 5.07457 172.04 5.07457 173.455C5.07457 174.878 4.8956 176.092 4.53764 177.098C4.17969 178.099 3.66193 178.864 2.98438 179.393C2.30682 179.917 1.48651 180.179 0.523438 180.179ZM0.523438 178.773C1.47798 178.773 2.21946 178.312 2.74787 177.392C3.27628 176.472 3.54048 175.159 3.54048 173.455C3.54048 172.321 3.41903 171.356 3.17614 170.559C2.9375 169.762 2.59233 169.155 2.14062 168.737C1.69318 168.32 1.15412 168.111 0.523438 168.111C-0.422585 168.111 -1.16193 168.577 -1.6946 169.511C-2.22727 170.44 -2.49361 171.754 -2.49361 173.455C-2.49361 174.588 -2.37429 175.551 -2.13565 176.344C-1.89702 177.136 -1.55398 177.739 -1.10653 178.153C-0.65483 178.566 -0.111506 178.773 0.523438 178.773Z" fill="black"/>
<circle cx="112" cy="108" r="6" fill="#DDEFFF"/>
<circle cx="112" cy="196" r="6" fill="#DDEFFF"/>
<circle cx="45" cy="196" r="6" fill="#DDEFFF"/>
<circle cx="112" cy="126" r="6" fill="#EAE4F5"/>
<circle cx="128" cy="108" r="6" fill="#FFF0DD"/>
<circle cx="45" cy="108" r="6" fill="#FFF0DD"/>
<circle cx="128" cy="196" r="6" fill="#FFF0DD"/>
<circle cx="177" cy="108" r="6" fill="#DFEFDE"/>
<circle cx="144" cy="108" r="6" fill="#FFDFDD"/>
<circle cx="61" cy="196" r="6" fill="#FFDFDD"/>
<circle cx="193" cy="108" r="6" fill="#FAFAEA"/>
</g>
<defs>
<clipPath id="clip0_43_455">
<rect width="242" height="216" rx="6" fill="white"/>
</clipPath>
</defs>
</svg>
