<svg width="253" height="200" viewBox="0 0 253 200" fill="none" xmlns="http://www.w3.org/2000/svg">
<rect x="0.15" y="0.15" width="252.7" height="199.7" rx="5.85" fill="#F9FAFB"/>
<rect x="0.15" y="0.15" width="252.7" height="199.7" rx="5.85" stroke="#DADADA" stroke-width="0.3"/>
<rect x="14.15" y="101.15" width="224.7" height="89.7" rx="11.85" fill="white" stroke="#DADADA" stroke-width="0.3"/>
<rect x="14.15" y="27.15" width="224.7" height="34.7" rx="9.85" stroke="#DADADA" stroke-width="0.3"/>
<path d="M28.5312 122L28.5234 121.484L30.4531 119.453C31.125 118.742 31.4453 118.359 31.4453 117.836C31.4453 117.258 30.9531 116.875 30.3203 116.875C29.6484 116.875 29.2188 117.305 29.2188 117.938H28.5547C28.5469 116.938 29.3203 116.266 30.3438 116.266C31.3672 116.266 32.1016 116.953 32.1016 117.836C32.1016 118.469 31.8047 118.961 30.8047 119.992L29.5078 121.328V121.375H32.2031V122H28.5312ZM35.0781 122.078C33.8203 122.078 33.1016 121.023 33.1016 119.172C33.1016 117.336 33.8359 116.266 35.0781 116.266C36.3203 116.266 37.0547 117.336 37.0547 119.172C37.0547 121.023 36.3281 122.078 35.0781 122.078ZM35.0781 121.453C35.8906 121.453 36.3672 120.633 36.3672 119.172C36.3672 117.711 35.8906 116.875 35.0781 116.875C34.2656 116.875 33.7812 117.711 33.7812 119.172C33.7812 120.633 34.2578 121.453 35.0781 121.453ZM37.9922 122L37.9844 121.484L39.9141 119.453C40.5859 118.742 40.9062 118.359 40.9062 117.836C40.9062 117.258 40.4141 116.875 39.7812 116.875C39.1094 116.875 38.6797 117.305 38.6797 117.938H38.0156C38.0078 116.938 38.7812 116.266 39.8047 116.266C40.8281 116.266 41.5625 116.953 41.5625 117.836C41.5625 118.469 41.2656 118.961 40.2656 119.992L38.9688 121.328V121.375H41.6641V122H37.9922ZM44.5312 122.078C43.5078 122.078 42.7344 121.445 42.6953 120.578H43.375C43.4297 121.086 43.9219 121.461 44.5312 121.461C45.2656 121.461 45.7969 120.922 45.7969 120.211C45.7969 119.477 45.2422 118.938 44.4844 118.93C44.0078 118.922 43.6406 119.07 43.4297 119.438H42.75L43.1484 116.344H46.2109V116.969H43.7344L43.5234 118.625H43.5781C43.8281 118.43 44.2109 118.297 44.6094 118.297C45.6875 118.297 46.4844 119.094 46.4844 120.195C46.4844 121.289 45.6562 122.078 44.5312 122.078ZM49.8984 118.867V119.484H47.4219V118.867H49.8984ZM52.7734 122.078C51.5156 122.078 50.7969 121.023 50.7969 119.172C50.7969 117.336 51.5312 116.266 52.7734 116.266C54.0156 116.266 54.75 117.336 54.75 119.172C54.75 121.023 54.0234 122.078 52.7734 122.078ZM52.7734 121.453C53.5859 121.453 54.0625 120.633 54.0625 119.172C54.0625 117.711 53.5859 116.875 52.7734 116.875C51.9609 116.875 51.4766 117.711 51.4766 119.172C51.4766 120.633 51.9531 121.453 52.7734 121.453ZM57.5781 122.078C56.3906 122.078 55.5625 121.422 55.5703 120.5C55.5625 119.766 56.0703 119.164 56.7188 119.062V119.031C56.1562 118.898 55.7891 118.383 55.7891 117.766C55.7891 116.898 56.5469 116.266 57.5781 116.266C58.6094 116.266 59.3672 116.898 59.375 117.766C59.3672 118.383 58.9922 118.898 58.4375 119.031V119.062C59.0781 119.164 59.5859 119.766 59.5938 120.5C59.5859 121.422 58.7578 122.078 57.5781 122.078ZM57.5781 121.461C58.3906 121.461 58.8906 121.055 58.8906 120.461C58.8906 119.836 58.3359 119.375 57.5781 119.375C56.8203 119.375 56.2578 119.836 56.2734 120.461C56.2578 121.055 56.7656 121.461 57.5781 121.461ZM57.5781 118.781C58.2188 118.781 58.6875 118.391 58.6875 117.82C58.6875 117.258 58.2422 116.875 57.5781 116.875C56.9062 116.875 56.4688 117.258 56.4688 117.82C56.4688 118.391 56.9297 118.781 57.5781 118.781ZM62.9766 118.867V119.484H60.5V118.867H62.9766ZM66 116.344V122H65.2891V117.078H65.2578L63.8828 117.992V117.281L65.2891 116.344H66ZM69.4766 122.078C68.4922 122.062 67.4141 121.484 67.4141 119.391C67.4141 117.391 68.2344 116.266 69.5625 116.266C70.5547 116.266 71.25 116.875 71.3984 117.766H70.7031C70.5703 117.266 70.1953 116.891 69.5625 116.891C68.6328 116.891 68.0781 117.688 68.0781 119.047H68.1484C68.4766 118.578 68.9922 118.297 69.6016 118.297C70.6094 118.297 71.4453 119.078 71.4453 120.172C71.4453 121.234 70.6641 122.086 69.4766 122.078ZM69.4766 121.461C70.2109 121.461 70.7578 120.883 70.7656 120.18C70.7578 119.484 70.2344 118.914 69.4922 118.914C68.75 118.914 68.1797 119.516 68.1719 120.188C68.1719 120.852 68.7188 121.461 69.4766 121.461Z" fill="#A0A0A0"/>
<path d="M165.641 122L165.898 120.438H164.477L164.219 122H163.648L163.906 120.438H163.07L163.164 119.875H164L164.234 118.469H163.406L163.492 117.906H164.32L164.578 116.344H165.148L164.891 117.906H166.312L166.57 116.344H167.141L166.883 117.906H167.727L167.633 118.469H166.797L166.562 119.875H167.391L167.297 120.438H166.469L166.211 122H165.641ZM164.57 119.875H165.992L166.227 118.469H164.805L164.57 119.875ZM170.328 116.344V122H169.617V117.078H169.586L168.211 117.992V117.281L169.617 116.344H170.328ZM171.836 122L171.828 121.484L173.758 119.453C174.43 118.742 174.75 118.359 174.75 117.836C174.75 117.258 174.258 116.875 173.625 116.875C172.953 116.875 172.523 117.305 172.523 117.938H171.859C171.852 116.938 172.625 116.266 173.648 116.266C174.672 116.266 175.406 116.953 175.406 117.836C175.406 118.469 175.109 118.961 174.109 119.992L172.812 121.328V121.375H175.508V122H171.836ZM176.711 122L179.305 117.008V116.969H176.312V116.344H180.031V117L177.445 122H176.711ZM182.789 122.078C181.805 122.062 180.727 121.484 180.727 119.391C180.727 117.391 181.547 116.266 182.875 116.266C183.867 116.266 184.562 116.875 184.711 117.766H184.016C183.883 117.266 183.508 116.891 182.875 116.891C181.945 116.891 181.391 117.688 181.391 119.047H181.461C181.789 118.578 182.305 118.297 182.914 118.297C183.922 118.297 184.758 119.078 184.758 120.172C184.758 121.234 183.977 122.086 182.789 122.078ZM182.789 121.461C183.523 121.461 184.07 120.883 184.078 120.18C184.07 119.484 183.547 118.914 182.805 118.914C182.062 118.914 181.492 119.516 181.484 120.188C181.484 120.852 182.031 121.461 182.789 121.461ZM187.57 122.078C186.547 122.078 185.773 121.445 185.734 120.578H186.414C186.469 121.086 186.961 121.461 187.57 121.461C188.305 121.461 188.836 120.922 188.836 120.211C188.836 119.477 188.281 118.938 187.523 118.93C187.047 118.922 186.68 119.07 186.469 119.438H185.789L186.188 116.344H189.25V116.969H186.773L186.562 118.625H186.617C186.867 118.43 187.25 118.297 187.648 118.297C188.727 118.297 189.523 119.094 189.523 120.195C189.523 121.289 188.695 122.078 187.57 122.078ZM190.359 120.844V120.266L192.906 116.344H193.773V120.227H194.562V120.844H193.773V122H193.102V120.844H190.359ZM191.117 120.227H193.102V117.234H193.031L191.117 120.18V120.227ZM195.672 122L198.266 117.008V116.969H195.273V116.344H198.992V117L196.406 122H195.672ZM201.727 122.078C200.602 122.078 199.797 121.477 199.758 120.578H200.469C200.508 121.117 201.047 121.453 201.719 121.453C202.461 121.453 203.008 121.047 203.008 120.461C203.008 119.844 202.516 119.406 201.633 119.406H201.172V118.789H201.633C202.32 118.789 202.797 118.406 202.797 117.82C202.797 117.258 202.383 116.875 201.742 116.875C201.141 116.875 200.586 117.211 200.555 117.766H199.875C199.914 116.867 200.742 116.266 201.75 116.266C202.828 116.266 203.484 116.969 203.477 117.781C203.484 118.422 203.109 118.898 202.516 119.062V119.102C203.25 119.219 203.703 119.742 203.695 120.461C203.703 121.391 202.852 122.078 201.727 122.078ZM206.602 122.078C205.414 122.078 204.586 121.422 204.594 120.5C204.586 119.766 205.094 119.164 205.742 119.062V119.031C205.18 118.898 204.812 118.383 204.812 117.766C204.812 116.898 205.57 116.266 206.602 116.266C207.633 116.266 208.391 116.898 208.398 117.766C208.391 118.383 208.016 118.898 207.461 119.031V119.062C208.102 119.164 208.609 119.766 208.617 120.5C208.609 121.422 207.781 122.078 206.602 122.078ZM206.602 121.461C207.414 121.461 207.914 121.055 207.914 120.461C207.914 119.836 207.359 119.375 206.602 119.375C205.844 119.375 205.281 119.836 205.297 120.461C205.281 121.055 205.789 121.461 206.602 121.461ZM206.602 118.781C207.242 118.781 207.711 118.391 207.711 117.82C207.711 117.258 207.266 116.875 206.602 116.875C205.93 116.875 205.492 117.258 205.492 117.82C205.492 118.391 205.953 118.781 206.602 118.781ZM209.422 120.844V120.266L211.969 116.344H212.836V120.227H213.625V120.844H212.836V122H212.164V120.844H209.422ZM210.18 120.227H212.164V117.234H212.094L210.18 120.18V120.227ZM214.734 122L217.328 117.008V116.969H214.336V116.344H218.055V117L215.469 122H214.734ZM220.734 122.078C219.711 122.078 218.938 121.445 218.898 120.578H219.578C219.633 121.086 220.125 121.461 220.734 121.461C221.469 121.461 222 120.922 222 120.211C222 119.477 221.445 118.938 220.688 118.93C220.211 118.922 219.844 119.07 219.633 119.438H218.953L219.352 116.344H222.414V116.969H219.938L219.727 118.625H219.781C220.031 118.43 220.414 118.297 220.812 118.297C221.891 118.297 222.688 119.094 222.688 120.195C222.688 121.289 221.859 122.078 220.734 122.078Z" fill="#A0A0A0"/>
<path d="M18.9277 10.2451V13.9297H20.4209V14.9072H18.9277V19.9668H17.7354V10.2451H18.9277ZM16.2637 11.1689V12.1357H12.9121V16.5938C14.4214 16.5938 15.6138 16.5186 16.9512 16.2822L17.0908 17.292C15.5869 17.5498 14.2764 17.5928 12.5254 17.5928H11.7197V11.1689H16.2637ZM28.9072 10.2451V19.9668H27.7041V10.2451H28.9072ZM23.6758 10.9541C25.1367 10.9541 26.2002 12.2861 26.2109 14.3809C26.2002 16.4971 25.1367 17.8184 23.6758 17.8184C22.2041 17.8184 21.1406 16.4971 21.1406 14.3809C21.1406 12.2861 22.2041 10.9541 23.6758 10.9541ZM23.6758 12.0283C22.8486 12.0283 22.29 12.8984 22.29 14.3809C22.29 15.874 22.8486 16.7441 23.6758 16.7441C24.4922 16.7441 25.0508 15.874 25.0508 14.3809C25.0508 12.8984 24.4922 12.0283 23.6758 12.0283ZM32.9893 10.9541C34.3052 10.9541 35.2773 12.0498 35.4492 13.8223H37.2969V10.2451H38.4785V19.9668H37.2969V14.7891H35.46C35.3311 16.6636 34.3428 17.8184 32.9893 17.8184C31.5283 17.8184 30.4971 16.4971 30.4971 14.3809C30.4971 12.2861 31.5283 10.9541 32.9893 10.9541ZM32.9893 12.0283C32.1836 12.0283 31.6357 12.8984 31.6465 14.3809C31.6357 15.874 32.1836 16.7441 32.9893 16.7441C33.7949 16.7441 34.332 15.874 34.3428 14.3809C34.332 12.8984 33.7949 12.0283 32.9893 12.0283ZM47.9316 10.2451V19.9668H46.75V10.2451H47.9316ZM44.9453 11.0938V14.7354H41.6045V16.6904C43.1353 16.6797 44.4565 16.6045 45.9658 16.3467L46.0732 17.3242C44.4189 17.6143 42.9688 17.668 41.2285 17.668H40.3799V13.79H43.7314V12.0605H40.3691V11.0938H44.9453Z" fill="black"/>
<path d="M14.0723 80.5566C15.5439 80.5566 16.6396 81.4697 16.6504 82.748C16.6396 84.0371 15.5439 84.9395 14.0723 84.9395C12.5898 84.9395 11.4941 84.0371 11.4941 82.748C11.4941 81.4697 12.5898 80.5566 14.0723 80.5566ZM14.0723 81.5449C13.2559 81.5449 12.6543 82.0068 12.6543 82.748C12.6543 83.5 13.2559 83.9727 14.0723 83.9727C14.8887 83.9727 15.4902 83.5 15.4902 82.748C15.4902 82.0068 14.8887 81.5449 14.0723 81.5449ZM19.4111 80.2451V85.1543H18.208V80.2451H19.4111ZM19.4111 85.5732V88.1084H14.1582V88.8926H19.7012V89.8379H12.9873V87.2275H18.2188V86.5078H12.9658V85.5732H19.4111ZM28.9395 80.2451V89.9561H27.7363V80.2451H28.9395ZM26.0391 81.2764C26.0391 84.166 24.9219 86.626 21.5166 88.2373L20.8936 87.2812C23.4341 86.0728 24.6157 84.4292 24.8252 82.2217H21.3877V81.2764H26.0391ZM41.0566 80.2451V89.9561H39.8535V80.2451H41.0566ZM38.6934 81.1904V82.168H37.7588V86.5186C38.2261 86.4863 38.6826 86.4434 39.123 86.3896L39.1875 87.2812C37.1035 87.6143 34.8262 87.6572 33.043 87.6572L32.9248 86.6797L34.1279 86.6689V82.168H33.1826V81.1904H38.6934ZM35.2773 86.6367C35.707 86.6313 36.1475 86.6152 36.5879 86.5938V82.168H35.2773V86.6367ZM50.3379 84.7998V85.7559H43.5273V81.0938H50.2627V82.0605H44.709V84.7998H50.3379ZM51.3262 87.7324V88.7207H42.4531V87.7324H51.3262Z" fill="black"/>
<path d="M100.812 47.5938V45.6992H98.9277V45.2305H100.812V43.3359H101.281V45.2305H103.176V45.6992H101.281V47.5938H100.812ZM109.25 43.7852C109.25 45.1426 110.109 46.627 111.213 47.2324L110.91 47.5938C110.051 47.0957 109.343 46.0996 109.035 44.9766C108.728 46.1924 107.985 47.2568 107.102 47.7891L106.779 47.4375C107.912 46.8027 108.801 45.2793 108.811 43.8047V42.0273H109.25V43.7852ZM114.113 41.1777V49.7324H113.654V45.1035H112.189V49.2637H111.73V41.3926H112.189V44.6934H113.654V41.1777H114.113ZM120.217 41.5391C121.486 41.5391 122.385 42.291 122.395 43.3945C122.385 44.498 121.486 45.2402 120.217 45.2402C118.947 45.2402 118.039 44.498 118.049 43.3945C118.039 42.291 118.947 41.5391 120.217 41.5391ZM120.217 41.9395C119.23 41.9395 118.498 42.5645 118.508 43.3945C118.498 44.2246 119.23 44.8496 120.217 44.8398C121.203 44.8496 121.936 44.2246 121.936 43.3945C121.936 42.5645 121.203 41.9395 120.217 41.9395ZM124.807 41.1777V45.6309H124.338V41.1777H124.807ZM124.807 46.0898V47.9746H119.826V49.1953H125.148V49.5957H119.377V47.6035H124.338V46.4902H119.348V46.0898H124.807ZM133.439 41.1777V49.7324H132.98V41.1777H133.439ZM130.92 42.125C130.92 44.498 129.621 46.6855 126.867 48.0234L126.613 47.6328C128.986 46.5 130.319 44.6494 130.451 42.5254H126.965V42.125H130.92ZM140.139 42.8574C140.139 44.0781 141.135 45.123 142.316 45.543L142.082 45.9141C141.101 45.5479 140.266 44.791 139.924 43.8145C139.582 44.8887 138.698 45.6992 137.697 46.0898L137.434 45.7285C138.635 45.2793 139.689 44.1855 139.689 42.8672V42.2422H137.619V41.8418H142.199V42.2422H140.139V42.8574ZM144.035 41.1777V43.5605H145.402V43.9707H144.035V46.3242H143.576V41.1777H144.035ZM144.035 46.832V49.7324H143.576V47.2422H138.547V46.832H144.035ZM148.801 42.6426C148.791 43.9121 149.846 44.9961 151.037 45.416L150.754 45.7871C149.797 45.4014 148.942 44.6445 148.586 43.6484C148.249 44.7715 147.37 45.6211 146.35 46.041L146.096 45.6406C147.307 45.1914 148.352 44.0586 148.352 42.6523V41.6855H148.801V42.6426ZM153.059 41.1777V46.2754H152.6V43.5703H150.5V43.1699H152.6V41.1777H153.059ZM150.285 46.5391C152.023 46.5391 153.098 47.1152 153.098 48.1309C153.098 49.127 152.023 49.6934 150.285 49.6934C148.527 49.6934 147.463 49.127 147.473 48.1309C147.463 47.1152 148.527 46.5391 150.285 46.5391ZM150.285 46.9297C148.859 46.9297 147.922 47.3984 147.922 48.1309C147.922 48.8438 148.859 49.3027 150.285 49.3027C151.701 49.3027 152.639 48.8438 152.639 48.1309C152.639 47.3984 151.701 46.9297 150.285 46.9297Z" fill="#4E4E4E"/>
<rect x="218.15" y="75.15" width="20.7" height="20.7" rx="5.85" stroke="#DADADA" stroke-width="0.3"/>
<path d="M225.292 88.7083H225.945L230.425 84.2281L229.772 83.575L225.292 88.0552V88.7083ZM224.833 89.625C224.703 89.625 224.595 89.581 224.507 89.493C224.419 89.405 224.375 89.2962 224.375 89.1667V88.0552C224.375 87.933 224.398 87.8164 224.444 87.7055C224.49 87.5946 224.555 87.4973 224.639 87.4135L230.425 81.6385C230.517 81.5545 230.618 81.4896 230.729 81.4438C230.84 81.3979 230.956 81.375 231.078 81.375C231.2 81.375 231.318 81.3979 231.433 81.4438C231.548 81.4896 231.648 81.5583 231.731 81.65L232.361 82.2917C232.453 82.3757 232.52 82.475 232.562 82.5896C232.604 82.7042 232.625 82.8188 232.625 82.9333C232.625 83.0556 232.604 83.1721 232.562 83.283C232.52 83.394 232.453 83.4951 232.361 83.5865L226.586 89.3615C226.502 89.4455 226.405 89.5104 226.294 89.5563C226.183 89.6021 226.067 89.625 225.945 89.625H224.833ZM230.093 83.9073L229.772 83.575L230.425 84.2281L230.093 83.9073Z" fill="black"/>
<path d="M32.3066 131.178C34.2793 131.178 35.4316 131.715 35.4316 132.682C35.4316 133.658 34.2793 134.195 32.3066 134.195C30.334 134.195 29.1816 133.658 29.1816 132.682C29.1816 131.715 30.334 131.178 32.3066 131.178ZM32.3066 131.871C30.9102 131.881 30.1387 132.164 30.1484 132.682C30.1387 133.229 30.9102 133.502 32.3066 133.502C33.7031 133.502 34.4746 133.229 34.4746 132.682C34.4746 132.164 33.7031 131.881 32.3066 131.871ZM36.3008 134.713V135.445H32.7656V136.197H35.2949V138.248H30.1973V139.029H35.5391V139.742H29.2891V137.574H34.377V136.891H29.2793V136.197H31.8379V135.445H28.3223V134.713H36.3008ZM38.9473 131.783C40.0996 131.773 40.8516 132.965 40.8516 134.859C40.8516 136.754 40.0996 137.955 38.9473 137.945C37.8047 137.955 37.0625 136.754 37.0625 134.859C37.0625 132.965 37.8047 131.773 38.9473 131.783ZM38.9473 132.652C38.3125 132.652 37.9219 133.463 37.9219 134.859C37.9219 136.256 38.3125 137.066 38.9473 137.066C39.5918 137.066 39.9922 136.256 39.9922 134.859C39.9922 133.463 39.5918 132.652 38.9473 132.652ZM44.4941 131.08V139.83H43.6055V135.27H42.5215V139.4H41.6426V131.246H42.5215V134.508H43.6055V131.08H44.4941ZM52.8828 131.08V139.83H51.9453V131.08H52.8828ZM50.2754 132.018C50.2754 134.576 49.1816 136.803 46.1836 138.238L45.6953 137.486C48.0244 136.378 49.1572 134.801 49.3379 132.76H46.1152V132.018H50.2754ZM64.6895 136.021V136.783H62.6582V139.83H61.7207V136.783H59.6309V139.83H58.6738V136.783H56.6816V136.021H64.6895ZM60.666 131.412C62.5117 131.412 63.7812 132.164 63.7812 133.346C63.7812 134.508 62.5117 135.25 60.666 135.24C58.8105 135.25 57.5508 134.508 57.5508 133.346C57.5508 132.164 58.8105 131.412 60.666 131.412ZM60.666 132.154C59.3672 132.164 58.498 132.613 58.5078 133.346C58.498 134.059 59.3672 134.508 60.666 134.508C61.9648 134.508 62.834 134.059 62.834 133.346C62.834 132.613 61.9648 132.164 60.666 132.154ZM72.5801 131.08V139.83H71.6523V131.08H72.5801ZM68.625 133.893C68.625 135.289 69.5527 136.715 70.9102 137.291L70.4023 138.004C69.3965 137.564 68.5908 136.656 68.1855 135.553C67.79 136.72 66.999 137.691 65.9785 138.15L65.4609 137.438C66.8184 136.832 67.7168 135.357 67.7168 133.893V133.316H65.7246V132.574H67.707V131.256H68.625V132.574H70.5879V133.316H68.625V133.893ZM83.5078 131.08V134.439H84.6016V135.221H83.5078V139.83H82.5898V131.08H83.5078ZM77.3359 131.881V134.068H78.2637V131.881H79.0352V137.74H76.5645V131.881H77.3359ZM77.3359 136.969H78.2637V134.811H77.3359V136.969ZM80.2363 131.881V134.068H81.1445V131.881H81.916V137.74H79.4648V131.881H80.2363ZM80.2363 136.969H81.1445V134.811H80.2363V136.969ZM88.3027 132.906C88.3027 134.039 89.1426 135.104 90.4902 135.533L90.0117 136.256C89.0059 135.924 88.2441 135.235 87.8535 134.361C87.458 135.313 86.6816 136.065 85.6367 136.432L85.1582 135.699C86.5156 135.24 87.3555 134.107 87.3652 132.906V132.525H85.4023V131.773H90.2266V132.525H88.3027V132.906ZM92.3164 131.09V137.477H91.3887V131.09H92.3164ZM92.5801 138.893V139.645H86.5938V136.871H87.5312V138.893H92.5801ZM103.02 131.08V132.838H104.289V133.619H103.02V135.465H102.092V131.08H103.02ZM97.4727 131.471V134.322C98.6494 134.312 99.8896 134.22 101.232 133.951L101.35 134.723C99.875 135.016 98.5469 135.104 97.2578 135.104H96.5449V131.471H97.4727ZM103.02 135.865V138.092H98.3027V138.971H103.322V139.723H97.3848V137.379H102.092V136.598H97.3652V135.865H103.02ZM106.398 131.93L106.311 136.959H105.344L105.256 131.93H106.398ZM105.832 139.068C105.451 139.068 105.129 138.756 105.139 138.375C105.129 137.994 105.451 137.682 105.832 137.682C106.203 137.682 106.525 137.994 106.525 138.375C106.525 138.756 106.203 139.068 105.832 139.068ZM109.133 131.93L109.045 136.959H108.078L107.99 131.93H109.133ZM108.566 139.068C108.186 139.068 107.863 138.756 107.873 138.375C107.863 137.994 108.186 137.682 108.566 137.682C108.938 137.682 109.26 137.994 109.26 138.375C109.26 138.756 108.938 139.068 108.566 139.068Z" fill="black"/>
<path d="M31.4375 152.203C32.8984 152.203 33.9375 152.906 33.9375 153.977C33.9375 154.992 33.0156 155.66 31.6875 155.734V157.273H34.6172V157.695H28.3047V157.273H31.1953V155.734C29.8711 155.664 28.9453 154.992 28.9453 153.977C28.9453 152.906 29.9844 152.203 31.4375 152.203ZM31.4375 152.609C30.2734 152.609 29.4141 153.164 29.4141 153.977C29.4141 154.789 30.2734 155.344 31.4375 155.344C32.6016 155.344 33.4688 154.789 33.4688 153.977C33.4688 153.164 32.6016 152.609 31.4375 152.609ZM40.7734 153.461V153.875H36.0938V151.836H36.5703V153.461H40.7734ZM41.5156 154.625V155.039H35.2109V154.625H41.5156ZM40.6953 155.727V157.266H36.5312V158.109H40.9453V158.508H36.0391V156.883H40.2109V156.125H36.0234V155.727H40.6953ZM49.6875 151.719V155.805H49.1953V155.367H47.75V155.008H49.1953V151.719H49.6875ZM44.0312 154.375C45.3672 154.383 47.0859 154.359 48.5859 154.188L48.6172 154.531C47.9258 154.625 47.1992 154.684 46.4922 154.719V155.812H46.0078V154.734C45.3242 154.762 44.6719 154.766 44.0938 154.766L44.0312 154.375ZM49.6875 156.07V157.445H45.6172V158.141H49.9453V158.523H45.1328V157.086H49.2031V156.438H45.1094V156.07H49.6875ZM47.8906 151.93V153.773H44.7031V151.93H47.8906ZM45.1953 152.305V153.398H47.4062V152.305H45.1953ZM58.5859 156.188V158.617H58.0938V156.586H53.9844V156.188H58.5859ZM58.5859 151.719V155.773H58.0938V153.891H56.3672V155.281H53.2422V152.234H56.3672V153.477H58.0938V151.719H58.5859ZM53.7266 152.648V154.867H55.8828V152.648H53.7266ZM65.2969 152.445V153.141C65.2891 153.984 65.2891 154.922 65.0469 156.281L64.5469 156.219C64.7969 154.922 64.7969 153.969 64.8047 153.141V152.859H60.5V152.445H65.2969ZM66.1016 157.164V157.586H59.8203V157.164H62.3516V154.672H62.8359V157.164H66.1016ZM69.0078 156.406C69.0078 157.035 69.3711 157.711 70.0547 158.078C70.7383 157.672 71.1172 156.949 71.1172 156.406V155.977H71.6016V156.406C71.5938 157.117 72.1641 157.836 73.0391 158.141L72.7891 158.516C72.0938 158.262 71.5859 157.762 71.3516 157.172C71.1445 157.738 70.7148 158.293 70.0703 158.57C69.3945 158.309 68.957 157.785 68.7578 157.195C68.5156 157.758 68.0195 158.258 67.3516 158.516L67.0938 158.141C67.9609 157.82 68.5312 157.062 68.5312 156.406V155.977H69.0078V156.406ZM72.3984 151.719V155.672H71.9062V151.719H72.3984ZM68.6953 152.141C69.7344 152.141 70.4766 152.781 70.4766 153.734C70.4766 154.68 69.7344 155.32 68.6953 155.32C67.6562 155.32 66.9062 154.68 66.9141 153.734C66.9062 152.781 67.6562 152.141 68.6953 152.141ZM68.6953 152.562C67.9375 152.562 67.3906 153.055 67.3906 153.734C67.3906 154.414 67.9375 154.906 68.6953 154.906C69.4531 154.906 70 154.414 70 153.734C70 153.055 69.4531 152.562 68.6953 152.562ZM75.4844 152.266C76.4258 152.266 77.0977 153.09 77.1797 154.398H78.8438V151.719H79.3281V158.617H78.8438V154.805H77.1875C77.1289 156.168 76.4492 157.031 75.4844 157.031C74.4766 157.031 73.7734 156.102 73.7812 154.648C73.7734 153.195 74.4766 152.266 75.4844 152.266ZM75.4844 152.703C74.75 152.703 74.25 153.5 74.25 154.648C74.25 155.805 74.75 156.594 75.4844 156.594C76.2109 156.594 76.7188 155.805 76.7188 154.648C76.7188 153.5 76.2109 152.703 75.4844 152.703ZM82.9219 153.664C82.9219 154.891 83.8203 156.148 84.7734 156.594L84.4766 157C83.6992 156.59 82.9883 155.719 82.6875 154.711C82.3828 155.773 81.6797 156.699 80.9062 157.125L80.5859 156.734C81.5391 156.25 82.4219 154.922 82.4297 153.664V152.336H82.9219V153.664ZM86.2422 151.719V158.617H85.7578V154.539H84.0234V154.125H85.7578V151.719H86.2422ZM95.7188 157.281V157.703H89.4062V157.281H92.2969V155.727H90.1719V152.219H90.6719V153.516H94.4375V152.219H94.9219V155.727H92.7891V157.281H95.7188ZM90.6719 155.312H94.4375V153.93H90.6719V155.312ZM101.961 151.719V158.609H101.477V151.719H101.961ZM97.2734 152.398V156.367H97.3359C98.4141 156.367 99.5 156.281 100.688 156.031L100.758 156.461C99.5312 156.719 98.4531 156.805 97.3359 156.805H96.7891V152.398H97.2734ZM108.664 151.719V154.609H109.758V155.023H108.664V158.609H108.18V151.719H108.664ZM105.336 152.477C105.328 154.039 104.906 155.703 103.648 157.016L103.242 156.734C104.324 155.652 104.797 154.262 104.875 152.898H103.438V152.477H105.336ZM107.227 152.477C107.219 154.008 106.953 155.977 105.648 157.477L105.234 157.203C106.367 155.957 106.711 154.297 106.758 152.898H105.547V152.477H107.227ZM118.375 155.672V156.086H116.656V158.609H116.164V156.086H114.273V158.609H113.766V156.086H112.07V155.672H118.375ZM115.211 152.008C116.648 152.008 117.609 152.586 117.609 153.5C117.609 154.406 116.648 154.977 115.211 154.977C113.773 154.977 112.812 154.406 112.812 153.5C112.812 152.586 113.773 152.008 115.211 152.008ZM115.211 152.414C114.086 152.414 113.312 152.852 113.312 153.5C113.312 154.148 114.086 154.57 115.211 154.57C116.328 154.57 117.109 154.148 117.109 153.5C117.109 152.852 116.328 152.414 115.211 152.414ZM124.648 151.719V158.609H124.156V151.719H124.648ZM121.484 153.984C121.484 155.195 122.375 156.312 123.375 156.742L123.086 157.133C122.297 156.766 121.574 155.996 121.258 155.031C120.953 156.047 120.242 156.867 119.453 157.25L119.164 156.875C120.148 156.414 121.008 155.25 121.008 153.984V153.344H119.336V152.938H121V151.828H121.492V152.938H123.141V153.344H121.484V153.984ZM128.211 156.414C128.203 157.051 128.566 157.727 129.25 158.094C129.941 157.688 130.312 156.949 130.32 156.414V155.883H130.797V156.414C130.797 157.117 131.352 157.852 132.242 158.148L131.977 158.531C131.285 158.27 130.781 157.77 130.555 157.18C130.34 157.742 129.91 158.305 129.266 158.586C128.594 158.324 128.16 157.797 127.961 157.203C127.711 157.77 127.219 158.273 126.547 158.531L126.305 158.148C127.164 157.836 127.727 157.07 127.734 156.414V155.883H128.211V156.414ZM127.797 152.109C128.383 152.109 128.883 152.336 129.203 152.719H131.094V151.719H131.586V155.68H131.094V154.695H129.227C128.914 155.094 128.398 155.328 127.797 155.328C126.773 155.328 126.031 154.68 126.031 153.727C126.031 152.773 126.773 152.109 127.797 152.109ZM127.797 152.531C127.047 152.531 126.5 153.039 126.508 153.727C126.5 154.406 127.047 154.906 127.797 154.914C128.531 154.906 129.078 154.406 129.078 153.727C129.078 153.039 128.531 152.531 127.797 152.531ZM129.445 153.133C129.516 153.312 129.555 153.512 129.555 153.727C129.555 153.926 129.52 154.113 129.461 154.281H131.094V153.133H129.445ZM138.125 151.719V154.5H139.312V154.914H138.125V158.617H137.633V151.719H138.125ZM133.664 156.445C134.977 156.445 135.867 156.398 136.914 156.203L136.984 156.633C135.898 156.828 135 156.875 133.664 156.875H133.133V152.398H136.344V152.812H133.625V156.445H133.664ZM140.727 152.344L140.688 156.383H140.164L140.125 152.344H140.727ZM140.43 158.039C140.195 158.039 140.008 157.852 140.008 157.625C140.008 157.391 140.195 157.203 140.43 157.203C140.656 157.203 140.844 157.391 140.844 157.625C140.844 157.852 140.656 158.039 140.43 158.039ZM149.32 151.719V158.617H148.828V151.719H149.32ZM145.68 152.266C146.695 152.266 147.422 153.195 147.422 154.648C147.422 156.102 146.695 157.031 145.68 157.031C144.656 157.031 143.938 156.102 143.938 154.648C143.938 153.195 144.656 152.266 145.68 152.266ZM145.68 152.703C144.938 152.703 144.414 153.5 144.414 154.648C144.414 155.805 144.938 156.594 145.68 156.594C146.422 156.594 146.938 155.805 146.938 154.648C146.938 153.5 146.422 152.703 145.68 152.703ZM156.086 151.719V153.289H157.023V153.711H156.086V155.391H155.609V151.719H156.086ZM151.242 152.062V153.094H152.172V152.062H152.602V154.969H150.812V152.062H151.242ZM151.242 154.57H152.172V153.492H151.242V154.57ZM153.523 152.062V153.094H154.461V152.062H154.883V154.969H153.094V152.062H153.523ZM153.523 154.57H154.461V153.492H153.523V154.57ZM156.086 155.703V157.25H152.133V158.109H156.352V158.523H151.656V156.867H155.609V156.109H151.633V155.703H156.086ZM164.883 151.719V154.453H165.898V154.883H164.883V158.609H164.391V151.719H164.883ZM160.023 152.359V154.203H161.039V152.359H161.469V156.914H159.594V152.359H160.023ZM160.023 156.492H161.039V154.609H160.023V156.492ZM162.305 152.359V154.203H163.281V152.359H163.711V156.914H161.875V152.359H162.305ZM162.305 156.492H163.281V154.609H162.305V156.492ZM168.75 153.227C168.75 154.195 169.562 155.031 170.562 155.359L170.305 155.75C169.5 155.469 168.816 154.879 168.516 154.109C168.223 154.938 167.539 155.582 166.719 155.898L166.453 155.5C167.453 155.141 168.25 154.242 168.258 153.227V152.734H166.586V152.32H170.406V152.734H168.75V153.227ZM172 151.719V156.797H171.508V151.719H172ZM172.227 158.031V158.445H167.602V156.305H168.094V158.031H172.227ZM178.109 152.305V152.727H176.008V154.906C176.984 154.906 177.691 154.871 178.523 154.703L178.57 155.117C177.688 155.289 176.969 155.328 175.945 155.328H175.516V152.305H178.109ZM181.016 151.719V155.992H180.547V154.023H179.453V155.781H178.984V151.852H179.453V153.602H180.547V151.719H181.016ZM178.758 156.07C180.18 156.078 181.047 156.539 181.047 157.336C181.047 158.133 180.18 158.586 178.758 158.586C177.328 158.586 176.461 158.133 176.461 157.336C176.461 156.539 177.328 156.078 178.758 156.07ZM178.758 156.477C177.648 156.477 176.945 156.797 176.953 157.336C176.945 157.859 177.648 158.188 178.758 158.188C179.867 158.188 180.555 157.859 180.562 157.336C180.555 156.797 179.867 156.477 178.758 156.477ZM185.023 152.305V152.727H182.922V154.906C183.898 154.906 184.605 154.871 185.438 154.703L185.484 155.117C184.602 155.289 183.883 155.328 182.859 155.328H182.43V152.305H185.023ZM187.93 151.719V155.992H187.461V154.023H186.367V155.781H185.898V151.852H186.367V153.602H187.461V151.719H187.93ZM185.672 156.07C187.094 156.078 187.961 156.539 187.961 157.336C187.961 158.133 187.094 158.586 185.672 158.586C184.242 158.586 183.375 158.133 183.375 157.336C183.375 156.539 184.242 156.078 185.672 156.07ZM185.672 156.477C184.562 156.477 183.859 156.797 183.867 157.336C183.859 157.859 184.562 158.188 185.672 158.188C186.781 158.188 187.469 157.859 187.477 157.336C187.469 156.797 186.781 156.477 185.672 156.477ZM194.664 151.719V158.617H194.172V151.719H194.664ZM191.023 152.266C192.039 152.266 192.766 153.195 192.766 154.648C192.766 156.102 192.039 157.031 191.023 157.031C190 157.031 189.281 156.102 189.281 154.648C189.281 153.195 190 152.266 191.023 152.266ZM191.023 152.703C190.281 152.703 189.758 153.5 189.758 154.648C189.758 155.805 190.281 156.594 191.023 156.594C191.766 156.594 192.281 155.805 192.281 154.648C192.281 153.5 191.766 152.703 191.023 152.703ZM203.531 156.047V158.508H199.117V156.047H203.531ZM199.594 156.453V158.102H203.047V156.453H199.594ZM198.766 152.148V154.758H198.781C199.938 154.766 200.844 154.695 201.867 154.484L201.93 154.914C200.875 155.125 199.961 155.195 198.781 155.195H198.266V152.148H198.766ZM203.531 151.719V155.703H203.039V153.477H200.961V153.062H203.039V151.719H203.531ZM212.383 151.719V158.609H211.891V151.719H212.383ZM206.648 155.047C207.602 155.043 208.703 155.031 209.797 154.977C209.988 153.922 210.012 153.156 210.016 152.688H207.273V152.266H210.5V152.508C210.5 152.941 210.5 153.766 210.297 154.945C210.652 154.926 211.008 154.895 211.352 154.859L211.391 155.234C210.664 155.328 209.906 155.387 209.164 155.422V158.195H208.672V155.445C207.984 155.469 207.32 155.477 206.719 155.477L206.648 155.047ZM215.445 152.266C216.082 152.266 216.598 152.645 216.891 153.297H218.805V151.719H219.289V158.617H218.805V155.914H216.93C216.641 156.617 216.113 157.031 215.445 157.031C214.438 157.031 213.734 156.102 213.742 154.648C213.734 153.195 214.438 152.266 215.445 152.266ZM215.445 152.703C214.711 152.703 214.211 153.5 214.211 154.648C214.211 155.805 214.711 156.594 215.445 156.594C216.172 156.594 216.68 155.805 216.68 154.648C216.68 153.5 216.172 152.703 215.445 152.703ZM217.039 153.719C217.105 153.996 217.148 154.309 217.148 154.648C217.148 154.953 217.113 155.238 217.055 155.492H218.805V153.719H217.039ZM33.9453 161.719V168.617H33.4453V166.844H31.8047V166.453H33.4453V161.719H33.9453ZM28.2734 165.391C29.5938 165.391 31.3594 165.383 32.8828 165.164L32.9219 165.539C32.2148 165.656 31.4805 165.723 30.7656 165.766V168.391H30.2734V165.789C29.582 165.816 28.9219 165.82 28.3438 165.82L28.2734 165.391ZM30.5469 162.078C31.5703 162.078 32.2812 162.617 32.2812 163.414C32.2812 164.234 31.5703 164.75 30.5469 164.75C29.5156 164.75 28.8125 164.234 28.8125 163.414C28.8125 162.617 29.5156 162.078 30.5469 162.078ZM30.5469 162.477C29.7969 162.477 29.2734 162.875 29.2734 163.414C29.2734 163.977 29.7969 164.367 30.5469 164.367C31.2812 164.367 31.8047 163.977 31.8125 163.414C31.8047 162.875 31.2812 162.477 30.5469 162.477ZM36.2109 162.344L36.1719 166.383H35.6484L35.6094 162.344H36.2109ZM35.9141 168.039C35.6797 168.039 35.4922 167.852 35.4922 167.625C35.4922 167.391 35.6797 167.203 35.9141 167.203C36.1406 167.203 36.3281 167.391 36.3281 167.625C36.3281 167.852 36.1406 168.039 35.9141 168.039ZM38.2109 162.344L38.1719 166.383H37.6484L37.6094 162.344H38.2109ZM37.9141 168.039C37.6797 168.039 37.4922 167.852 37.4922 167.625C37.4922 167.391 37.6797 167.203 37.9141 167.203C38.1406 167.203 38.3281 167.391 38.3281 167.625C38.3281 167.852 38.1406 168.039 37.9141 168.039Z" fill="black"/>
</svg>
