<svg width="253" height="251" viewBox="0 0 253 251" fill="none" xmlns="http://www.w3.org/2000/svg">
<rect x="0.15" y="0.15" width="252.7" height="250.7" rx="5.85" fill="#F9FAFB"/>
<rect x="0.15" y="0.15" width="252.7" height="250.7" rx="5.85" stroke="#DADADA" stroke-width="0.3"/>
<rect x="14.15" y="10.15" width="224.7" height="230.7" rx="11.85" fill="white" stroke="#DADADA" stroke-width="0.3"/>
<path d="M98.72 28.28H99.41V29.39C99.41 29.9833 99.3067 30.53 99.1 31.03C98.8933 31.5233 98.6033 31.9533 98.23 32.32C97.8567 32.6867 97.4167 32.9667 96.91 33.16L96.46 32.5C96.92 32.34 97.32 32.1067 97.66 31.8C98 31.4867 98.26 31.1233 98.44 30.71C98.6267 30.2967 98.72 29.8567 98.72 29.39V28.28ZM98.87 28.28H99.54V29.42C99.54 29.7267 99.5933 30.0267 99.7 30.32C99.8133 30.6133 99.9667 30.89 100.16 31.15C100.36 31.4033 100.593 31.6267 100.86 31.82C101.133 32.0067 101.437 32.16 101.77 32.28L101.35 32.94C100.857 32.7533 100.423 32.4867 100.05 32.14C99.6767 31.7933 99.3867 31.3867 99.18 30.92C98.9733 30.4533 98.87 29.9533 98.87 29.42V28.28ZM102.69 27.73H103.52V34.41H102.69V27.73ZM103.26 30.5H104.85V31.2H103.26V30.5ZM97.9 35.9H103.92V36.58H97.9V35.9ZM97.9 33.77H98.74V36.23H97.9V33.77ZM107.579 29.39H108.219V29.69C108.219 30.17 108.139 30.63 107.979 31.07C107.819 31.5033 107.586 31.89 107.279 32.23C106.979 32.5633 106.609 32.8233 106.169 33.01L105.769 32.39C106.149 32.23 106.473 32.0133 106.739 31.74C107.013 31.46 107.219 31.1433 107.359 30.79C107.506 30.4367 107.579 30.07 107.579 29.69V29.39ZM107.739 29.39H108.369V29.69C108.369 30.0433 108.443 30.3867 108.589 30.72C108.736 31.0533 108.946 31.35 109.219 31.61C109.493 31.87 109.816 32.0733 110.189 32.22L109.799 32.85C109.359 32.67 108.986 32.42 108.679 32.1C108.373 31.78 108.139 31.4133 107.979 31C107.819 30.5867 107.739 30.15 107.739 29.69V29.39ZM105.949 28.92H109.969V29.59H105.949V28.92ZM107.579 27.84H108.369V29.2H107.579V27.84ZM112.529 27.74H113.319V33.28H112.529V27.74ZM111.069 30.15H112.769V30.83H111.069V30.15ZM110.599 27.9H111.389V33.23H110.599V27.9ZM107.259 33.76H113.319V36.78H112.499V34.44H107.259V33.76ZM124.301 27.73H125.131V36.78H124.301V27.73ZM121.651 28.71H122.471C122.471 29.3633 122.391 29.9933 122.231 30.6C122.078 31.2067 121.834 31.7833 121.501 32.33C121.168 32.87 120.734 33.3733 120.201 33.84C119.668 34.3067 119.021 34.7233 118.261 35.09L117.821 34.42C118.694 34 119.414 33.51 119.981 32.95C120.548 32.39 120.968 31.7667 121.241 31.08C121.514 30.3867 121.651 29.64 121.651 28.84V28.71ZM118.241 28.71H122.001V29.38H118.241V28.71ZM126.9 32.71H135.1V33.39H126.9V32.71ZM127.94 27.96H134.05V30.16H128.78V31.37H127.96V29.54H133.23V28.62H127.94V27.96ZM127.96 31.1H134.24V31.76H127.96V31.1ZM130.59 31.44H131.41V33.04H130.59V31.44ZM127.82 34.08H134.1V36.69H133.27V34.75H127.82V34.08ZM145.502 27.73H146.332V32.59H145.502V27.73ZM140.512 33.04H141.322V34.13H145.512V33.04H146.332V36.66H140.512V33.04ZM141.322 34.79V35.98H145.512V34.79H141.322ZM141.482 28.16C141.942 28.16 142.349 28.25 142.702 28.43C143.055 28.6033 143.332 28.8467 143.532 29.16C143.739 29.4733 143.842 29.8367 143.842 30.25C143.842 30.6567 143.739 31.02 143.532 31.34C143.332 31.6533 143.055 31.8967 142.702 32.07C142.349 32.2433 141.942 32.33 141.482 32.33C141.029 32.33 140.622 32.2433 140.262 32.07C139.909 31.8967 139.629 31.6533 139.422 31.34C139.222 31.02 139.122 30.6567 139.122 30.25C139.122 29.8367 139.222 29.4733 139.422 29.16C139.629 28.8467 139.909 28.6033 140.262 28.43C140.622 28.25 141.029 28.16 141.482 28.16ZM141.482 28.86C141.182 28.86 140.915 28.92 140.682 29.04C140.449 29.1533 140.265 29.3167 140.132 29.53C139.999 29.7367 139.932 29.9767 139.932 30.25C139.932 30.5167 139.999 30.7567 140.132 30.97C140.265 31.1767 140.449 31.34 140.682 31.46C140.915 31.58 141.182 31.64 141.482 31.64C141.782 31.64 142.049 31.58 142.282 31.46C142.515 31.34 142.699 31.1767 142.832 30.97C142.965 30.7567 143.032 30.5167 143.032 30.25C143.032 29.9767 142.965 29.7367 142.832 29.53C142.699 29.3167 142.515 29.1533 142.282 29.04C142.049 28.92 141.782 28.86 141.482 28.86ZM148.501 32.22H149.141C149.734 32.22 150.241 32.2167 150.661 32.21C151.088 32.1967 151.474 32.1733 151.821 32.14C152.174 32.1067 152.531 32.0567 152.891 31.99L152.971 32.67C152.698 32.7167 152.428 32.7567 152.161 32.79C151.894 32.8167 151.614 32.8367 151.321 32.85C151.028 32.8633 150.704 32.8733 150.351 32.88C149.998 32.8867 149.594 32.89 149.141 32.89H148.501V32.22ZM148.481 28.28H152.371V30.84H149.321V32.62H148.501V30.2H151.551V28.95H148.481V28.28ZM154.731 27.74H155.561V33.3H154.731V27.74ZM152.971 29.08H154.921V29.75H152.971V29.08ZM152.971 30.95H154.921V31.63H152.971V30.95ZM149.511 33.78H155.561V36.79H154.731V34.46H149.511V33.78Z" fill="black"/>
<path d="M114.008 175.688V182.648H113.391V175.688H114.008ZM110.312 176.227C111.344 176.234 112.086 177.172 112.086 178.648C112.086 180.125 111.344 181.062 110.312 181.062C109.273 181.062 108.539 180.125 108.539 178.648C108.539 177.172 109.273 176.234 110.312 176.227ZM110.312 176.773C109.617 176.781 109.133 177.516 109.133 178.648C109.133 179.781 109.617 180.516 110.312 180.516C111.008 180.516 111.492 179.781 111.492 178.648C111.492 177.516 111.008 176.781 110.312 176.773ZM118.812 176.375V180.891H115.602V176.375H118.812ZM116.203 176.867V180.391H118.211V176.867H116.203ZM120.922 175.688V182.648H120.305V175.688H120.922ZM124.594 177.82C124.594 179 125.453 180.195 126.477 180.641L126.133 181.125C125.32 180.754 124.617 179.953 124.297 178.992C123.969 180.012 123.27 180.898 122.477 181.297L122.109 180.812C123.102 180.336 123.969 179.023 123.977 177.82V176.914H122.336V176.406H126.25V176.914H124.594V177.82ZM127.836 175.688V182.633H127.219V175.688H127.836ZM137.359 179.891V180.406H134.492V182.648H133.891V180.406H131.031V179.891H137.359ZM134.5 177.062C134.5 177.93 135.711 178.688 136.953 178.859L136.727 179.352C135.652 179.188 134.641 178.648 134.203 177.891C133.758 178.656 132.73 179.188 131.656 179.352L131.43 178.859C132.664 178.688 133.891 177.938 133.891 177.062V177.055H131.648V176.555H133.891V175.688H134.492V176.555H136.75V177.055H134.5V177.062ZM143.32 175.688V178.516H144.445V179.031H143.32V182.633H142.711V175.688H143.32ZM141.523 176.438C141.523 178.406 140.602 180.195 138.336 181.312L137.992 180.828C139.789 179.934 140.766 178.598 140.906 176.953H138.312V176.438H141.523Z" fill="#767676"/>
<rect x="21.15" y="49.15" width="206.7" height="24.7" rx="5.85" fill="white"/>
<rect x="21.15" y="49.15" width="206.7" height="24.7" rx="5.85" stroke="#DADADA" stroke-width="0.3"/>
<rect x="21.15" y="187.15" width="206.7" height="24.7" rx="5.85" fill="white"/>
<rect x="21.15" y="187.15" width="206.7" height="24.7" rx="5.85" stroke="#DADADA" stroke-width="0.3"/>
<rect x="21.15" y="80.15" width="206.7" height="24.7" rx="5.85" fill="white"/>
<rect x="21.15" y="80.15" width="206.7" height="24.7" rx="5.85" stroke="#DADADA" stroke-width="0.3"/>
<path d="M123.273 88.6094V97.291H122.541V88.6094H123.273ZM121.516 88.8242V96.8418H120.793V92.3691H119.328V91.7441H120.793V88.8242H121.516ZM118.4 91.0898C118.4 92.5938 119.074 94.0879 120.275 94.7812L119.807 95.3477C118.952 94.835 118.347 93.8975 118.049 92.7891C117.731 93.9854 117.102 95.0059 116.232 95.5527L115.744 94.9766C116.955 94.2539 117.658 92.6719 117.658 91.0898V90.2695H115.988V89.6348H119.992V90.2695H118.4V91.0898ZM131.398 88.9805V91.9102H128.83V93.0234H132.404V93.6484H124.494V93.0234H128.068V91.9102H125.52V88.9805H131.398ZM126.271 89.5957V91.2949H130.637V89.5957H126.271ZM131.428 94.5566V97.291H130.656V95.1719H125.373V94.5566H131.428Z" fill="#ADADAD"/>
<path d="M77.5938 197.055C77.5859 198.039 78.3594 198.953 79.3359 199.312L79.0547 199.703C78.2891 199.391 77.6445 198.762 77.3594 197.977C77.0664 198.844 76.4023 199.531 75.5938 199.867L75.3281 199.461C76.3203 199.078 77.1094 198.109 77.1094 197.023V196.133H77.5938V197.055ZM80.9844 195.719V200.906H80.4922V197.82H78.875V197.398H80.4922V195.719H80.9844ZM81.1484 202.031V202.445H76.5703V200.297H77.0625V202.031H81.1484ZM85.2031 196.234V196.648H83.0234V197.617H85.125V198.016H83.0234V199.07C84.1133 199.07 84.7539 199.035 85.5234 198.875L85.5781 199.289C84.7656 199.461 84.1172 199.492 82.9688 199.492H82.5469V196.234H85.2031ZM88.0469 195.719V199.891H87.5781V197.969H86.4922V199.844H86.0234V195.852H86.4922V197.555H87.5781V195.719H88.0469ZM88.0469 200.266V202.609H87.5703V200.68H83.4375V200.266H88.0469ZM93.1328 198.023V198.43H91.6953V199.477C92.3711 199.445 93.0469 199.398 93.6719 199.328L93.7031 199.703C92.2188 199.906 90.5469 199.953 89.2422 199.953L89.1641 199.539C89.7852 199.535 90.4844 199.523 91.2031 199.5V198.43H89.8047V196.18H93.0781V196.594H90.3047V198.023H93.1328ZM94.7812 195.727V200.867H94.2891V195.727H94.7812ZM95.0234 202.031V202.445H90.375V200.523H90.8594V202.031H95.0234ZM101.945 196.5V196.914H101.133V200.336C101.535 200.309 101.934 200.273 102.312 200.227L102.344 200.602C100.867 200.828 99.1953 200.852 97.9609 200.859L97.8906 200.422L98.8672 200.414V196.914H98.0625V196.5H101.945ZM103.281 195.719V198.523H104.469V198.945H103.281V202.609H102.789V195.719H103.281ZM99.3516 200.406C99.7773 200.402 100.215 200.387 100.656 200.359V196.914H99.3516V200.406ZM106.836 195.984C107.867 195.992 108.602 196.609 108.609 197.5C108.602 198.398 107.867 199.008 106.836 199.008C105.805 199.008 105.062 198.398 105.07 197.5C105.062 196.609 105.805 195.992 106.836 195.984ZM106.836 196.406C106.094 196.406 105.547 196.867 105.555 197.5C105.547 198.133 106.094 198.594 106.836 198.594C107.578 198.594 108.133 198.133 108.133 197.5C108.133 196.867 107.578 196.406 106.836 196.406ZM110.555 195.719V199.281H110.062V195.719H110.555ZM110.555 199.633V201.227H106.617V202.102H110.82V202.508H106.141V200.844H110.07V200.039H106.117V199.633H110.555ZM115.008 199.758V200.68H116.438V199.758H116.891V202.508H114.539V199.758H115.008ZM115.008 202.109H116.438V201.07H115.008V202.109ZM118.828 200.328C118.828 201.062 119.297 201.852 120.141 202.18L119.875 202.562C119.223 202.289 118.793 201.766 118.586 201.164C118.375 201.762 117.938 202.285 117.305 202.562L117.047 202.18C117.875 201.836 118.344 201.047 118.352 200.328V199.719H118.828V200.328ZM115.625 196.039C116.562 196.039 117.258 196.57 117.375 197.383H118.922V195.719H119.414V199.367H118.922V197.805H117.383C117.277 198.633 116.574 199.18 115.625 199.18C114.578 199.18 113.844 198.547 113.852 197.609C113.844 196.672 114.578 196.039 115.625 196.039ZM115.625 196.453C114.859 196.453 114.32 196.945 114.32 197.609C114.32 198.273 114.859 198.766 115.625 198.773C116.375 198.766 116.914 198.273 116.914 197.609C116.914 196.945 116.375 196.453 115.625 196.453ZM123.781 195.875C125.273 195.875 126.195 196.352 126.195 197.172C126.195 197.984 125.273 198.453 123.781 198.453C122.297 198.453 121.367 197.984 121.367 197.172C121.367 196.352 122.297 195.875 123.781 195.875ZM123.781 196.281C122.617 196.281 121.867 196.625 121.875 197.172C121.867 197.711 122.617 198.047 123.781 198.055C124.938 198.047 125.695 197.711 125.695 197.172C125.695 196.625 124.938 196.281 123.781 196.281ZM126.148 200.273V202.508H121.43V200.273H126.148ZM121.914 200.672V202.102H125.672V200.672H121.914ZM126.93 199.109V199.523H120.648V199.109H126.93Z" fill="black"/>
<rect x="21.15" y="111.15" width="206.7" height="56.7" rx="5.85" fill="white"/>
<rect x="21.15" y="111.15" width="206.7" height="56.7" rx="5.85" stroke="#DADADA" stroke-width="0.3"/>
<path d="M96.2637 119.109V127.791H95.5117V123.299H94.2617V127.342H93.5391V119.305H94.2617V122.645H95.5117V119.109H96.2637ZM90.0527 120.174V124.861C90.917 124.852 91.835 124.793 92.8945 124.578L92.9922 125.262C91.7812 125.477 90.7852 125.545 89.8281 125.545H89.291V120.174H90.0527ZM105.404 123.406V124.041H97.4941V123.406H99.457V122.186C98.7637 121.917 98.373 121.473 98.373 120.887C98.373 119.861 99.5449 119.275 101.449 119.275C103.334 119.275 104.516 119.861 104.516 120.887C104.516 121.468 104.13 121.912 103.441 122.176V123.406H105.404ZM101.449 124.705C103.314 124.705 104.428 125.242 104.438 126.238C104.428 127.225 103.314 127.771 101.449 127.771C99.5645 127.771 98.4512 127.225 98.4512 126.238C98.4512 125.242 99.5645 124.705 101.449 124.705ZM101.449 125.291C100.053 125.301 99.2227 125.643 99.2324 126.238C99.2227 126.824 100.053 127.176 101.449 127.176C102.826 127.176 103.666 126.824 103.666 126.238C103.666 125.643 102.826 125.301 101.449 125.291ZM101.449 119.881C100.033 119.881 99.1543 120.262 99.1641 120.887C99.1543 121.521 100.033 121.893 101.449 121.893C102.855 121.893 103.734 121.521 103.734 120.887C103.734 120.262 102.855 119.881 101.449 119.881ZM100.219 123.406H102.68V122.391C102.313 122.454 101.903 122.488 101.449 122.488C100.995 122.488 100.585 122.454 100.219 122.391V123.406ZM110.092 119.266C112.025 119.266 113.158 119.793 113.158 120.76C113.158 121.746 112.025 122.273 110.092 122.283C108.158 122.273 107.016 121.746 107.016 120.76C107.016 119.793 108.158 119.266 110.092 119.266ZM110.092 119.842C108.646 119.842 107.807 120.193 107.816 120.76C107.807 121.365 108.646 121.697 110.092 121.697C111.527 121.697 112.377 121.365 112.377 120.76C112.377 120.193 111.527 119.842 110.092 119.842ZM114.047 122.869V123.494H106.137V122.869H114.047ZM113.031 124.246V126.189H107.875V127.088H113.295V127.693H107.113V125.623H112.279V124.832H107.094V124.246H113.031ZM124.457 119.109V123.768H123.695V119.109H124.457ZM119.594 124.207V125.262H123.695V124.207H124.457V127.674H118.832V124.207H119.594ZM119.594 127.049H123.695V125.877H119.594V127.049ZM119.77 119.539C121.088 119.529 122.045 120.34 122.045 121.531C122.045 122.713 121.088 123.523 119.77 123.523C118.451 123.523 117.494 122.713 117.494 121.531C117.494 120.34 118.451 119.529 119.77 119.539ZM119.77 120.184C118.881 120.174 118.236 120.74 118.246 121.531C118.236 122.322 118.881 122.889 119.77 122.889C120.648 122.889 121.293 122.322 121.293 121.531C121.293 120.74 120.648 120.174 119.77 120.184ZM130.053 119.646V122.078H127.064V123.426C128.695 123.426 129.535 123.401 130.561 123.211L130.639 123.846C129.555 124.021 128.676 124.051 126.918 124.051H126.303V121.492H129.291V120.262H126.283V119.646H130.053ZM133.129 119.119V124.451H132.357V122.84H130.629V122.205H132.357V121.033H130.629V120.408H132.357V119.119H133.129ZM133.129 124.92V127.811H132.357V125.545H127.279V124.92H133.129ZM141.293 119.109V122.693H142.748V123.328H141.293V127.791H140.531V119.109H141.293ZM139.691 120.506V121.141H134.525V120.506H136.762V119.217H137.523V120.506H139.691ZM137.152 121.863C138.383 121.863 139.271 122.684 139.281 123.855C139.271 125.027 138.383 125.848 137.152 125.848C135.912 125.848 135.014 125.027 135.023 123.855C135.014 122.684 135.912 121.863 137.152 121.863ZM137.152 122.508C136.342 122.508 135.746 123.074 135.756 123.855C135.746 124.646 136.342 125.203 137.152 125.193C137.953 125.203 138.539 124.646 138.549 123.855C138.539 123.074 137.953 122.508 137.152 122.508ZM145.795 121.58C145.795 122.957 146.469 124.451 147.621 125.135L147.182 125.73C146.347 125.223 145.746 124.295 145.443 123.24C145.121 124.393 144.477 125.384 143.607 125.916L143.119 125.34C144.32 124.637 145.053 123.094 145.053 121.609V119.93H145.795V121.58ZM150.658 119.109V127.791H149.916V119.109H150.658ZM148.861 119.295V127.352H148.139V122.879H146.664V122.225H148.139V119.295H148.861ZM159.809 126.033V126.678H151.859V126.033H153.832V123.689C153.09 123.304 152.641 122.679 152.641 121.893C152.641 120.545 153.959 119.666 155.814 119.656C157.67 119.666 158.988 120.545 158.988 121.893C158.988 122.664 158.554 123.284 157.836 123.67V126.033H159.809ZM155.814 120.291C154.389 120.281 153.383 120.926 153.383 121.893C153.383 122.859 154.389 123.514 155.814 123.514C157.23 123.514 158.246 122.859 158.246 121.893C158.246 120.926 157.23 120.281 155.814 120.291ZM154.584 126.033H157.064V123.963C156.688 124.065 156.269 124.119 155.814 124.119C155.37 124.119 154.955 124.07 154.584 123.973V126.033Z" fill="#ADADAD"/>
<path d="M31.8097 66V65.5135L34.1854 62.843C34.4955 62.4927 34.7453 62.1932 34.9347 61.9446C35.1241 61.696 35.2614 61.4664 35.3466 61.2557C35.4342 61.045 35.478 60.826 35.478 60.5987C35.478 60.3217 35.4129 60.0803 35.2827 59.8743C35.1548 59.666 34.9785 59.5038 34.7536 59.3878C34.5286 59.2718 34.2753 59.2138 33.9936 59.2138C33.6953 59.2138 33.4337 59.2777 33.2088 59.4055C32.9863 59.5334 32.8134 59.7086 32.6903 59.9311C32.5672 60.1536 32.5057 60.4093 32.5057 60.6982H31.87C31.87 60.2957 31.9624 59.9394 32.147 59.6293C32.334 59.3168 32.5885 59.0717 32.9105 58.8942C33.2348 58.7166 33.6018 58.6278 34.0114 58.6278C34.4162 58.6278 34.776 58.7154 35.0909 58.8906C35.4058 59.0634 35.6532 59.299 35.8331 59.5973C36.013 59.8956 36.103 60.2294 36.103 60.5987C36.103 60.8662 36.0556 61.1255 35.9609 61.3764C35.8686 61.6274 35.7088 61.9067 35.4815 62.2145C35.2543 62.5223 34.9394 62.8987 34.5369 63.3438L32.733 65.3572V65.4034H36.3303V66H31.8097ZM40.1717 66.0994C39.6603 66.0994 39.2235 65.9527 38.8613 65.6591C38.5015 65.3632 38.2245 64.9358 38.0304 64.3771C37.8386 63.8184 37.7427 63.1473 37.7427 62.3636C37.7427 61.5824 37.8386 60.9136 38.0304 60.3572C38.2245 59.7985 38.5027 59.3712 38.8649 59.0753C39.2295 58.777 39.6651 58.6278 40.1717 58.6278C40.6783 58.6278 41.1127 58.777 41.475 59.0753C41.8395 59.3712 42.1177 59.7985 42.3095 60.3572C42.5036 60.9136 42.6007 61.5824 42.6007 62.3636C42.6007 63.1473 42.5036 63.8184 42.3095 64.3771C42.1177 64.9358 41.8407 65.3632 41.4785 65.6591C41.1187 65.9527 40.6831 66.0994 40.1717 66.0994ZM40.1717 65.5028C40.7328 65.5028 41.1708 65.2294 41.4856 64.6825C41.8005 64.1333 41.9579 63.3603 41.9579 62.3636C41.9579 61.7008 41.8857 61.1349 41.7413 60.6662C41.5993 60.1951 41.3945 59.8352 41.127 59.5866C40.8618 59.3381 40.5434 59.2138 40.1717 59.2138C39.6154 59.2138 39.1786 59.4908 38.8613 60.0447C38.5441 60.5964 38.3855 61.3693 38.3855 62.3636C38.3855 63.0265 38.4565 63.5923 38.5985 64.0611C38.743 64.5298 38.9477 64.8873 39.2129 65.1335C39.4804 65.3797 39.8 65.5028 40.1717 65.5028ZM44.046 66V65.5135L46.4217 62.843C46.7318 62.4927 46.9816 62.1932 47.171 61.9446C47.3604 61.696 47.4977 61.4664 47.5829 61.2557C47.6705 61.045 47.7143 60.826 47.7143 60.5987C47.7143 60.3217 47.6492 60.0803 47.519 59.8743C47.3912 59.666 47.2148 59.5038 46.9899 59.3878C46.765 59.2718 46.5117 59.2138 46.2299 59.2138C45.9316 59.2138 45.67 59.2777 45.4451 59.4055C45.2226 59.5334 45.0498 59.7086 44.9267 59.9311C44.8036 60.1536 44.742 60.4093 44.742 60.6982H44.1064C44.1064 60.2957 44.1987 59.9394 44.3833 59.6293C44.5704 59.3168 44.8249 59.0717 45.1468 58.8942C45.4712 58.7166 45.8381 58.6278 46.2477 58.6278C46.6525 58.6278 47.0124 58.7154 47.3272 58.8906C47.6421 59.0634 47.8895 59.299 48.0694 59.5973C48.2493 59.8956 48.3393 60.2294 48.3393 60.5987C48.3393 60.8662 48.292 61.1255 48.1973 61.3764C48.1049 61.6274 47.9451 61.9067 47.7179 62.2145C47.4906 62.5223 47.1757 62.8987 46.7733 63.3438L44.9693 65.3572V65.4034H48.5666V66H44.046ZM52.2766 66.0994C51.8718 66.0994 51.5096 66.0178 51.19 65.8544C50.8728 65.6887 50.6194 65.4614 50.43 65.1726C50.243 64.8838 50.1436 64.5535 50.1317 64.1818H50.7745C50.7958 64.5677 50.9473 64.8849 51.229 65.1335C51.5108 65.3797 51.86 65.5028 52.2766 65.5028C52.601 65.5028 52.8898 65.4259 53.1431 65.272C53.3964 65.1158 53.5941 64.9027 53.7362 64.6328C53.8806 64.3606 53.9528 64.054 53.9528 63.7131C53.9504 63.358 53.8735 63.0455 53.7219 62.7756C53.5704 62.5033 53.3645 62.2902 53.104 62.1364C52.846 61.9825 52.556 61.9055 52.234 61.9055C51.9902 61.9032 51.7511 61.9434 51.5167 62.0263C51.2823 62.1091 51.087 62.2157 50.9308 62.3459L50.2667 62.2607L50.7035 58.7273H54.2972V59.3239H51.261L50.9698 61.7564H51.0053C51.1663 61.6214 51.3616 61.5114 51.5913 61.4261C51.8233 61.3409 52.0683 61.2983 52.3263 61.2983C52.7549 61.2983 53.1396 61.4013 53.4805 61.6072C53.8237 61.8132 54.0948 62.0973 54.2937 62.4595C54.4949 62.8194 54.5955 63.2337 54.5955 63.7024C54.5955 64.1617 54.4949 64.5724 54.2937 64.9347C54.0948 65.2945 53.8202 65.5786 53.4698 65.7869C53.1218 65.9953 52.7241 66.0994 52.2766 66.0994ZM59.0753 62.0653V62.6619H56.0497V62.0653H59.0753ZM62.8963 66.0994C62.3849 66.0994 61.9482 65.9527 61.5859 65.6591C61.2261 65.3632 60.9491 64.9358 60.755 64.3771C60.5632 63.8184 60.4673 63.1473 60.4673 62.3636C60.4673 61.5824 60.5632 60.9136 60.755 60.3572C60.9491 59.7985 61.2273 59.3712 61.5895 59.0753C61.9541 58.777 62.3897 58.6278 62.8963 58.6278C63.4029 58.6278 63.8374 58.777 64.1996 59.0753C64.5642 59.3712 64.8423 59.7985 65.0341 60.3572C65.2282 60.9136 65.3253 61.5824 65.3253 62.3636C65.3253 63.1473 65.2282 63.8184 65.0341 64.3771C64.8423 64.9358 64.5653 65.3632 64.2031 65.6591C63.8433 65.9527 63.4077 66.0994 62.8963 66.0994ZM62.8963 65.5028C63.4574 65.5028 63.8954 65.2294 64.2102 64.6825C64.5251 64.1333 64.6825 63.3603 64.6825 62.3636C64.6825 61.7008 64.6103 61.1349 64.4659 60.6662C64.3239 60.1951 64.1191 59.8352 63.8516 59.5866C63.5864 59.3381 63.268 59.2138 62.8963 59.2138C62.34 59.2138 61.9032 59.4908 61.5859 60.0447C61.2687 60.5964 61.1101 61.3693 61.1101 62.3636C61.1101 63.0265 61.1811 63.5923 61.3232 64.0611C61.4676 64.5298 61.6723 64.8873 61.9375 65.1335C62.205 65.3797 62.5246 65.5028 62.8963 65.5028ZM69.0185 66.0994C68.5545 66.0994 68.1413 66.0118 67.7791 65.8366C67.4169 65.6615 67.1328 65.4223 66.9268 65.1193C66.7209 64.8139 66.6179 64.4695 66.6179 64.0859C66.6179 63.7853 66.6806 63.5047 66.8061 63.2443C66.9316 62.9815 67.1044 62.7614 67.3246 62.5838C67.5447 62.4039 67.7921 62.2867 68.0668 62.2322V62.1932C67.7093 62.089 67.4216 61.8842 67.2038 61.5788C66.986 61.2711 66.8783 60.9219 66.8807 60.5312C66.8783 60.169 66.9706 59.8447 67.1577 59.5582C67.3447 59.2718 67.5992 59.0457 67.9212 58.88C68.2455 58.7119 68.6113 58.6278 69.0185 58.6278C69.4233 58.6278 69.7867 58.7119 70.1087 58.88C70.4306 59.0457 70.6851 59.2718 70.8722 59.5582C71.0616 59.8447 71.1574 60.169 71.1598 60.5312C71.1574 60.9195 71.0473 61.2687 70.8295 61.5788C70.6117 61.8866 70.3253 62.0914 69.9702 62.1932V62.2322C70.2448 62.2843 70.491 62.4003 70.7088 62.5803C70.9266 62.7602 71.0994 62.9815 71.2273 63.2443C71.3551 63.5047 71.419 63.7853 71.419 64.0859C71.419 64.4695 71.3149 64.8139 71.1065 65.1193C70.9006 65.4223 70.6165 65.6615 70.2543 65.8366C69.8944 66.0118 69.4825 66.0994 69.0185 66.0994ZM69.0185 65.5028C69.3641 65.5028 69.6671 65.4413 69.9276 65.3182C70.1903 65.1927 70.3951 65.0211 70.5419 64.8033C70.6911 64.5855 70.7656 64.3357 70.7656 64.054C70.7656 63.7628 70.6887 63.5036 70.5348 63.2763C70.3809 63.0466 70.1726 62.8655 69.9098 62.733C69.647 62.598 69.3499 62.5305 69.0185 62.5305C68.687 62.5305 68.3887 62.598 68.1236 62.733C67.8608 62.8655 67.6525 63.0466 67.4986 63.2763C67.3471 63.5036 67.2713 63.7628 67.2713 64.054C67.2713 64.3357 67.3435 64.5855 67.4879 64.8033C67.6347 65.0211 67.8395 65.1927 68.1023 65.3182C68.3674 65.4413 68.6728 65.5028 69.0185 65.5028ZM69.0185 61.9624C69.3026 61.9624 69.5571 61.902 69.782 61.7812C70.0069 61.6605 70.1844 61.496 70.3146 61.2876C70.4472 61.0769 70.5147 60.8378 70.517 60.5703C70.5147 60.3052 70.4484 60.0708 70.3182 59.8672C70.188 59.6612 70.0104 59.5014 69.7855 59.3878C69.563 59.2718 69.3073 59.2138 69.0185 59.2138C68.7296 59.2138 68.4716 59.2718 68.2443 59.3878C68.0194 59.5014 67.8419 59.6612 67.7116 59.8672C67.5838 60.0708 67.5211 60.3052 67.5234 60.5703C67.5211 60.8378 67.585 61.0769 67.7152 61.2876C67.8478 61.496 68.0265 61.6605 68.2514 61.7812C68.4787 61.902 68.7344 61.9624 69.0185 61.9624ZM75.8624 62.0653V62.6619H72.8368V62.0653H75.8624ZM79.6692 58.7273V66H79.0051V59.4233H78.9625L77.258 60.5561V59.8672L78.9767 58.7273H79.6692ZM84.1685 66.0994C83.8678 66.0971 83.5743 66.0367 83.2878 65.9183C83.0014 65.7976 82.7433 65.6046 82.5137 65.3395C82.284 65.072 82.1017 64.7192 81.9668 64.2812C81.8319 63.8433 81.7644 63.3047 81.7644 62.6655C81.7644 62.0736 81.8165 61.5315 81.9206 61.0391C82.0248 60.5466 82.181 60.1205 82.3894 59.7607C82.5977 59.4008 82.8581 59.1226 83.1706 58.9261C83.4831 58.7273 83.8489 58.6278 84.2679 58.6278C84.6609 58.6278 85.0078 58.7095 85.3084 58.8729C85.6091 59.0339 85.8529 59.2588 86.04 59.5476C86.227 59.8364 86.3442 60.169 86.3915 60.5455H85.7381C85.6718 60.1619 85.5144 59.8459 85.2658 59.5973C85.0172 59.3487 84.6846 59.2244 84.2679 59.2244C83.6713 59.2244 83.2097 59.5014 82.883 60.0554C82.5563 60.607 82.3917 61.3906 82.3894 62.4062H82.4355C82.5516 62.1908 82.7007 62.005 82.883 61.8487C83.0676 61.6901 83.2772 61.567 83.5115 61.4794C83.7459 61.3894 83.9921 61.3445 84.2502 61.3445C84.655 61.3445 85.0255 61.4474 85.3617 61.6534C85.6979 61.857 85.9666 62.1375 86.1678 62.495C86.369 62.8501 86.4696 63.2562 86.4696 63.7131C86.4696 64.1463 86.3738 64.5452 86.182 64.9098C85.9926 65.2744 85.7251 65.5644 85.3794 65.7798C85.0362 65.9953 84.6325 66.1018 84.1685 66.0994ZM84.1685 65.5028C84.4857 65.5028 84.7686 65.4223 85.0172 65.2614C85.2682 65.1004 85.4659 64.8849 85.6103 64.6151C85.7547 64.3428 85.8269 64.0421 85.8269 63.7131C85.8269 63.384 85.7547 63.0857 85.6103 62.8182C85.4659 62.5507 85.2682 62.3376 85.0172 62.179C84.7686 62.0204 84.4857 61.9411 84.1685 61.9411C83.927 61.9411 83.7021 61.9908 83.4938 62.0902C83.2855 62.1873 83.1043 62.321 82.9505 62.4915C82.7989 62.6596 82.6829 62.8525 82.6025 63.0703C82.5243 63.2881 82.4947 63.5166 82.5137 63.7557C82.5397 64.0895 82.6261 64.389 82.7729 64.6541C82.9221 64.9169 83.1162 65.1241 83.3553 65.2756C83.5968 65.4271 83.8678 65.5028 84.1685 65.5028Z" fill="black"/>
<path d="M217.5 58H217V57H216V58H212V57H211V58H210.5C210.235 58 209.98 58.1054 209.793 58.2929C209.605 58.4804 209.5 58.7348 209.5 59V65.5C209.5 65.7652 209.605 66.0196 209.793 66.2071C209.98 66.3946 210.235 66.5 210.5 66.5H217.5C217.765 66.5 218.02 66.3946 218.207 66.2071C218.395 66.0196 218.5 65.7652 218.5 65.5V59C218.5 58.7348 218.395 58.4804 218.207 58.2929C218.02 58.1054 217.765 58 217.5 58ZM217.5 65.5H210.5V60H217.5V65.5Z" fill="black"/>
<rect x="31.15" y="192.15" width="39.7" height="14.7" fill="#EFEFEF"/>
<rect x="31.15" y="192.15" width="39.7" height="14.7" stroke="#A4A4A4" stroke-width="0.3"/>
<path d="M40.2734 197V197.414H39.4609V200.836C39.8633 200.809 40.2617 200.773 40.6406 200.727L40.6719 201.102C39.1953 201.328 37.5234 201.352 36.2891 201.359L36.2188 200.922L37.1953 200.914V197.414H36.3906V197H40.2734ZM41.6094 196.219V199.023H42.7969V199.445H41.6094V203.109H41.1172V196.219H41.6094ZM37.6797 200.906C38.1055 200.902 38.543 200.887 38.9844 200.859V197.414H37.6797V200.906ZM45.1641 196.484C46.1953 196.492 46.9297 197.109 46.9375 198C46.9297 198.898 46.1953 199.508 45.1641 199.508C44.1328 199.508 43.3906 198.898 43.3984 198C43.3906 197.109 44.1328 196.492 45.1641 196.484ZM45.1641 196.906C44.4219 196.906 43.875 197.367 43.8828 198C43.875 198.633 44.4219 199.094 45.1641 199.094C45.9062 199.094 46.4609 198.633 46.4609 198C46.4609 197.367 45.9062 196.906 45.1641 196.906ZM48.8828 196.219V199.781H48.3906V196.219H48.8828ZM48.8828 200.133V201.727H44.9453V202.602H49.1484V203.008H44.4688V201.344H48.3984V200.539H44.4453V200.133H48.8828ZM54.3516 197.555C54.3438 198.539 55.1172 199.453 56.0938 199.812L55.8125 200.203C55.0469 199.891 54.4023 199.262 54.1172 198.477C53.8242 199.344 53.1602 200.031 52.3516 200.367L52.0859 199.961C53.0781 199.578 53.8672 198.609 53.8672 197.523V196.633H54.3516V197.555ZM57.7422 196.219V201.406H57.25V198.32H55.6328V197.898H57.25V196.219H57.7422ZM57.9062 202.531V202.945H53.3281V200.797H53.8203V202.531H57.9062ZM61.9609 196.734V197.148H59.7812V198.117H61.8828V198.516H59.7812V199.57C60.8711 199.57 61.5117 199.535 62.2812 199.375L62.3359 199.789C61.5234 199.961 60.875 199.992 59.7266 199.992H59.3047V196.734H61.9609ZM64.8047 196.219V200.391H64.3359V198.469H63.25V200.344H62.7812V196.352H63.25V198.055H64.3359V196.219H64.8047ZM64.8047 200.766V203.109H64.3281V201.18H60.1953V200.766H64.8047Z" fill="black"/>
<rect x="89.15" y="215.15" width="29.7" height="20.7" rx="5.85" fill="white" stroke="#DADADA" stroke-width="0.3"/>
<rect x="123" y="215" width="30" height="21" rx="6" fill="black"/>
<path d="M98.5547 223.73C98.5547 224.658 99.4922 225.43 100.693 225.713L100.43 226.211C99.4385 225.947 98.6279 225.391 98.2617 224.648C97.9053 225.449 97.085 226.055 96.0742 226.328L95.8008 225.83C97.002 225.537 97.9395 224.707 97.9492 223.73V223.672H95.957V223.164H97.9395V222.168H98.5547V223.164H100.547V223.672H98.5547V223.73ZM102.441 222.148V230.771H101.836V222.148H102.441ZM95.3516 227.012C97.0215 227.012 99.2285 227.002 101.162 226.738L101.211 227.197C100.347 227.339 99.4531 227.422 98.584 227.471V230.508H97.9688V227.5C97.0605 227.544 96.1963 227.549 95.4395 227.549L95.3516 227.012ZM111.914 229.072V229.6H104.023V229.072H107.627V226.914H108.232V229.072H111.914ZM108.242 223.438C108.242 224.951 110.137 226.201 111.494 226.445L111.211 226.963C109.976 226.689 108.477 225.781 107.93 224.482C107.378 225.781 105.884 226.689 104.658 226.963L104.375 226.445C105.732 226.201 107.598 224.961 107.607 223.438V222.754H108.242V223.438Z" fill="black"/>
<path d="M132.213 223.789C132.213 224.98 133.141 226.025 134.371 226.455L134.059 226.943C133.077 226.582 132.286 225.854 131.92 224.932C131.559 225.952 130.724 226.733 129.713 227.119L129.381 226.641C130.631 226.182 131.607 225.078 131.617 223.799V223.301H129.586V222.783H134.215V223.301H132.213V223.789ZM136.09 222.148V224.482H137.418V225.02H136.09V227.334H135.475V222.148H136.09ZM136.09 227.822V230.762H135.475V228.34H130.494V227.822H136.09ZM140.885 223.564C140.885 224.814 141.852 225.898 143.082 226.328L142.73 226.807C141.773 226.44 140.973 225.708 140.602 224.756C140.245 225.835 139.41 226.66 138.375 227.07L138.043 226.562C139.312 226.104 140.279 224.961 140.289 223.584V222.646H140.885V223.564ZM145.123 222.148V227.266H144.508V224.59H142.496V224.072H144.508V222.148H145.123ZM142.291 227.52C144.068 227.529 145.152 228.115 145.152 229.141C145.152 230.156 144.068 230.732 142.291 230.732C140.514 230.732 139.43 230.156 139.439 229.141C139.43 228.115 140.514 227.529 142.291 227.52ZM142.291 228.027C140.914 228.027 140.035 228.447 140.045 229.141C140.035 229.814 140.914 230.234 142.291 230.234C143.668 230.234 144.547 229.814 144.547 229.141C144.547 228.447 143.668 228.027 142.291 228.027Z" fill="white"/>
</svg>
