<svg width="253" height="228" viewBox="0 0 253 228" fill="none" xmlns="http://www.w3.org/2000/svg">
<rect x="0.15" y="0.15" width="252.7" height="227.7" rx="5.85" fill="#F9FAFB"/>
<rect x="0.15" y="0.15" width="252.7" height="227.7" rx="5.85" stroke="#DADADA" stroke-width="0.3"/>
<rect x="71.15" y="9.15" width="60.7" height="24.7" rx="11.85" fill="white" stroke="#DADADA" stroke-width="0.3"/>
<rect x="14.15" y="44.15" width="224.7" height="108.7" rx="11.85" fill="white" stroke="#DADADA" stroke-width="0.3"/>
<rect x="18.15" y="187.15" width="224.7" height="34.7" rx="9.85" fill="white" stroke="#DADADA" stroke-width="0.3"/>
<rect x="21.15" y="124.15" width="90.7" height="23.7" rx="5.85" fill="white" stroke="#DADADA" stroke-width="0.3"/>
<rect x="131.15" y="124.15" width="90.7" height="23.7" rx="5.85" fill="white" stroke="#DADADA" stroke-width="0.3"/>
<rect x="140.15" y="9.15" width="60.7" height="24.7" rx="11.85" fill="black" stroke="#DADADA" stroke-width="0.3"/>
<rect x="13.15" y="9.15" width="49.7" height="24.7" rx="11.85" fill="white" stroke="#DADADA" stroke-width="0.3"/>
<path d="M32.0244 22.6045V25.7412H25.4502V22.6045H32.0244ZM26.2881 23.2812V25.0537H31.1973V23.2812H26.2881ZM31.9814 16.6748V19.876H29.1562V20.9609H33.0879V21.6592H24.3867V20.9609H28.3184V19.876H25.5146V16.6748H31.9814ZM26.3418 17.3623V19.1885H31.1436V17.3623H26.3418ZM42.627 21.874V22.5723H38.6416V25.8701H37.8145V22.5723H33.8828V21.874H42.627ZM41.4883 16.8574V20.5742H35.0107V16.8574H41.4883ZM35.8379 17.5449V19.9082H40.6504V17.5449H35.8379ZM51.5752 16.3203V25.8701H50.7695V16.3203H51.5752ZM49.5664 16.5781V25.3867H48.7607V20.9287H46.7412C46.1558 22.0405 45.2373 23.0234 43.9053 23.8076L43.4111 23.1953C45.4897 21.9653 46.5317 20.2412 46.6875 18.2432H43.8193V17.5449H47.5254C47.52 18.4849 47.3696 19.3926 47.0527 20.2412H48.7607V16.5781H49.5664Z" fill="black"/>
<path d="M90.1201 22.1104V22.8086H86.1455V25.8701H85.3184V22.8086H81.376V22.1104H90.1201ZM89.1318 20.4346V21.1221H82.5469V16.7715H89.0244V17.459H83.3848V18.5762H88.7988V19.2529H83.3848V20.4346H89.1318ZM99.7773 17.8027V18.4902H98.3594V19.833H99.7773V20.5527H98.3594V22.0029H97.5215V16.3203H98.3594V17.8027H99.7773ZM98.3594 22.4434V25.8701H97.5215V23.1416H92.1074V22.4434H98.3594ZM93.5791 16.9004C95.0293 16.8896 96.082 17.8242 96.0928 19.1455C96.082 20.4883 95.0293 21.4121 93.5791 21.4121C92.1289 21.4121 91.0654 20.4883 91.0762 19.1455C91.0654 17.8242 92.1289 16.8896 93.5791 16.9004ZM93.5791 17.6201C92.6123 17.6201 91.8926 18.2432 91.9033 19.1455C91.8926 20.0586 92.6123 20.6924 93.5791 20.6816C94.5566 20.6924 95.2656 20.0586 95.2656 19.1455C95.2656 18.2432 94.5566 17.6201 93.5791 17.6201ZM111.057 16.3203V25.8701H110.208V16.3203H111.057ZM108.231 17.3623C108.221 20.1123 106.942 22.54 103.741 24.0762L103.279 23.3887C105.863 22.1641 107.179 20.3325 107.372 18.0498H103.72V17.3623H108.231ZM121.401 21.584V22.2822H112.657V21.584H116.61V20.5742H113.796V18.2432H119.425V17.2549H113.764V16.5674H120.273V18.877H114.634V19.8975H120.478V20.5742H117.438V21.584H121.401ZM120.327 23.0127V25.7842H119.479V23.7002H113.635V23.0127H120.327Z" fill="black"/>
<path d="M153.599 18.125C153.588 19.4355 154.587 20.6494 155.994 21.1436L155.564 21.8203C154.479 21.4282 153.636 20.6172 153.212 19.5967C152.809 20.7407 151.944 21.6216 150.816 22.0566L150.354 21.3799C151.805 20.8643 152.761 19.5752 152.771 18.0928V16.9111H153.599V18.125ZM157.853 16.3203V19.2529H159.292V19.9727H157.853V23.3779H157.015V16.3203H157.853ZM158.293 24.957V25.666H151.891V22.7012H152.75V24.957H158.293ZM162.719 18.3936C162.719 19.5215 163.471 20.6279 164.685 21.0684L164.276 21.7236C163.342 21.353 162.681 20.6387 162.343 19.7686C162.01 20.7139 161.338 21.4927 160.388 21.8955L159.969 21.2617C161.183 20.7568 161.913 19.6074 161.924 18.3936V18.2754H160.162V17.5879H161.924V16.4385H162.719V17.5879H164.448V18.2754H162.719V18.3936ZM168.004 16.3311V22.1748H167.198V19.5859H165.952V22.1318H165.136V16.5029H165.952V18.8877H167.198V16.3311H168.004ZM168.004 22.6904V25.8701H167.177V23.3779H161.569V22.6904H168.004ZM180.057 16.3203V25.8701H179.208V16.3203H180.057ZM177.231 17.3623C177.221 20.1123 175.942 22.54 172.741 24.0762L172.279 23.3887C174.863 22.1641 176.179 20.3325 176.372 18.0498H172.72V17.3623H177.231ZM190.401 21.584V22.2822H181.657V21.584H185.61V20.5742H182.796V18.2432H188.425V17.2549H182.764V16.5674H189.273V18.877H183.634V19.8975H189.478V20.5742H186.438V21.584H190.401ZM189.327 23.0127V25.7842H188.479V23.7002H182.635V23.0127H189.327Z" fill="white"/>
<path d="M26.72 56.28H27.41V57.39C27.41 57.9833 27.3067 58.53 27.1 59.03C26.8933 59.5233 26.6033 59.9533 26.23 60.32C25.8567 60.6867 25.4167 60.9667 24.91 61.16L24.46 60.5C24.92 60.34 25.32 60.1067 25.66 59.8C26 59.4867 26.26 59.1233 26.44 58.71C26.6267 58.2967 26.72 57.8567 26.72 57.39V56.28ZM26.87 56.28H27.54V57.42C27.54 57.7267 27.5933 58.0267 27.7 58.32C27.8133 58.6133 27.9667 58.89 28.16 59.15C28.36 59.4033 28.5933 59.6267 28.86 59.82C29.1333 60.0067 29.4367 60.16 29.77 60.28L29.35 60.94C28.8567 60.7533 28.4233 60.4867 28.05 60.14C27.6767 59.7933 27.3867 59.3867 27.18 58.92C26.9733 58.4533 26.87 57.9533 26.87 57.42V56.28ZM30.69 55.73H31.52V62.41H30.69V55.73ZM31.26 58.5H32.85V59.2H31.26V58.5ZM25.9 63.9H31.92V64.58H25.9V63.9ZM25.9 61.77H26.74V64.23H25.9V61.77ZM35.5792 57.39H36.2192V57.69C36.2192 58.17 36.1392 58.63 35.9792 59.07C35.8192 59.5033 35.5859 59.89 35.2792 60.23C34.9792 60.5633 34.6092 60.8233 34.1692 61.01L33.7692 60.39C34.1492 60.23 34.4726 60.0133 34.7392 59.74C35.0126 59.46 35.2192 59.1433 35.3592 58.79C35.5059 58.4367 35.5792 58.07 35.5792 57.69V57.39ZM35.7392 57.39H36.3692V57.69C36.3692 58.0433 36.4426 58.3867 36.5892 58.72C36.7359 59.0533 36.9459 59.35 37.2192 59.61C37.4926 59.87 37.8159 60.0733 38.1892 60.22L37.7992 60.85C37.3592 60.67 36.9859 60.42 36.6792 60.1C36.3726 59.78 36.1392 59.4133 35.9792 59C35.8192 58.5867 35.7392 58.15 35.7392 57.69V57.39ZM33.9492 56.92H37.9692V57.59H33.9492V56.92ZM35.5792 55.84H36.3692V57.2H35.5792V55.84ZM40.5292 55.74H41.3192V61.28H40.5292V55.74ZM39.0692 58.15H40.7692V58.83H39.0692V58.15ZM38.5992 55.9H39.3892V61.23H38.5992V55.9ZM35.2592 61.76H41.3192V64.78H40.4992V62.44H35.2592V61.76ZM52.3009 55.73H53.1309V64.78H52.3009V55.73ZM49.6509 56.71H50.4709C50.4709 57.3633 50.3909 57.9933 50.2309 58.6C50.0776 59.2067 49.8343 59.7833 49.5009 60.33C49.1676 60.87 48.7343 61.3733 48.2009 61.84C47.6676 62.3067 47.0209 62.7233 46.2609 63.09L45.8209 62.42C46.6943 62 47.4143 61.51 47.9809 60.95C48.5476 60.39 48.9676 59.7667 49.2409 59.08C49.5143 58.3867 49.6509 57.64 49.6509 56.84V56.71ZM46.2409 56.71H50.0009V57.38H46.2409V56.71ZM54.9002 60.71H63.1002V61.39H54.9002V60.71ZM55.9402 55.96H62.0502V58.16H56.7802V59.37H55.9602V57.54H61.2302V56.62H55.9402V55.96ZM55.9602 59.1H62.2402V59.76H55.9602V59.1ZM58.5902 59.44H59.4102V61.04H58.5902V59.44ZM55.8202 62.08H62.1002V64.69H61.2702V62.75H55.8202V62.08ZM73.5019 55.73H74.3319V60.59H73.5019V55.73ZM68.5119 61.04H69.3219V62.13H73.5119V61.04H74.3319V64.66H68.5119V61.04ZM69.3219 62.79V63.98H73.5119V62.79H69.3219ZM69.4819 56.16C69.9419 56.16 70.3485 56.25 70.7019 56.43C71.0552 56.6033 71.3319 56.8467 71.5319 57.16C71.7385 57.4733 71.8419 57.8367 71.8419 58.25C71.8419 58.6567 71.7385 59.02 71.5319 59.34C71.3319 59.6533 71.0552 59.8967 70.7019 60.07C70.3485 60.2433 69.9419 60.33 69.4819 60.33C69.0285 60.33 68.6219 60.2433 68.2619 60.07C67.9085 59.8967 67.6285 59.6533 67.4219 59.34C67.2219 59.02 67.1219 58.6567 67.1219 58.25C67.1219 57.8367 67.2219 57.4733 67.4219 57.16C67.6285 56.8467 67.9085 56.6033 68.2619 56.43C68.6219 56.25 69.0285 56.16 69.4819 56.16ZM69.4819 56.86C69.1819 56.86 68.9152 56.92 68.6819 57.04C68.4485 57.1533 68.2652 57.3167 68.1319 57.53C67.9985 57.7367 67.9319 57.9767 67.9319 58.25C67.9319 58.5167 67.9985 58.7567 68.1319 58.97C68.2652 59.1767 68.4485 59.34 68.6819 59.46C68.9152 59.58 69.1819 59.64 69.4819 59.64C69.7819 59.64 70.0485 59.58 70.2819 59.46C70.5152 59.34 70.6985 59.1767 70.8319 58.97C70.9652 58.7567 71.0319 58.5167 71.0319 58.25C71.0319 57.9767 70.9652 57.7367 70.8319 57.53C70.6985 57.3167 70.5152 57.1533 70.2819 57.04C70.0485 56.92 69.7819 56.86 69.4819 56.86ZM76.5011 60.22H77.1411C77.7344 60.22 78.2411 60.2167 78.6611 60.21C79.0878 60.1967 79.4744 60.1733 79.8211 60.14C80.1744 60.1067 80.5311 60.0567 80.8911 59.99L80.9711 60.67C80.6978 60.7167 80.4278 60.7567 80.1611 60.79C79.8944 60.8167 79.6144 60.8367 79.3211 60.85C79.0278 60.8633 78.7044 60.8733 78.3511 60.88C77.9978 60.8867 77.5944 60.89 77.1411 60.89H76.5011V60.22ZM76.4811 56.28H80.3711V58.84H77.3211V60.62H76.5011V58.2H79.5511V56.95H76.4811V56.28ZM82.7311 55.74H83.5611V61.3H82.7311V55.74ZM80.9711 57.08H82.9211V57.75H80.9711V57.08ZM80.9711 58.95H82.9211V59.63H80.9711V58.95ZM77.5111 61.78H83.5611V64.79H82.7311V62.46H77.5111V61.78Z" fill="black"/>
<path d="M21.4111 167.245V176.967H20.2295V167.245H21.4111ZM18.4248 168.094V171.735H15.084V173.69C16.6147 173.68 17.936 173.604 19.4453 173.347L19.5527 174.324C17.8984 174.614 16.4482 174.668 14.708 174.668H13.8594V170.79H17.2109V169.061H13.8486V168.094H18.4248ZM27.8457 168.577C27.8457 170.081 29.3174 171.585 31.3477 171.939L30.8105 172.938C29.1831 172.595 27.8511 171.612 27.2227 170.307C26.5781 171.601 25.2461 172.589 23.624 172.938L23.0977 171.939C25.1064 171.574 26.5674 170.07 26.5781 168.577V167.857H27.8457V168.577ZM31.7021 174.732V175.721H22.8291V174.732H31.7021ZM40.2314 172.337V173.282H33.4209V168.008H40.1455V168.975H34.6348V170.146H39.9199V171.08H34.6348V172.337H40.2314ZM41.209 174.797V175.774H32.3359V174.797H41.209ZM53.3262 174.808V175.785H44.4531V174.808H48.2773V172.917H45.4307V167.89H46.623V169.479H51.124V167.89H52.3164V172.917H49.459V174.808H53.3262ZM46.623 171.95H51.124V170.436H46.623V171.95ZM62.0703 167.245V176.956H60.8672V167.245H62.0703ZM59.1699 168.276C59.1699 171.166 58.0527 173.626 54.6475 175.237L54.0244 174.281C56.5649 173.073 57.7466 171.429 57.9561 169.222H54.5186V168.276H59.1699Z" fill="black"/>
<rect x="199.15" y="51.15" width="29.7" height="20.7" rx="5.85" fill="white" stroke="#DADADA" stroke-width="0.3"/>
<rect x="222.15" y="158.15" width="20.7" height="20.7" rx="5.85" stroke="#DADADA" stroke-width="0.3"/>
<rect x="21.15" y="77.15" width="206.7" height="24.7" rx="5.85" fill="white"/>
<rect x="21.15" y="77.15" width="206.7" height="24.7" rx="5.85" stroke="#DADADA" stroke-width="0.3"/>
<path d="M209.17 63.48H209.99V66.79H209.17V63.48ZM205.5 63.2H213.67V63.89H205.5V63.2ZM209.17 59.29H209.9V59.52C209.9 59.8267 209.837 60.12 209.71 60.4C209.583 60.6733 209.407 60.9267 209.18 61.16C208.953 61.3933 208.687 61.6033 208.38 61.79C208.08 61.97 207.753 62.1233 207.4 62.25C207.053 62.37 206.69 62.4567 206.31 62.51L206.01 61.85C206.337 61.8033 206.653 61.73 206.96 61.63C207.273 61.53 207.56 61.4067 207.82 61.26C208.087 61.1133 208.32 60.95 208.52 60.77C208.727 60.5833 208.887 60.3867 209 60.18C209.113 59.9667 209.17 59.7467 209.17 59.52V59.29ZM209.27 59.29H210V59.52C210 59.74 210.057 59.9567 210.17 60.17C210.283 60.3767 210.44 60.5733 210.64 60.76C210.84 60.94 211.07 61.1067 211.33 61.26C211.597 61.4067 211.883 61.53 212.19 61.63C212.503 61.73 212.823 61.8033 213.15 61.85L212.85 62.51C212.47 62.4567 212.103 62.37 211.75 62.25C211.403 62.1233 211.077 61.97 210.77 61.79C210.47 61.6033 210.207 61.3933 209.98 61.16C209.76 60.9267 209.587 60.6733 209.46 60.4C209.333 60.12 209.27 59.8267 209.27 59.52V59.29ZM206.29 58.85H212.88V59.52H206.29V58.85ZM209.17 57.73H209.99V59.08H209.17V57.73ZM220.819 57.73H221.649V66.77H220.819V57.73ZM221.429 61.4H223.089V62.09H221.429V61.4ZM218.509 58.7H219.319C219.319 59.56 219.179 60.3833 218.899 61.17C218.619 61.95 218.179 62.6733 217.579 63.34C216.979 64 216.189 64.5733 215.209 65.06L214.749 64.42C215.589 64 216.286 63.51 216.839 62.95C217.399 62.3833 217.816 61.7567 218.089 61.07C218.369 60.3767 218.509 59.63 218.509 58.83V58.7ZM215.169 58.7H218.929V59.39H215.169V58.7Z" fill="black"/>
<path d="M230.083 170.917H230.677L234.75 166.844L234.156 166.25L230.083 170.323V170.917ZM229.667 171.75C229.549 171.75 229.45 171.71 229.37 171.63C229.29 171.55 229.25 171.451 229.25 171.333V170.323C229.25 170.212 229.271 170.106 229.313 170.005C229.354 169.904 229.413 169.816 229.49 169.74L234.75 164.49C234.833 164.413 234.925 164.354 235.026 164.313C235.127 164.271 235.233 164.25 235.344 164.25C235.455 164.25 235.562 164.271 235.667 164.313C235.771 164.354 235.861 164.417 235.937 164.5L236.51 165.083C236.594 165.16 236.654 165.25 236.692 165.354C236.731 165.458 236.75 165.563 236.75 165.667C236.75 165.778 236.731 165.884 236.692 165.985C236.654 166.085 236.593 166.177 236.51 166.26L231.26 171.51C231.184 171.587 231.095 171.646 230.995 171.687C230.894 171.729 230.788 171.75 230.677 171.75H229.667ZM234.448 166.552L234.156 166.25L234.75 166.844L234.448 166.552Z" fill="black"/>
<path d="M31.624 208V207.543L33.7773 205.214C34.5947 204.326 34.9287 203.878 34.9375 203.28C34.9287 202.577 34.3574 202.103 33.6016 202.103C32.793 202.103 32.2744 202.63 32.2744 203.377H31.6768C31.6768 202.305 32.5029 201.549 33.6191 201.549C34.7266 201.549 35.5176 202.305 35.5176 203.28C35.5176 203.992 35.1924 204.528 34.0938 205.688L32.5117 207.394V207.438H35.7109V208H31.624ZM38.9277 208.088C37.5654 208.088 36.7744 206.884 36.7744 204.818C36.7744 202.762 37.5742 201.549 38.9277 201.549C40.2725 201.549 41.0723 202.762 41.0723 204.818C41.0723 206.884 40.2812 208.088 38.9277 208.088ZM38.9277 207.525C39.8945 207.525 40.4658 206.541 40.4658 204.818C40.4658 203.096 39.8857 202.103 38.9277 202.103C37.9609 202.103 37.3896 203.096 37.3896 204.818C37.3896 206.541 37.9609 207.525 38.9277 207.525ZM42.1709 208V207.543L44.3242 205.214C45.1416 204.326 45.4756 203.878 45.4844 203.28C45.4756 202.577 44.9043 202.103 44.1484 202.103C43.3398 202.103 42.8213 202.63 42.8213 203.377H42.2236C42.2236 202.305 43.0498 201.549 44.166 201.549C45.2734 201.549 46.0645 202.305 46.0645 203.28C46.0645 203.992 45.7393 204.528 44.6406 205.688L43.0586 207.394V207.438H46.2578V208H42.1709ZM49.4395 208.088C48.3232 208.088 47.4883 207.385 47.4619 206.4H48.0684C48.1035 207.051 48.6836 207.534 49.4395 207.534C50.3271 207.534 50.9688 206.866 50.96 205.996C50.96 205.082 50.2832 204.449 49.3955 204.44C48.8594 204.44 48.4199 204.616 48.165 205.029H47.541L47.9805 201.637H51.2939V202.199H48.5078L48.2354 204.3H48.2881C48.5693 204.036 49.0264 203.878 49.501 203.878C50.6699 203.878 51.5752 204.748 51.5752 205.987C51.5752 207.2 50.6787 208.088 49.4395 208.088ZM55.3545 204.537V205.1H52.6826V204.537H55.3545ZM58.5537 208.088C57.1914 208.088 56.4004 206.884 56.4004 204.818C56.4004 202.762 57.2002 201.549 58.5537 201.549C59.8984 201.549 60.6982 202.762 60.6982 204.818C60.6982 206.884 59.9072 208.088 58.5537 208.088ZM58.5537 207.525C59.5205 207.525 60.0918 206.541 60.0918 204.818C60.0918 203.096 59.5117 202.103 58.5537 202.103C57.5869 202.103 57.0156 203.096 57.0156 204.818C57.0156 206.541 57.5869 207.525 58.5537 207.525ZM63.915 208.088C62.8076 208.079 61.7002 207.341 61.7002 205.073C61.7002 202.973 62.4824 201.549 64.0117 201.549C65.0928 201.549 65.8311 202.234 65.9717 203.228H65.3477C65.2246 202.586 64.7676 202.111 64.0117 202.111C62.9131 202.111 62.2891 203.096 62.2891 204.827H62.3594C62.6846 204.265 63.2998 203.913 64.0117 203.913C65.1191 203.913 66.042 204.783 66.042 205.987C66.042 207.147 65.1982 208.097 63.915 208.088ZM63.915 207.534C64.7852 207.534 65.4355 206.84 65.4355 205.987C65.4355 205.152 64.7852 204.467 63.9238 204.467C63.0273 204.467 62.3506 205.205 62.3945 206.022C62.4561 206.875 63.0713 207.534 63.915 207.534ZM69.8213 204.537V205.1H67.1494V204.537H69.8213ZM73.0469 201.637V208H72.4141V202.287H72.3789L70.876 203.28V202.639L72.3965 201.637H73.0469ZM75.0068 208L77.9775 202.234V202.199H74.5586V201.637H78.6367V202.226L75.666 208H75.0068Z" fill="black"/>
<path d="M96.8672 201.479C98.5107 201.479 99.6797 202.27 99.6797 203.474C99.6797 204.616 98.6426 205.368 97.1484 205.451V207.183H100.444V207.657H93.3428V207.183H96.5947V205.451C95.105 205.372 94.0635 204.616 94.0635 203.474C94.0635 202.27 95.2324 201.479 96.8672 201.479ZM96.8672 201.936C95.5576 201.936 94.5908 202.56 94.5908 203.474C94.5908 204.388 95.5576 205.012 96.8672 205.012C98.1768 205.012 99.1523 204.388 99.1523 203.474C99.1523 202.56 98.1768 201.936 96.8672 201.936ZM107.766 201.848V202.313H101.499V201.848H104.373V200.872H104.927V201.848H107.766ZM108.223 205.952V206.427H104.927V208.694H104.373V206.427H101.121V205.952H108.223ZM104.646 202.806C106.201 202.806 107.133 203.263 107.133 204.089C107.133 204.897 106.201 205.363 104.646 205.363C103.09 205.363 102.158 204.897 102.167 204.089C102.158 203.263 103.09 202.806 104.646 202.806ZM104.646 203.236C103.459 203.236 102.729 203.562 102.738 204.089C102.729 204.607 103.459 204.933 104.646 204.924C105.832 204.933 106.553 204.607 106.562 204.089C106.553 203.562 105.832 203.236 104.646 203.236ZM113.355 208.088C111.993 208.088 111.202 206.884 111.202 204.818C111.202 202.762 112.002 201.549 113.355 201.549C114.7 201.549 115.5 202.762 115.5 204.818C115.5 206.884 114.709 208.088 113.355 208.088ZM113.355 207.525C114.322 207.525 114.894 206.541 114.894 204.818C114.894 203.096 114.313 202.103 113.355 202.103C112.389 202.103 111.817 203.096 111.817 204.818C111.817 206.541 112.389 207.525 113.355 207.525ZM118.717 208.088C117.609 208.079 116.502 207.341 116.502 205.073C116.502 202.973 117.284 201.549 118.813 201.549C119.895 201.549 120.633 202.234 120.773 203.228H120.149C120.026 202.586 119.569 202.111 118.813 202.111C117.715 202.111 117.091 203.096 117.091 204.827H117.161C117.486 204.265 118.102 203.913 118.813 203.913C119.921 203.913 120.844 204.783 120.844 205.987C120.844 207.147 120 208.097 118.717 208.088ZM118.717 207.534C119.587 207.534 120.237 206.84 120.237 205.987C120.237 205.152 119.587 204.467 118.726 204.467C117.829 204.467 117.152 205.205 117.196 206.022C117.258 206.875 117.873 207.534 118.717 207.534ZM122.479 207.139C122.215 207.139 122.004 206.928 122.004 206.673C122.004 206.409 122.215 206.198 122.479 206.198C122.733 206.198 122.944 206.409 122.944 206.673C122.944 206.928 122.733 207.139 122.479 207.139ZM122.479 203.438C122.215 203.438 122.004 203.228 122.004 202.973C122.004 202.709 122.215 202.498 122.479 202.498C122.733 202.498 122.944 202.709 122.944 202.973C122.944 203.228 122.733 203.438 122.479 203.438ZM124.052 206.646V206.137L126.952 201.637H127.708V206.093H128.578V206.646H127.708V208H127.11V206.646H124.052ZM124.746 206.093H127.11V202.472H127.049L124.746 206.049V206.093ZM131.812 208.088C130.591 208.088 129.703 207.402 129.668 206.4H130.301C130.336 207.077 130.986 207.525 131.804 207.525C132.7 207.525 133.333 207.007 133.342 206.286C133.333 205.539 132.709 205.012 131.681 205.012H131.285V204.449H131.681C132.516 204.449 133.113 203.983 133.122 203.263C133.113 202.577 132.604 202.103 131.821 202.103C131.074 202.103 130.441 202.542 130.424 203.228H129.817C129.844 202.234 130.723 201.549 131.83 201.549C132.99 201.549 133.729 202.313 133.72 203.236C133.729 203.966 133.289 204.502 132.604 204.695V204.739C133.438 204.889 133.957 205.478 133.948 206.295C133.957 207.323 133.043 208.088 131.812 208.088Z" fill="black"/>
<path d="M155.157 201.329C155.157 202.366 156.722 203.122 158.005 203.28L157.803 203.711C156.638 203.544 155.355 202.977 154.876 202.085C154.397 202.977 153.105 203.544 151.94 203.711L151.747 203.28C153.03 203.122 154.595 202.366 154.595 201.329V200.986H155.157V201.329ZM158.409 204.256V204.73H151.343V204.256H158.409ZM157.478 205.521V207.218H152.775V208.132H157.724V208.589H152.239V206.796H156.941V205.97H152.213V205.521H157.478ZM165.722 200.934V208.686H165.177V204.59H163.973V208.281H163.445V201.145H163.973V204.124H165.177V200.934H165.722ZM162.443 201.953C162.443 203.869 161.731 205.759 159.49 206.998L159.156 206.594C161.05 205.565 161.806 204.045 161.907 202.419H159.429V201.953H162.443ZM173.052 201.259V201.777C173.043 202.287 173.043 202.867 172.894 203.614L172.34 203.553C172.498 202.814 172.498 202.27 172.498 201.777V201.716H167.752V201.259H173.052ZM173.966 204.089V204.546H166.899V204.089H169.914V202.665H170.459V204.089H173.966ZM173.078 205.346V207.121H168.323V208.123H173.28V208.58H167.778V206.699H172.533V205.812H167.761V205.346H173.078ZM181.902 202.182V202.647H180.716V203.825H181.902V204.309H180.716V205.548H180.162V200.934H180.716V202.182H181.902ZM180.716 205.926V208.686H180.162V206.392H175.68V205.926H180.716ZM176.866 201.408C178.035 201.408 178.861 202.146 178.87 203.219C178.861 204.3 178.035 205.029 176.866 205.029C175.697 205.029 174.854 204.3 174.854 203.219C174.854 202.146 175.697 201.408 176.866 201.408ZM176.866 201.892C176.014 201.892 175.39 202.445 175.398 203.219C175.39 204.001 176.014 204.555 176.866 204.555C177.71 204.555 178.325 204.001 178.334 203.219C178.325 202.445 177.71 201.892 176.866 201.892Z" fill="black"/>
<path d="M198.654 201.637V208H198.021V202.287H197.986L196.483 203.28V202.639L198.004 201.637H198.654ZM206.178 200.934V202.674H207.373V203.14H206.178V204.906H205.624V200.934H206.178ZM206.178 205.293V207.104H201.854V208.114H206.477V208.571H201.309V206.673H205.624V205.75H201.291V205.293H206.178ZM202.311 201.232C203.471 201.232 204.297 201.927 204.306 202.938C204.297 203.957 203.471 204.651 202.311 204.651C201.159 204.651 200.315 203.957 200.315 202.938C200.315 201.927 201.159 201.232 202.311 201.232ZM202.311 201.698C201.476 201.698 200.86 202.226 200.86 202.938C200.86 203.658 201.476 204.194 202.311 204.194C203.146 204.194 203.761 203.658 203.761 202.938C203.761 202.226 203.146 201.698 202.311 201.698Z" fill="black"/>
<path d="M31.8097 94V93.5135L34.1854 90.843C34.4955 90.4927 34.7453 90.1932 34.9347 89.9446C35.1241 89.696 35.2614 89.4664 35.3466 89.2557C35.4342 89.045 35.478 88.826 35.478 88.5987C35.478 88.3217 35.4129 88.0803 35.2827 87.8743C35.1548 87.666 34.9785 87.5038 34.7536 87.3878C34.5286 87.2718 34.2753 87.2138 33.9936 87.2138C33.6953 87.2138 33.4337 87.2777 33.2088 87.4055C32.9863 87.5334 32.8134 87.7086 32.6903 87.9311C32.5672 88.1536 32.5057 88.4093 32.5057 88.6982H31.87C31.87 88.2957 31.9624 87.9394 32.147 87.6293C32.334 87.3168 32.5885 87.0717 32.9105 86.8942C33.2348 86.7166 33.6018 86.6278 34.0114 86.6278C34.4162 86.6278 34.776 86.7154 35.0909 86.8906C35.4058 87.0634 35.6532 87.299 35.8331 87.5973C36.013 87.8956 36.103 88.2294 36.103 88.5987C36.103 88.8662 36.0556 89.1255 35.9609 89.3764C35.8686 89.6274 35.7088 89.9067 35.4815 90.2145C35.2543 90.5223 34.9394 90.8987 34.5369 91.3438L32.733 93.3572V93.4034H36.3303V94H31.8097ZM40.1717 94.0994C39.6603 94.0994 39.2235 93.9527 38.8613 93.6591C38.5015 93.3632 38.2245 92.9358 38.0304 92.3771C37.8386 91.8184 37.7427 91.1473 37.7427 90.3636C37.7427 89.5824 37.8386 88.9136 38.0304 88.3572C38.2245 87.7985 38.5027 87.3712 38.8649 87.0753C39.2295 86.777 39.6651 86.6278 40.1717 86.6278C40.6783 86.6278 41.1127 86.777 41.475 87.0753C41.8395 87.3712 42.1177 87.7985 42.3095 88.3572C42.5036 88.9136 42.6007 89.5824 42.6007 90.3636C42.6007 91.1473 42.5036 91.8184 42.3095 92.3771C42.1177 92.9358 41.8407 93.3632 41.4785 93.6591C41.1187 93.9527 40.6831 94.0994 40.1717 94.0994ZM40.1717 93.5028C40.7328 93.5028 41.1708 93.2294 41.4856 92.6825C41.8005 92.1333 41.9579 91.3603 41.9579 90.3636C41.9579 89.7008 41.8857 89.1349 41.7413 88.6662C41.5993 88.1951 41.3945 87.8352 41.127 87.5866C40.8618 87.3381 40.5434 87.2138 40.1717 87.2138C39.6154 87.2138 39.1786 87.4908 38.8613 88.0447C38.5441 88.5964 38.3855 89.3693 38.3855 90.3636C38.3855 91.0265 38.4565 91.5923 38.5985 92.0611C38.743 92.5298 38.9477 92.8873 39.2129 93.1335C39.4804 93.3797 39.8 93.5028 40.1717 93.5028ZM44.046 94V93.5135L46.4217 90.843C46.7318 90.4927 46.9816 90.1932 47.171 89.9446C47.3604 89.696 47.4977 89.4664 47.5829 89.2557C47.6705 89.045 47.7143 88.826 47.7143 88.5987C47.7143 88.3217 47.6492 88.0803 47.519 87.8743C47.3912 87.666 47.2148 87.5038 46.9899 87.3878C46.765 87.2718 46.5117 87.2138 46.2299 87.2138C45.9316 87.2138 45.67 87.2777 45.4451 87.4055C45.2226 87.5334 45.0498 87.7086 44.9267 87.9311C44.8036 88.1536 44.742 88.4093 44.742 88.6982H44.1064C44.1064 88.2957 44.1987 87.9394 44.3833 87.6293C44.5704 87.3168 44.8249 87.0717 45.1468 86.8942C45.4712 86.7166 45.8381 86.6278 46.2477 86.6278C46.6525 86.6278 47.0124 86.7154 47.3272 86.8906C47.6421 87.0634 47.8895 87.299 48.0694 87.5973C48.2493 87.8956 48.3393 88.2294 48.3393 88.5987C48.3393 88.8662 48.292 89.1255 48.1973 89.3764C48.1049 89.6274 47.9451 89.9067 47.7179 90.2145C47.4906 90.5223 47.1757 90.8987 46.7733 91.3438L44.9693 93.3572V93.4034H48.5666V94H44.046ZM52.2766 94.0994C51.8718 94.0994 51.5096 94.0178 51.19 93.8544C50.8728 93.6887 50.6194 93.4614 50.43 93.1726C50.243 92.8838 50.1436 92.5535 50.1317 92.1818H50.7745C50.7958 92.5677 50.9473 92.8849 51.229 93.1335C51.5108 93.3797 51.86 93.5028 52.2766 93.5028C52.601 93.5028 52.8898 93.4259 53.1431 93.272C53.3964 93.1158 53.5941 92.9027 53.7362 92.6328C53.8806 92.3606 53.9528 92.054 53.9528 91.7131C53.9504 91.358 53.8735 91.0455 53.7219 90.7756C53.5704 90.5033 53.3645 90.2902 53.104 90.1364C52.846 89.9825 52.556 89.9055 52.234 89.9055C51.9902 89.9032 51.7511 89.9434 51.5167 90.0263C51.2823 90.1091 51.087 90.2157 50.9308 90.3459L50.2667 90.2607L50.7035 86.7273H54.2972V87.3239H51.261L50.9698 89.7564H51.0053C51.1663 89.6214 51.3616 89.5114 51.5913 89.4261C51.8233 89.3409 52.0683 89.2983 52.3263 89.2983C52.7549 89.2983 53.1396 89.4013 53.4805 89.6072C53.8237 89.8132 54.0948 90.0973 54.2937 90.4595C54.4949 90.8194 54.5955 91.2337 54.5955 91.7024C54.5955 92.1617 54.4949 92.5724 54.2937 92.9347C54.0948 93.2945 53.8202 93.5786 53.4698 93.7869C53.1218 93.9953 52.7241 94.0994 52.2766 94.0994ZM59.0753 90.0653V90.6619H56.0497V90.0653H59.0753ZM62.8963 94.0994C62.3849 94.0994 61.9482 93.9527 61.5859 93.6591C61.2261 93.3632 60.9491 92.9358 60.755 92.3771C60.5632 91.8184 60.4673 91.1473 60.4673 90.3636C60.4673 89.5824 60.5632 88.9136 60.755 88.3572C60.9491 87.7985 61.2273 87.3712 61.5895 87.0753C61.9541 86.777 62.3897 86.6278 62.8963 86.6278C63.4029 86.6278 63.8374 86.777 64.1996 87.0753C64.5642 87.3712 64.8423 87.7985 65.0341 88.3572C65.2282 88.9136 65.3253 89.5824 65.3253 90.3636C65.3253 91.1473 65.2282 91.8184 65.0341 92.3771C64.8423 92.9358 64.5653 93.3632 64.2031 93.6591C63.8433 93.9527 63.4077 94.0994 62.8963 94.0994ZM62.8963 93.5028C63.4574 93.5028 63.8954 93.2294 64.2102 92.6825C64.5251 92.1333 64.6825 91.3603 64.6825 90.3636C64.6825 89.7008 64.6103 89.1349 64.4659 88.6662C64.3239 88.1951 64.1191 87.8352 63.8516 87.5866C63.5864 87.3381 63.268 87.2138 62.8963 87.2138C62.34 87.2138 61.9032 87.4908 61.5859 88.0447C61.2687 88.5964 61.1101 89.3693 61.1101 90.3636C61.1101 91.0265 61.1811 91.5923 61.3232 92.0611C61.4676 92.5298 61.6723 92.8873 61.9375 93.1335C62.205 93.3797 62.5246 93.5028 62.8963 93.5028ZM69.0185 94.0994C68.5545 94.0994 68.1413 94.0118 67.7791 93.8366C67.4169 93.6615 67.1328 93.4223 66.9268 93.1193C66.7209 92.8139 66.6179 92.4695 66.6179 92.0859C66.6179 91.7853 66.6806 91.5047 66.8061 91.2443C66.9316 90.9815 67.1044 90.7614 67.3246 90.5838C67.5447 90.4039 67.7921 90.2867 68.0668 90.2322V90.1932C67.7093 90.089 67.4216 89.8842 67.2038 89.5788C66.986 89.2711 66.8783 88.9219 66.8807 88.5312C66.8783 88.169 66.9706 87.8447 67.1577 87.5582C67.3447 87.2718 67.5992 87.0457 67.9212 86.88C68.2455 86.7119 68.6113 86.6278 69.0185 86.6278C69.4233 86.6278 69.7867 86.7119 70.1087 86.88C70.4306 87.0457 70.6851 87.2718 70.8722 87.5582C71.0616 87.8447 71.1574 88.169 71.1598 88.5312C71.1574 88.9195 71.0473 89.2687 70.8295 89.5788C70.6117 89.8866 70.3253 90.0914 69.9702 90.1932V90.2322C70.2448 90.2843 70.491 90.4003 70.7088 90.5803C70.9266 90.7602 71.0994 90.9815 71.2273 91.2443C71.3551 91.5047 71.419 91.7853 71.419 92.0859C71.419 92.4695 71.3149 92.8139 71.1065 93.1193C70.9006 93.4223 70.6165 93.6615 70.2543 93.8366C69.8944 94.0118 69.4825 94.0994 69.0185 94.0994ZM69.0185 93.5028C69.3641 93.5028 69.6671 93.4413 69.9276 93.3182C70.1903 93.1927 70.3951 93.0211 70.5419 92.8033C70.6911 92.5855 70.7656 92.3357 70.7656 92.054C70.7656 91.7628 70.6887 91.5036 70.5348 91.2763C70.3809 91.0466 70.1726 90.8655 69.9098 90.733C69.647 90.598 69.3499 90.5305 69.0185 90.5305C68.687 90.5305 68.3887 90.598 68.1236 90.733C67.8608 90.8655 67.6525 91.0466 67.4986 91.2763C67.3471 91.5036 67.2713 91.7628 67.2713 92.054C67.2713 92.3357 67.3435 92.5855 67.4879 92.8033C67.6347 93.0211 67.8395 93.1927 68.1023 93.3182C68.3674 93.4413 68.6728 93.5028 69.0185 93.5028ZM69.0185 89.9624C69.3026 89.9624 69.5571 89.902 69.782 89.7812C70.0069 89.6605 70.1844 89.496 70.3146 89.2876C70.4472 89.0769 70.5147 88.8378 70.517 88.5703C70.5147 88.3052 70.4484 88.0708 70.3182 87.8672C70.188 87.6612 70.0104 87.5014 69.7855 87.3878C69.563 87.2718 69.3073 87.2138 69.0185 87.2138C68.7296 87.2138 68.4716 87.2718 68.2443 87.3878C68.0194 87.5014 67.8419 87.6612 67.7116 87.8672C67.5838 88.0708 67.5211 88.3052 67.5234 88.5703C67.5211 88.8378 67.585 89.0769 67.7152 89.2876C67.8478 89.496 68.0265 89.6605 68.2514 89.7812C68.4787 89.902 68.7344 89.9624 69.0185 89.9624ZM75.8624 90.0653V90.6619H72.8368V90.0653H75.8624ZM79.6692 86.7273V94H79.0051V87.4233H78.9625L77.258 88.5561V87.8672L78.9767 86.7273H79.6692ZM84.1685 94.0994C83.8678 94.0971 83.5743 94.0367 83.2878 93.9183C83.0014 93.7976 82.7433 93.6046 82.5137 93.3395C82.284 93.072 82.1017 92.7192 81.9668 92.2812C81.8319 91.8433 81.7644 91.3047 81.7644 90.6655C81.7644 90.0736 81.8165 89.5315 81.9206 89.0391C82.0248 88.5466 82.181 88.1205 82.3894 87.7607C82.5977 87.4008 82.8581 87.1226 83.1706 86.9261C83.4831 86.7273 83.8489 86.6278 84.2679 86.6278C84.6609 86.6278 85.0078 86.7095 85.3084 86.8729C85.6091 87.0339 85.8529 87.2588 86.04 87.5476C86.227 87.8364 86.3442 88.169 86.3915 88.5455H85.7381C85.6718 88.1619 85.5144 87.8459 85.2658 87.5973C85.0172 87.3487 84.6846 87.2244 84.2679 87.2244C83.6713 87.2244 83.2097 87.5014 82.883 88.0554C82.5563 88.607 82.3917 89.3906 82.3894 90.4062H82.4355C82.5516 90.1908 82.7007 90.005 82.883 89.8487C83.0676 89.6901 83.2772 89.567 83.5115 89.4794C83.7459 89.3894 83.9921 89.3445 84.2502 89.3445C84.655 89.3445 85.0255 89.4474 85.3617 89.6534C85.6979 89.857 85.9666 90.1375 86.1678 90.495C86.369 90.8501 86.4696 91.2562 86.4696 91.7131C86.4696 92.1463 86.3738 92.5452 86.182 92.9098C85.9926 93.2744 85.7251 93.5644 85.3794 93.7798C85.0362 93.9953 84.6325 94.1018 84.1685 94.0994ZM84.1685 93.5028C84.4857 93.5028 84.7686 93.4223 85.0172 93.2614C85.2682 93.1004 85.4659 92.8849 85.6103 92.6151C85.7547 92.3428 85.8269 92.0421 85.8269 91.7131C85.8269 91.384 85.7547 91.0857 85.6103 90.8182C85.4659 90.5507 85.2682 90.3376 85.0172 90.179C84.7686 90.0204 84.4857 89.9411 84.1685 89.9411C83.927 89.9411 83.7021 89.9908 83.4938 90.0902C83.2855 90.1873 83.1043 90.321 82.9505 90.4915C82.7989 90.6596 82.6829 90.8525 82.6025 91.0703C82.5243 91.2881 82.4947 91.5166 82.5137 91.7557C82.5397 92.0895 82.6261 92.389 82.7729 92.6541C82.9221 92.9169 83.1162 93.1241 83.3553 93.2756C83.5968 93.4271 83.8678 93.5028 84.1685 93.5028Z" fill="black"/>
<path d="M35.17 136.84H35.99V139.09H35.17V136.84ZM35.58 132.32C36.22 132.32 36.7867 132.42 37.28 132.62C37.7733 132.813 38.16 133.087 38.44 133.44C38.7267 133.793 38.87 134.21 38.87 134.69C38.87 135.17 38.7267 135.59 38.44 135.95C38.16 136.303 37.7733 136.577 37.28 136.77C36.7867 136.963 36.22 137.06 35.58 137.06C34.9467 137.06 34.38 136.963 33.88 136.77C33.3867 136.577 33 136.303 32.72 135.95C32.44 135.59 32.3 135.17 32.3 134.69C32.3 134.21 32.44 133.793 32.72 133.44C33 133.087 33.3867 132.813 33.88 132.62C34.38 132.42 34.9467 132.32 35.58 132.32ZM35.58 132.99C35.1 132.99 34.6733 133.06 34.3 133.2C33.9267 133.34 33.6333 133.54 33.42 133.8C33.2067 134.053 33.1 134.35 33.1 134.69C33.1 135.03 33.2067 135.33 33.42 135.59C33.6333 135.85 33.9267 136.05 34.3 136.19C34.6733 136.33 35.1 136.4 35.58 136.4C36.06 136.4 36.4867 136.33 36.86 136.19C37.2333 136.05 37.5267 135.85 37.74 135.59C37.96 135.33 38.07 135.03 38.07 134.69C38.07 134.35 37.96 134.053 37.74 133.8C37.5267 133.54 37.2333 133.34 36.86 133.2C36.4867 133.06 36.06 132.99 35.58 132.99ZM31.5 138.93H39.7V139.62H31.5V138.93ZM45.4892 134.23H47.7792V134.91H45.4892V134.23ZM47.3092 131.74H48.1392V138.37H47.3092V131.74ZM42.3692 139.9H48.3892V140.58H42.3692V139.9ZM42.3692 137.78H43.1892V140.24H42.3692V137.78ZM42.9992 132.86H43.6792V133.59C43.6792 134.137 43.5726 134.653 43.3592 135.14C43.1526 135.62 42.8592 136.04 42.4792 136.4C42.0992 136.753 41.6592 137.027 41.1592 137.22L40.7292 136.55C41.0626 136.43 41.3659 136.27 41.6392 136.07C41.9192 135.87 42.1626 135.64 42.3692 135.38C42.5759 135.12 42.7326 134.837 42.8392 134.53C42.9459 134.223 42.9992 133.91 42.9992 133.59V132.86ZM43.1592 132.86H43.8392V133.59C43.8392 133.977 43.9292 134.353 44.1092 134.72C44.2892 135.087 44.5459 135.413 44.8792 135.7C45.2126 135.98 45.5959 136.197 46.0292 136.35L45.6092 137.01C45.1159 136.83 44.6859 136.57 44.3192 136.23C43.9526 135.883 43.6659 135.483 43.4592 135.03C43.2592 134.577 43.1592 134.097 43.1592 133.59V132.86ZM40.9892 132.47H45.8192V133.15H40.9892V132.47ZM55.2791 140.099C54.7678 140.099 54.331 139.953 53.9688 139.659C53.6089 139.363 53.3319 138.936 53.1378 138.377C52.946 137.818 52.8501 137.147 52.8501 136.364C52.8501 135.582 52.946 134.914 53.1378 134.357C53.3319 133.799 53.6101 133.371 53.9723 133.075C54.3369 132.777 54.7725 132.628 55.2791 132.628C55.7857 132.628 56.2202 132.777 56.5824 133.075C56.947 133.371 57.2251 133.799 57.4169 134.357C57.611 134.914 57.7081 135.582 57.7081 136.364C57.7081 137.147 57.611 137.818 57.4169 138.377C57.2251 138.936 56.9482 139.363 56.5859 139.659C56.2261 139.953 55.7905 140.099 55.2791 140.099ZM55.2791 139.503C55.8402 139.503 56.2782 139.229 56.593 138.683C56.9079 138.133 57.0653 137.36 57.0653 136.364C57.0653 135.701 56.9931 135.135 56.8487 134.666C56.7067 134.195 56.5019 133.835 56.2344 133.587C55.9692 133.338 55.6508 133.214 55.2791 133.214C54.7228 133.214 54.286 133.491 53.9688 134.045C53.6515 134.596 53.4929 135.369 53.4929 136.364C53.4929 137.027 53.5639 137.592 53.706 138.061C53.8504 138.53 54.0552 138.887 54.3203 139.134C54.5878 139.38 54.9074 139.503 55.2791 139.503ZM59.1676 140L62.4808 133.37V133.324H58.6634V132.727H63.1768V133.352L59.8672 140H59.1676ZM64.7802 138.91C64.6405 138.91 64.5198 138.86 64.418 138.761C64.3185 138.659 64.2688 138.538 64.2688 138.398C64.2688 138.256 64.3185 138.136 64.418 138.036C64.5198 137.937 64.6405 137.887 64.7802 137.887C64.9222 137.887 65.043 137.937 65.1424 138.036C65.2418 138.136 65.2915 138.256 65.2915 138.398C65.2915 138.491 65.2679 138.576 65.2205 138.654C65.1755 138.732 65.114 138.795 65.0359 138.842C64.9601 138.887 64.8749 138.91 64.7802 138.91ZM64.7802 135.22C64.6405 135.22 64.5198 135.17 64.418 135.071C64.3185 134.969 64.2688 134.848 64.2688 134.709C64.2688 134.569 64.3185 134.45 64.418 134.35C64.5198 134.248 64.6405 134.197 64.7802 134.197C64.9222 134.197 65.043 134.248 65.1424 134.35C65.2418 134.45 65.2915 134.569 65.2915 134.709C65.2915 134.801 65.2679 134.886 65.2205 134.964C65.1755 135.043 65.114 135.105 65.0359 135.153C64.9601 135.198 64.8749 135.22 64.7802 135.22ZM69.1951 140.099C68.6838 140.099 68.247 139.953 67.8848 139.659C67.5249 139.363 67.2479 138.936 67.0538 138.377C66.862 137.818 66.7662 137.147 66.7662 136.364C66.7662 135.582 66.862 134.914 67.0538 134.357C67.2479 133.799 67.5261 133.371 67.8883 133.075C68.2529 132.777 68.6885 132.628 69.1951 132.628C69.7018 132.628 70.1362 132.777 70.4984 133.075C70.863 133.371 71.1412 133.799 71.3329 134.357C71.527 134.914 71.6241 135.582 71.6241 136.364C71.6241 137.147 71.527 137.818 71.3329 138.377C71.1412 138.936 70.8642 139.363 70.502 139.659C70.1421 139.953 69.7065 140.099 69.1951 140.099ZM69.1951 139.503C69.7562 139.503 70.1942 139.229 70.5091 138.683C70.8239 138.133 70.9814 137.36 70.9814 136.364C70.9814 135.701 70.9092 135.135 70.7647 134.666C70.6227 134.195 70.4179 133.835 70.1504 133.587C69.8852 133.338 69.5668 133.214 69.1951 133.214C68.6388 133.214 68.202 133.491 67.8848 134.045C67.5675 134.596 67.4089 135.369 67.4089 136.364C67.4089 137.027 67.4799 137.592 67.622 138.061C67.7664 138.53 67.9712 138.887 68.2363 139.134C68.5038 139.38 68.8234 139.503 69.1951 139.503ZM75.3279 140.099C74.8166 140.099 74.3798 139.953 74.0176 139.659C73.6577 139.363 73.3807 138.936 73.1866 138.377C72.9949 137.818 72.899 137.147 72.899 136.364C72.899 135.582 72.9949 134.914 73.1866 134.357C73.3807 133.799 73.6589 133.371 74.0211 133.075C74.3857 132.777 74.8213 132.628 75.3279 132.628C75.8346 132.628 76.269 132.777 76.6312 133.075C76.9958 133.371 77.274 133.799 77.4657 134.357C77.6599 134.914 77.7569 135.582 77.7569 136.364C77.7569 137.147 77.6599 137.818 77.4657 138.377C77.274 138.936 76.997 139.363 76.6348 139.659C76.2749 139.953 75.8393 140.099 75.3279 140.099ZM75.3279 139.503C75.889 139.503 76.327 139.229 76.6419 138.683C76.9567 138.133 77.1142 137.36 77.1142 136.364C77.1142 135.701 77.042 135.135 76.8975 134.666C76.7555 134.195 76.5507 133.835 76.2832 133.587C76.0181 133.338 75.6996 133.214 75.3279 133.214C74.7716 133.214 74.3348 133.491 74.0176 134.045C73.7003 134.596 73.5417 135.369 73.5417 136.364C73.5417 137.027 73.6127 137.592 73.7548 138.061C73.8992 138.53 74.104 138.887 74.3691 139.134C74.6367 139.38 74.9563 139.503 75.3279 139.503Z" fill="black"/>
<path d="M145.17 136.84H145.99V139.09H145.17V136.84ZM145.58 132.32C146.22 132.32 146.787 132.42 147.28 132.62C147.773 132.813 148.16 133.087 148.44 133.44C148.727 133.793 148.87 134.21 148.87 134.69C148.87 135.17 148.727 135.59 148.44 135.95C148.16 136.303 147.773 136.577 147.28 136.77C146.787 136.963 146.22 137.06 145.58 137.06C144.947 137.06 144.38 136.963 143.88 136.77C143.387 136.577 143 136.303 142.72 135.95C142.44 135.59 142.3 135.17 142.3 134.69C142.3 134.21 142.44 133.793 142.72 133.44C143 133.087 143.387 132.813 143.88 132.62C144.38 132.42 144.947 132.32 145.58 132.32ZM145.58 132.99C145.1 132.99 144.673 133.06 144.3 133.2C143.927 133.34 143.633 133.54 143.42 133.8C143.207 134.053 143.1 134.35 143.1 134.69C143.1 135.03 143.207 135.33 143.42 135.59C143.633 135.85 143.927 136.05 144.3 136.19C144.673 136.33 145.1 136.4 145.58 136.4C146.06 136.4 146.487 136.33 146.86 136.19C147.233 136.05 147.527 135.85 147.74 135.59C147.96 135.33 148.07 135.03 148.07 134.69C148.07 134.35 147.96 134.053 147.74 133.8C147.527 133.54 147.233 133.34 146.86 133.2C146.487 133.06 146.06 132.99 145.58 132.99ZM141.5 138.93H149.7V139.62H141.5V138.93ZM155.489 134.23H157.779V134.91H155.489V134.23ZM157.309 131.74H158.139V138.37H157.309V131.74ZM152.369 139.9H158.389V140.58H152.369V139.9ZM152.369 137.78H153.189V140.24H152.369V137.78ZM152.999 132.86H153.679V133.59C153.679 134.137 153.573 134.653 153.359 135.14C153.153 135.62 152.859 136.04 152.479 136.4C152.099 136.753 151.659 137.027 151.159 137.22L150.729 136.55C151.063 136.43 151.366 136.27 151.639 136.07C151.919 135.87 152.163 135.64 152.369 135.38C152.576 135.12 152.733 134.837 152.839 134.53C152.946 134.223 152.999 133.91 152.999 133.59V132.86ZM153.159 132.86H153.839V133.59C153.839 133.977 153.929 134.353 154.109 134.72C154.289 135.087 154.546 135.413 154.879 135.7C155.213 135.98 155.596 136.197 156.029 136.35L155.609 137.01C155.116 136.83 154.686 136.57 154.319 136.23C153.953 135.883 153.666 135.483 153.459 135.03C153.259 134.577 153.159 134.097 153.159 133.59V132.86ZM150.989 132.47H155.819V133.15H150.989V132.47ZM165.279 140.099C164.768 140.099 164.331 139.953 163.969 139.659C163.609 139.363 163.332 138.936 163.138 138.377C162.946 137.818 162.85 137.147 162.85 136.364C162.85 135.582 162.946 134.914 163.138 134.357C163.332 133.799 163.61 133.371 163.972 133.075C164.337 132.777 164.772 132.628 165.279 132.628C165.786 132.628 166.22 132.777 166.582 133.075C166.947 133.371 167.225 133.799 167.417 134.357C167.611 134.914 167.708 135.582 167.708 136.364C167.708 137.147 167.611 137.818 167.417 138.377C167.225 138.936 166.948 139.363 166.586 139.659C166.226 139.953 165.79 140.099 165.279 140.099ZM165.279 139.503C165.84 139.503 166.278 139.229 166.593 138.683C166.908 138.133 167.065 137.36 167.065 136.364C167.065 135.701 166.993 135.135 166.849 134.666C166.707 134.195 166.502 133.835 166.234 133.587C165.969 133.338 165.651 133.214 165.279 133.214C164.723 133.214 164.286 133.491 163.969 134.045C163.652 134.596 163.493 135.369 163.493 136.364C163.493 137.027 163.564 137.592 163.706 138.061C163.85 138.53 164.055 138.887 164.32 139.134C164.588 139.38 164.907 139.503 165.279 139.503ZM169.168 140L172.481 133.37V133.324H168.663V132.727H173.177V133.352L169.867 140H169.168ZM174.78 138.91C174.641 138.91 174.52 138.86 174.418 138.761C174.319 138.659 174.269 138.538 174.269 138.398C174.269 138.256 174.319 138.136 174.418 138.036C174.52 137.937 174.641 137.887 174.78 137.887C174.922 137.887 175.043 137.937 175.142 138.036C175.242 138.136 175.292 138.256 175.292 138.398C175.292 138.491 175.268 138.576 175.221 138.654C175.176 138.732 175.114 138.795 175.036 138.842C174.96 138.887 174.875 138.91 174.78 138.91ZM174.78 135.22C174.641 135.22 174.52 135.17 174.418 135.071C174.319 134.969 174.269 134.848 174.269 134.709C174.269 134.569 174.319 134.45 174.418 134.35C174.52 134.248 174.641 134.197 174.78 134.197C174.922 134.197 175.043 134.248 175.142 134.35C175.242 134.45 175.292 134.569 175.292 134.709C175.292 134.801 175.268 134.886 175.221 134.964C175.176 135.043 175.114 135.105 175.036 135.153C174.96 135.198 174.875 135.22 174.78 135.22ZM179.195 140.099C178.684 140.099 178.247 139.953 177.885 139.659C177.525 139.363 177.248 138.936 177.054 138.377C176.862 137.818 176.766 137.147 176.766 136.364C176.766 135.582 176.862 134.914 177.054 134.357C177.248 133.799 177.526 133.371 177.888 133.075C178.253 132.777 178.689 132.628 179.195 132.628C179.702 132.628 180.136 132.777 180.498 133.075C180.863 133.371 181.141 133.799 181.333 134.357C181.527 134.914 181.624 135.582 181.624 136.364C181.624 137.147 181.527 137.818 181.333 138.377C181.141 138.936 180.864 139.363 180.502 139.659C180.142 139.953 179.706 140.099 179.195 140.099ZM179.195 139.503C179.756 139.503 180.194 139.229 180.509 138.683C180.824 138.133 180.981 137.36 180.981 136.364C180.981 135.701 180.909 135.135 180.765 134.666C180.623 134.195 180.418 133.835 180.15 133.587C179.885 133.338 179.567 133.214 179.195 133.214C178.639 133.214 178.202 133.491 177.885 134.045C177.568 134.596 177.409 135.369 177.409 136.364C177.409 137.027 177.48 137.592 177.622 138.061C177.766 138.53 177.971 138.887 178.236 139.134C178.504 139.38 178.823 139.503 179.195 139.503ZM185.328 140.099C184.817 140.099 184.38 139.953 184.018 139.659C183.658 139.363 183.381 138.936 183.187 138.377C182.995 137.818 182.899 137.147 182.899 136.364C182.899 135.582 182.995 134.914 183.187 134.357C183.381 133.799 183.659 133.371 184.021 133.075C184.386 132.777 184.821 132.628 185.328 132.628C185.835 132.628 186.269 132.777 186.631 133.075C186.996 133.371 187.274 133.799 187.466 134.357C187.66 134.914 187.757 135.582 187.757 136.364C187.757 137.147 187.66 137.818 187.466 138.377C187.274 138.936 186.997 139.363 186.635 139.659C186.275 139.953 185.839 140.099 185.328 140.099ZM185.328 139.503C185.889 139.503 186.327 139.229 186.642 138.683C186.957 138.133 187.114 137.36 187.114 136.364C187.114 135.701 187.042 135.135 186.898 134.666C186.756 134.195 186.551 133.835 186.283 133.587C186.018 133.338 185.7 133.214 185.328 133.214C184.772 133.214 184.335 133.491 184.018 134.045C183.7 134.596 183.542 135.369 183.542 136.364C183.542 137.027 183.613 137.592 183.755 138.061C183.899 138.53 184.104 138.887 184.369 139.134C184.637 139.38 184.956 139.503 185.328 139.503Z" fill="black"/>
<path d="M217.5 86H217V85H216V86H212V85H211V86H210.5C210.235 86 209.98 86.1054 209.793 86.2929C209.605 86.4804 209.5 86.7348 209.5 87V93.5C209.5 93.7652 209.605 94.0196 209.793 94.2071C209.98 94.3946 210.235 94.5 210.5 94.5H217.5C217.765 94.5 218.02 94.3946 218.207 94.2071C218.395 94.0196 218.5 93.7652 218.5 93.5V87C218.5 86.7348 218.395 86.4804 218.207 86.2929C218.02 86.1054 217.765 86 217.5 86ZM217.5 93.5H210.5V88H217.5V93.5Z" fill="black"/>
<path d="M97.9999 140.167C100.301 140.167 102.167 138.301 102.167 136C102.167 133.699 100.301 131.833 97.9999 131.833C95.6987 131.833 93.8333 133.699 93.8333 136C93.8333 138.301 95.6987 140.167 97.9999 140.167Z" stroke="black" stroke-linejoin="round"/>
<path d="M98.0015 133.5V136.002L99.7679 137.769" stroke="black" stroke-linecap="round" stroke-linejoin="round"/>
<path d="M208 140.167C210.301 140.167 212.167 138.301 212.167 136C212.167 133.699 210.301 131.833 208 131.833C205.699 131.833 203.833 133.699 203.833 136C203.833 138.301 205.699 140.167 208 140.167Z" stroke="black" stroke-linejoin="round"/>
<path d="M208.001 133.5V136.002L209.768 137.769" stroke="black" stroke-linecap="round" stroke-linejoin="round"/>
<path d="M23.9268 115.245C23.9268 116.634 25.0869 118.049 26.1064 118.541L25.8428 118.866C24.9946 118.427 24.0938 117.429 23.7334 116.265C23.3862 117.482 22.4897 118.532 21.6416 118.989L21.3604 118.646C22.3711 118.137 23.5225 116.678 23.5225 115.245V113.672H23.9268V115.245ZM27.6533 112.96V120.668H27.2314V112.96H27.6533ZM31.5996 114.472C31.5996 115.57 32.4961 116.511 33.5596 116.889L33.3486 117.223C32.4653 116.893 31.7139 116.212 31.4062 115.333C31.0986 116.3 30.3032 117.029 29.4023 117.381L29.165 117.056C30.2461 116.651 31.1953 115.667 31.1953 114.48V113.918H29.332V113.558H33.4541V113.918H31.5996V114.472ZM35.1064 112.96V115.104H36.3369V115.474H35.1064V117.592H34.6934V112.96H35.1064ZM35.1064 118.049V120.659H34.6934V118.418H30.167V118.049H35.1064ZM39.4834 115.245C39.4834 116.634 40.6436 118.049 41.6631 118.541L41.3994 118.866C40.5513 118.427 39.6504 117.429 39.29 116.265C38.9429 117.482 38.0464 118.532 37.1982 118.989L36.917 118.646C37.9277 118.137 39.0791 116.678 39.0791 115.245V113.672H39.4834V115.245ZM43.21 112.96V120.668H42.7881V112.96H43.21ZM50.6631 112.96V115.421H51.8936V115.79H50.6631V118.664H50.2412V112.96H50.6631ZM48.5889 113.566C48.5977 115.491 47.1035 116.968 44.9414 117.688L44.7568 117.337C46.6641 116.708 48.022 115.482 48.1406 113.936H45.0645V113.566H48.5889ZM51.0674 120.097V120.457H45.9521V118.084H46.3652V120.097H51.0674Z" fill="black"/>
<path d="M135.078 115.676V116.889H138.374V117.249H131.369V116.889H134.674V115.676H135.078ZM134.876 118.022C136.52 118.022 137.504 118.488 137.504 119.323C137.504 120.158 136.52 120.624 134.876 120.624C133.224 120.624 132.239 120.158 132.239 119.323C132.239 118.488 133.224 118.022 134.876 118.022ZM134.876 118.374C133.514 118.365 132.661 118.734 132.661 119.323C132.661 119.912 133.514 120.281 134.876 120.272C136.221 120.281 137.082 119.912 137.082 119.323C137.082 118.734 136.221 118.365 134.876 118.374ZM135.113 113.786C135.113 114.841 136.766 115.544 137.935 115.685L137.768 116.027C136.656 115.865 135.293 115.311 134.885 114.375C134.458 115.311 133.096 115.865 131.984 116.027L131.817 115.685C132.986 115.544 134.63 114.85 134.63 113.786V113.698H132.011V113.338H137.75V113.698H135.113V113.786ZM146.196 119.262V119.631H139.147V119.262H141.239V117.618H140.07V115.386H144.843V113.944H140.053V113.575H145.256V115.755H140.483V117.258H145.44V117.618H144.148V119.262H146.196ZM141.661 119.262H143.744V117.618H141.661V119.262ZM149.483 115.245C149.483 116.634 150.644 118.049 151.663 118.541L151.399 118.866C150.551 118.427 149.65 117.429 149.29 116.265C148.943 117.482 148.046 118.532 147.198 118.989L146.917 118.646C147.928 118.137 149.079 116.678 149.079 115.245V113.672H149.483V115.245ZM153.21 112.96V120.668H152.788V112.96H153.21ZM160.663 112.96V115.421H161.894V115.79H160.663V118.664H160.241V112.96H160.663ZM158.589 113.566C158.598 115.491 157.104 116.968 154.941 117.688L154.757 117.337C156.664 116.708 158.022 115.482 158.141 113.936H155.064V113.566H158.589ZM161.067 120.097V120.457H155.952V118.084H156.365V120.097H161.067Z" fill="black"/>
</svg>
