<svg width="263" height="150" viewBox="0 0 263 150" fill="none" xmlns="http://www.w3.org/2000/svg">
<rect x="0.15" y="0.15" width="262.7" height="149.7" rx="5.85" fill="#F9FAFB"/>
<rect x="0.15" y="0.15" width="262.7" height="149.7" rx="5.85" stroke="#DADADA" stroke-width="0.3"/>
<rect x="15.15" y="32.15" width="233.7" height="110.7" rx="11.85" fill="white" stroke="#DADADA" stroke-width="0.3"/>
<path d="M21.4111 11.2451V20.9668H20.2295V11.2451H21.4111ZM18.4248 12.0938V15.7354H15.084V17.6904C16.6147 17.6797 17.936 17.6045 19.4453 17.3467L19.5527 18.3242C17.8984 18.6143 16.4482 18.668 14.708 18.668H13.8594V14.79H17.2109V13.0605H13.8486V12.0938H18.4248ZM27.8457 12.5771C27.8457 14.0811 29.3174 15.585 31.3477 15.9395L30.8105 16.9385C29.1831 16.5947 27.8511 15.6118 27.2227 14.3066C26.5781 15.6011 25.2461 16.5894 23.624 16.9385L23.0977 15.9395C25.1064 15.5742 26.5674 14.0703 26.5781 12.5771V11.8574H27.8457V12.5771ZM31.7021 18.7324V19.7207H22.8291V18.7324H31.7021ZM40.2314 16.3369V17.2822H33.4209V12.0078H40.1455V12.9746H34.6348V14.1455H39.9199V15.0801H34.6348V16.3369H40.2314ZM41.209 18.7969V19.7744H32.3359V18.7969H41.209ZM53.3262 18.8076V19.7852H44.4531V18.8076H48.2773V16.917H45.4307V11.8896H46.623V13.4795H51.124V11.8896H52.3164V16.917H49.459V18.8076H53.3262ZM46.623 15.9502H51.124V14.4355H46.623V15.9502ZM62.0703 11.2451V20.9561H60.8672V11.2451H62.0703ZM59.1699 12.2764C59.1699 15.166 58.0527 17.626 54.6475 19.2373L54.0244 18.2812C56.5649 17.0728 57.7466 15.4292 57.9561 13.2217H54.5186V12.2764H59.1699Z" fill="black"/>
<rect x="222.15" y="7.15" width="20.7" height="20.7" rx="5.85" stroke="#DADADA" stroke-width="0.3"/>
<path d="M230.083 19.9167H230.677L234.75 15.8438L234.156 15.25L230.083 19.3229V19.9167ZM229.667 20.75C229.549 20.75 229.45 20.71 229.37 20.63C229.29 20.55 229.25 20.4511 229.25 20.3333V19.3229C229.25 19.2118 229.271 19.1058 229.313 19.005C229.354 18.9042 229.413 18.8157 229.49 18.7396L234.75 13.4896C234.833 13.4132 234.925 13.3542 235.026 13.3125C235.127 13.2708 235.233 13.25 235.344 13.25C235.455 13.25 235.562 13.2708 235.667 13.3125C235.771 13.3542 235.861 13.4167 235.937 13.5L236.51 14.0833C236.594 14.1597 236.654 14.25 236.692 14.3542C236.731 14.4583 236.75 14.5625 236.75 14.6667C236.75 14.7778 236.731 14.8838 236.692 14.9846C236.654 15.0854 236.593 15.1774 236.51 15.2604L231.26 20.5104C231.184 20.5868 231.095 20.6458 230.995 20.6875C230.894 20.7292 230.788 20.75 230.677 20.75H229.667ZM234.448 15.5521L234.156 15.25L234.75 15.8438L234.448 15.5521Z" fill="black"/>
<path d="M23.624 50V49.543L25.7773 47.2139C26.5947 46.3262 26.9287 45.8779 26.9375 45.2803C26.9287 44.5771 26.3574 44.1025 25.6016 44.1025C24.793 44.1025 24.2744 44.6299 24.2744 45.377H23.6768C23.6768 44.3047 24.5029 43.5488 25.6191 43.5488C26.7266 43.5488 27.5176 44.3047 27.5176 45.2803C27.5176 45.9922 27.1924 46.5283 26.0938 47.6885L24.5117 49.3936V49.4375H27.7109V50H23.624ZM30.9277 50.0879C29.5654 50.0879 28.7744 48.8838 28.7744 46.8184C28.7744 44.7617 29.5742 43.5488 30.9277 43.5488C32.2725 43.5488 33.0723 44.7617 33.0723 46.8184C33.0723 48.8838 32.2812 50.0879 30.9277 50.0879ZM30.9277 49.5254C31.8945 49.5254 32.4658 48.541 32.4658 46.8184C32.4658 45.0957 31.8857 44.1025 30.9277 44.1025C29.9609 44.1025 29.3896 45.0957 29.3896 46.8184C29.3896 48.541 29.9609 49.5254 30.9277 49.5254ZM34.1709 50V49.543L36.3242 47.2139C37.1416 46.3262 37.4756 45.8779 37.4844 45.2803C37.4756 44.5771 36.9043 44.1025 36.1484 44.1025C35.3398 44.1025 34.8213 44.6299 34.8213 45.377H34.2236C34.2236 44.3047 35.0498 43.5488 36.166 43.5488C37.2734 43.5488 38.0645 44.3047 38.0645 45.2803C38.0645 45.9922 37.7393 46.5283 36.6406 47.6885L35.0586 49.3936V49.4375H38.2578V50H34.1709ZM41.4395 50.0879C40.3232 50.0879 39.4883 49.3848 39.4619 48.4004H40.0684C40.1035 49.0508 40.6836 49.5342 41.4395 49.5342C42.3271 49.5342 42.9688 48.8662 42.96 47.9961C42.96 47.082 42.2832 46.4492 41.3955 46.4404C40.8594 46.4404 40.4199 46.6162 40.165 47.0293H39.541L39.9805 43.6367H43.2939V44.1992H40.5078L40.2354 46.2998H40.2881C40.5693 46.0361 41.0264 45.8779 41.501 45.8779C42.6699 45.8779 43.5752 46.748 43.5752 47.9873C43.5752 49.2002 42.6787 50.0879 41.4395 50.0879ZM47.3545 46.5371V47.0996H44.6826V46.5371H47.3545ZM50.5537 50.0879C49.1914 50.0879 48.4004 48.8838 48.4004 46.8184C48.4004 44.7617 49.2002 43.5488 50.5537 43.5488C51.8984 43.5488 52.6982 44.7617 52.6982 46.8184C52.6982 48.8838 51.9072 50.0879 50.5537 50.0879ZM50.5537 49.5254C51.5205 49.5254 52.0918 48.541 52.0918 46.8184C52.0918 45.0957 51.5117 44.1025 50.5537 44.1025C49.5869 44.1025 49.0156 45.0957 49.0156 46.8184C49.0156 48.541 49.5869 49.5254 50.5537 49.5254ZM55.8184 43.5488C56.9258 43.5576 58.042 44.2959 58.042 46.5459C58.042 48.6553 57.251 50.0879 55.7305 50.0879C54.6494 50.0879 53.9023 49.4023 53.7617 48.3916H54.3857C54.5088 49.0508 54.9746 49.5254 55.7305 49.5254C56.8203 49.5254 57.4531 48.541 57.4531 46.792H57.3828C57.0576 47.3545 56.4336 47.7061 55.7305 47.7061C54.6143 47.7061 53.7002 46.8359 53.7002 45.6406C53.7002 44.4893 54.5352 43.54 55.8184 43.5488ZM55.8184 44.1025C54.9482 44.1025 54.2979 44.7969 54.3066 45.6318C54.3066 46.4844 54.9482 47.1523 55.8184 47.1523C56.7061 47.1523 57.3916 46.4141 57.3389 45.5967C57.2773 44.7617 56.6621 44.1025 55.8184 44.1025ZM61.8213 46.5371V47.0996H59.1494V46.5371H61.8213ZM65.0469 43.6367V50H64.4141V44.2871H64.3789L62.876 45.2803V44.6387L64.3965 43.6367H65.0469ZM67.0068 50L69.9775 44.2344V44.1992H66.5586V43.6367H70.6367V44.2256L67.666 50H67.0068Z" fill="black"/>
<path d="M23.624 77V76.543L25.7773 74.2139C26.5947 73.3262 26.9287 72.8779 26.9375 72.2803C26.9287 71.5771 26.3574 71.1025 25.6016 71.1025C24.793 71.1025 24.2744 71.6299 24.2744 72.377H23.6768C23.6768 71.3047 24.5029 70.5488 25.6191 70.5488C26.7266 70.5488 27.5176 71.3047 27.5176 72.2803C27.5176 72.9922 27.1924 73.5283 26.0938 74.6885L24.5117 76.3936V76.4375H27.7109V77H23.624ZM30.9277 77.0879C29.5654 77.0879 28.7744 75.8838 28.7744 73.8184C28.7744 71.7617 29.5742 70.5488 30.9277 70.5488C32.2725 70.5488 33.0723 71.7617 33.0723 73.8184C33.0723 75.8838 32.2812 77.0879 30.9277 77.0879ZM30.9277 76.5254C31.8945 76.5254 32.4658 75.541 32.4658 73.8184C32.4658 72.0957 31.8857 71.1025 30.9277 71.1025C29.9609 71.1025 29.3896 72.0957 29.3896 73.8184C29.3896 75.541 29.9609 76.5254 30.9277 76.5254ZM34.1709 77V76.543L36.3242 74.2139C37.1416 73.3262 37.4756 72.8779 37.4844 72.2803C37.4756 71.5771 36.9043 71.1025 36.1484 71.1025C35.3398 71.1025 34.8213 71.6299 34.8213 72.377H34.2236C34.2236 71.3047 35.0498 70.5488 36.166 70.5488C37.2734 70.5488 38.0645 71.3047 38.0645 72.2803C38.0645 72.9922 37.7393 73.5283 36.6406 74.6885L35.0586 76.3936V76.4375H38.2578V77H34.1709ZM41.4395 77.0879C40.3232 77.0879 39.4883 76.3848 39.4619 75.4004H40.0684C40.1035 76.0508 40.6836 76.5342 41.4395 76.5342C42.3271 76.5342 42.9688 75.8662 42.96 74.9961C42.96 74.082 42.2832 73.4492 41.3955 73.4404C40.8594 73.4404 40.4199 73.6162 40.165 74.0293H39.541L39.9805 70.6367H43.2939V71.1992H40.5078L40.2354 73.2998H40.2881C40.5693 73.0361 41.0264 72.8779 41.501 72.8779C42.6699 72.8779 43.5752 73.748 43.5752 74.9873C43.5752 76.2002 42.6787 77.0879 41.4395 77.0879ZM47.3545 73.5371V74.0996H44.6826V73.5371H47.3545ZM50.5537 77.0879C49.1914 77.0879 48.4004 75.8838 48.4004 73.8184C48.4004 71.7617 49.2002 70.5488 50.5537 70.5488C51.8984 70.5488 52.6982 71.7617 52.6982 73.8184C52.6982 75.8838 51.9072 77.0879 50.5537 77.0879ZM50.5537 76.5254C51.5205 76.5254 52.0918 75.541 52.0918 73.8184C52.0918 72.0957 51.5117 71.1025 50.5537 71.1025C49.5869 71.1025 49.0156 72.0957 49.0156 73.8184C49.0156 75.541 49.5869 76.5254 50.5537 76.5254ZM55.8711 77.0879C54.5879 77.0879 53.665 76.3408 53.665 75.3213C53.665 74.5215 54.2363 73.8359 54.9922 73.7041V73.6689C54.3418 73.502 53.9023 72.9131 53.9023 72.2188C53.9023 71.2607 54.7461 70.5488 55.8711 70.5488C56.9873 70.5488 57.8398 71.2607 57.8398 72.2188C57.8398 72.9131 57.4004 73.502 56.7588 73.6689V73.7041C57.5059 73.8359 58.0771 74.5215 58.0859 75.3213C58.0771 76.3408 57.1455 77.0879 55.8711 77.0879ZM55.8711 76.5342C56.8203 76.5342 57.4619 76.0068 57.4619 75.2861C57.4619 74.5479 56.7852 73.9766 55.8711 73.9766C54.9658 73.9766 54.2803 74.5479 54.2891 75.2861C54.2803 76.0068 54.9219 76.5342 55.8711 76.5342ZM55.8711 73.4492C56.6445 73.4492 57.2334 72.9482 57.2334 72.2539C57.2334 71.5771 56.6621 71.0938 55.8711 71.0938C55.0713 71.0938 54.5088 71.5771 54.5088 72.2539C54.5088 72.9482 55.0889 73.4492 55.8711 73.4492ZM61.8301 73.5371V74.0996H59.1582V73.5371H61.8301ZM65.0557 70.6367V77H64.4229V71.2871H64.3877L62.8848 72.2803V71.6387L64.4053 70.6367H65.0557ZM67.0156 77L69.9863 71.2344V71.1992H66.5674V70.6367H70.6455V71.2256L67.6748 77H67.0156Z" fill="black"/>
<path d="M23.624 104V103.543L25.7773 101.214C26.5947 100.326 26.9287 99.8779 26.9375 99.2803C26.9287 98.5771 26.3574 98.1025 25.6016 98.1025C24.793 98.1025 24.2744 98.6299 24.2744 99.377H23.6768C23.6768 98.3047 24.5029 97.5488 25.6191 97.5488C26.7266 97.5488 27.5176 98.3047 27.5176 99.2803C27.5176 99.9922 27.1924 100.528 26.0938 101.688L24.5117 103.394V103.438H27.7109V104H23.624ZM30.9277 104.088C29.5654 104.088 28.7744 102.884 28.7744 100.818C28.7744 98.7617 29.5742 97.5488 30.9277 97.5488C32.2725 97.5488 33.0723 98.7617 33.0723 100.818C33.0723 102.884 32.2812 104.088 30.9277 104.088ZM30.9277 103.525C31.8945 103.525 32.4658 102.541 32.4658 100.818C32.4658 99.0957 31.8857 98.1025 30.9277 98.1025C29.9609 98.1025 29.3896 99.0957 29.3896 100.818C29.3896 102.541 29.9609 103.525 30.9277 103.525ZM34.1709 104V103.543L36.3242 101.214C37.1416 100.326 37.4756 99.8779 37.4844 99.2803C37.4756 98.5771 36.9043 98.1025 36.1484 98.1025C35.3398 98.1025 34.8213 98.6299 34.8213 99.377H34.2236C34.2236 98.3047 35.0498 97.5488 36.166 97.5488C37.2734 97.5488 38.0645 98.3047 38.0645 99.2803C38.0645 99.9922 37.7393 100.528 36.6406 101.688L35.0586 103.394V103.438H38.2578V104H34.1709ZM41.4395 104.088C40.3232 104.088 39.4883 103.385 39.4619 102.4H40.0684C40.1035 103.051 40.6836 103.534 41.4395 103.534C42.3271 103.534 42.9688 102.866 42.96 101.996C42.96 101.082 42.2832 100.449 41.3955 100.44C40.8594 100.44 40.4199 100.616 40.165 101.029H39.541L39.9805 97.6367H43.2939V98.1992H40.5078L40.2354 100.3H40.2881C40.5693 100.036 41.0264 99.8779 41.501 99.8779C42.6699 99.8779 43.5752 100.748 43.5752 101.987C43.5752 103.2 42.6787 104.088 41.4395 104.088ZM47.3545 100.537V101.1H44.6826V100.537H47.3545ZM50.5537 104.088C49.1914 104.088 48.4004 102.884 48.4004 100.818C48.4004 98.7617 49.2002 97.5488 50.5537 97.5488C51.8984 97.5488 52.6982 98.7617 52.6982 100.818C52.6982 102.884 51.9072 104.088 50.5537 104.088ZM50.5537 103.525C51.5205 103.525 52.0918 102.541 52.0918 100.818C52.0918 99.0957 51.5117 98.1025 50.5537 98.1025C49.5869 98.1025 49.0156 99.0957 49.0156 100.818C49.0156 102.541 49.5869 103.525 50.5537 103.525ZM53.8145 104L56.7852 98.2344V98.1992H53.3662V97.6367H57.4443V98.2256L54.4736 104H53.8145ZM61.1357 100.537V101.1H58.4639V100.537H61.1357ZM64.3613 97.6367V104H63.7285V98.2871H63.6934L62.1904 99.2803V98.6387L63.7109 97.6367H64.3613ZM68.2021 104.088C66.9189 104.088 65.9961 103.341 65.9961 102.321C65.9961 101.521 66.5674 100.836 67.3232 100.704V100.669C66.6729 100.502 66.2334 99.9131 66.2334 99.2188C66.2334 98.2607 67.0771 97.5488 68.2021 97.5488C69.3184 97.5488 70.1709 98.2607 70.1709 99.2188C70.1709 99.9131 69.7314 100.502 69.0898 100.669V100.704C69.8369 100.836 70.4082 101.521 70.417 102.321C70.4082 103.341 69.4766 104.088 68.2021 104.088ZM68.2021 103.534C69.1514 103.534 69.793 103.007 69.793 102.286C69.793 101.548 69.1162 100.977 68.2021 100.977C67.2969 100.977 66.6113 101.548 66.6201 102.286C66.6113 103.007 67.2529 103.534 68.2021 103.534ZM68.2021 100.449C68.9756 100.449 69.5645 99.9482 69.5645 99.2539C69.5645 98.5771 68.9932 98.0938 68.2021 98.0938C67.4023 98.0938 66.8398 98.5771 66.8398 99.2539C66.8398 99.9482 67.4199 100.449 68.2021 100.449Z" fill="black"/>
<path d="M23.624 131V130.543L25.7773 128.214C26.5947 127.326 26.9287 126.878 26.9375 126.28C26.9287 125.577 26.3574 125.103 25.6016 125.103C24.793 125.103 24.2744 125.63 24.2744 126.377H23.6768C23.6768 125.305 24.5029 124.549 25.6191 124.549C26.7266 124.549 27.5176 125.305 27.5176 126.28C27.5176 126.992 27.1924 127.528 26.0938 128.688L24.5117 130.394V130.438H27.7109V131H23.624ZM30.9277 131.088C29.5654 131.088 28.7744 129.884 28.7744 127.818C28.7744 125.762 29.5742 124.549 30.9277 124.549C32.2725 124.549 33.0723 125.762 33.0723 127.818C33.0723 129.884 32.2812 131.088 30.9277 131.088ZM30.9277 130.525C31.8945 130.525 32.4658 129.541 32.4658 127.818C32.4658 126.096 31.8857 125.103 30.9277 125.103C29.9609 125.103 29.3896 126.096 29.3896 127.818C29.3896 129.541 29.9609 130.525 30.9277 130.525ZM34.1709 131V130.543L36.3242 128.214C37.1416 127.326 37.4756 126.878 37.4844 126.28C37.4756 125.577 36.9043 125.103 36.1484 125.103C35.3398 125.103 34.8213 125.63 34.8213 126.377H34.2236C34.2236 125.305 35.0498 124.549 36.166 124.549C37.2734 124.549 38.0645 125.305 38.0645 126.28C38.0645 126.992 37.7393 127.528 36.6406 128.688L35.0586 130.394V130.438H38.2578V131H34.1709ZM41.4395 131.088C40.3232 131.088 39.4883 130.385 39.4619 129.4H40.0684C40.1035 130.051 40.6836 130.534 41.4395 130.534C42.3271 130.534 42.9688 129.866 42.96 128.996C42.96 128.082 42.2832 127.449 41.3955 127.44C40.8594 127.44 40.4199 127.616 40.165 128.029H39.541L39.9805 124.637H43.2939V125.199H40.5078L40.2354 127.3H40.2881C40.5693 127.036 41.0264 126.878 41.501 126.878C42.6699 126.878 43.5752 127.748 43.5752 128.987C43.5752 130.2 42.6787 131.088 41.4395 131.088ZM47.3545 127.537V128.1H44.6826V127.537H47.3545ZM50.5537 131.088C49.1914 131.088 48.4004 129.884 48.4004 127.818C48.4004 125.762 49.2002 124.549 50.5537 124.549C51.8984 124.549 52.6982 125.762 52.6982 127.818C52.6982 129.884 51.9072 131.088 50.5537 131.088ZM50.5537 130.525C51.5205 130.525 52.0918 129.541 52.0918 127.818C52.0918 126.096 51.5117 125.103 50.5537 125.103C49.5869 125.103 49.0156 126.096 49.0156 127.818C49.0156 129.541 49.5869 130.525 50.5537 130.525ZM55.915 131.088C54.8076 131.079 53.7002 130.341 53.7002 128.073C53.7002 125.973 54.4824 124.549 56.0117 124.549C57.0928 124.549 57.8311 125.234 57.9717 126.228H57.3477C57.2246 125.586 56.7676 125.111 56.0117 125.111C54.9131 125.111 54.2891 126.096 54.2891 127.827H54.3594C54.6846 127.265 55.2998 126.913 56.0117 126.913C57.1191 126.913 58.042 127.783 58.042 128.987C58.042 130.147 57.1982 131.097 55.915 131.088ZM55.915 130.534C56.7852 130.534 57.4355 129.84 57.4355 128.987C57.4355 128.152 56.7852 127.467 55.9238 127.467C55.0273 127.467 54.3506 128.205 54.3945 129.022C54.4561 129.875 55.0713 130.534 55.915 130.534ZM61.8213 127.537V128.1H59.1494V127.537H61.8213ZM65.0469 124.637V131H64.4141V125.287H64.3789L62.876 126.28V125.639L64.3965 124.637H65.0469ZM67.0068 131L69.9775 125.234V125.199H66.5586V124.637H70.6367V125.226L67.666 131H67.0068Z" fill="black"/>
<path d="M96.8672 43.4785C98.5107 43.4785 99.6797 44.2695 99.6797 45.4736C99.6797 46.6162 98.6426 47.3677 97.1484 47.4512V49.1826H100.444V49.6572H93.3428V49.1826H96.5947V47.4512C95.105 47.3721 94.0635 46.6162 94.0635 45.4736C94.0635 44.2695 95.2324 43.4785 96.8672 43.4785ZM96.8672 43.9355C95.5576 43.9355 94.5908 44.5596 94.5908 45.4736C94.5908 46.3877 95.5576 47.0117 96.8672 47.0117C98.1768 47.0117 99.1523 46.3877 99.1523 45.4736C99.1523 44.5596 98.1768 43.9355 96.8672 43.9355ZM107.511 42.9336V48.6289H106.957V45.5879H105.252V45.1221H106.957V42.9336H107.511ZM107.739 50.0352V50.501H102.589V48.1104H103.143V50.0352H107.739ZM103.74 44.5596C103.74 45.5879 104.593 46.5723 105.691 46.9502L105.401 47.3984C104.522 47.0732 103.806 46.3965 103.477 45.5615C103.147 46.4976 102.382 47.2358 101.464 47.5918L101.174 47.1348C102.281 46.7393 103.187 45.7109 103.187 44.5596V44.0762H101.367V43.6016H105.533V44.0762H103.74V44.5596ZM113.355 50.0879C111.993 50.0879 111.202 48.8838 111.202 46.8184C111.202 44.7617 112.002 43.5488 113.355 43.5488C114.7 43.5488 115.5 44.7617 115.5 46.8184C115.5 48.8838 114.709 50.0879 113.355 50.0879ZM113.355 49.5254C114.322 49.5254 114.894 48.541 114.894 46.8184C114.894 45.0957 114.313 44.1025 113.355 44.1025C112.389 44.1025 111.817 45.0957 111.817 46.8184C111.817 48.541 112.389 49.5254 113.355 49.5254ZM116.616 50L119.587 44.2344V44.1992H116.168V43.6367H120.246V44.2256L117.275 50H116.616ZM121.494 49.1387C121.23 49.1387 121.02 48.9277 121.02 48.6729C121.02 48.4092 121.23 48.1982 121.494 48.1982C121.749 48.1982 121.96 48.4092 121.96 48.6729C121.96 48.9277 121.749 49.1387 121.494 49.1387ZM121.494 45.4385C121.23 45.4385 121.02 45.2275 121.02 44.9727C121.02 44.709 121.23 44.498 121.494 44.498C121.749 44.498 121.96 44.709 121.96 44.9727C121.96 45.2275 121.749 45.4385 121.494 45.4385ZM125.353 50.0879C124.131 50.0879 123.243 49.4023 123.208 48.4004H123.841C123.876 49.0771 124.526 49.5254 125.344 49.5254C126.24 49.5254 126.873 49.0068 126.882 48.2861C126.873 47.5391 126.249 47.0117 125.221 47.0117H124.825V46.4492H125.221C126.056 46.4492 126.653 45.9834 126.662 45.2627C126.653 44.5771 126.144 44.1025 125.361 44.1025C124.614 44.1025 123.981 44.542 123.964 45.2275H123.357C123.384 44.2344 124.263 43.5488 125.37 43.5488C126.53 43.5488 127.269 44.3135 127.26 45.2363C127.269 45.9658 126.829 46.502 126.144 46.6953V46.7393C126.979 46.8887 127.497 47.4775 127.488 48.2949C127.497 49.3232 126.583 50.0879 125.353 50.0879ZM130.696 50.0879C129.334 50.0879 128.543 48.8838 128.543 46.8184C128.543 44.7617 129.343 43.5488 130.696 43.5488C132.041 43.5488 132.841 44.7617 132.841 46.8184C132.841 48.8838 132.05 50.0879 130.696 50.0879ZM130.696 49.5254C131.663 49.5254 132.234 48.541 132.234 46.8184C132.234 45.0957 131.654 44.1025 130.696 44.1025C129.729 44.1025 129.158 45.0957 129.158 46.8184C129.158 48.541 129.729 49.5254 130.696 49.5254Z" fill="black"/>
<path d="M96.8672 70.4785C98.5107 70.4785 99.6797 71.2695 99.6797 72.4736C99.6797 73.6162 98.6426 74.3677 97.1484 74.4512V76.1826H100.444V76.6572H93.3428V76.1826H96.5947V74.4512C95.105 74.3721 94.0635 73.6162 94.0635 72.4736C94.0635 71.2695 95.2324 70.4785 96.8672 70.4785ZM96.8672 70.9355C95.5576 70.9355 94.5908 71.5596 94.5908 72.4736C94.5908 73.3877 95.5576 74.0117 96.8672 74.0117C98.1768 74.0117 99.1523 73.3877 99.1523 72.4736C99.1523 71.5596 98.1768 70.9355 96.8672 70.9355ZM107.511 69.9336V75.6289H106.957V72.5879H105.252V72.1221H106.957V69.9336H107.511ZM107.739 77.0352V77.501H102.589V75.1104H103.143V77.0352H107.739ZM103.74 71.5596C103.74 72.5879 104.593 73.5723 105.691 73.9502L105.401 74.3984C104.522 74.0732 103.806 73.3965 103.477 72.5615C103.147 73.4976 102.382 74.2358 101.464 74.5918L101.174 74.1348C102.281 73.7393 103.187 72.7109 103.187 71.5596V71.0762H101.367V70.6016H105.533V71.0762H103.74V71.5596ZM113.355 77.0879C111.993 77.0879 111.202 75.8838 111.202 73.8184C111.202 71.7617 112.002 70.5488 113.355 70.5488C114.7 70.5488 115.5 71.7617 115.5 73.8184C115.5 75.8838 114.709 77.0879 113.355 77.0879ZM113.355 76.5254C114.322 76.5254 114.894 75.541 114.894 73.8184C114.894 72.0957 114.313 71.1025 113.355 71.1025C112.389 71.1025 111.817 72.0957 111.817 73.8184C111.817 75.541 112.389 76.5254 113.355 76.5254ZM116.616 77L119.587 71.2344V71.1992H116.168V70.6367H120.246V71.2256L117.275 77H116.616ZM121.494 76.1387C121.23 76.1387 121.02 75.9277 121.02 75.6729C121.02 75.4092 121.23 75.1982 121.494 75.1982C121.749 75.1982 121.96 75.4092 121.96 75.6729C121.96 75.9277 121.749 76.1387 121.494 76.1387ZM121.494 72.4385C121.23 72.4385 121.02 72.2275 121.02 71.9727C121.02 71.709 121.23 71.498 121.494 71.498C121.749 71.498 121.96 71.709 121.96 71.9727C121.96 72.2275 121.749 72.4385 121.494 72.4385ZM125.353 77.0879C124.131 77.0879 123.243 76.4023 123.208 75.4004H123.841C123.876 76.0771 124.526 76.5254 125.344 76.5254C126.24 76.5254 126.873 76.0068 126.882 75.2861C126.873 74.5391 126.249 74.0117 125.221 74.0117H124.825V73.4492H125.221C126.056 73.4492 126.653 72.9834 126.662 72.2627C126.653 71.5771 126.144 71.1025 125.361 71.1025C124.614 71.1025 123.981 71.542 123.964 72.2275H123.357C123.384 71.2344 124.263 70.5488 125.37 70.5488C126.53 70.5488 127.269 71.3135 127.26 72.2363C127.269 72.9658 126.829 73.502 126.144 73.6953V73.7393C126.979 73.8887 127.497 74.4775 127.488 75.2949C127.497 76.3232 126.583 77.0879 125.353 77.0879ZM130.696 77.0879C129.334 77.0879 128.543 75.8838 128.543 73.8184C128.543 71.7617 129.343 70.5488 130.696 70.5488C132.041 70.5488 132.841 71.7617 132.841 73.8184C132.841 75.8838 132.05 77.0879 130.696 77.0879ZM130.696 76.5254C131.663 76.5254 132.234 75.541 132.234 73.8184C132.234 72.0957 131.654 71.1025 130.696 71.1025C129.729 71.1025 129.158 72.0957 129.158 73.8184C129.158 75.541 129.729 76.5254 130.696 76.5254Z" fill="black"/>
<path d="M96.8672 97.4785C98.5107 97.4785 99.6797 98.2695 99.6797 99.4736C99.6797 100.616 98.6426 101.368 97.1484 101.451V103.183H100.444V103.657H93.3428V103.183H96.5947V101.451C95.105 101.372 94.0635 100.616 94.0635 99.4736C94.0635 98.2695 95.2324 97.4785 96.8672 97.4785ZM96.8672 97.9355C95.5576 97.9355 94.5908 98.5596 94.5908 99.4736C94.5908 100.388 95.5576 101.012 96.8672 101.012C98.1768 101.012 99.1523 100.388 99.1523 99.4736C99.1523 98.5596 98.1768 97.9355 96.8672 97.9355ZM107.511 96.9336V102.629H106.957V99.5879H105.252V99.1221H106.957V96.9336H107.511ZM107.739 104.035V104.501H102.589V102.11H103.143V104.035H107.739ZM103.74 98.5596C103.74 99.5879 104.593 100.572 105.691 100.95L105.401 101.398C104.522 101.073 103.806 100.396 103.477 99.5615C103.147 100.498 102.382 101.236 101.464 101.592L101.174 101.135C102.281 100.739 103.187 99.7109 103.187 98.5596V98.0762H101.367V97.6016H105.533V98.0762H103.74V98.5596ZM113.355 104.088C111.993 104.088 111.202 102.884 111.202 100.818C111.202 98.7617 112.002 97.5488 113.355 97.5488C114.7 97.5488 115.5 98.7617 115.5 100.818C115.5 102.884 114.709 104.088 113.355 104.088ZM113.355 103.525C114.322 103.525 114.894 102.541 114.894 100.818C114.894 99.0957 114.313 98.1025 113.355 98.1025C112.389 98.1025 111.817 99.0957 111.817 100.818C111.817 102.541 112.389 103.525 113.355 103.525ZM116.616 104L119.587 98.2344V98.1992H116.168V97.6367H120.246V98.2256L117.275 104H116.616ZM121.494 103.139C121.23 103.139 121.02 102.928 121.02 102.673C121.02 102.409 121.23 102.198 121.494 102.198C121.749 102.198 121.96 102.409 121.96 102.673C121.96 102.928 121.749 103.139 121.494 103.139ZM121.494 99.4385C121.23 99.4385 121.02 99.2275 121.02 98.9727C121.02 98.709 121.23 98.498 121.494 98.498C121.749 98.498 121.96 98.709 121.96 98.9727C121.96 99.2275 121.749 99.4385 121.494 99.4385ZM125.353 104.088C124.131 104.088 123.243 103.402 123.208 102.4H123.841C123.876 103.077 124.526 103.525 125.344 103.525C126.24 103.525 126.873 103.007 126.882 102.286C126.873 101.539 126.249 101.012 125.221 101.012H124.825V100.449H125.221C126.056 100.449 126.653 99.9834 126.662 99.2627C126.653 98.5771 126.144 98.1025 125.361 98.1025C124.614 98.1025 123.981 98.542 123.964 99.2275H123.357C123.384 98.2344 124.263 97.5488 125.37 97.5488C126.53 97.5488 127.269 98.3135 127.26 99.2363C127.269 99.9658 126.829 100.502 126.144 100.695V100.739C126.979 100.889 127.497 101.478 127.488 102.295C127.497 103.323 126.583 104.088 125.353 104.088ZM130.696 104.088C129.334 104.088 128.543 102.884 128.543 100.818C128.543 98.7617 129.343 97.5488 130.696 97.5488C132.041 97.5488 132.841 98.7617 132.841 100.818C132.841 102.884 132.05 104.088 130.696 104.088ZM130.696 103.525C131.663 103.525 132.234 102.541 132.234 100.818C132.234 99.0957 131.654 98.1025 130.696 98.1025C129.729 98.1025 129.158 99.0957 129.158 100.818C129.158 102.541 129.729 103.525 130.696 103.525Z" fill="black"/>
<path d="M96.8672 124.479C98.5107 124.479 99.6797 125.27 99.6797 126.474C99.6797 127.616 98.6426 128.368 97.1484 128.451V130.183H100.444V130.657H93.3428V130.183H96.5947V128.451C95.105 128.372 94.0635 127.616 94.0635 126.474C94.0635 125.27 95.2324 124.479 96.8672 124.479ZM96.8672 124.936C95.5576 124.936 94.5908 125.56 94.5908 126.474C94.5908 127.388 95.5576 128.012 96.8672 128.012C98.1768 128.012 99.1523 127.388 99.1523 126.474C99.1523 125.56 98.1768 124.936 96.8672 124.936ZM107.511 123.934V129.629H106.957V126.588H105.252V126.122H106.957V123.934H107.511ZM107.739 131.035V131.501H102.589V129.11H103.143V131.035H107.739ZM103.74 125.56C103.74 126.588 104.593 127.572 105.691 127.95L105.401 128.398C104.522 128.073 103.806 127.396 103.477 126.562C103.147 127.498 102.382 128.236 101.464 128.592L101.174 128.135C102.281 127.739 103.187 126.711 103.187 125.56V125.076H101.367V124.602H105.533V125.076H103.74V125.56ZM113.355 131.088C111.993 131.088 111.202 129.884 111.202 127.818C111.202 125.762 112.002 124.549 113.355 124.549C114.7 124.549 115.5 125.762 115.5 127.818C115.5 129.884 114.709 131.088 113.355 131.088ZM113.355 130.525C114.322 130.525 114.894 129.541 114.894 127.818C114.894 126.096 114.313 125.103 113.355 125.103C112.389 125.103 111.817 126.096 111.817 127.818C111.817 129.541 112.389 130.525 113.355 130.525ZM116.616 131L119.587 125.234V125.199H116.168V124.637H120.246V125.226L117.275 131H116.616ZM121.494 130.139C121.23 130.139 121.02 129.928 121.02 129.673C121.02 129.409 121.23 129.198 121.494 129.198C121.749 129.198 121.96 129.409 121.96 129.673C121.96 129.928 121.749 130.139 121.494 130.139ZM121.494 126.438C121.23 126.438 121.02 126.228 121.02 125.973C121.02 125.709 121.23 125.498 121.494 125.498C121.749 125.498 121.96 125.709 121.96 125.973C121.96 126.228 121.749 126.438 121.494 126.438ZM125.353 131.088C124.131 131.088 123.243 130.402 123.208 129.4H123.841C123.876 130.077 124.526 130.525 125.344 130.525C126.24 130.525 126.873 130.007 126.882 129.286C126.873 128.539 126.249 128.012 125.221 128.012H124.825V127.449H125.221C126.056 127.449 126.653 126.983 126.662 126.263C126.653 125.577 126.144 125.103 125.361 125.103C124.614 125.103 123.981 125.542 123.964 126.228H123.357C123.384 125.234 124.263 124.549 125.37 124.549C126.53 124.549 127.269 125.313 127.26 126.236C127.269 126.966 126.829 127.502 126.144 127.695V127.739C126.979 127.889 127.497 128.478 127.488 129.295C127.497 130.323 126.583 131.088 125.353 131.088ZM130.696 131.088C129.334 131.088 128.543 129.884 128.543 127.818C128.543 125.762 129.343 124.549 130.696 124.549C132.041 124.549 132.841 125.762 132.841 127.818C132.841 129.884 132.05 131.088 130.696 131.088ZM130.696 130.525C131.663 130.525 132.234 129.541 132.234 127.818C132.234 126.096 131.654 125.103 130.696 125.103C129.729 125.103 129.158 126.096 129.158 127.818C129.158 129.541 129.729 130.525 130.696 130.525Z" fill="black"/>
<path d="M157.76 50.0879C156.538 50.0879 155.65 49.4023 155.615 48.4004H156.248C156.283 49.0771 156.934 49.5254 157.751 49.5254C158.647 49.5254 159.28 49.0068 159.289 48.2861C159.28 47.5391 158.656 47.0117 157.628 47.0117H157.232V46.4492H157.628C158.463 46.4492 159.061 45.9834 159.069 45.2627C159.061 44.5771 158.551 44.1025 157.769 44.1025C157.021 44.1025 156.389 44.542 156.371 45.2275H155.765C155.791 44.2344 156.67 43.5488 157.777 43.5488C158.938 43.5488 159.676 44.3135 159.667 45.2363C159.676 45.9658 159.236 46.502 158.551 46.6953V46.7393C159.386 46.8887 159.904 47.4775 159.896 48.2949C159.904 49.3232 158.99 50.0879 157.76 50.0879ZM163.288 50V43.6367H163.895V47.4424H163.956L166.153 45.2275H166.909L164.879 47.2754L167.032 50H166.276L164.431 47.6621L163.895 48.1631V50H163.288ZM169.414 51.8896C168.359 51.8896 167.595 51.4414 167.48 50.5977H168.113C168.228 51.1074 168.729 51.3623 169.414 51.3623C170.284 51.3623 170.812 50.958 170.812 50.0879V49.0332H170.759C170.574 49.4463 170.17 49.9473 169.3 49.9473C168.157 49.9473 167.331 49.042 167.331 47.5742C167.331 46.1152 168.131 45.1572 169.309 45.1572C170.196 45.1572 170.574 45.7109 170.768 46.1152H170.82V45.2275H171.409V50.123C171.409 51.3359 170.565 51.8896 169.414 51.8896ZM169.379 49.4111C170.284 49.4111 170.82 48.7256 170.82 47.5918C170.82 46.4932 170.302 45.7021 169.379 45.7021C168.438 45.7021 167.938 46.5371 167.938 47.5918C167.938 48.6641 168.447 49.4111 169.379 49.4111Z" fill="black"/>
<path d="M155.624 77V76.543L157.777 74.2139C158.595 73.3262 158.929 72.8779 158.938 72.2803C158.929 71.5771 158.357 71.1025 157.602 71.1025C156.793 71.1025 156.274 71.6299 156.274 72.377H155.677C155.677 71.3047 156.503 70.5488 157.619 70.5488C158.727 70.5488 159.518 71.3047 159.518 72.2803C159.518 72.9922 159.192 73.5283 158.094 74.6885L156.512 76.3936V76.4375H159.711V77H155.624ZM161.407 77.0439C161.144 77.0439 160.933 76.833 160.933 76.5781C160.933 76.3145 161.144 76.1035 161.407 76.1035C161.662 76.1035 161.873 76.3145 161.873 76.5781C161.873 76.833 161.662 77.0439 161.407 77.0439ZM164.976 77.0879C163.692 77.0879 162.77 76.3408 162.77 75.3213C162.77 74.5215 163.341 73.8359 164.097 73.7041V73.6689C163.446 73.502 163.007 72.9131 163.007 72.2188C163.007 71.2607 163.851 70.5488 164.976 70.5488C166.092 70.5488 166.944 71.2607 166.944 72.2188C166.944 72.9131 166.505 73.502 165.863 73.6689V73.7041C166.61 73.8359 167.182 74.5215 167.19 75.3213C167.182 76.3408 166.25 77.0879 164.976 77.0879ZM164.976 76.5342C165.925 76.5342 166.566 76.0068 166.566 75.2861C166.566 74.5479 165.89 73.9766 164.976 73.9766C164.07 73.9766 163.385 74.5479 163.394 75.2861C163.385 76.0068 164.026 76.5342 164.976 76.5342ZM164.976 73.4492C165.749 73.4492 166.338 72.9482 166.338 72.2539C166.338 71.5771 165.767 71.0938 164.976 71.0938C164.176 71.0938 163.613 71.5771 163.613 72.2539C163.613 72.9482 164.193 73.4492 164.976 73.4492ZM170.275 77.0879C169.159 77.0879 168.324 76.3848 168.298 75.4004H168.904C168.939 76.0508 169.52 76.5342 170.275 76.5342C171.163 76.5342 171.805 75.8662 171.796 74.9961C171.796 74.082 171.119 73.4492 170.231 73.4404C169.695 73.4404 169.256 73.6162 169.001 74.0293H168.377L168.816 70.6367H172.13V71.1992H169.344L169.071 73.2998H169.124C169.405 73.0361 169.862 72.8779 170.337 72.8779C171.506 72.8779 172.411 73.748 172.411 74.9873C172.411 76.2002 171.515 77.0879 170.275 77.0879ZM175.751 77V70.6367H176.357V74.4424H176.419L178.616 72.2275H179.372L177.342 74.2754L179.495 77H178.739L176.894 74.6621L176.357 75.1631V77H175.751ZM181.877 78.8896C180.822 78.8896 180.058 78.4414 179.943 77.5977H180.576C180.69 78.1074 181.191 78.3623 181.877 78.3623C182.747 78.3623 183.274 77.958 183.274 77.0879V76.0332H183.222C183.037 76.4463 182.633 76.9473 181.763 76.9473C180.62 76.9473 179.794 76.042 179.794 74.5742C179.794 73.1152 180.594 72.1572 181.771 72.1572C182.659 72.1572 183.037 72.7109 183.23 73.1152H183.283V72.2275H183.872V77.123C183.872 78.3359 183.028 78.8896 181.877 78.8896ZM181.842 76.4111C182.747 76.4111 183.283 75.7256 183.283 74.5918C183.283 73.4932 182.765 72.7021 181.842 72.7021C180.901 72.7021 180.4 73.5371 180.4 74.5918C180.4 75.6641 180.91 76.4111 181.842 76.4111Z" fill="black"/>
<path d="M155.624 104V103.543L157.777 101.214C158.595 100.326 158.929 99.8779 158.938 99.2803C158.929 98.5771 158.357 98.1025 157.602 98.1025C156.793 98.1025 156.274 98.6299 156.274 99.377H155.677C155.677 98.3047 156.503 97.5488 157.619 97.5488C158.727 97.5488 159.518 98.3047 159.518 99.2803C159.518 99.9922 159.192 100.528 158.094 101.688L156.512 103.394V103.438H159.711V104H155.624ZM161.407 104.044C161.144 104.044 160.933 103.833 160.933 103.578C160.933 103.314 161.144 103.104 161.407 103.104C161.662 103.104 161.873 103.314 161.873 103.578C161.873 103.833 161.662 104.044 161.407 104.044ZM163.227 104L166.197 98.2344V98.1992H162.778V97.6367H166.856V98.2256L163.886 104H163.227ZM170.108 104V97.6367H170.715V101.442H170.776L172.974 99.2275H173.729L171.699 101.275L173.853 104H173.097L171.251 101.662L170.715 102.163V104H170.108ZM176.234 105.89C175.18 105.89 174.415 105.441 174.301 104.598H174.934C175.048 105.107 175.549 105.362 176.234 105.362C177.104 105.362 177.632 104.958 177.632 104.088V103.033H177.579C177.395 103.446 176.99 103.947 176.12 103.947C174.978 103.947 174.151 103.042 174.151 101.574C174.151 100.115 174.951 99.1572 176.129 99.1572C177.017 99.1572 177.395 99.7109 177.588 100.115H177.641V99.2275H178.229V104.123C178.229 105.336 177.386 105.89 176.234 105.89ZM176.199 103.411C177.104 103.411 177.641 102.726 177.641 101.592C177.641 100.493 177.122 99.7021 176.199 99.7021C175.259 99.7021 174.758 100.537 174.758 101.592C174.758 102.664 175.268 103.411 176.199 103.411Z" fill="black"/>
<path d="M155.624 131V130.543L157.777 128.214C158.595 127.326 158.929 126.878 158.938 126.28C158.929 125.577 158.357 125.103 157.602 125.103C156.793 125.103 156.274 125.63 156.274 126.377H155.677C155.677 125.305 156.503 124.549 157.619 124.549C158.727 124.549 159.518 125.305 159.518 126.28C159.518 126.992 159.192 127.528 158.094 128.688L156.512 130.394V130.438H159.711V131H155.624ZM161.407 131.044C161.144 131.044 160.933 130.833 160.933 130.578C160.933 130.314 161.144 130.104 161.407 130.104C161.662 130.104 161.873 130.314 161.873 130.578C161.873 130.833 161.662 131.044 161.407 131.044ZM165.011 131.088C163.895 131.088 163.06 130.385 163.033 129.4H163.64C163.675 130.051 164.255 130.534 165.011 130.534C165.898 130.534 166.54 129.866 166.531 128.996C166.531 128.082 165.854 127.449 164.967 127.44C164.431 127.44 163.991 127.616 163.736 128.029H163.112L163.552 124.637H166.865V125.199H164.079L163.807 127.3H163.859C164.141 127.036 164.598 126.878 165.072 126.878C166.241 126.878 167.146 127.748 167.146 128.987C167.146 130.2 166.25 131.088 165.011 131.088ZM170.486 131V124.637H171.093V128.442H171.154L173.352 126.228H174.107L172.077 128.275L174.23 131H173.475L171.629 128.662L171.093 129.163V131H170.486ZM176.612 132.89C175.558 132.89 174.793 132.441 174.679 131.598H175.312C175.426 132.107 175.927 132.362 176.612 132.362C177.482 132.362 178.01 131.958 178.01 131.088V130.033H177.957C177.772 130.446 177.368 130.947 176.498 130.947C175.355 130.947 174.529 130.042 174.529 128.574C174.529 127.115 175.329 126.157 176.507 126.157C177.395 126.157 177.772 126.711 177.966 127.115H178.019V126.228H178.607V131.123C178.607 132.336 177.764 132.89 176.612 132.89ZM176.577 130.411C177.482 130.411 178.019 129.726 178.019 128.592C178.019 127.493 177.5 126.702 176.577 126.702C175.637 126.702 175.136 127.537 175.136 128.592C175.136 129.664 175.646 130.411 176.577 130.411Z" fill="black"/>
<path d="M196.496 48.8135V47.1084H194.8V46.5371H196.496V44.8408H197.067V46.5371H198.772V47.1084H197.067V48.8135H196.496ZM202.191 50.0879C200.829 50.0879 200.038 48.8838 200.038 46.8184C200.038 44.7617 200.838 43.5488 202.191 43.5488C203.536 43.5488 204.336 44.7617 204.336 46.8184C204.336 48.8838 203.545 50.0879 202.191 50.0879ZM202.191 49.5254C203.158 49.5254 203.729 48.541 203.729 46.8184C203.729 45.0957 203.149 44.1025 202.191 44.1025C201.225 44.1025 200.653 45.0957 200.653 46.8184C200.653 48.541 201.225 49.5254 202.191 49.5254ZM205.654 50.0439C205.391 50.0439 205.18 49.833 205.18 49.5781C205.18 49.3145 205.391 49.1035 205.654 49.1035C205.909 49.1035 206.12 49.3145 206.12 49.5781C206.12 49.833 205.909 50.0439 205.654 50.0439ZM208.669 43.6367V50H208.036V44.2871H208.001L206.498 45.2803V44.6387L208.019 43.6367H208.669ZM212.404 50.0879C211.288 50.0879 210.453 49.3848 210.427 48.4004H211.033C211.068 49.0508 211.648 49.5342 212.404 49.5342C213.292 49.5342 213.934 48.8662 213.925 47.9961C213.925 47.082 213.248 46.4492 212.36 46.4404C211.824 46.4404 211.385 46.6162 211.13 47.0293H210.506L210.945 43.6367H214.259V44.1992H211.473L211.2 46.2998H211.253C211.534 46.0361 211.991 45.8779 212.466 45.8779C213.635 45.8779 214.54 46.748 214.54 47.9873C214.54 49.2002 213.644 50.0879 212.404 50.0879ZM217.88 50V43.6367H218.486V47.4424H218.548L220.745 45.2275H221.501L219.471 47.2754L221.624 50H220.868L219.022 47.6621L218.486 48.1631V50H217.88ZM224.006 51.8896C222.951 51.8896 222.187 51.4414 222.072 50.5977H222.705C222.819 51.1074 223.32 51.3623 224.006 51.3623C224.876 51.3623 225.403 50.958 225.403 50.0879V49.0332H225.351C225.166 49.4463 224.762 49.9473 223.892 49.9473C222.749 49.9473 221.923 49.042 221.923 47.5742C221.923 46.1152 222.723 45.1572 223.9 45.1572C224.788 45.1572 225.166 45.7109 225.359 46.1152H225.412V45.2275H226.001V50.123C226.001 51.3359 225.157 51.8896 224.006 51.8896ZM223.971 49.4111C224.876 49.4111 225.412 48.7256 225.412 47.5918C225.412 46.4932 224.894 45.7021 223.971 45.7021C223.03 45.7021 222.529 46.5371 222.529 47.5918C222.529 48.6641 223.039 49.4111 223.971 49.4111Z" fill="#FF5C5C"/>
<path d="M196.496 75.8135V74.1084H194.8V73.5371H196.496V71.8408H197.067V73.5371H198.772V74.1084H197.067V75.8135H196.496ZM202.191 77.0879C200.829 77.0879 200.038 75.8838 200.038 73.8184C200.038 71.7617 200.838 70.5488 202.191 70.5488C203.536 70.5488 204.336 71.7617 204.336 73.8184C204.336 75.8838 203.545 77.0879 202.191 77.0879ZM202.191 76.5254C203.158 76.5254 203.729 75.541 203.729 73.8184C203.729 72.0957 203.149 71.1025 202.191 71.1025C201.225 71.1025 200.653 72.0957 200.653 73.8184C200.653 75.541 201.225 76.5254 202.191 76.5254ZM205.654 77.0439C205.391 77.0439 205.18 76.833 205.18 76.5781C205.18 76.3145 205.391 76.1035 205.654 76.1035C205.909 76.1035 206.12 76.3145 206.12 76.5781C206.12 76.833 205.909 77.0439 205.654 77.0439ZM208.669 70.6367V77H208.036V71.2871H208.001L206.498 72.2803V71.6387L208.019 70.6367H208.669ZM212.404 77.0879C211.288 77.0879 210.453 76.3848 210.427 75.4004H211.033C211.068 76.0508 211.648 76.5342 212.404 76.5342C213.292 76.5342 213.934 75.8662 213.925 74.9961C213.925 74.082 213.248 73.4492 212.36 73.4404C211.824 73.4404 211.385 73.6162 211.13 74.0293H210.506L210.945 70.6367H214.259V71.1992H211.473L211.2 73.2998H211.253C211.534 73.0361 211.991 72.8779 212.466 72.8779C213.635 72.8779 214.54 73.748 214.54 74.9873C214.54 76.2002 213.644 77.0879 212.404 77.0879ZM217.88 77V70.6367H218.486V74.4424H218.548L220.745 72.2275H221.501L219.471 74.2754L221.624 77H220.868L219.022 74.6621L218.486 75.1631V77H217.88ZM224.006 78.8896C222.951 78.8896 222.187 78.4414 222.072 77.5977H222.705C222.819 78.1074 223.32 78.3623 224.006 78.3623C224.876 78.3623 225.403 77.958 225.403 77.0879V76.0332H225.351C225.166 76.4463 224.762 76.9473 223.892 76.9473C222.749 76.9473 221.923 76.042 221.923 74.5742C221.923 73.1152 222.723 72.1572 223.9 72.1572C224.788 72.1572 225.166 72.7109 225.359 73.1152H225.412V72.2275H226.001V77.123C226.001 78.3359 225.157 78.8896 224.006 78.8896ZM223.971 76.4111C224.876 76.4111 225.412 75.7256 225.412 74.5918C225.412 73.4932 224.894 72.7021 223.971 72.7021C223.03 72.7021 222.529 73.5371 222.529 74.5918C222.529 75.6641 223.039 76.4111 223.971 76.4111Z" fill="#FF5C5C"/>
<path d="M196.496 102.813V101.108H194.8V100.537H196.496V98.8408H197.067V100.537H198.772V101.108H197.067V102.813H196.496ZM202.191 104.088C200.829 104.088 200.038 102.884 200.038 100.818C200.038 98.7617 200.838 97.5488 202.191 97.5488C203.536 97.5488 204.336 98.7617 204.336 100.818C204.336 102.884 203.545 104.088 202.191 104.088ZM202.191 103.525C203.158 103.525 203.729 102.541 203.729 100.818C203.729 99.0957 203.149 98.1025 202.191 98.1025C201.225 98.1025 200.653 99.0957 200.653 100.818C200.653 102.541 201.225 103.525 202.191 103.525ZM205.654 104.044C205.391 104.044 205.18 103.833 205.18 103.578C205.18 103.314 205.391 103.104 205.654 103.104C205.909 103.104 206.12 103.314 206.12 103.578C206.12 103.833 205.909 104.044 205.654 104.044ZM207.377 104V103.543L209.53 101.214C210.348 100.326 210.682 99.8779 210.69 99.2803C210.682 98.5771 210.11 98.1025 209.354 98.1025C208.546 98.1025 208.027 98.6299 208.027 99.377H207.43C207.43 98.3047 208.256 97.5488 209.372 97.5488C210.479 97.5488 211.271 98.3047 211.271 99.2803C211.271 99.9922 210.945 100.528 209.847 101.688L208.265 103.394V103.438H211.464V104H207.377ZM214.865 104V97.6367H215.472V101.442H215.533L217.73 99.2275H218.486L216.456 101.275L218.609 104H217.854L216.008 101.662L215.472 102.163V104H214.865ZM220.991 105.89C219.937 105.89 219.172 105.441 219.058 104.598H219.69C219.805 105.107 220.306 105.362 220.991 105.362C221.861 105.362 222.389 104.958 222.389 104.088V103.033H222.336C222.151 103.446 221.747 103.947 220.877 103.947C219.734 103.947 218.908 103.042 218.908 101.574C218.908 100.115 219.708 99.1572 220.886 99.1572C221.773 99.1572 222.151 99.7109 222.345 100.115H222.397V99.2275H222.986V104.123C222.986 105.336 222.143 105.89 220.991 105.89ZM220.956 103.411C221.861 103.411 222.397 102.726 222.397 101.592C222.397 100.493 221.879 99.7021 220.956 99.7021C220.016 99.7021 219.515 100.537 219.515 101.592C219.515 102.664 220.024 103.411 220.956 103.411Z" fill="#FF5C5C"/>
<path d="M196.628 131.088C195.266 131.088 194.475 129.884 194.475 127.818C194.475 125.762 195.274 124.549 196.628 124.549C197.973 124.549 198.772 125.762 198.772 127.818C198.772 129.884 197.981 131.088 196.628 131.088ZM196.628 130.525C197.595 130.525 198.166 129.541 198.166 127.818C198.166 126.096 197.586 125.103 196.628 125.103C195.661 125.103 195.09 126.096 195.09 127.818C195.09 129.541 195.661 130.525 196.628 130.525ZM202.06 131V124.637H202.666V128.442H202.728L204.925 126.228H205.681L203.65 128.275L205.804 131H205.048L203.202 128.662L202.666 129.163V131H202.06ZM208.186 132.89C207.131 132.89 206.366 132.441 206.252 131.598H206.885C206.999 132.107 207.5 132.362 208.186 132.362C209.056 132.362 209.583 131.958 209.583 131.088V130.033H209.53C209.346 130.446 208.941 130.947 208.071 130.947C206.929 130.947 206.103 130.042 206.103 128.574C206.103 127.115 206.902 126.157 208.08 126.157C208.968 126.157 209.346 126.711 209.539 127.115H209.592V126.228H210.181V131.123C210.181 132.336 209.337 132.89 208.186 132.89ZM208.15 130.411C209.056 130.411 209.592 129.726 209.592 128.592C209.592 127.493 209.073 126.702 208.15 126.702C207.21 126.702 206.709 127.537 206.709 128.592C206.709 129.664 207.219 130.411 208.15 130.411Z" fill="#108EFD"/>
<line x1="23" y1="59.85" x2="243" y2="59.85" stroke="#CFCFCF" stroke-width="0.3"/>
<line x1="23" y1="86.85" x2="243" y2="86.85" stroke="#CFCFCF" stroke-width="0.3"/>
<line x1="23" y1="113.85" x2="243" y2="113.85" stroke="#CFCFCF" stroke-width="0.3"/>
</svg>
