<svg width="253" height="227" viewBox="0 0 253 227" fill="none" xmlns="http://www.w3.org/2000/svg">
<rect x="0.15" y="0.15" width="252.7" height="226.7" rx="5.85" fill="#F9FAFB"/>
<rect x="0.15" y="0.15" width="252.7" height="226.7" rx="5.85" stroke="#DADADA" stroke-width="0.3"/>
<rect x="71.15" y="9.15" width="60.7" height="24.7" rx="11.85" fill="black" stroke="#DADADA" stroke-width="0.3"/>
<rect x="14.15" y="52.15" width="224.7" height="93.7" rx="11.85" fill="white" stroke="#DADADA" stroke-width="0.3"/>
<rect x="18.15" y="183.15" width="224.7" height="34.7" rx="9.85" fill="white" stroke="#DADADA" stroke-width="0.3"/>
<rect x="140.15" y="9.15" width="60.7" height="24.7" rx="11.85" fill="white" stroke="#DADADA" stroke-width="0.3"/>
<rect x="13.15" y="9.15" width="49.7" height="24.7" rx="11.85" fill="white" stroke="#DADADA" stroke-width="0.3"/>
<path d="M32.0244 22.6045V25.7412H25.4502V22.6045H32.0244ZM26.2881 23.2812V25.0537H31.1973V23.2812H26.2881ZM31.9814 16.6748V19.876H29.1562V20.9609H33.0879V21.6592H24.3867V20.9609H28.3184V19.876H25.5146V16.6748H31.9814ZM26.3418 17.3623V19.1885H31.1436V17.3623H26.3418ZM42.627 21.874V22.5723H38.6416V25.8701H37.8145V22.5723H33.8828V21.874H42.627ZM41.4883 16.8574V20.5742H35.0107V16.8574H41.4883ZM35.8379 17.5449V19.9082H40.6504V17.5449H35.8379ZM51.5752 16.3203V25.8701H50.7695V16.3203H51.5752ZM49.5664 16.5781V25.3867H48.7607V20.9287H46.7412C46.1558 22.0405 45.2373 23.0234 43.9053 23.8076L43.4111 23.1953C45.4897 21.9653 46.5317 20.2412 46.6875 18.2432H43.8193V17.5449H47.5254C47.52 18.4849 47.3696 19.3926 47.0527 20.2412H48.7607V16.5781H49.5664Z" fill="black"/>
<path d="M90.1201 22.1104V22.8086H86.1455V25.8701H85.3184V22.8086H81.376V22.1104H90.1201ZM89.1318 20.4346V21.1221H82.5469V16.7715H89.0244V17.459H83.3848V18.5762H88.7988V19.2529H83.3848V20.4346H89.1318ZM99.7773 17.8027V18.4902H98.3594V19.833H99.7773V20.5527H98.3594V22.0029H97.5215V16.3203H98.3594V17.8027H99.7773ZM98.3594 22.4434V25.8701H97.5215V23.1416H92.1074V22.4434H98.3594ZM93.5791 16.9004C95.0293 16.8896 96.082 17.8242 96.0928 19.1455C96.082 20.4883 95.0293 21.4121 93.5791 21.4121C92.1289 21.4121 91.0654 20.4883 91.0762 19.1455C91.0654 17.8242 92.1289 16.8896 93.5791 16.9004ZM93.5791 17.6201C92.6123 17.6201 91.8926 18.2432 91.9033 19.1455C91.8926 20.0586 92.6123 20.6924 93.5791 20.6816C94.5566 20.6924 95.2656 20.0586 95.2656 19.1455C95.2656 18.2432 94.5566 17.6201 93.5791 17.6201ZM111.057 16.3203V25.8701H110.208V16.3203H111.057ZM108.231 17.3623C108.221 20.1123 106.942 22.54 103.741 24.0762L103.279 23.3887C105.863 22.1641 107.179 20.3325 107.372 18.0498H103.72V17.3623H108.231ZM121.401 21.584V22.2822H112.657V21.584H116.61V20.5742H113.796V18.2432H119.425V17.2549H113.764V16.5674H120.273V18.877H114.634V19.8975H120.478V20.5742H117.438V21.584H121.401ZM120.327 23.0127V25.7842H119.479V23.7002H113.635V23.0127H120.327Z" fill="white"/>
<path d="M153.599 18.125C153.588 19.4355 154.587 20.6494 155.994 21.1436L155.564 21.8203C154.479 21.4282 153.636 20.6172 153.212 19.5967C152.809 20.7407 151.944 21.6216 150.816 22.0566L150.354 21.3799C151.805 20.8643 152.761 19.5752 152.771 18.0928V16.9111H153.599V18.125ZM157.853 16.3203V19.2529H159.292V19.9727H157.853V23.3779H157.015V16.3203H157.853ZM158.293 24.957V25.666H151.891V22.7012H152.75V24.957H158.293ZM162.719 18.3936C162.719 19.5215 163.471 20.6279 164.685 21.0684L164.276 21.7236C163.342 21.353 162.681 20.6387 162.343 19.7686C162.01 20.7139 161.338 21.4927 160.388 21.8955L159.969 21.2617C161.183 20.7568 161.913 19.6074 161.924 18.3936V18.2754H160.162V17.5879H161.924V16.4385H162.719V17.5879H164.448V18.2754H162.719V18.3936ZM168.004 16.3311V22.1748H167.198V19.5859H165.952V22.1318H165.136V16.5029H165.952V18.8877H167.198V16.3311H168.004ZM168.004 22.6904V25.8701H167.177V23.3779H161.569V22.6904H168.004ZM180.057 16.3203V25.8701H179.208V16.3203H180.057ZM177.231 17.3623C177.221 20.1123 175.942 22.54 172.741 24.0762L172.279 23.3887C174.863 22.1641 176.179 20.3325 176.372 18.0498H172.72V17.3623H177.231ZM190.401 21.584V22.2822H181.657V21.584H185.61V20.5742H182.796V18.2432H188.425V17.2549H182.764V16.5674H189.273V18.877H183.634V19.8975H189.478V20.5742H186.438V21.584H190.401ZM189.327 23.0127V25.7842H188.479V23.7002H182.635V23.0127H189.327Z" fill="black"/>
<path d="M24.49 69.2H32.69V69.89H24.49V69.2ZM28.17 69.41H28.99V72.78H28.17V69.41ZM25.59 67.61H31.77V68.28H25.59V67.61ZM25.59 64.15H31.67V64.82H26.4V67.8H25.59V64.15ZM26.16 65.86H31.46V66.52H26.16V65.86ZM40.4692 65.11H42.0292V65.8H40.4692V65.11ZM40.4692 67.04H42.0292V67.74H40.4692V67.04ZM39.8892 63.73H40.7192V69.1H39.8892V63.73ZM34.8392 69.53H40.7192V72.78H39.8892V70.21H34.8392V69.53ZM36.2192 64.27C36.6792 64.27 37.0859 64.3633 37.4392 64.55C37.7926 64.73 38.0692 64.98 38.2692 65.3C38.4759 65.62 38.5792 65.99 38.5792 66.41C38.5792 66.8367 38.4759 67.21 38.2692 67.53C38.0692 67.85 37.7926 68.1 37.4392 68.28C37.0859 68.46 36.6792 68.55 36.2192 68.55C35.7726 68.55 35.3692 68.46 35.0092 68.28C34.6559 68.1 34.3759 67.85 34.1692 67.53C33.9626 67.21 33.8592 66.8367 33.8592 66.41C33.8592 65.99 33.9626 65.62 34.1692 65.3C34.3759 64.98 34.6559 64.73 35.0092 64.55C35.3692 64.3633 35.7726 64.27 36.2192 64.27ZM36.2192 64.98C35.9259 64.98 35.6626 65.04 35.4292 65.16C35.1959 65.28 35.0092 65.45 34.8692 65.67C34.7359 65.8833 34.6692 66.13 34.6692 66.41C34.6692 66.6967 34.7359 66.95 34.8692 67.17C35.0092 67.3833 35.1959 67.55 35.4292 67.67C35.6626 67.79 35.9259 67.85 36.2192 67.85C36.5192 67.85 36.7859 67.79 37.0192 67.67C37.2526 67.55 37.4359 67.3833 37.5692 67.17C37.7092 66.95 37.7792 66.6967 37.7792 66.41C37.7792 66.13 37.7092 65.8833 37.5692 65.67C37.4359 65.45 37.2526 65.28 37.0192 65.16C36.7859 65.04 36.5192 64.98 36.2192 64.98ZM52.3009 63.73H53.1309V72.78H52.3009V63.73ZM49.6509 64.71H50.4709C50.4709 65.3633 50.3909 65.9933 50.2309 66.6C50.0776 67.2067 49.8343 67.7833 49.5009 68.33C49.1676 68.87 48.7343 69.3733 48.2009 69.84C47.6676 70.3067 47.0209 70.7233 46.2609 71.09L45.8209 70.42C46.6943 70 47.4143 69.51 47.9809 68.95C48.5476 68.39 48.9676 67.7667 49.2409 67.08C49.5143 66.3867 49.6509 65.64 49.6509 64.84V64.71ZM46.2409 64.71H50.0009V65.38H46.2409V64.71ZM54.9002 68.71H63.1002V69.39H54.9002V68.71ZM55.9402 63.96H62.0502V66.16H56.7802V67.37H55.9602V65.54H61.2302V64.62H55.9402V63.96ZM55.9602 67.1H62.2402V67.76H55.9602V67.1ZM58.5902 67.44H59.4102V69.04H58.5902V67.44ZM55.8202 70.08H62.1002V72.69H61.2702V70.75H55.8202V70.08ZM73.5019 63.73H74.3319V68.59H73.5019V63.73ZM68.5119 69.04H69.3219V70.13H73.5119V69.04H74.3319V72.66H68.5119V69.04ZM69.3219 70.79V71.98H73.5119V70.79H69.3219ZM69.4819 64.16C69.9419 64.16 70.3485 64.25 70.7019 64.43C71.0552 64.6033 71.3319 64.8467 71.5319 65.16C71.7385 65.4733 71.8419 65.8367 71.8419 66.25C71.8419 66.6567 71.7385 67.02 71.5319 67.34C71.3319 67.6533 71.0552 67.8967 70.7019 68.07C70.3485 68.2433 69.9419 68.33 69.4819 68.33C69.0285 68.33 68.6219 68.2433 68.2619 68.07C67.9085 67.8967 67.6285 67.6533 67.4219 67.34C67.2219 67.02 67.1219 66.6567 67.1219 66.25C67.1219 65.8367 67.2219 65.4733 67.4219 65.16C67.6285 64.8467 67.9085 64.6033 68.2619 64.43C68.6219 64.25 69.0285 64.16 69.4819 64.16ZM69.4819 64.86C69.1819 64.86 68.9152 64.92 68.6819 65.04C68.4485 65.1533 68.2652 65.3167 68.1319 65.53C67.9985 65.7367 67.9319 65.9767 67.9319 66.25C67.9319 66.5167 67.9985 66.7567 68.1319 66.97C68.2652 67.1767 68.4485 67.34 68.6819 67.46C68.9152 67.58 69.1819 67.64 69.4819 67.64C69.7819 67.64 70.0485 67.58 70.2819 67.46C70.5152 67.34 70.6985 67.1767 70.8319 66.97C70.9652 66.7567 71.0319 66.5167 71.0319 66.25C71.0319 65.9767 70.9652 65.7367 70.8319 65.53C70.6985 65.3167 70.5152 65.1533 70.2819 65.04C70.0485 64.92 69.7819 64.86 69.4819 64.86ZM76.5011 68.22H77.1411C77.7344 68.22 78.2411 68.2167 78.6611 68.21C79.0878 68.1967 79.4744 68.1733 79.8211 68.14C80.1744 68.1067 80.5311 68.0567 80.8911 67.99L80.9711 68.67C80.6978 68.7167 80.4278 68.7567 80.1611 68.79C79.8944 68.8167 79.6144 68.8367 79.3211 68.85C79.0278 68.8633 78.7044 68.8733 78.3511 68.88C77.9978 68.8867 77.5944 68.89 77.1411 68.89H76.5011V68.22ZM76.4811 64.28H80.3711V66.84H77.3211V68.62H76.5011V66.2H79.5511V64.95H76.4811V64.28ZM82.7311 63.74H83.5611V69.3H82.7311V63.74ZM80.9711 65.08H82.9211V65.75H80.9711V65.08ZM80.9711 66.95H82.9211V67.63H80.9711V66.95ZM77.5111 69.78H83.5611V72.79H82.7311V70.46H77.5111V69.78Z" fill="black"/>
<path d="M21.4111 163.245V172.967H20.2295V163.245H21.4111ZM18.4248 164.094V167.735H15.084V169.69C16.6147 169.68 17.936 169.604 19.4453 169.347L19.5527 170.324C17.8984 170.614 16.4482 170.668 14.708 170.668H13.8594V166.79H17.2109V165.061H13.8486V164.094H18.4248ZM27.8457 164.577C27.8457 166.081 29.3174 167.585 31.3477 167.939L30.8105 168.938C29.1831 168.595 27.8511 167.612 27.2227 166.307C26.5781 167.601 25.2461 168.589 23.624 168.938L23.0977 167.939C25.1064 167.574 26.5674 166.07 26.5781 164.577V163.857H27.8457V164.577ZM31.7021 170.732V171.721H22.8291V170.732H31.7021ZM40.2314 168.337V169.282H33.4209V164.008H40.1455V164.975H34.6348V166.146H39.9199V167.08H34.6348V168.337H40.2314ZM41.209 170.797V171.774H32.3359V170.797H41.209ZM53.3262 170.808V171.785H44.4531V170.808H48.2773V168.917H45.4307V163.89H46.623V165.479H51.124V163.89H52.3164V168.917H49.459V170.808H53.3262ZM46.623 167.95H51.124V166.436H46.623V167.95ZM62.0703 163.245V172.956H60.8672V163.245H62.0703ZM59.1699 164.276C59.1699 167.166 58.0527 169.626 54.6475 171.237L54.0244 170.281C56.5649 169.073 57.7466 167.429 57.9561 165.222H54.5186V164.276H59.1699Z" fill="black"/>
<rect x="24.15" y="82.15" width="51.7" height="24.7" rx="5.85" fill="#DDEFFF" stroke="#DADADA" stroke-width="0.3"/>
<rect x="80.15" y="82.15" width="51.7" height="24.7" rx="5.85" fill="#FFF0DD" stroke="#DADADA" stroke-width="0.3"/>
<rect x="136.15" y="82.15" width="51.7" height="24.7" rx="5.85" fill="#DFEFDE" stroke="#DADADA" stroke-width="0.3"/>
<rect x="151.15" y="115.15" width="29.7" height="24.7" rx="5.85" fill="white" stroke="#DADADA" stroke-width="0.3"/>
<rect x="222.15" y="154.15" width="20.7" height="20.7" rx="5.85" stroke="#DADADA" stroke-width="0.3"/>
<path d="M36.16 90.8H36.87V91.13C36.87 91.4367 36.8033 91.7233 36.67 91.99C36.5367 92.2567 36.3567 92.5 36.13 92.72C35.9033 92.94 35.6333 93.1333 35.32 93.3C35.0133 93.4667 34.6833 93.6067 34.33 93.72C33.9767 93.8333 33.61 93.9133 33.23 93.96L32.95 93.33C33.2767 93.29 33.5967 93.2267 33.91 93.14C34.2233 93.0467 34.5133 92.9333 34.78 92.8C35.0533 92.66 35.2933 92.5033 35.5 92.33C35.7133 92.1567 35.8767 91.97 35.99 91.77C36.1033 91.5633 36.16 91.35 36.16 91.13V90.8ZM36.3 90.8H37.01V91.13C37.01 91.35 37.0667 91.5633 37.18 91.77C37.2933 91.97 37.4533 92.1567 37.66 92.33C37.8667 92.5033 38.1067 92.66 38.38 92.8C38.6533 92.9333 38.9467 93.0467 39.26 93.14C39.5733 93.2267 39.8933 93.29 40.22 93.33L39.93 93.96C39.5567 93.9133 39.1933 93.8333 38.84 93.72C38.4867 93.6067 38.1567 93.4667 37.85 93.3C37.5433 93.1333 37.2733 92.94 37.04 92.72C36.8067 92.5 36.6233 92.2567 36.49 91.99C36.3633 91.7233 36.3 91.4367 36.3 91.13V90.8ZM32.5 94.53H40.67V95.21H32.5V94.53ZM33.49 96.03H39.62V98.11H34.32V99.18H33.51V97.5H38.81V96.67H33.49V96.03ZM33.51 99.03H39.89V99.68H33.51V99.03ZM48.5592 90.73H49.3592V99.78H48.5592V90.73ZM47.0992 94.37H48.8392V95.05H47.0992V94.37ZM44.7692 91.9H45.5592C45.5592 92.48 45.5026 93.0467 45.3892 93.6C45.2759 94.1533 45.0892 94.6867 44.8292 95.2C44.5759 95.7067 44.2326 96.1833 43.7992 96.63C43.3659 97.07 42.8259 97.4733 42.1792 97.84L41.6992 97.25C42.4592 96.8233 43.0626 96.34 43.5092 95.8C43.9559 95.26 44.2759 94.6767 44.4692 94.05C44.6692 93.4167 44.7692 92.75 44.7692 92.05V91.9ZM42.0492 91.9H45.0392V92.58H42.0492V91.9ZM46.5592 90.97H47.3392V99.33H46.5592V90.97ZM51.8684 91.1H57.6884V91.77H51.8684V91.1ZM50.9084 94.34H59.0584V95H50.9084V94.34ZM54.2584 92.77H55.0784V94.64H54.2584V92.77ZM57.2084 91.1H58.0284V91.68C58.0284 91.9733 58.0218 92.2967 58.0084 92.65C57.9951 92.9967 57.9451 93.39 57.8584 93.83L57.0384 93.75C57.1251 93.3167 57.1751 92.9333 57.1884 92.6C57.2018 92.2667 57.2084 91.96 57.2084 91.68V91.1ZM51.8684 95.83H58.0584V98H52.7084V99.23H51.8884V97.4H57.2384V96.5H51.8684V95.83ZM51.8884 99.01H58.2884V99.67H51.8884V99.01ZM66.8677 92.11H68.4277V92.8H66.8677V92.11ZM66.8677 94.04H68.4277V94.74H66.8677V94.04ZM66.2877 90.73H67.1177V96.1H66.2877V90.73ZM61.2377 96.53H67.1177V99.78H66.2877V97.21H61.2377V96.53ZM62.6177 91.27C63.0777 91.27 63.4843 91.3633 63.8377 91.55C64.191 91.73 64.4677 91.98 64.6677 92.3C64.8743 92.62 64.9777 92.99 64.9777 93.41C64.9777 93.8367 64.8743 94.21 64.6677 94.53C64.4677 94.85 64.191 95.1 63.8377 95.28C63.4843 95.46 63.0777 95.55 62.6177 95.55C62.171 95.55 61.7677 95.46 61.4077 95.28C61.0543 95.1 60.7743 94.85 60.5677 94.53C60.361 94.21 60.2577 93.8367 60.2577 93.41C60.2577 92.99 60.361 92.62 60.5677 92.3C60.7743 91.98 61.0543 91.73 61.4077 91.55C61.7677 91.3633 62.171 91.27 62.6177 91.27ZM62.6177 91.98C62.3243 91.98 62.061 92.04 61.8277 92.16C61.5943 92.28 61.4077 92.45 61.2677 92.67C61.1343 92.8833 61.0677 93.13 61.0677 93.41C61.0677 93.6967 61.1343 93.95 61.2677 94.17C61.4077 94.3833 61.5943 94.55 61.8277 94.67C62.061 94.79 62.3243 94.85 62.6177 94.85C62.9177 94.85 63.1843 94.79 63.4177 94.67C63.651 94.55 63.8343 94.3833 63.9677 94.17C64.1077 93.95 64.1777 93.6967 64.1777 93.41C64.1777 93.13 64.1077 92.8833 63.9677 92.67C63.8343 92.45 63.651 92.28 63.4177 92.16C63.1843 92.04 62.9177 91.98 62.6177 91.98Z" fill="black"/>
<path d="M98.69 90.73H99.52V95.86H98.69V90.73ZM99.29 92.93H100.85V93.62H99.29V92.93ZM96.18 91.32H97.06C97.06 92.08 96.89 92.7667 96.55 93.38C96.2167 93.9867 95.7333 94.5067 95.1 94.94C94.4667 95.3733 93.7067 95.7133 92.82 95.96L92.49 95.29C93.2767 95.0833 93.9433 94.8033 94.49 94.45C95.0367 94.09 95.4533 93.6767 95.74 93.21C96.0333 92.7433 96.18 92.2333 96.18 91.68V91.32ZM92.89 91.32H96.65V91.99H92.89V91.32ZM93.82 96.28H99.52V99.65H93.82V96.28ZM98.7 96.96H94.64V98.98H98.7V96.96ZM108.289 90.73H109.119V99.78H108.289V90.73ZM105.639 91.71H106.459C106.459 92.3633 106.379 92.9933 106.219 93.6C106.066 94.2067 105.823 94.7833 105.489 95.33C105.156 95.87 104.723 96.3733 104.189 96.84C103.656 97.3067 103.009 97.7233 102.249 98.09L101.809 97.42C102.683 97 103.403 96.51 103.969 95.95C104.536 95.39 104.956 94.7667 105.229 94.08C105.503 93.3867 105.639 92.64 105.639 91.84V91.71ZM102.229 91.71H105.989V92.38H102.229V91.71ZM117.668 92.11H119.228V92.8H117.668V92.11ZM117.668 94.04H119.228V94.74H117.668V94.04ZM117.088 90.73H117.918V96.1H117.088V90.73ZM112.038 96.53H117.918V99.78H117.088V97.21H112.038V96.53ZM113.418 91.27C113.878 91.27 114.285 91.3633 114.638 91.55C114.992 91.73 115.268 91.98 115.468 92.3C115.675 92.62 115.778 92.99 115.778 93.41C115.778 93.8367 115.675 94.21 115.468 94.53C115.268 94.85 114.992 95.1 114.638 95.28C114.285 95.46 113.878 95.55 113.418 95.55C112.972 95.55 112.568 95.46 112.208 95.28C111.855 95.1 111.575 94.85 111.368 94.53C111.162 94.21 111.058 93.8367 111.058 93.41C111.058 92.99 111.162 92.62 111.368 92.3C111.575 91.98 111.855 91.73 112.208 91.55C112.568 91.3633 112.972 91.27 113.418 91.27ZM113.418 91.98C113.125 91.98 112.862 92.04 112.628 92.16C112.395 92.28 112.208 92.45 112.068 92.67C111.935 92.8833 111.868 93.13 111.868 93.41C111.868 93.6967 111.935 93.95 112.068 94.17C112.208 94.3833 112.395 94.55 112.628 94.67C112.862 94.79 113.125 94.85 113.418 94.85C113.718 94.85 113.985 94.79 114.218 94.67C114.452 94.55 114.635 94.3833 114.768 94.17C114.908 93.95 114.978 93.6967 114.978 93.41C114.978 93.13 114.908 92.8833 114.768 92.67C114.635 92.45 114.452 92.28 114.218 92.16C113.985 92.04 113.718 91.98 113.418 91.98Z" fill="black"/>
<path d="M151.45 91.16C151.903 91.16 152.303 91.24 152.65 91.4C152.997 91.5533 153.267 91.77 153.46 92.05C153.66 92.3233 153.76 92.6467 153.76 93.02C153.76 93.38 153.66 93.7033 153.46 93.99C153.267 94.27 152.997 94.49 152.65 94.65C152.303 94.8033 151.903 94.88 151.45 94.88C151.01 94.88 150.617 94.8033 150.27 94.65C149.923 94.49 149.65 94.27 149.45 93.99C149.25 93.7033 149.15 93.38 149.15 93.02C149.15 92.6467 149.25 92.3233 149.45 92.05C149.65 91.77 149.923 91.5533 150.27 91.4C150.617 91.24 151.01 91.16 151.45 91.16ZM151.45 91.84C151.163 91.84 150.907 91.89 150.68 91.99C150.453 92.09 150.273 92.23 150.14 92.41C150.013 92.5833 149.95 92.7867 149.95 93.02C149.95 93.2467 150.013 93.45 150.14 93.63C150.273 93.8033 150.453 93.94 150.68 94.04C150.907 94.14 151.163 94.19 151.45 94.19C151.75 94.19 152.013 94.14 152.24 94.04C152.467 93.94 152.643 93.8033 152.77 93.63C152.903 93.45 152.97 93.2467 152.97 93.02C152.97 92.7867 152.903 92.5833 152.77 92.41C152.643 92.23 152.467 92.09 152.24 91.99C152.013 91.89 151.75 91.84 151.45 91.84ZM151.09 95.89H151.92V99.5H151.09V95.89ZM155.09 90.74H155.91V99.78H155.09V90.74ZM148.59 96.34L148.48 95.64C149.04 95.64 149.653 95.6333 150.32 95.62C150.993 95.6067 151.683 95.5767 152.39 95.53C153.103 95.4833 153.787 95.41 154.44 95.31L154.5 95.93C153.827 96.0567 153.14 96.15 152.44 96.21C151.74 96.2633 151.06 96.2967 150.4 96.31C149.747 96.3233 149.143 96.3333 148.59 96.34ZM159.929 91.7H160.609V92.43C160.609 92.99 160.503 93.5067 160.289 93.98C160.083 94.4533 159.789 94.8667 159.409 95.22C159.036 95.5733 158.593 95.8433 158.079 96.03L157.659 95.37C158.113 95.21 158.509 94.9833 158.849 94.69C159.189 94.39 159.453 94.0467 159.639 93.66C159.833 93.2733 159.929 92.8633 159.929 92.43V91.7ZM160.079 91.7H160.759V92.43C160.759 92.8233 160.849 93.1967 161.029 93.55C161.209 93.9033 161.463 94.2133 161.789 94.48C162.116 94.7467 162.499 94.9567 162.939 95.11L162.549 95.76C162.043 95.5867 161.606 95.3367 161.239 95.01C160.873 94.6833 160.586 94.3 160.379 93.86C160.179 93.4133 160.079 92.9367 160.079 92.43V91.7ZM157.909 91.4H162.749V92.08H157.909V91.4ZM163.889 90.73H164.719V96.18H163.889V90.73ZM164.489 93.03H166.049V93.72H164.489V93.03ZM161.839 96.43C162.453 96.43 162.979 96.4967 163.419 96.63C163.866 96.7567 164.209 96.9433 164.449 97.19C164.689 97.4367 164.809 97.7367 164.809 98.09C164.809 98.4433 164.689 98.7433 164.449 98.99C164.209 99.2367 163.866 99.4267 163.419 99.56C162.979 99.6933 162.453 99.76 161.839 99.76C161.226 99.76 160.696 99.6933 160.249 99.56C159.803 99.4267 159.459 99.2367 159.219 98.99C158.979 98.7433 158.859 98.4433 158.859 98.09C158.859 97.7367 158.979 97.4367 159.219 97.19C159.459 96.9433 159.803 96.7567 160.249 96.63C160.696 96.4967 161.226 96.43 161.839 96.43ZM161.839 97.09C161.393 97.09 161.006 97.13 160.679 97.21C160.359 97.29 160.113 97.4033 159.939 97.55C159.766 97.6967 159.679 97.8767 159.679 98.09C159.679 98.3033 159.766 98.4867 159.939 98.64C160.113 98.7867 160.359 98.9 160.679 98.98C161.006 99.06 161.393 99.1 161.839 99.1C162.286 99.1 162.669 99.06 162.989 98.98C163.309 98.9 163.556 98.7867 163.729 98.64C163.903 98.4867 163.989 98.3033 163.989 98.09C163.989 97.8767 163.903 97.6967 163.729 97.55C163.556 97.4033 163.309 97.29 162.989 97.21C162.669 97.13 162.286 97.09 161.839 97.09ZM173.668 92.11H175.228V92.8H173.668V92.11ZM173.668 94.04H175.228V94.74H173.668V94.04ZM173.088 90.73H173.918V96.1H173.088V90.73ZM168.038 96.53H173.918V99.78H173.088V97.21H168.038V96.53ZM169.418 91.27C169.878 91.27 170.285 91.3633 170.638 91.55C170.992 91.73 171.268 91.98 171.468 92.3C171.675 92.62 171.778 92.99 171.778 93.41C171.778 93.8367 171.675 94.21 171.468 94.53C171.268 94.85 170.992 95.1 170.638 95.28C170.285 95.46 169.878 95.55 169.418 95.55C168.972 95.55 168.568 95.46 168.208 95.28C167.855 95.1 167.575 94.85 167.368 94.53C167.162 94.21 167.058 93.8367 167.058 93.41C167.058 92.99 167.162 92.62 167.368 92.3C167.575 91.98 167.855 91.73 168.208 91.55C168.568 91.3633 168.972 91.27 169.418 91.27ZM169.418 91.98C169.125 91.98 168.862 92.04 168.628 92.16C168.395 92.28 168.208 92.45 168.068 92.67C167.935 92.8833 167.868 93.13 167.868 93.41C167.868 93.6967 167.935 93.95 168.068 94.17C168.208 94.3833 168.395 94.55 168.628 94.67C168.862 94.79 169.125 94.85 169.418 94.85C169.718 94.85 169.985 94.79 170.218 94.67C170.452 94.55 170.635 94.3833 170.768 94.17C170.908 93.95 170.978 93.6967 170.978 93.41C170.978 93.13 170.908 92.8833 170.768 92.67C170.635 92.45 170.452 92.28 170.218 92.16C169.985 92.04 169.718 91.98 169.418 91.98Z" fill="black"/>
<rect x="24.15" y="115.15" width="68.7" height="24.7" rx="5.85" fill="white"/>
<rect x="24.15" y="115.15" width="68.7" height="24.7" rx="5.85" stroke="#DADADA" stroke-width="0.3"/>
<path d="M44.16 123.3H44.87V123.63C44.87 123.937 44.8033 124.223 44.67 124.49C44.5367 124.757 44.3567 125 44.13 125.22C43.9033 125.44 43.6333 125.633 43.32 125.8C43.0133 125.967 42.6833 126.107 42.33 126.22C41.9767 126.333 41.61 126.413 41.23 126.46L40.95 125.83C41.2767 125.79 41.5967 125.727 41.91 125.64C42.2233 125.547 42.5133 125.433 42.78 125.3C43.0533 125.16 43.2933 125.003 43.5 124.83C43.7133 124.657 43.8767 124.47 43.99 124.27C44.1033 124.063 44.16 123.85 44.16 123.63V123.3ZM44.3 123.3H45.01V123.63C45.01 123.85 45.0667 124.063 45.18 124.27C45.2933 124.47 45.4533 124.657 45.66 124.83C45.8667 125.003 46.1067 125.16 46.38 125.3C46.6533 125.433 46.9467 125.547 47.26 125.64C47.5733 125.727 47.8933 125.79 48.22 125.83L47.93 126.46C47.5567 126.413 47.1933 126.333 46.84 126.22C46.4867 126.107 46.1567 125.967 45.85 125.8C45.5433 125.633 45.2733 125.44 45.04 125.22C44.8067 125 44.6233 124.757 44.49 124.49C44.3633 124.223 44.3 123.937 44.3 123.63V123.3ZM40.5 127.03H48.67V127.71H40.5V127.03ZM41.49 128.53H47.62V130.61H42.32V131.68H41.51V130H46.81V129.17H41.49V128.53ZM41.51 131.53H47.89V132.18H41.51V131.53ZM56.5592 123.23H57.3592V132.28H56.5592V123.23ZM55.0992 126.87H56.8392V127.55H55.0992V126.87ZM52.7692 124.4H53.5592C53.5592 124.98 53.5026 125.547 53.3892 126.1C53.2759 126.653 53.0892 127.187 52.8292 127.7C52.5759 128.207 52.2326 128.683 51.7992 129.13C51.3659 129.57 50.8259 129.973 50.1792 130.34L49.6992 129.75C50.4592 129.323 51.0626 128.84 51.5092 128.3C51.9559 127.76 52.2759 127.177 52.4692 126.55C52.6692 125.917 52.7692 125.25 52.7692 124.55V124.4ZM50.0492 124.4H53.0392V125.08H50.0492V124.4ZM54.5592 123.47H55.3392V131.83H54.5592V123.47ZM59.8684 123.6H65.6884V124.27H59.8684V123.6ZM58.9084 126.84H67.0584V127.5H58.9084V126.84ZM62.2584 125.27H63.0784V127.14H62.2584V125.27ZM65.2084 123.6H66.0284V124.18C66.0284 124.473 66.0218 124.797 66.0084 125.15C65.9951 125.497 65.9451 125.89 65.8584 126.33L65.0384 126.25C65.1251 125.817 65.1751 125.433 65.1884 125.1C65.2018 124.767 65.2084 124.46 65.2084 124.18V123.6ZM59.8684 128.33H66.0584V130.5H60.7084V131.73H59.8884V129.9H65.2384V129H59.8684V128.33ZM59.8884 131.51H66.2884V132.17H59.8884V131.51ZM74.8677 124.61H76.4277V125.3H74.8677V124.61ZM74.8677 126.54H76.4277V127.24H74.8677V126.54ZM74.2877 123.23H75.1177V128.6H74.2877V123.23ZM69.2377 129.03H75.1177V132.28H74.2877V129.71H69.2377V129.03ZM70.6177 123.77C71.0777 123.77 71.4843 123.863 71.8377 124.05C72.191 124.23 72.4677 124.48 72.6677 124.8C72.8743 125.12 72.9777 125.49 72.9777 125.91C72.9777 126.337 72.8743 126.71 72.6677 127.03C72.4677 127.35 72.191 127.6 71.8377 127.78C71.4843 127.96 71.0777 128.05 70.6177 128.05C70.171 128.05 69.7677 127.96 69.4077 127.78C69.0543 127.6 68.7743 127.35 68.5677 127.03C68.361 126.71 68.2577 126.337 68.2577 125.91C68.2577 125.49 68.361 125.12 68.5677 124.8C68.7743 124.48 69.0543 124.23 69.4077 124.05C69.7677 123.863 70.171 123.77 70.6177 123.77ZM70.6177 124.48C70.3243 124.48 70.061 124.54 69.8277 124.66C69.5943 124.78 69.4077 124.95 69.2677 125.17C69.1343 125.383 69.0677 125.63 69.0677 125.91C69.0677 126.197 69.1343 126.45 69.2677 126.67C69.4077 126.883 69.5943 127.05 69.8277 127.17C70.061 127.29 70.3243 127.35 70.6177 127.35C70.9177 127.35 71.1843 127.29 71.4177 127.17C71.651 127.05 71.8343 126.883 71.9677 126.67C72.1077 126.45 72.1777 126.197 72.1777 125.91C72.1777 125.63 72.1077 125.383 71.9677 125.17C71.8343 124.95 71.651 124.78 71.4177 124.66C71.1843 124.54 70.9177 124.48 70.6177 124.48Z" fill="black"/>
<rect x="98.15" y="115.15" width="47.7" height="24.7" rx="5.85" fill="white"/>
<rect x="98.15" y="115.15" width="47.7" height="24.7" rx="5.85" stroke="#DADADA" stroke-width="0.3"/>
<path d="M118.054 124.227V131.5H117.39V124.923H117.347L115.643 126.056V125.367L117.362 124.227H118.054ZM126.143 123.23H126.973V127.83H126.143V123.23ZM126.603 125.18H128.303V125.87H126.603V125.18ZM121.223 128.26H126.973V130.48H122.063V131.84H121.253V129.86H126.153V128.92H121.223V128.26ZM121.253 131.49H127.293V132.16H121.253V131.49ZM122.453 123.56C122.906 123.56 123.306 123.643 123.653 123.81C124.006 123.977 124.283 124.213 124.483 124.52C124.683 124.82 124.783 125.17 124.783 125.57C124.783 125.963 124.683 126.313 124.483 126.62C124.283 126.92 124.006 127.157 123.653 127.33C123.306 127.497 122.906 127.58 122.453 127.58C122.006 127.58 121.606 127.497 121.253 127.33C120.9 127.157 120.62 126.92 120.413 126.62C120.213 126.313 120.113 125.96 120.113 125.56C120.113 125.167 120.213 124.82 120.413 124.52C120.62 124.213 120.9 123.977 121.253 123.81C121.606 123.643 122.006 123.56 122.453 123.56ZM122.453 124.24C122.16 124.24 121.896 124.297 121.663 124.41C121.436 124.523 121.256 124.68 121.123 124.88C120.99 125.073 120.923 125.303 120.923 125.57C120.923 125.83 120.99 126.06 121.123 126.26C121.256 126.46 121.436 126.62 121.663 126.74C121.896 126.853 122.16 126.91 122.453 126.91C122.746 126.91 123.006 126.853 123.233 126.74C123.466 126.62 123.65 126.46 123.783 126.26C123.916 126.06 123.983 125.83 123.983 125.57C123.983 125.303 123.916 125.073 123.783 124.88C123.65 124.68 123.466 124.523 123.233 124.41C123.006 124.297 122.746 124.24 122.453 124.24Z" fill="black"/>
<path d="M161.17 128.48H161.99V131.79H161.17V128.48ZM157.5 128.2H165.67V128.89H157.5V128.2ZM161.17 124.29H161.9V124.52C161.9 124.827 161.837 125.12 161.71 125.4C161.583 125.673 161.407 125.927 161.18 126.16C160.953 126.393 160.687 126.603 160.38 126.79C160.08 126.97 159.753 127.123 159.4 127.25C159.053 127.37 158.69 127.457 158.31 127.51L158.01 126.85C158.337 126.803 158.653 126.73 158.96 126.63C159.273 126.53 159.56 126.407 159.82 126.26C160.087 126.113 160.32 125.95 160.52 125.77C160.727 125.583 160.887 125.387 161 125.18C161.113 124.967 161.17 124.747 161.17 124.52V124.29ZM161.27 124.29H162V124.52C162 124.74 162.057 124.957 162.17 125.17C162.283 125.377 162.44 125.573 162.64 125.76C162.84 125.94 163.07 126.107 163.33 126.26C163.597 126.407 163.883 126.53 164.19 126.63C164.503 126.73 164.823 126.803 165.15 126.85L164.85 127.51C164.47 127.457 164.103 127.37 163.75 127.25C163.403 127.123 163.077 126.97 162.77 126.79C162.47 126.603 162.207 126.393 161.98 126.16C161.76 125.927 161.587 125.673 161.46 125.4C161.333 125.12 161.27 124.827 161.27 124.52V124.29ZM158.29 123.85H164.88V124.52H158.29V123.85ZM161.17 122.73H161.99V124.08H161.17V122.73ZM172.819 122.73H173.649V131.77H172.819V122.73ZM173.429 126.4H175.089V127.09H173.429V126.4ZM170.509 123.7H171.319C171.319 124.56 171.179 125.383 170.899 126.17C170.619 126.95 170.179 127.673 169.579 128.34C168.979 129 168.189 129.573 167.209 130.06L166.749 129.42C167.589 129 168.286 128.51 168.839 127.95C169.399 127.383 169.816 126.757 170.089 126.07C170.369 125.377 170.509 124.63 170.509 123.83V123.7ZM167.169 123.7H170.929V124.39H167.169V123.7Z" fill="black"/>
<path d="M230.083 166.917H230.677L234.75 162.844L234.156 162.25L230.083 166.323V166.917ZM229.667 167.75C229.549 167.75 229.45 167.71 229.37 167.63C229.29 167.55 229.25 167.451 229.25 167.333V166.323C229.25 166.212 229.271 166.106 229.313 166.005C229.354 165.904 229.413 165.816 229.49 165.74L234.75 160.49C234.833 160.413 234.925 160.354 235.026 160.313C235.127 160.271 235.233 160.25 235.344 160.25C235.455 160.25 235.562 160.271 235.667 160.313C235.771 160.354 235.861 160.417 235.937 160.5L236.51 161.083C236.594 161.16 236.654 161.25 236.692 161.354C236.731 161.458 236.75 161.563 236.75 161.667C236.75 161.778 236.731 161.884 236.692 161.985C236.654 162.085 236.593 162.177 236.51 162.26L231.26 167.51C231.184 167.587 231.095 167.646 230.995 167.687C230.894 167.729 230.788 167.75 230.677 167.75H229.667ZM234.448 162.552L234.156 162.25L234.75 162.844L234.448 162.552Z" fill="black"/>
<path d="M31.624 204V203.543L33.7773 201.214C34.5947 200.326 34.9287 199.878 34.9375 199.28C34.9287 198.577 34.3574 198.103 33.6016 198.103C32.793 198.103 32.2744 198.63 32.2744 199.377H31.6768C31.6768 198.305 32.5029 197.549 33.6191 197.549C34.7266 197.549 35.5176 198.305 35.5176 199.28C35.5176 199.992 35.1924 200.528 34.0938 201.688L32.5117 203.394V203.438H35.7109V204H31.624ZM38.9277 204.088C37.5654 204.088 36.7744 202.884 36.7744 200.818C36.7744 198.762 37.5742 197.549 38.9277 197.549C40.2725 197.549 41.0723 198.762 41.0723 200.818C41.0723 202.884 40.2812 204.088 38.9277 204.088ZM38.9277 203.525C39.8945 203.525 40.4658 202.541 40.4658 200.818C40.4658 199.096 39.8857 198.103 38.9277 198.103C37.9609 198.103 37.3896 199.096 37.3896 200.818C37.3896 202.541 37.9609 203.525 38.9277 203.525ZM42.1709 204V203.543L44.3242 201.214C45.1416 200.326 45.4756 199.878 45.4844 199.28C45.4756 198.577 44.9043 198.103 44.1484 198.103C43.3398 198.103 42.8213 198.63 42.8213 199.377H42.2236C42.2236 198.305 43.0498 197.549 44.166 197.549C45.2734 197.549 46.0645 198.305 46.0645 199.28C46.0645 199.992 45.7393 200.528 44.6406 201.688L43.0586 203.394V203.438H46.2578V204H42.1709ZM49.4395 204.088C48.3232 204.088 47.4883 203.385 47.4619 202.4H48.0684C48.1035 203.051 48.6836 203.534 49.4395 203.534C50.3271 203.534 50.9688 202.866 50.96 201.996C50.96 201.082 50.2832 200.449 49.3955 200.44C48.8594 200.44 48.4199 200.616 48.165 201.029H47.541L47.9805 197.637H51.2939V198.199H48.5078L48.2354 200.3H48.2881C48.5693 200.036 49.0264 199.878 49.501 199.878C50.6699 199.878 51.5752 200.748 51.5752 201.987C51.5752 203.2 50.6787 204.088 49.4395 204.088ZM55.3545 200.537V201.1H52.6826V200.537H55.3545ZM58.5537 204.088C57.1914 204.088 56.4004 202.884 56.4004 200.818C56.4004 198.762 57.2002 197.549 58.5537 197.549C59.8984 197.549 60.6982 198.762 60.6982 200.818C60.6982 202.884 59.9072 204.088 58.5537 204.088ZM58.5537 203.525C59.5205 203.525 60.0918 202.541 60.0918 200.818C60.0918 199.096 59.5117 198.103 58.5537 198.103C57.5869 198.103 57.0156 199.096 57.0156 200.818C57.0156 202.541 57.5869 203.525 58.5537 203.525ZM63.915 204.088C62.8076 204.079 61.7002 203.341 61.7002 201.073C61.7002 198.973 62.4824 197.549 64.0117 197.549C65.0928 197.549 65.8311 198.234 65.9717 199.228H65.3477C65.2246 198.586 64.7676 198.111 64.0117 198.111C62.9131 198.111 62.2891 199.096 62.2891 200.827H62.3594C62.6846 200.265 63.2998 199.913 64.0117 199.913C65.1191 199.913 66.042 200.783 66.042 201.987C66.042 203.147 65.1982 204.097 63.915 204.088ZM63.915 203.534C64.7852 203.534 65.4355 202.84 65.4355 201.987C65.4355 201.152 64.7852 200.467 63.9238 200.467C63.0273 200.467 62.3506 201.205 62.3945 202.022C62.4561 202.875 63.0713 203.534 63.915 203.534ZM69.8213 200.537V201.1H67.1494V200.537H69.8213ZM73.0469 197.637V204H72.4141V198.287H72.3789L70.876 199.28V198.639L72.3965 197.637H73.0469ZM75.0068 204L77.9775 198.234V198.199H74.5586V197.637H78.6367V198.226L75.666 204H75.0068Z" fill="black"/>
<path d="M96.8672 197.479C98.5107 197.479 99.6797 198.27 99.6797 199.474C99.6797 200.616 98.6426 201.368 97.1484 201.451V203.183H100.444V203.657H93.3428V203.183H96.5947V201.451C95.105 201.372 94.0635 200.616 94.0635 199.474C94.0635 198.27 95.2324 197.479 96.8672 197.479ZM96.8672 197.936C95.5576 197.936 94.5908 198.56 94.5908 199.474C94.5908 200.388 95.5576 201.012 96.8672 201.012C98.1768 201.012 99.1523 200.388 99.1523 199.474C99.1523 198.56 98.1768 197.936 96.8672 197.936ZM107.766 197.848V198.313H101.499V197.848H104.373V196.872H104.927V197.848H107.766ZM108.223 201.952V202.427H104.927V204.694H104.373V202.427H101.121V201.952H108.223ZM104.646 198.806C106.201 198.806 107.133 199.263 107.133 200.089C107.133 200.897 106.201 201.363 104.646 201.363C103.09 201.363 102.158 200.897 102.167 200.089C102.158 199.263 103.09 198.806 104.646 198.806ZM104.646 199.236C103.459 199.236 102.729 199.562 102.738 200.089C102.729 200.607 103.459 200.933 104.646 200.924C105.832 200.933 106.553 200.607 106.562 200.089C106.553 199.562 105.832 199.236 104.646 199.236ZM113.355 204.088C111.993 204.088 111.202 202.884 111.202 200.818C111.202 198.762 112.002 197.549 113.355 197.549C114.7 197.549 115.5 198.762 115.5 200.818C115.5 202.884 114.709 204.088 113.355 204.088ZM113.355 203.525C114.322 203.525 114.894 202.541 114.894 200.818C114.894 199.096 114.313 198.103 113.355 198.103C112.389 198.103 111.817 199.096 111.817 200.818C111.817 202.541 112.389 203.525 113.355 203.525ZM118.717 204.088C117.609 204.079 116.502 203.341 116.502 201.073C116.502 198.973 117.284 197.549 118.813 197.549C119.895 197.549 120.633 198.234 120.773 199.228H120.149C120.026 198.586 119.569 198.111 118.813 198.111C117.715 198.111 117.091 199.096 117.091 200.827H117.161C117.486 200.265 118.102 199.913 118.813 199.913C119.921 199.913 120.844 200.783 120.844 201.987C120.844 203.147 120 204.097 118.717 204.088ZM118.717 203.534C119.587 203.534 120.237 202.84 120.237 201.987C120.237 201.152 119.587 200.467 118.726 200.467C117.829 200.467 117.152 201.205 117.196 202.022C117.258 202.875 117.873 203.534 118.717 203.534ZM122.479 203.139C122.215 203.139 122.004 202.928 122.004 202.673C122.004 202.409 122.215 202.198 122.479 202.198C122.733 202.198 122.944 202.409 122.944 202.673C122.944 202.928 122.733 203.139 122.479 203.139ZM122.479 199.438C122.215 199.438 122.004 199.228 122.004 198.973C122.004 198.709 122.215 198.498 122.479 198.498C122.733 198.498 122.944 198.709 122.944 198.973C122.944 199.228 122.733 199.438 122.479 199.438ZM124.052 202.646V202.137L126.952 197.637H127.708V202.093H128.578V202.646H127.708V204H127.11V202.646H124.052ZM124.746 202.093H127.11V198.472H127.049L124.746 202.049V202.093ZM131.812 204.088C130.591 204.088 129.703 203.402 129.668 202.4H130.301C130.336 203.077 130.986 203.525 131.804 203.525C132.7 203.525 133.333 203.007 133.342 202.286C133.333 201.539 132.709 201.012 131.681 201.012H131.285V200.449H131.681C132.516 200.449 133.113 199.983 133.122 199.263C133.113 198.577 132.604 198.103 131.821 198.103C131.074 198.103 130.441 198.542 130.424 199.228H129.817C129.844 198.234 130.723 197.549 131.83 197.549C132.99 197.549 133.729 198.313 133.72 199.236C133.729 199.966 133.289 200.502 132.604 200.695V200.739C133.438 200.889 133.957 201.478 133.948 202.295C133.957 203.323 133.043 204.088 131.812 204.088Z" fill="black"/>
<path d="M155.157 197.329C155.157 198.366 156.722 199.122 158.005 199.28L157.803 199.711C156.638 199.544 155.355 198.977 154.876 198.085C154.397 198.977 153.105 199.544 151.94 199.711L151.747 199.28C153.03 199.122 154.595 198.366 154.595 197.329V196.986H155.157V197.329ZM158.409 200.256V200.73H151.343V200.256H158.409ZM157.478 201.521V203.218H152.775V204.132H157.724V204.589H152.239V202.796H156.941V201.97H152.213V201.521H157.478ZM165.722 196.934V204.686H165.177V200.59H163.973V204.281H163.445V197.145H163.973V200.124H165.177V196.934H165.722ZM162.443 197.953C162.443 199.869 161.731 201.759 159.49 202.998L159.156 202.594C161.05 201.565 161.806 200.045 161.907 198.419H159.429V197.953H162.443ZM173.052 197.259V197.777C173.043 198.287 173.043 198.867 172.894 199.614L172.34 199.553C172.498 198.814 172.498 198.27 172.498 197.777V197.716H167.752V197.259H173.052ZM173.966 200.089V200.546H166.899V200.089H169.914V198.665H170.459V200.089H173.966ZM173.078 201.346V203.121H168.323V204.123H173.28V204.58H167.778V202.699H172.533V201.812H167.761V201.346H173.078ZM181.902 198.182V198.647H180.716V199.825H181.902V200.309H180.716V201.548H180.162V196.934H180.716V198.182H181.902ZM180.716 201.926V204.686H180.162V202.392H175.68V201.926H180.716ZM176.866 197.408C178.035 197.408 178.861 198.146 178.87 199.219C178.861 200.3 178.035 201.029 176.866 201.029C175.697 201.029 174.854 200.3 174.854 199.219C174.854 198.146 175.697 197.408 176.866 197.408ZM176.866 197.892C176.014 197.892 175.39 198.445 175.398 199.219C175.39 200.001 176.014 200.555 176.866 200.555C177.71 200.555 178.325 200.001 178.334 199.219C178.325 198.445 177.71 197.892 176.866 197.892Z" fill="black"/>
<path d="M198.654 197.637V204H198.021V198.287H197.986L196.483 199.28V198.639L198.004 197.637H198.654ZM206.178 196.934V198.674H207.373V199.14H206.178V200.906H205.624V196.934H206.178ZM206.178 201.293V203.104H201.854V204.114H206.477V204.571H201.309V202.673H205.624V201.75H201.291V201.293H206.178ZM202.311 197.232C203.471 197.232 204.297 197.927 204.306 198.938C204.297 199.957 203.471 200.651 202.311 200.651C201.159 200.651 200.315 199.957 200.315 198.938C200.315 197.927 201.159 197.232 202.311 197.232ZM202.311 197.698C201.476 197.698 200.86 198.226 200.86 198.938C200.86 199.658 201.476 200.194 202.311 200.194C203.146 200.194 203.761 199.658 203.761 198.938C203.761 198.226 203.146 197.698 202.311 197.698Z" fill="black"/>
</svg>
