<svg width="253" height="195" viewBox="0 0 253 195" fill="none" xmlns="http://www.w3.org/2000/svg">
<g clip-path="url(#clip0_46_76)">
<rect width="253" height="195" rx="6" fill="#F9FAFB"/>
<rect x="71.15" y="9.15" width="60.7" height="24.7" rx="11.85" fill="white" stroke="#DADADA" stroke-width="0.3"/>
<rect x="14.15" y="52.15" width="224.7" height="65.7" rx="11.85" fill="white" stroke="#DADADA" stroke-width="0.3"/>
<rect x="14.15" y="153.15" width="224.7" height="65.7" rx="11.85" fill="white" stroke="#DADADA" stroke-width="0.3"/>
<rect x="140.15" y="9.15" width="60.7" height="24.7" rx="11.85" fill="white" stroke="#DADADA" stroke-width="0.3"/>
<rect x="13.5" y="9.5" width="49" height="24" rx="11.5" fill="black" stroke="black"/>
<path d="M32.0244 22.6045V25.7412H25.4502V22.6045H32.0244ZM26.2881 23.2812V25.0537H31.1973V23.2812H26.2881ZM31.9814 16.6748V19.876H29.1562V20.9609H33.0879V21.6592H24.3867V20.9609H28.3184V19.876H25.5146V16.6748H31.9814ZM26.3418 17.3623V19.1885H31.1436V17.3623H26.3418ZM42.627 21.874V22.5723H38.6416V25.8701H37.8145V22.5723H33.8828V21.874H42.627ZM41.4883 16.8574V20.5742H35.0107V16.8574H41.4883ZM35.8379 17.5449V19.9082H40.6504V17.5449H35.8379ZM51.5752 16.3203V25.8701H50.7695V16.3203H51.5752ZM49.5664 16.5781V25.3867H48.7607V20.9287H46.7412C46.1558 22.0405 45.2373 23.0234 43.9053 23.8076L43.4111 23.1953C45.4897 21.9653 46.5317 20.2412 46.6875 18.2432H43.8193V17.5449H47.5254C47.52 18.4849 47.3696 19.3926 47.0527 20.2412H48.7607V16.5781H49.5664Z" fill="white"/>
<path d="M90.1201 22.1104V22.8086H86.1455V25.8701H85.3184V22.8086H81.376V22.1104H90.1201ZM89.1318 20.4346V21.1221H82.5469V16.7715H89.0244V17.459H83.3848V18.5762H88.7988V19.2529H83.3848V20.4346H89.1318ZM99.7773 17.8027V18.4902H98.3594V19.833H99.7773V20.5527H98.3594V22.0029H97.5215V16.3203H98.3594V17.8027H99.7773ZM98.3594 22.4434V25.8701H97.5215V23.1416H92.1074V22.4434H98.3594ZM93.5791 16.9004C95.0293 16.8896 96.082 17.8242 96.0928 19.1455C96.082 20.4883 95.0293 21.4121 93.5791 21.4121C92.1289 21.4121 91.0654 20.4883 91.0762 19.1455C91.0654 17.8242 92.1289 16.8896 93.5791 16.9004ZM93.5791 17.6201C92.6123 17.6201 91.8926 18.2432 91.9033 19.1455C91.8926 20.0586 92.6123 20.6924 93.5791 20.6816C94.5566 20.6924 95.2656 20.0586 95.2656 19.1455C95.2656 18.2432 94.5566 17.6201 93.5791 17.6201ZM111.057 16.3203V25.8701H110.208V16.3203H111.057ZM108.231 17.3623C108.221 20.1123 106.942 22.54 103.741 24.0762L103.279 23.3887C105.863 22.1641 107.179 20.3325 107.372 18.0498H103.72V17.3623H108.231ZM121.401 21.584V22.2822H112.657V21.584H116.61V20.5742H113.796V18.2432H119.425V17.2549H113.764V16.5674H120.273V18.877H114.634V19.8975H120.478V20.5742H117.438V21.584H121.401ZM120.327 23.0127V25.7842H119.479V23.7002H113.635V23.0127H120.327Z" fill="black"/>
<path d="M153.599 18.125C153.588 19.4355 154.587 20.6494 155.994 21.1436L155.564 21.8203C154.479 21.4282 153.636 20.6172 153.212 19.5967C152.809 20.7407 151.944 21.6216 150.816 22.0566L150.354 21.3799C151.805 20.8643 152.761 19.5752 152.771 18.0928V16.9111H153.599V18.125ZM157.853 16.3203V19.2529H159.292V19.9727H157.853V23.3779H157.015V16.3203H157.853ZM158.293 24.957V25.666H151.891V22.7012H152.75V24.957H158.293ZM162.719 18.3936C162.719 19.5215 163.471 20.6279 164.685 21.0684L164.276 21.7236C163.342 21.353 162.681 20.6387 162.343 19.7686C162.01 20.7139 161.338 21.4927 160.388 21.8955L159.969 21.2617C161.183 20.7568 161.913 19.6074 161.924 18.3936V18.2754H160.162V17.5879H161.924V16.4385H162.719V17.5879H164.448V18.2754H162.719V18.3936ZM168.004 16.3311V22.1748H167.198V19.5859H165.952V22.1318H165.136V16.5029H165.952V18.8877H167.198V16.3311H168.004ZM168.004 22.6904V25.8701H167.177V23.3779H161.569V22.6904H168.004ZM180.057 16.3203V25.8701H179.208V16.3203H180.057ZM177.231 17.3623C177.221 20.1123 175.942 22.54 172.741 24.0762L172.279 23.3887C174.863 22.1641 176.179 20.3325 176.372 18.0498H172.72V17.3623H177.231ZM190.401 21.584V22.2822H181.657V21.584H185.61V20.5742H182.796V18.2432H188.425V17.2549H182.764V16.5674H189.273V18.877H183.634V19.8975H189.478V20.5742H186.438V21.584H190.401ZM189.327 23.0127V25.7842H188.479V23.7002H182.635V23.0127H189.327Z" fill="black"/>
<rect x="7.5" y="1.5" width="199" height="40" rx="4.5" stroke="#FF8686" stroke-width="3"/>
<path d="M25.5 69.68H31.67V72.66H25.5V69.68ZM30.86 70.35H26.31V71.98H30.86V70.35ZM25.55 64.06H31.62V67.1H25.55V64.06ZM30.81 64.73H26.36V66.43H30.81V64.73ZM24.5 68.12H32.67V68.8H24.5V68.12ZM28.17 66.93H29V68.4H28.17V66.93ZM33.6892 68.98H41.8892V69.66H33.6892V68.98ZM37.3592 69.4H38.1792V72.77H37.3592V69.4ZM34.7392 64.23H40.8392V67.76H34.7392V64.23ZM40.0192 64.9H35.5492V67.1H40.0192V64.9ZM49.7884 63.73H50.5884V72.78H49.7884V63.73ZM45.8584 67.43H48.1384V68.1H45.8584V67.43ZM47.9084 63.97H48.6884V72.32H47.9084V63.97ZM45.9684 64.88H46.7684C46.7684 65.6667 46.6551 66.4233 46.4284 67.15C46.2084 67.87 45.8484 68.5433 45.3484 69.17C44.8484 69.79 44.1918 70.3433 43.3784 70.83L42.8984 70.23C43.6051 69.8033 44.1851 69.3233 44.6384 68.79C45.0918 68.25 45.4251 67.6667 45.6384 67.04C45.8584 66.4067 45.9684 65.7367 45.9684 65.03V64.88ZM43.2884 64.88H46.2784V65.56H43.2884V64.88ZM61.4902 63.73H62.3202V68.59H61.4902V63.73ZM56.5002 69.04H57.3102V70.13H61.5002V69.04H62.3202V72.66H56.5002V69.04ZM57.3102 70.79V71.98H61.5002V70.79H57.3102ZM57.4702 64.16C57.9302 64.16 58.3368 64.25 58.6902 64.43C59.0435 64.6033 59.3202 64.8467 59.5202 65.16C59.7268 65.4733 59.8302 65.8367 59.8302 66.25C59.8302 66.6567 59.7268 67.02 59.5202 67.34C59.3202 67.6533 59.0435 67.8967 58.6902 68.07C58.3368 68.2433 57.9302 68.33 57.4702 68.33C57.0168 68.33 56.6102 68.2433 56.2502 68.07C55.8968 67.8967 55.6168 67.6533 55.4102 67.34C55.2102 67.02 55.1102 66.6567 55.1102 66.25C55.1102 65.8367 55.2102 65.4733 55.4102 65.16C55.6168 64.8467 55.8968 64.6033 56.2502 64.43C56.6102 64.25 57.0168 64.16 57.4702 64.16ZM57.4702 64.86C57.1702 64.86 56.9035 64.92 56.6702 65.04C56.4368 65.1533 56.2535 65.3167 56.1202 65.53C55.9868 65.7367 55.9202 65.9767 55.9202 66.25C55.9202 66.5167 55.9868 66.7567 56.1202 66.97C56.2535 67.1767 56.4368 67.34 56.6702 67.46C56.9035 67.58 57.1702 67.64 57.4702 67.64C57.7702 67.64 58.0368 67.58 58.2702 67.46C58.5035 67.34 58.6868 67.1767 58.8202 66.97C58.9535 66.7567 59.0202 66.5167 59.0202 66.25C59.0202 65.9767 58.9535 65.7367 58.8202 65.53C58.6868 65.3167 58.5035 65.1533 58.2702 65.04C58.0368 64.92 57.7702 64.86 57.4702 64.86ZM64.4894 68.22H65.1294C65.7227 68.22 66.2294 68.2167 66.6494 68.21C67.076 68.1967 67.4627 68.1733 67.8094 68.14C68.1627 68.1067 68.5194 68.0567 68.8794 67.99L68.9594 68.67C68.686 68.7167 68.416 68.7567 68.1494 68.79C67.8827 68.8167 67.6027 68.8367 67.3094 68.85C67.016 68.8633 66.6927 68.8733 66.3394 68.88C65.986 68.8867 65.5827 68.89 65.1294 68.89H64.4894V68.22ZM64.4694 64.28H68.3594V66.84H65.3094V68.62H64.4894V66.2H67.5394V64.95H64.4694V64.28ZM70.7194 63.74H71.5494V69.3H70.7194V63.74ZM68.9594 65.08H70.9094V65.75H68.9594V65.08ZM68.9594 66.95H70.9094V67.63H68.9594V66.95ZM65.4994 69.78H71.5494V72.79H70.7194V70.46H65.4994V69.78Z" fill="black"/>
<path d="M21.0459 138.19V139.286C21.0459 140.586 21.0459 141.929 20.6914 143.97L19.4775 143.862C19.8535 141.95 19.8535 140.543 19.8535 139.286V139.157H14.2568V138.19H21.0459ZM22.1738 144.646V145.624H13.3223V144.646H22.1738ZM26.7822 138.233V141.854H24.2686V143.744C25.2568 143.733 26.1968 143.696 27.2764 143.519L27.3623 144.485C26.0518 144.7 24.9883 144.743 23.7852 144.743H23.1191V140.887H25.6328V139.2H23.1084V138.233H26.7822ZM31.1865 137.245V146.956H30.0479V141.939H28.9521V146.462H27.8564V137.428H28.9521V140.973H30.0479V137.245H31.1865ZM41.209 144.786V145.785H32.3359V144.786H41.209ZM40.4355 138.147V139.104H39.0176V142.197H40.4033V143.143H33.0986V142.197H34.4629V139.104H33.0664V138.147H40.4355ZM35.6553 142.197H37.8359V139.104H35.6553V142.197ZM53.3262 144.808V145.785H44.4531V144.808H48.2773V142.917H45.4307V137.89H46.623V139.479H51.124V137.89H52.3164V142.917H49.459V144.808H53.3262ZM46.623 141.95H51.124V140.436H46.623V141.95ZM62.0703 137.245V146.956H60.8672V137.245H62.0703ZM59.1699 138.276C59.1699 141.166 58.0527 143.626 54.6475 145.237L54.0244 144.281C56.5649 143.073 57.7466 141.429 57.9561 139.222H54.5186V138.276H59.1699Z" fill="black"/>
<rect x="24.15" y="82.15" width="91.7" height="24.7" rx="5.85" fill="white" stroke="#DADADA" stroke-width="0.3"/>
<rect x="119.15" y="82.15" width="67.7" height="24.7" rx="5.85" fill="white" stroke="#DADADA" stroke-width="0.3"/>
<rect x="197.15" y="82.15" width="29.7" height="24.7" rx="5.85" fill="white" stroke="#DADADA" stroke-width="0.3"/>
<rect x="222.15" y="128.15" width="20.7" height="20.7" rx="5.85" stroke="#DADADA" stroke-width="0.3"/>
<path d="M31.8097 98V97.5135L34.1854 94.843C34.4955 94.4927 34.7453 94.1932 34.9347 93.9446C35.1241 93.696 35.2614 93.4664 35.3466 93.2557C35.4342 93.045 35.478 92.826 35.478 92.5987C35.478 92.3217 35.4129 92.0803 35.2827 91.8743C35.1548 91.666 34.9785 91.5038 34.7536 91.3878C34.5286 91.2718 34.2753 91.2138 33.9936 91.2138C33.6953 91.2138 33.4337 91.2777 33.2088 91.4055C32.9863 91.5334 32.8134 91.7086 32.6903 91.9311C32.5672 92.1536 32.5057 92.4093 32.5057 92.6982H31.87C31.87 92.2957 31.9624 91.9394 32.147 91.6293C32.334 91.3168 32.5885 91.0717 32.9105 90.8942C33.2348 90.7166 33.6018 90.6278 34.0114 90.6278C34.4162 90.6278 34.776 90.7154 35.0909 90.8906C35.4058 91.0634 35.6532 91.299 35.8331 91.5973C36.013 91.8956 36.103 92.2294 36.103 92.5987C36.103 92.8662 36.0556 93.1255 35.9609 93.3764C35.8686 93.6274 35.7088 93.9067 35.4815 94.2145C35.2543 94.5223 34.9394 94.8987 34.5369 95.3438L32.733 97.3572V97.4034H36.3303V98H31.8097ZM40.1717 98.0994C39.6603 98.0994 39.2235 97.9527 38.8613 97.6591C38.5015 97.3632 38.2245 96.9358 38.0304 96.3771C37.8386 95.8184 37.7427 95.1473 37.7427 94.3636C37.7427 93.5824 37.8386 92.9136 38.0304 92.3572C38.2245 91.7985 38.5027 91.3712 38.8649 91.0753C39.2295 90.777 39.6651 90.6278 40.1717 90.6278C40.6783 90.6278 41.1127 90.777 41.475 91.0753C41.8395 91.3712 42.1177 91.7985 42.3095 92.3572C42.5036 92.9136 42.6007 93.5824 42.6007 94.3636C42.6007 95.1473 42.5036 95.8184 42.3095 96.3771C42.1177 96.9358 41.8407 97.3632 41.4785 97.6591C41.1187 97.9527 40.6831 98.0994 40.1717 98.0994ZM40.1717 97.5028C40.7328 97.5028 41.1708 97.2294 41.4856 96.6825C41.8005 96.1333 41.9579 95.3603 41.9579 94.3636C41.9579 93.7008 41.8857 93.1349 41.7413 92.6662C41.5993 92.1951 41.3945 91.8352 41.127 91.5866C40.8618 91.3381 40.5434 91.2138 40.1717 91.2138C39.6154 91.2138 39.1786 91.4908 38.8613 92.0447C38.5441 92.5964 38.3855 93.3693 38.3855 94.3636C38.3855 95.0265 38.4565 95.5923 38.5985 96.0611C38.743 96.5298 38.9477 96.8873 39.2129 97.1335C39.4804 97.3797 39.8 97.5028 40.1717 97.5028ZM44.046 98V97.5135L46.4217 94.843C46.7318 94.4927 46.9816 94.1932 47.171 93.9446C47.3604 93.696 47.4977 93.4664 47.5829 93.2557C47.6705 93.045 47.7143 92.826 47.7143 92.5987C47.7143 92.3217 47.6492 92.0803 47.519 91.8743C47.3912 91.666 47.2148 91.5038 46.9899 91.3878C46.765 91.2718 46.5117 91.2138 46.2299 91.2138C45.9316 91.2138 45.67 91.2777 45.4451 91.4055C45.2226 91.5334 45.0498 91.7086 44.9267 91.9311C44.8036 92.1536 44.742 92.4093 44.742 92.6982H44.1064C44.1064 92.2957 44.1987 91.9394 44.3833 91.6293C44.5704 91.3168 44.8249 91.0717 45.1468 90.8942C45.4712 90.7166 45.8381 90.6278 46.2477 90.6278C46.6525 90.6278 47.0124 90.7154 47.3272 90.8906C47.6421 91.0634 47.8895 91.299 48.0694 91.5973C48.2493 91.8956 48.3393 92.2294 48.3393 92.5987C48.3393 92.8662 48.292 93.1255 48.1973 93.3764C48.1049 93.6274 47.9451 93.9067 47.7179 94.2145C47.4906 94.5223 47.1757 94.8987 46.7733 95.3438L44.9693 97.3572V97.4034H48.5666V98H44.046ZM52.2766 98.0994C51.8718 98.0994 51.5096 98.0178 51.19 97.8544C50.8728 97.6887 50.6194 97.4614 50.43 97.1726C50.243 96.8838 50.1436 96.5535 50.1317 96.1818H50.7745C50.7958 96.5677 50.9473 96.8849 51.229 97.1335C51.5108 97.3797 51.86 97.5028 52.2766 97.5028C52.601 97.5028 52.8898 97.4259 53.1431 97.272C53.3964 97.1158 53.5941 96.9027 53.7362 96.6328C53.8806 96.3606 53.9528 96.054 53.9528 95.7131C53.9504 95.358 53.8735 95.0455 53.7219 94.7756C53.5704 94.5033 53.3645 94.2902 53.104 94.1364C52.846 93.9825 52.556 93.9055 52.234 93.9055C51.9902 93.9032 51.7511 93.9434 51.5167 94.0263C51.2823 94.1091 51.087 94.2157 50.9308 94.3459L50.2667 94.2607L50.7035 90.7273H54.2972V91.3239H51.261L50.9698 93.7564H51.0053C51.1663 93.6214 51.3616 93.5114 51.5913 93.4261C51.8233 93.3409 52.0683 93.2983 52.3263 93.2983C52.7549 93.2983 53.1396 93.4013 53.4805 93.6072C53.8237 93.8132 54.0948 94.0973 54.2937 94.4595C54.4949 94.8194 54.5955 95.2337 54.5955 95.7024C54.5955 96.1617 54.4949 96.5724 54.2937 96.9347C54.0948 97.2945 53.8202 97.5786 53.4698 97.7869C53.1218 97.9953 52.7241 98.0994 52.2766 98.0994ZM59.0753 94.0653V94.6619H56.0497V94.0653H59.0753ZM62.8963 98.0994C62.3849 98.0994 61.9482 97.9527 61.5859 97.6591C61.2261 97.3632 60.9491 96.9358 60.755 96.3771C60.5632 95.8184 60.4673 95.1473 60.4673 94.3636C60.4673 93.5824 60.5632 92.9136 60.755 92.3572C60.9491 91.7985 61.2273 91.3712 61.5895 91.0753C61.9541 90.777 62.3897 90.6278 62.8963 90.6278C63.4029 90.6278 63.8374 90.777 64.1996 91.0753C64.5642 91.3712 64.8423 91.7985 65.0341 92.3572C65.2282 92.9136 65.3253 93.5824 65.3253 94.3636C65.3253 95.1473 65.2282 95.8184 65.0341 96.3771C64.8423 96.9358 64.5653 97.3632 64.2031 97.6591C63.8433 97.9527 63.4077 98.0994 62.8963 98.0994ZM62.8963 97.5028C63.4574 97.5028 63.8954 97.2294 64.2102 96.6825C64.5251 96.1333 64.6825 95.3603 64.6825 94.3636C64.6825 93.7008 64.6103 93.1349 64.4659 92.6662C64.3239 92.1951 64.1191 91.8352 63.8516 91.5866C63.5864 91.3381 63.268 91.2138 62.8963 91.2138C62.34 91.2138 61.9032 91.4908 61.5859 92.0447C61.2687 92.5964 61.1101 93.3693 61.1101 94.3636C61.1101 95.0265 61.1811 95.5923 61.3232 96.0611C61.4676 96.5298 61.6723 96.8873 61.9375 97.1335C62.205 97.3797 62.5246 97.5028 62.8963 97.5028ZM69.0185 98.0994C68.5545 98.0994 68.1413 98.0118 67.7791 97.8366C67.4169 97.6615 67.1328 97.4223 66.9268 97.1193C66.7209 96.8139 66.6179 96.4695 66.6179 96.0859C66.6179 95.7853 66.6806 95.5047 66.8061 95.2443C66.9316 94.9815 67.1044 94.7614 67.3246 94.5838C67.5447 94.4039 67.7921 94.2867 68.0668 94.2322V94.1932C67.7093 94.089 67.4216 93.8842 67.2038 93.5788C66.986 93.2711 66.8783 92.9219 66.8807 92.5312C66.8783 92.169 66.9706 91.8447 67.1577 91.5582C67.3447 91.2718 67.5992 91.0457 67.9212 90.88C68.2455 90.7119 68.6113 90.6278 69.0185 90.6278C69.4233 90.6278 69.7867 90.7119 70.1087 90.88C70.4306 91.0457 70.6851 91.2718 70.8722 91.5582C71.0616 91.8447 71.1574 92.169 71.1598 92.5312C71.1574 92.9195 71.0473 93.2687 70.8295 93.5788C70.6117 93.8866 70.3253 94.0914 69.9702 94.1932V94.2322C70.2448 94.2843 70.491 94.4003 70.7088 94.5803C70.9266 94.7602 71.0994 94.9815 71.2273 95.2443C71.3551 95.5047 71.419 95.7853 71.419 96.0859C71.419 96.4695 71.3149 96.8139 71.1065 97.1193C70.9006 97.4223 70.6165 97.6615 70.2543 97.8366C69.8944 98.0118 69.4825 98.0994 69.0185 98.0994ZM69.0185 97.5028C69.3641 97.5028 69.6671 97.4413 69.9276 97.3182C70.1903 97.1927 70.3951 97.0211 70.5419 96.8033C70.6911 96.5855 70.7656 96.3357 70.7656 96.054C70.7656 95.7628 70.6887 95.5036 70.5348 95.2763C70.3809 95.0466 70.1726 94.8655 69.9098 94.733C69.647 94.598 69.3499 94.5305 69.0185 94.5305C68.687 94.5305 68.3887 94.598 68.1236 94.733C67.8608 94.8655 67.6525 95.0466 67.4986 95.2763C67.3471 95.5036 67.2713 95.7628 67.2713 96.054C67.2713 96.3357 67.3435 96.5855 67.4879 96.8033C67.6347 97.0211 67.8395 97.1927 68.1023 97.3182C68.3674 97.4413 68.6728 97.5028 69.0185 97.5028ZM69.0185 93.9624C69.3026 93.9624 69.5571 93.902 69.782 93.7812C70.0069 93.6605 70.1844 93.496 70.3146 93.2876C70.4472 93.0769 70.5147 92.8378 70.517 92.5703C70.5147 92.3052 70.4484 92.0708 70.3182 91.8672C70.188 91.6612 70.0104 91.5014 69.7855 91.3878C69.563 91.2718 69.3073 91.2138 69.0185 91.2138C68.7296 91.2138 68.4716 91.2718 68.2443 91.3878C68.0194 91.5014 67.8419 91.6612 67.7116 91.8672C67.5838 92.0708 67.5211 92.3052 67.5234 92.5703C67.5211 92.8378 67.585 93.0769 67.7152 93.2876C67.8478 93.496 68.0265 93.6605 68.2514 93.7812C68.4787 93.902 68.7344 93.9624 69.0185 93.9624ZM75.8624 94.0653V94.6619H72.8368V94.0653H75.8624ZM79.6692 90.7273V98H79.0051V91.4233H78.9625L77.258 92.5561V91.8672L78.9767 90.7273H79.6692ZM84.1685 98.0994C83.8678 98.0971 83.5743 98.0367 83.2878 97.9183C83.0014 97.7976 82.7433 97.6046 82.5137 97.3395C82.284 97.072 82.1017 96.7192 81.9668 96.2812C81.8319 95.8433 81.7644 95.3047 81.7644 94.6655C81.7644 94.0736 81.8165 93.5315 81.9206 93.0391C82.0248 92.5466 82.181 92.1205 82.3894 91.7607C82.5977 91.4008 82.8581 91.1226 83.1706 90.9261C83.4831 90.7273 83.8489 90.6278 84.2679 90.6278C84.6609 90.6278 85.0078 90.7095 85.3084 90.8729C85.6091 91.0339 85.8529 91.2588 86.04 91.5476C86.227 91.8364 86.3442 92.169 86.3915 92.5455H85.7381C85.6718 92.1619 85.5144 91.8459 85.2658 91.5973C85.0172 91.3487 84.6846 91.2244 84.2679 91.2244C83.6713 91.2244 83.2097 91.5014 82.883 92.0554C82.5563 92.607 82.3917 93.3906 82.3894 94.4062H82.4355C82.5516 94.1908 82.7007 94.005 82.883 93.8487C83.0676 93.6901 83.2772 93.567 83.5115 93.4794C83.7459 93.3894 83.9921 93.3445 84.2502 93.3445C84.655 93.3445 85.0255 93.4474 85.3617 93.6534C85.6979 93.857 85.9666 94.1375 86.1678 94.495C86.369 94.8501 86.4696 95.2562 86.4696 95.7131C86.4696 96.1463 86.3738 96.5452 86.182 96.9098C85.9926 97.2744 85.7251 97.5644 85.3794 97.7798C85.0362 97.9953 84.6325 98.1018 84.1685 98.0994ZM84.1685 97.5028C84.4857 97.5028 84.7686 97.4223 85.0172 97.2614C85.2682 97.1004 85.4659 96.8849 85.6103 96.6151C85.7547 96.3428 85.8269 96.0421 85.8269 95.7131C85.8269 95.384 85.7547 95.0857 85.6103 94.8182C85.4659 94.5507 85.2682 94.3376 85.0172 94.179C84.7686 94.0204 84.4857 93.9411 84.1685 93.9411C83.927 93.9411 83.7021 93.9908 83.4938 94.0902C83.2855 94.1873 83.1043 94.321 82.9505 94.4915C82.7989 94.6596 82.6829 94.8525 82.6025 95.0703C82.5243 95.2881 82.4947 95.5166 82.5137 95.7557C82.5397 96.0895 82.6261 96.389 82.7729 96.6541C82.9221 96.9169 83.1162 97.1241 83.3553 97.2756C83.5968 97.4271 83.8678 97.5028 84.1685 97.5028Z" fill="black"/>
<path d="M105.5 90H105V89H104V90H100V89H99V90H98.5C98.2348 90 97.9804 90.1054 97.7929 90.2929C97.6054 90.4804 97.5 90.7348 97.5 91V97.5C97.5 97.7652 97.6054 98.0196 97.7929 98.2071C97.9804 98.3946 98.2348 98.5 98.5 98.5H105.5C105.765 98.5 106.02 98.3946 106.207 98.2071C106.395 98.0196 106.5 97.7652 106.5 97.5V91C106.5 90.7348 106.395 90.4804 106.207 90.2929C106.02 90.1054 105.765 90 105.5 90ZM105.5 97.5H98.5V92H105.5V97.5Z" fill="black"/>
<path d="M127.41 94.9403L127.403 94.1129H127.545L130.102 91.5455H130.901L128.376 94.0739L128.319 94.0845L127.41 94.9403ZM126.835 97V89.7273H127.467V97H126.835ZM130.233 97L128.017 94.1982L128.472 93.7614L131.043 97H130.233ZM133.945 99.1591C133.573 99.1591 133.248 99.1106 132.968 99.0135C132.689 98.9188 132.453 98.7886 132.262 98.6229C132.07 98.4571 131.921 98.2713 131.814 98.0653L132.333 97.7244C132.411 97.8617 132.515 97.9967 132.645 98.1293C132.778 98.2618 132.949 98.3719 133.16 98.4595C133.373 98.5471 133.635 98.5909 133.945 98.5909C134.428 98.5909 134.817 98.4702 135.113 98.2287C135.411 97.9872 135.561 97.612 135.561 97.103V95.8743H135.504C135.43 96.04 135.325 96.2057 135.188 96.3714C135.05 96.5348 134.87 96.6709 134.648 96.7798C134.428 96.8887 134.154 96.9432 133.828 96.9432C133.392 96.9432 133.005 96.8355 132.666 96.62C132.33 96.4046 132.065 96.0968 131.871 95.6967C131.679 95.2943 131.583 94.8149 131.583 94.2585C131.583 93.7069 131.677 93.2216 131.864 92.8026C132.053 92.3835 132.317 92.0568 132.656 91.8224C132.994 91.5881 133.388 91.4709 133.838 91.4709C134.172 91.4709 134.449 91.5301 134.669 91.6484C134.889 91.7644 135.066 91.9089 135.198 92.0817C135.333 92.2545 135.439 92.4226 135.514 92.5859H135.578V91.5455H136.196V97.142C136.196 97.6037 136.098 97.9837 135.901 98.282C135.705 98.5803 135.437 98.8004 135.099 98.9425C134.76 99.0869 134.376 99.1591 133.945 99.1591ZM133.902 96.3643C134.253 96.3643 134.552 96.2803 134.801 96.1122C135.049 95.9418 135.24 95.6979 135.372 95.3807C135.505 95.0634 135.571 94.6858 135.571 94.2479C135.571 93.8217 135.506 93.4441 135.376 93.1151C135.246 92.7836 135.056 92.5232 134.808 92.3338C134.561 92.142 134.26 92.0462 133.902 92.0462C133.538 92.0462 133.23 92.1444 132.979 92.3409C132.728 92.5374 132.539 92.8026 132.411 93.1364C132.283 93.4678 132.219 93.8383 132.219 94.2479C132.219 94.6645 132.284 95.0327 132.414 95.3523C132.544 95.6695 132.735 95.9181 132.986 96.098C133.237 96.2756 133.542 96.3643 133.902 96.3643Z" fill="#B6B6B6"/>
<path d="M207.17 95.48H207.99V98.79H207.17V95.48ZM203.5 95.2H211.67V95.89H203.5V95.2ZM207.17 91.29H207.9V91.52C207.9 91.8267 207.837 92.12 207.71 92.4C207.583 92.6733 207.407 92.9267 207.18 93.16C206.953 93.3933 206.687 93.6033 206.38 93.79C206.08 93.97 205.753 94.1233 205.4 94.25C205.053 94.37 204.69 94.4567 204.31 94.51L204.01 93.85C204.337 93.8033 204.653 93.73 204.96 93.63C205.273 93.53 205.56 93.4067 205.82 93.26C206.087 93.1133 206.32 92.95 206.52 92.77C206.727 92.5833 206.887 92.3867 207 92.18C207.113 91.9667 207.17 91.7467 207.17 91.52V91.29ZM207.27 91.29H208V91.52C208 91.74 208.057 91.9567 208.17 92.17C208.283 92.3767 208.44 92.5733 208.64 92.76C208.84 92.94 209.07 93.1067 209.33 93.26C209.597 93.4067 209.883 93.53 210.19 93.63C210.503 93.73 210.823 93.8033 211.15 93.85L210.85 94.51C210.47 94.4567 210.103 94.37 209.75 94.25C209.403 94.1233 209.077 93.97 208.77 93.79C208.47 93.6033 208.207 93.3933 207.98 93.16C207.76 92.9267 207.587 92.6733 207.46 92.4C207.333 92.12 207.27 91.8267 207.27 91.52V91.29ZM204.29 90.85H210.88V91.52H204.29V90.85ZM207.17 89.73H207.99V91.08H207.17V89.73ZM218.819 89.73H219.649V98.77H218.819V89.73ZM219.429 93.4H221.089V94.09H219.429V93.4ZM216.509 90.7H217.319C217.319 91.56 217.179 92.3833 216.899 93.17C216.619 93.95 216.179 94.6733 215.579 95.34C214.979 96 214.189 96.5733 213.209 97.06L212.749 96.42C213.589 96 214.286 95.51 214.839 94.95C215.399 94.3833 215.816 93.7567 216.089 93.07C216.369 92.3767 216.509 91.63 216.509 90.83V90.7ZM213.169 90.7H216.929V91.39H213.169V90.7Z" fill="black"/>
<path d="M230.083 140.917H230.677L234.75 136.844L234.156 136.25L230.083 140.323V140.917ZM229.667 141.75C229.549 141.75 229.45 141.71 229.37 141.63C229.29 141.55 229.25 141.451 229.25 141.333V140.323C229.25 140.212 229.271 140.106 229.313 140.005C229.354 139.904 229.413 139.816 229.49 139.74L234.75 134.49C234.833 134.413 234.925 134.354 235.026 134.313C235.127 134.271 235.233 134.25 235.344 134.25C235.455 134.25 235.562 134.271 235.667 134.313C235.771 134.354 235.861 134.417 235.937 134.5L236.51 135.083C236.594 135.16 236.654 135.25 236.692 135.354C236.731 135.458 236.75 135.563 236.75 135.667C236.75 135.778 236.731 135.884 236.692 135.985C236.654 136.085 236.593 136.177 236.51 136.26L231.26 141.51C231.184 141.587 231.095 141.646 230.995 141.687C230.894 141.729 230.788 141.75 230.677 141.75H229.667ZM234.448 136.552L234.156 136.25L234.75 136.844L234.448 136.552Z" fill="black"/>
</g>
<rect x="0.15" y="0.15" width="252.7" height="194.7" rx="5.85" stroke="#DADADA" stroke-width="0.3"/>
<defs>
<clipPath id="clip0_46_76">
<rect width="253" height="195" rx="6" fill="white"/>
</clipPath>
</defs>
</svg>
