<svg width="243" height="135" viewBox="0 0 243 135" fill="none" xmlns="http://www.w3.org/2000/svg">
<rect x="0.15" y="0.15" width="242.7" height="134.7" rx="5.85" fill="#F9FAFB"/>
<rect x="0.15" y="0.15" width="242.7" height="134.7" rx="5.85" stroke="#DADADA" stroke-width="0.3"/>
<rect x="14.15" y="41.15" width="51.7" height="24.7" rx="5.85" fill="#DDEFFF" stroke="#DADADA" stroke-width="0.3"/>
<rect x="14.15" y="75.15" width="70.7" height="24.7" rx="5.85" fill="#E6E6A8" stroke="#DADADA" stroke-width="0.3"/>
<rect x="70.15" y="41.15" width="67.7" height="24.7" rx="5.85" fill="#C8B8E6" stroke="#DADADA" stroke-width="0.3"/>
<rect x="89.15" y="75.15" width="59.7" height="24.7" rx="5.85" fill="#FFDFDD" stroke="#DADADA" stroke-width="0.3"/>
<rect x="142.15" y="41.15" width="41.7" height="24.7" rx="5.85" fill="#FFF5EE" stroke="#DADADA" stroke-width="0.3"/>
<path d="M22.87 50.11H23.69V51.4H26.24V50.11H27.06V54.05H22.87V50.11ZM23.69 52.05V53.38H26.24V52.05H23.69ZM28.69 49.73H29.52V54.4H28.69V49.73ZM29.15 51.68H30.85V52.36H29.15V51.68ZM23.77 54.83H29.52V57.03H24.61V58.38H23.8V56.41H28.7V55.49H23.77V54.83ZM23.8 58.01H29.84V58.68H23.8V58.01ZM31.6992 54.34H39.8692V55.01H31.6992V54.34ZM35.3592 53.22H36.1892V54.66H35.3592V53.22ZM32.7692 52.82H38.9092V53.47H32.7692V52.82ZM32.7692 49.91H38.8592V50.56H33.5992V53.26H32.7692V49.91ZM33.3492 51.35H38.6192V51.97H33.3492V51.35ZM32.7292 55.5H33.5492V56.37H37.9892V55.5H38.8092V58.66H32.7292V55.5ZM33.5492 57.01V57.99H37.9892V57.01H33.5492ZM41.3884 50.43H45.3884V51.12H41.3884V50.43ZM42.7484 52.45H43.5684V54.71H42.7484V52.45ZM45.0584 50.43H45.8684V50.91C45.8684 51.21 45.8584 51.5833 45.8384 52.03C45.8251 52.4767 45.7584 52.9967 45.6384 53.59L44.8184 53.51C44.9384 52.91 45.0084 52.4 45.0284 51.98C45.0484 51.56 45.0584 51.2033 45.0584 50.91V50.43ZM47.0984 49.73H47.9384V56.54H47.0984V49.73ZM47.5584 52.67H49.2284V53.37H47.5584V52.67ZM42.2184 57.9H48.2284V58.58H42.2184V57.9ZM42.2184 55.92H43.0484V58.1H42.2184V55.92ZM40.9284 55.1L40.8384 54.42C41.3718 54.42 41.9618 54.4133 42.6084 54.4C43.2551 54.3867 43.9118 54.36 44.5784 54.32C45.2451 54.2733 45.8851 54.21 46.4984 54.13L46.5484 54.74C45.9284 54.8467 45.2851 54.9267 44.6184 54.98C43.9518 55.0333 43.3018 55.0667 42.6684 55.08C42.0418 55.0933 41.4618 55.1 40.9284 55.1ZM56.6877 49.73H57.5077V58.79H56.6877V49.73ZM50.6177 55.91H51.3677C51.881 55.91 52.3743 55.9033 52.8477 55.89C53.3277 55.87 53.811 55.8367 54.2977 55.79C54.791 55.7433 55.3043 55.6767 55.8377 55.59L55.9177 56.27C55.1043 56.4033 54.3377 56.4933 53.6177 56.54C52.8977 56.58 52.1477 56.6 51.3677 56.6H50.6177V55.91ZM50.5977 50.57H54.7777V53.8H51.4577V56.17H50.6177V53.13H53.9377V51.25H50.5977V50.57Z" fill="black"/>
<path d="M29.08 83.74H29.91V88.87H29.08V83.74ZM24.07 89.39H29.91V92.66H24.07V89.39ZM29.1 90.06H24.88V91.98H29.1V90.06ZM24.85 84.09H25.54V84.97C25.54 85.53 25.4333 86.0567 25.22 86.55C25.0067 87.0367 24.7067 87.46 24.32 87.82C23.94 88.18 23.4933 88.4567 22.98 88.65L22.57 87.99C22.91 87.87 23.22 87.7067 23.5 87.5C23.78 87.2933 24.02 87.0567 24.22 86.79C24.4267 86.5233 24.5833 86.2367 24.69 85.93C24.7967 85.6167 24.85 85.2967 24.85 84.97V84.09ZM25 84.09H25.69V84.97C25.69 85.29 25.7433 85.5967 25.85 85.89C25.9633 86.1833 26.12 86.4567 26.32 86.71C26.5267 86.9567 26.7667 87.1767 27.04 87.37C27.32 87.5633 27.6267 87.7167 27.96 87.83L27.55 88.47C27.1767 88.3433 26.8333 88.1667 26.52 87.94C26.2067 87.7133 25.9367 87.4467 25.71 87.14C25.4833 86.8333 25.3067 86.4967 25.18 86.13C25.06 85.7633 25 85.3767 25 84.97V84.09ZM33.9292 84.7H34.6092V85.43C34.6092 85.99 34.5026 86.5067 34.2892 86.98C34.0826 87.4533 33.7892 87.8667 33.4092 88.22C33.0359 88.5733 32.5926 88.8433 32.0792 89.03L31.6592 88.37C32.1126 88.21 32.5092 87.9833 32.8492 87.69C33.1892 87.39 33.4526 87.0467 33.6392 86.66C33.8326 86.2733 33.9292 85.8633 33.9292 85.43V84.7ZM34.0792 84.7H34.7592V85.43C34.7592 85.8233 34.8492 86.1967 35.0292 86.55C35.2092 86.9033 35.4626 87.2133 35.7892 87.48C36.1159 87.7467 36.4992 87.9567 36.9392 88.11L36.5492 88.76C36.0426 88.5867 35.6059 88.3367 35.2392 88.01C34.8726 87.6833 34.5859 87.3 34.3792 86.86C34.1792 86.4133 34.0792 85.9367 34.0792 85.43V84.7ZM31.9092 84.4H36.7492V85.08H31.9092V84.4ZM37.8892 83.73H38.7192V89.18H37.8892V83.73ZM38.4892 86.03H40.0492V86.72H38.4892V86.03ZM35.8392 89.43C36.4526 89.43 36.9792 89.4967 37.4192 89.63C37.8659 89.7567 38.2092 89.9433 38.4492 90.19C38.6892 90.4367 38.8092 90.7367 38.8092 91.09C38.8092 91.4433 38.6892 91.7433 38.4492 91.99C38.2092 92.2367 37.8659 92.4267 37.4192 92.56C36.9792 92.6933 36.4526 92.76 35.8392 92.76C35.2259 92.76 34.6959 92.6933 34.2492 92.56C33.8026 92.4267 33.4592 92.2367 33.2192 91.99C32.9792 91.7433 32.8592 91.4433 32.8592 91.09C32.8592 90.7367 32.9792 90.4367 33.2192 90.19C33.4592 89.9433 33.8026 89.7567 34.2492 89.63C34.6959 89.4967 35.2259 89.43 35.8392 89.43ZM35.8392 90.09C35.3926 90.09 35.0059 90.13 34.6792 90.21C34.3592 90.29 34.1126 90.4033 33.9392 90.55C33.7659 90.6967 33.6792 90.8767 33.6792 91.09C33.6792 91.3033 33.7659 91.4867 33.9392 91.64C34.1126 91.7867 34.3592 91.9 34.6792 91.98C35.0059 92.06 35.3926 92.1 35.8392 92.1C36.2859 92.1 36.6692 92.06 36.9892 91.98C37.3092 91.9 37.5559 91.7867 37.7292 91.64C37.9026 91.4867 37.9892 91.3033 37.9892 91.09C37.9892 90.8767 37.9026 90.6967 37.7292 90.55C37.5559 90.4033 37.3092 90.29 36.9892 90.21C36.6692 90.13 36.2859 90.09 35.8392 90.09ZM43.1084 84.51H43.7884V86.13C43.7884 86.63 43.7251 87.12 43.5984 87.6C43.4784 88.08 43.3051 88.53 43.0784 88.95C42.8518 89.37 42.5851 89.7433 42.2784 90.07C41.9718 90.3967 41.6384 90.6567 41.2784 90.85L40.7684 90.18C41.1018 90.0133 41.4084 89.79 41.6884 89.51C41.9751 89.2233 42.2251 88.8967 42.4384 88.53C42.6518 88.1633 42.8151 87.7767 42.9284 87.37C43.0484 86.9567 43.1084 86.5433 43.1084 86.13V84.51ZM43.2584 84.51H43.9284V86.13C43.9284 86.53 43.9851 86.9267 44.0984 87.32C44.2184 87.7133 44.3851 88.0833 44.5984 88.43C44.8118 88.7767 45.0551 89.0867 45.3284 89.36C45.6084 89.6333 45.9084 89.85 46.2284 90.01L45.7184 90.67C45.3651 90.49 45.0384 90.2433 44.7384 89.93C44.4451 89.6167 44.1851 89.26 43.9584 88.86C43.7384 88.4533 43.5651 88.02 43.4384 87.56C43.3184 87.0933 43.2584 86.6167 43.2584 86.13V84.51ZM47.0184 83.73H47.8484V92.78H47.0184V83.73ZM47.6584 87.39H49.3284V88.1H47.6584V87.39ZM52.2977 84.2H52.9777V85.12C52.9777 85.7 52.8743 86.24 52.6677 86.74C52.4677 87.24 52.181 87.6767 51.8077 88.05C51.4343 88.4167 50.9977 88.6967 50.4977 88.89L50.0477 88.23C50.5077 88.0633 50.9043 87.8233 51.2377 87.51C51.5777 87.1967 51.8377 86.8367 52.0177 86.43C52.2043 86.0167 52.2977 85.58 52.2977 85.12V84.2ZM52.4477 84.2H53.1177V85.19C53.1177 85.49 53.171 85.7867 53.2777 86.08C53.3843 86.3667 53.5343 86.6333 53.7277 86.88C53.9277 87.1267 54.161 87.3467 54.4277 87.54C54.6943 87.7267 54.991 87.8767 55.3177 87.99L54.8777 88.64C54.3977 88.46 53.9743 88.2 53.6077 87.86C53.241 87.5133 52.9543 87.1133 52.7477 86.66C52.5477 86.2 52.4477 85.71 52.4477 85.19V84.2ZM56.2877 83.73H57.1177V89.22H56.2877V83.73ZM56.8877 86.07H58.4477V86.77H56.8877V86.07ZM54.2377 89.46C54.851 89.46 55.3777 89.5267 55.8177 89.66C56.2643 89.7867 56.6077 89.9733 56.8477 90.22C57.0877 90.4667 57.2077 90.7633 57.2077 91.11C57.2077 91.4567 57.0877 91.7533 56.8477 92C56.6077 92.2467 56.2643 92.4333 55.8177 92.56C55.3777 92.6933 54.851 92.76 54.2377 92.76C53.6243 92.76 53.0943 92.6933 52.6477 92.56C52.201 92.4333 51.8577 92.2467 51.6177 92C51.3777 91.7533 51.2577 91.4567 51.2577 91.11C51.2577 90.7633 51.3777 90.4667 51.6177 90.22C51.8577 89.9733 52.201 89.7867 52.6477 89.66C53.0943 89.5267 53.6243 89.46 54.2377 89.46ZM54.2377 90.12C53.791 90.12 53.4043 90.16 53.0777 90.24C52.7577 90.32 52.511 90.4333 52.3377 90.58C52.1643 90.7267 52.0777 90.9033 52.0777 91.11C52.0777 91.3233 52.1643 91.5033 52.3377 91.65C52.511 91.7967 52.7577 91.91 53.0777 91.99C53.4043 92.0633 53.791 92.1 54.2377 92.1C54.6843 92.1 55.0677 92.0633 55.3877 91.99C55.7077 91.91 55.9543 91.7967 56.1277 91.65C56.301 91.5033 56.3877 91.3233 56.3877 91.11C56.3877 90.9033 56.301 90.7267 56.1277 90.58C55.9543 90.4333 55.7077 90.32 55.3877 90.24C55.0677 90.16 54.6843 90.12 54.2377 90.12ZM62.9669 88.63H63.7869V89.99H62.9669V88.63ZM59.2969 88.19H67.4669V88.86H59.2969V88.19ZM62.9669 83.71H63.7869V84.93H62.9669V83.71ZM62.9269 85.03H63.6569V85.17C63.6569 85.5433 63.5602 85.8767 63.3669 86.17C63.1802 86.4633 62.9169 86.7167 62.5769 86.93C62.2435 87.1433 61.8569 87.3167 61.4169 87.45C60.9835 87.5767 60.5202 87.6667 60.0269 87.72L59.7669 87.08C60.2069 87.04 60.6169 86.9667 60.9969 86.86C61.3769 86.7533 61.7102 86.62 61.9969 86.46C62.2902 86.2933 62.5169 86.1033 62.6769 85.89C62.8435 85.67 62.9269 85.43 62.9269 85.17V85.03ZM63.1069 85.03H63.8269V85.17C63.8269 85.43 63.9069 85.67 64.0669 85.89C64.2335 86.1033 64.4602 86.2933 64.7469 86.46C65.0402 86.62 65.3769 86.7533 65.7569 86.86C66.1369 86.9667 66.5469 87.04 66.9869 87.08L66.7369 87.72C66.2435 87.6667 65.7769 87.5767 65.3369 87.45C64.9035 87.3167 64.5169 87.1433 64.1769 86.93C63.8435 86.7167 63.5802 86.4633 63.3869 86.17C63.2002 85.8767 63.1069 85.5433 63.1069 85.17V85.03ZM60.1369 84.61H66.6369V85.28H60.1369V84.61ZM63.3769 89.76C64.3502 89.76 65.1069 89.89 65.6469 90.15C66.1935 90.4033 66.4669 90.7733 66.4669 91.26C66.4669 91.7467 66.1935 92.1167 65.6469 92.37C65.1069 92.63 64.3502 92.76 63.3769 92.76C62.4035 92.76 61.6435 92.63 61.0969 92.37C60.5502 92.1167 60.2769 91.7467 60.2769 91.26C60.2769 90.7733 60.5502 90.4033 61.0969 90.15C61.6435 89.89 62.4035 89.76 63.3769 89.76ZM63.3769 90.39C62.6569 90.39 62.1002 90.4667 61.7069 90.62C61.3135 90.7667 61.1169 90.98 61.1169 91.26C61.1169 91.54 61.3135 91.7567 61.7069 91.91C62.1002 92.0567 62.6569 92.13 63.3769 92.13C64.0902 92.13 64.6435 92.0567 65.0369 91.91C65.4369 91.7567 65.6369 91.54 65.6369 91.26C65.6369 90.98 65.4369 90.7667 65.0369 90.62C64.6435 90.4667 64.0902 90.39 63.3769 90.39ZM75.2661 85.11H76.8261V85.8H75.2661V85.11ZM75.2661 87.04H76.8261V87.74H75.2661V87.04ZM74.6861 83.73H75.5161V89.1H74.6861V83.73ZM69.6361 89.53H75.5161V92.78H74.6861V90.21H69.6361V89.53ZM71.0161 84.27C71.4761 84.27 71.8828 84.3633 72.2361 84.55C72.5894 84.73 72.8661 84.98 73.0661 85.3C73.2728 85.62 73.3761 85.99 73.3761 86.41C73.3761 86.8367 73.2728 87.21 73.0661 87.53C72.8661 87.85 72.5894 88.1 72.2361 88.28C71.8828 88.46 71.4761 88.55 71.0161 88.55C70.5694 88.55 70.1661 88.46 69.8061 88.28C69.4528 88.1 69.1728 87.85 68.9661 87.53C68.7594 87.21 68.6561 86.8367 68.6561 86.41C68.6561 85.99 68.7594 85.62 68.9661 85.3C69.1728 84.98 69.4528 84.73 69.8061 84.55C70.1661 84.3633 70.5694 84.27 71.0161 84.27ZM71.0161 84.98C70.7228 84.98 70.4594 85.04 70.2261 85.16C69.9928 85.28 69.8061 85.45 69.6661 85.67C69.5328 85.8833 69.4661 86.13 69.4661 86.41C69.4661 86.6967 69.5328 86.95 69.6661 87.17C69.8061 87.3833 69.9928 87.55 70.2261 87.67C70.4594 87.79 70.7228 87.85 71.0161 87.85C71.3161 87.85 71.5828 87.79 71.8161 87.67C72.0494 87.55 72.2328 87.3833 72.3661 87.17C72.5061 86.95 72.5761 86.6967 72.5761 86.41C72.5761 86.13 72.5061 85.8833 72.3661 85.67C72.2328 85.45 72.0494 85.28 71.8161 85.16C71.5828 85.04 71.3161 84.98 71.0161 84.98Z" fill="black"/>
<path d="M82.87 50.11H83.69V51.4H86.24V50.11H87.06V54.05H82.87V50.11ZM83.69 52.05V53.38H86.24V52.05H83.69ZM88.69 49.73H89.52V54.4H88.69V49.73ZM89.15 51.68H90.85V52.36H89.15V51.68ZM83.77 54.83H89.52V57.03H84.61V58.38H83.8V56.41H88.7V55.49H83.77V54.83ZM83.8 58.01H89.84V58.68H83.8V58.01ZM97.8192 49.73H98.6492V58.78H97.8192V49.73ZM98.4592 53.29H100.129V54H98.4592V53.29ZM92.0592 50.5H92.8792V52.88H95.4492V50.5H96.2692V56.61H92.0592V50.5ZM92.8792 53.54V55.92H95.4492V53.54H92.8792ZM107.088 49.73H107.918V55.05H107.088V49.73ZM107.688 52.01H109.248V52.71H107.688V52.01ZM102.038 55.56H107.918V58.79H107.088V56.23H102.038V55.56ZM101.318 53.69H102.018C102.638 53.69 103.182 53.6833 103.648 53.67C104.115 53.65 104.545 53.62 104.938 53.58C105.332 53.5333 105.728 53.47 106.128 53.39L106.228 54.07C105.808 54.15 105.395 54.2133 104.988 54.26C104.588 54.3067 104.152 54.3367 103.678 54.35C103.205 54.3633 102.652 54.37 102.018 54.37H101.318V53.69ZM101.318 50.37H105.308V51.05H102.138V54.08H101.318V50.37ZM110.588 50.43H114.588V51.12H110.588V50.43ZM111.948 52.45H112.768V54.71H111.948V52.45ZM114.258 50.43H115.068V50.91C115.068 51.21 115.058 51.5833 115.038 52.03C115.024 52.4767 114.958 52.9967 114.838 53.59L114.018 53.51C114.138 52.91 114.208 52.4 114.228 51.98C114.248 51.56 114.258 51.2033 114.258 50.91V50.43ZM116.298 49.73H117.138V56.54H116.298V49.73ZM116.758 52.67H118.428V53.37H116.758V52.67ZM111.418 57.9H117.428V58.58H111.418V57.9ZM111.418 55.92H112.248V58.1H111.418V55.92ZM110.128 55.1L110.038 54.42C110.571 54.42 111.161 54.4133 111.808 54.4C112.454 54.3867 113.111 54.36 113.778 54.32C114.444 54.2733 115.084 54.21 115.698 54.13L115.748 54.74C115.128 54.8467 114.484 54.9267 113.818 54.98C113.151 55.0333 112.501 55.0667 111.868 55.08C111.241 55.0933 110.661 55.1 110.128 55.1ZM125.887 49.73H126.707V58.79H125.887V49.73ZM119.817 55.91H120.567C121.08 55.91 121.574 55.9033 122.047 55.89C122.527 55.87 123.01 55.8367 123.497 55.79C123.99 55.7433 124.504 55.6767 125.037 55.59L125.117 56.27C124.304 56.4033 123.537 56.4933 122.817 56.54C122.097 56.58 121.347 56.6 120.567 56.6H119.817V55.91ZM119.797 50.57H123.977V53.8H120.657V56.17H119.817V53.13H123.137V51.25H119.797V50.57Z" fill="black"/>
<path d="M105.1 85.92H106.87V86.6H105.1V85.92ZM105.1 88.67H106.87V89.36H105.1V88.67ZM108.39 83.73H109.19V92.78H108.39V83.73ZM106.61 83.92H107.4V92.32H106.61V83.92ZM103.53 84.49C103.923 84.49 104.263 84.6167 104.55 84.87C104.843 85.1233 105.07 85.4867 105.23 85.96C105.39 86.4333 105.47 86.99 105.47 87.63C105.47 88.2767 105.39 88.8367 105.23 89.31C105.07 89.7833 104.843 90.15 104.55 90.41C104.263 90.6633 103.923 90.79 103.53 90.79C103.15 90.79 102.813 90.6633 102.52 90.41C102.233 90.15 102.01 89.7833 101.85 89.31C101.69 88.8367 101.61 88.2767 101.61 87.63C101.61 86.99 101.69 86.4333 101.85 85.96C102.01 85.4867 102.233 85.1233 102.52 84.87C102.813 84.6167 103.15 84.49 103.53 84.49ZM103.53 85.26C103.297 85.26 103.09 85.3567 102.91 85.55C102.737 85.7433 102.603 86.0167 102.51 86.37C102.417 86.7233 102.37 87.1433 102.37 87.63C102.37 88.1167 102.417 88.54 102.51 88.9C102.603 89.2533 102.737 89.5267 102.91 89.72C103.09 89.9133 103.297 90.01 103.53 90.01C103.777 90.01 103.987 89.9133 104.16 89.72C104.333 89.5267 104.467 89.2533 104.56 88.9C104.66 88.54 104.71 88.1167 104.71 87.63C104.71 87.1433 104.66 86.7233 104.56 86.37C104.467 86.0167 104.333 85.7433 104.16 85.55C103.987 85.3567 103.777 85.26 103.53 85.26ZM114.839 89.41C115.453 89.41 115.979 89.4767 116.419 89.61C116.866 89.7433 117.209 89.9333 117.449 90.18C117.689 90.4267 117.809 90.7267 117.809 91.08C117.809 91.4333 117.689 91.7367 117.449 91.99C117.209 92.2433 116.866 92.4367 116.419 92.57C115.979 92.7033 115.453 92.77 114.839 92.77C114.226 92.77 113.696 92.7033 113.249 92.57C112.803 92.4367 112.459 92.2433 112.219 91.99C111.979 91.7367 111.859 91.4333 111.859 91.08C111.859 90.7267 111.979 90.4267 112.219 90.18C112.459 89.9333 112.803 89.7433 113.249 89.61C113.696 89.4767 114.226 89.41 114.839 89.41ZM114.839 90.07C114.393 90.07 114.006 90.11 113.679 90.19C113.359 90.27 113.113 90.3867 112.939 90.54C112.766 90.6867 112.679 90.8667 112.679 91.08C112.679 91.3 112.766 91.4867 112.939 91.64C113.113 91.7933 113.359 91.91 113.679 91.99C114.006 92.07 114.393 92.11 114.839 92.11C115.286 92.11 115.669 92.07 115.989 91.99C116.309 91.91 116.556 91.7933 116.729 91.64C116.903 91.4867 116.989 91.3 116.989 91.08C116.989 90.8667 116.903 90.6867 116.729 90.54C116.556 90.3867 116.309 90.27 115.989 90.19C115.669 90.11 115.286 90.07 114.839 90.07ZM116.889 83.73H117.719V89.16H116.889V83.73ZM117.489 86H119.049V86.7H117.489V86ZM111.069 84.3H111.889V85.66H114.439V84.3H115.259V88.47H111.069V84.3ZM111.889 86.32V87.8H114.439V86.32H111.889ZM124.718 85.92H126.728V86.61H124.718V85.92ZM126.508 83.73H127.328V88.65H126.508V83.73ZM121.548 89.08H122.368V90.19H126.508V89.08H127.328V92.66H121.548V89.08ZM122.368 90.85V91.98H126.508V90.85H122.368ZM122.198 84.44H122.878V85.18C122.878 85.7267 122.772 86.24 122.558 86.72C122.352 87.2 122.058 87.62 121.678 87.98C121.298 88.34 120.858 88.6133 120.358 88.8L119.928 88.14C120.262 88.02 120.565 87.86 120.838 87.66C121.118 87.46 121.362 87.23 121.568 86.97C121.775 86.7033 121.932 86.42 122.038 86.12C122.145 85.8133 122.198 85.5 122.198 85.18V84.44ZM122.358 84.44H123.038V85.18C123.038 85.5667 123.128 85.9433 123.308 86.31C123.488 86.67 123.745 86.9933 124.078 87.28C124.412 87.56 124.795 87.78 125.228 87.94L124.808 88.59C124.315 88.41 123.885 88.15 123.518 87.81C123.152 87.47 122.865 87.0733 122.658 86.62C122.458 86.16 122.358 85.68 122.358 85.18V84.44ZM120.188 84.27H125.018V84.95H120.188V84.27ZM132.768 86.95H133.588V88.63H132.768V86.95ZM129.098 88.23H137.268V88.91H129.098V88.23ZM133.178 89.64C134.144 89.64 134.901 89.7767 135.448 90.05C135.994 90.3233 136.268 90.7067 136.268 91.2C136.268 91.7 135.994 92.0833 135.448 92.35C134.901 92.6233 134.144 92.76 133.178 92.76C132.204 92.76 131.444 92.6233 130.898 92.35C130.351 92.0833 130.078 91.7 130.078 91.2C130.078 90.7067 130.351 90.3233 130.898 90.05C131.444 89.7767 132.204 89.64 133.178 89.64ZM133.178 90.29C132.464 90.29 131.908 90.37 131.508 90.53C131.114 90.6833 130.918 90.9067 130.918 91.2C130.918 91.5 131.114 91.73 131.508 91.89C131.908 92.0433 132.464 92.12 133.178 92.12C133.884 92.12 134.438 92.0433 134.838 91.89C135.238 91.73 135.438 91.5 135.438 91.2C135.438 90.9067 135.238 90.6833 134.838 90.53C134.438 90.37 133.884 90.29 133.178 90.29ZM132.648 84.48H133.378V84.75C133.378 85.0367 133.314 85.3067 133.188 85.56C133.068 85.8067 132.898 86.0333 132.678 86.24C132.458 86.4467 132.198 86.63 131.898 86.79C131.604 86.9433 131.281 87.0733 130.928 87.18C130.581 87.28 130.221 87.3533 129.848 87.4L129.548 86.74C129.874 86.7067 130.188 86.65 130.488 86.57C130.794 86.4833 131.078 86.38 131.338 86.26C131.604 86.14 131.834 86 132.028 85.84C132.221 85.68 132.371 85.51 132.478 85.33C132.591 85.1433 132.648 84.95 132.648 84.75V84.48ZM132.988 84.48H133.718V84.75C133.718 84.95 133.771 85.1433 133.878 85.33C133.991 85.5167 134.144 85.69 134.338 85.85C134.538 86.0033 134.768 86.14 135.028 86.26C135.288 86.38 135.571 86.4833 135.878 86.57C136.184 86.65 136.498 86.7067 136.818 86.74L136.518 87.4C136.144 87.3533 135.784 87.28 135.438 87.18C135.091 87.0733 134.768 86.9433 134.468 86.79C134.174 86.63 133.914 86.4467 133.688 86.24C133.468 86.0333 133.294 85.8067 133.168 85.56C133.048 85.3067 132.988 85.0367 132.988 84.75V84.48ZM129.848 84.15H136.528V84.82H129.848V84.15Z" fill="black"/>
<path d="M154.97 50.3H155.79V51.73H158.38V50.3H159.2V54.61H154.97V50.3ZM155.79 52.39V53.94H158.38V52.39H155.79ZM161.08 49.73H161.91V55.88H161.08V49.73ZM158.55 55.38H159.26V55.59C159.26 56.0167 159.167 56.4033 158.98 56.75C158.8 57.0967 158.55 57.4033 158.23 57.67C157.917 57.9367 157.553 58.16 157.14 58.34C156.733 58.5267 156.303 58.66 155.85 58.74L155.53 58.09C155.937 58.0233 156.32 57.9167 156.68 57.77C157.04 57.6167 157.36 57.4333 157.64 57.22C157.927 57.0067 158.15 56.7633 158.31 56.49C158.47 56.21 158.55 55.91 158.55 55.59V55.38ZM158.7 55.38H159.41V55.59C159.41 55.91 159.49 56.21 159.65 56.49C159.817 56.7633 160.04 57.0067 160.32 57.22C160.6 57.4333 160.92 57.6167 161.28 57.77C161.647 57.9167 162.03 58.0233 162.43 58.09L162.11 58.74C161.65 58.66 161.213 58.5267 160.8 58.34C160.393 58.16 160.033 57.9367 159.72 57.67C159.407 57.4033 159.157 57.0967 158.97 56.75C158.79 56.4033 158.7 56.0167 158.7 55.59V55.38ZM170.279 49.73H171.109V54.42H170.279V49.73ZM165.259 54.86H171.109V57.03H166.089V58.31H165.289V56.42H170.289V55.51H165.259V54.86ZM165.289 58.02H171.419V58.68H165.289V58.02ZM166.109 50.53H166.789V51.01C166.789 51.5367 166.679 52.03 166.459 52.49C166.246 52.9433 165.946 53.34 165.559 53.68C165.173 54.0133 164.723 54.2667 164.209 54.44L163.819 53.78C164.159 53.6733 164.469 53.5267 164.749 53.34C165.029 53.1533 165.269 52.9367 165.469 52.69C165.676 52.4433 165.833 52.18 165.939 51.9C166.053 51.6133 166.109 51.3167 166.109 51.01V50.53ZM166.279 50.53H166.949V51.01C166.949 51.2967 167.003 51.5767 167.109 51.85C167.223 52.1167 167.383 52.3633 167.589 52.59C167.796 52.8167 168.039 53.0167 168.319 53.19C168.599 53.3633 168.906 53.5 169.239 53.6L168.839 54.25C168.333 54.09 167.886 53.8533 167.499 53.54C167.119 53.22 166.819 52.8467 166.599 52.42C166.386 51.9867 166.279 51.5167 166.279 51.01V50.53ZM164.039 50.24H168.989V50.92H164.039V50.24Z" fill="black"/>
<path d="M24.0801 12.6152V19.4707H22.4678V16.7412H20.665V15.4336H22.4678V12.6152H24.0801ZM20.1318 19.7246C22.5947 19.7373 24.1055 20.5498 24.1182 21.959C24.1055 23.3555 22.5947 24.1807 20.1318 24.1807C17.6689 24.1807 16.1582 23.3555 16.1582 21.959C16.1582 20.5498 17.6689 19.7373 20.1318 19.7246ZM20.1318 20.9688C18.5957 20.9688 17.7705 21.2861 17.7705 21.959C17.7705 22.6191 18.5957 22.9492 20.1318 22.9492C21.668 22.9492 22.5059 22.6191 22.5059 21.959C22.5059 21.2861 21.668 20.9688 20.1318 20.9688ZM21.0078 13.3135V14.6084H18.71C18.748 15.9541 19.5605 17.3125 21.3633 17.9092L20.5635 19.1787C19.2876 18.7661 18.4116 17.9282 17.9102 16.8809C17.396 18.0615 16.4756 19.0137 15.1045 19.4834L14.2666 18.2012C16.1646 17.5664 17.0151 16.0557 17.0596 14.6084H14.7363V13.3135H21.0078ZM35.29 12.6152V24.168H33.6523V12.6152H35.29ZM31.8242 13.8213C31.8242 17.3252 30.5928 20.2324 26.4668 22.1875L25.6162 20.8926C28.5996 19.4834 29.9136 17.6553 30.1738 15.0908H26.2383V13.8213H31.8242ZM46.1572 12.9707V16.4111H39.6953V17.376H46.4238V18.6709H38.0576V15.1924H44.4941V14.2783H38.0195V12.9707H46.1572ZM47.376 19.5342V20.8291H42.8818V24.1934H41.2568V20.8291H36.8008V19.5342H47.376ZM57.7227 12.6279V21.1719H56.0977V12.6279H57.7227ZM58.0273 22.6699V23.9648H49.9785V20.4102H51.6162V22.6699H58.0273ZM54.2822 13.4912V14.7861H50.3086V15.8779H53.9395V17.1221H50.3086V18.2266C52.3398 18.2266 53.6284 18.2012 55.0947 17.96L55.2598 19.2041C53.6094 19.4961 52.1494 19.5215 49.6738 19.5215H48.6836V13.4912H54.2822Z" fill="black"/>
<mask id="path-13-inside-1_49_260" fill="white">
<path d="M0 103H243V135H0V103Z"/>
</mask>
<path d="M0 103H243V135H0V103Z" fill="white"/>
<path d="M0 103V103.3H243V103V102.7H0V103Z" fill="#DADADA" mask="url(#path-13-inside-1_49_260)"/>
<path d="M116.5 123.875V118.25C116.5 118.052 116.544 117.865 116.633 117.688C116.722 117.51 116.844 117.365 117 117.25L120.75 114.438C120.969 114.271 121.219 114.188 121.5 114.188C121.781 114.188 122.031 114.271 122.25 114.438L126 117.25C126.156 117.365 126.279 117.51 126.368 117.688C126.456 117.865 126.5 118.052 126.5 118.25V123.875C126.5 124.219 126.378 124.513 126.133 124.758C125.888 125.003 125.593 125.125 125.25 125.125H123.375C123.198 125.125 123.05 125.065 122.93 124.945C122.81 124.825 122.75 124.677 122.75 124.5V121.375C122.75 121.198 122.69 121.05 122.57 120.93C122.45 120.81 122.302 120.75 122.125 120.75H120.875C120.698 120.75 120.55 120.81 120.43 120.93C120.31 121.05 120.25 121.198 120.25 121.375V124.5C120.25 124.677 120.19 124.826 120.07 124.946C119.95 125.066 119.802 125.125 119.625 125.125H117.75C117.406 125.125 117.112 125.003 116.867 124.758C116.623 124.514 116.5 124.219 116.5 123.875Z" fill="black"/>
<path d="M156.07 116.109V119.547H157.525V120.191H156.07V124.811H155.309V116.109H156.07ZM153.785 116.959V117.594H150.494V121.988C152.066 121.988 153.18 121.915 154.469 121.676L154.566 122.34C153.209 122.584 152.066 122.633 150.416 122.633H149.732V116.959H153.785ZM165.152 116.109V124.811H164.381V116.109H165.152ZM160.533 116.783C161.822 116.793 162.75 117.965 162.75 119.811C162.75 121.656 161.822 122.828 160.533 122.828C159.234 122.828 158.316 121.656 158.316 119.811C158.316 117.965 159.234 116.793 160.533 116.783ZM160.533 117.467C159.664 117.477 159.059 118.395 159.059 119.811C159.059 121.227 159.664 122.145 160.533 122.145C161.402 122.145 162.008 121.227 162.008 119.811C162.008 118.395 161.402 117.477 160.533 117.467ZM168.971 116.783C170.152 116.793 171.002 117.804 171.129 119.43H173.072V116.109H173.834V124.811H173.072V120.064H171.139C171.046 121.764 170.182 122.828 168.971 122.828C167.691 122.828 166.793 121.656 166.793 119.811C166.793 117.965 167.691 116.793 168.971 116.783ZM168.971 117.467C168.111 117.477 167.525 118.395 167.525 119.811C167.525 121.227 168.111 122.145 168.971 122.145C169.82 122.145 170.416 121.227 170.416 119.811C170.416 118.395 169.82 117.477 168.971 117.467ZM182.447 116.109V124.811H181.686V116.109H182.447ZM179.811 116.92V120.006H176.568V122.057C178.009 122.057 179.293 121.993 180.846 121.744L180.924 122.389C179.322 122.643 178.004 122.701 176.51 122.701H175.787V119.381H179.039V117.555H175.768V116.92H179.811Z" fill="#727272"/>
<path d="M212.549 116.109V120.602H211.777V118.346H209.844V117.711H211.777V116.109H212.549ZM212.549 121.041V123.111H207.695V124.059H212.871V124.674H206.943V122.525H211.787V121.656H206.924V121.041H212.549ZM208.311 117.213C208.301 118.355 209.199 119.391 210.469 119.811L210.059 120.406C209.097 120.064 208.33 119.381 207.949 118.502C207.578 119.493 206.792 120.25 205.762 120.621L205.342 120.006C206.65 119.576 207.549 118.482 207.559 117.213V116.393H208.311V117.213ZM221.191 116.109V121.285H220.42V119.01H218.672V118.375H220.42V116.109H221.191ZM218.311 121.559C220.117 121.559 221.221 122.145 221.221 123.17C221.221 124.195 220.117 124.781 218.311 124.791C216.504 124.781 215.4 124.195 215.4 123.17C215.4 122.145 216.504 121.559 218.311 121.559ZM218.311 122.154C216.982 122.154 216.152 122.535 216.162 123.17C216.152 123.795 216.982 124.176 218.311 124.176C219.639 124.176 220.459 123.795 220.459 123.17C220.459 122.535 219.639 122.154 218.311 122.154ZM217.012 117.701C217.012 118.834 217.881 119.908 219.15 120.348L218.75 120.963C217.773 120.611 217.017 119.884 216.65 118.98C216.27 120.001 215.464 120.816 214.434 121.207L214.033 120.592C215.322 120.123 216.24 118.951 216.24 117.711V117.389H214.277V116.744H218.955V117.389H217.012V117.701Z" fill="#727272"/>
<path d="M26.2383 116.607C26.2383 118.648 25.1641 120.162 22.8203 121.041L22.4785 120.494C23.6895 120.045 24.5098 119.439 24.9883 118.688L22.5469 118.951L22.4199 118.307L25.2812 118.121C25.3789 117.843 25.4473 117.55 25.4766 117.242H22.8398V116.607H26.2383ZM29.7246 116.119V120.689H28.9922V118.756H27.8105V120.621H27.0781V116.285H27.8105V118.111H28.9922V116.119H29.7246ZM29.7246 121.08V123.111H24.7441V124.059H30.0762V124.674H23.9824V122.525H28.9727V121.695H23.9629V121.08H29.7246ZM38.1523 116.119V122.506H37.4004V116.119H38.1523ZM38.4062 123.961V124.605H32.459V122.008H33.2305V123.961H38.4062ZM35.3984 116.734V119.244H32.1953V120.631C33.8066 120.631 34.9492 120.582 36.3262 120.338L36.4043 120.973C34.9883 121.217 33.8164 121.266 32.1562 121.275H31.4531V118.639H34.6367V117.359H31.4336V116.734H35.3984ZM44.0605 116.939V117.584H40.8477V122.008C42.4102 122.008 43.4453 121.954 44.6465 121.725L44.7441 122.359C43.4648 122.604 42.4102 122.662 40.7402 122.662H40.0762V116.939H44.0605ZM46.8438 116.109V124.811H46.0723V119.908H43.543V119.273H46.0723V116.109H46.8438Z" fill="#727272"/>
<path d="M78.5488 116.119V122.535H77.7773V119.439H75.8535V118.795H77.7773V116.119H78.5488ZM75.8926 116.783C75.8828 119.01 74.291 120.709 71.8203 121.52L71.4883 120.904C73.4902 120.245 74.8818 119 75.0527 117.428H71.9277V116.783H75.8926ZM78.7734 123.961V124.605H73.0215V121.881H73.8027V123.961H78.7734ZM86.7812 116.109V118.375H88.0898V119.01H86.7812V121.324H86.0195V116.109H86.7812ZM84.418 116.754C84.418 118.961 82.8555 120.592 80.3262 121.334L80.0039 120.709C82.0986 120.104 83.4365 118.897 83.5977 117.389H80.3848V116.754H84.418ZM84.0371 121.422C85.7852 121.422 86.8789 122.057 86.8789 123.092C86.8789 124.146 85.7852 124.771 84.0371 124.771C82.3086 124.771 81.1855 124.146 81.1953 123.092C81.1855 122.057 82.3086 121.422 84.0371 121.422ZM84.0371 122.037C82.7676 122.027 81.9473 122.438 81.957 123.092C81.9473 123.746 82.7676 124.156 84.0371 124.156C85.3164 124.156 86.1367 123.746 86.1367 123.092C86.1367 122.438 85.3164 122.027 84.0371 122.037Z" fill="#727272"/>
<rect x="193.5" y="109.5" width="41" height="21" rx="4.5" stroke="#FF8686" stroke-width="3"/>
</svg>
