<svg width="256" height="118" viewBox="0 0 256 118" fill="none" xmlns="http://www.w3.org/2000/svg">
<rect x="0.15" y="0.15" width="255.7" height="117.7" rx="9.85" fill="white"/>
<rect x="0.15" y="0.15" width="255.7" height="117.7" rx="9.85" stroke="#DADADA" stroke-width="0.3"/>
<circle cx="25" cy="50" r="5" fill="#FFF0DD"/>
<circle cx="25" cy="88" r="5" fill="#FFDFDD"/>
<path d="M37.3984 64.0781C36.2578 64.0781 35.4375 63.4141 35.4375 62.5078C35.4375 61.7969 35.9453 61.1875 36.6172 61.0703V61.0391C36.0391 60.8906 35.6484 60.3672 35.6484 59.75C35.6484 58.8984 36.3984 58.2656 37.3984 58.2656C38.3906 58.2656 39.1484 58.8984 39.1484 59.75C39.1484 60.3672 38.7578 60.8906 38.1875 61.0391V61.0703C38.8516 61.1875 39.3594 61.7969 39.3672 62.5078C39.3594 63.4141 38.5312 64.0781 37.3984 64.0781ZM37.3984 63.5859C38.2422 63.5859 38.8125 63.1172 38.8125 62.4766C38.8125 61.8203 38.2109 61.3125 37.3984 61.3125C36.5938 61.3125 35.9844 61.8203 35.9922 62.4766C35.9844 63.1172 36.5547 63.5859 37.3984 63.5859ZM37.3984 60.8438C38.0859 60.8438 38.6094 60.3984 38.6094 59.7812C38.6094 59.1797 38.1016 58.75 37.3984 58.75C36.6875 58.75 36.1875 59.1797 36.1875 59.7812C36.1875 60.3984 36.7031 60.8438 37.3984 60.8438ZM45.7344 57.7188V61.8047H45.2422V61.375H43.7969V61.0312H45.2422V57.7188H45.7344ZM40.0781 60.375C41.4141 60.3828 43.1328 60.3594 44.6328 60.1875L44.6641 60.5312C43.9727 60.625 43.2461 60.6836 42.5391 60.7188V61.8359H42.0547V60.7344C41.3711 60.7617 40.7188 60.7656 40.1406 60.7656L40.0781 60.375ZM45.7344 62.0703V63.4297H41.6641V64.1406H45.9922V64.5234H41.1797V63.0781H45.25V62.4375H41.1562V62.0703H45.7344ZM42.3359 57.8672C43.3594 57.8672 44.0391 58.2578 44.0391 58.9062C44.0391 59.5547 43.3594 59.9375 42.3359 59.9297C41.2969 59.9375 40.6328 59.5547 40.6328 58.9062C40.6328 58.2578 41.2969 57.8672 42.3359 57.8672ZM42.3359 58.2188C41.5859 58.2188 41.0938 58.5 41.1016 58.9062C41.0938 59.3047 41.5859 59.5859 42.3359 59.5781C43.0781 59.5859 43.5703 59.3047 43.5703 58.9062C43.5703 58.5 43.0781 58.2188 42.3359 58.2188ZM51.0078 58.3438V64H50.4453V58.9219H50.4141L49.0781 59.8047V59.2344L50.4297 58.3438H51.0078ZM54.4609 64.0781C53.4766 64.0703 52.4922 63.4141 52.4922 61.3984C52.4922 59.5312 53.1875 58.2656 54.5469 58.2656C55.5078 58.2656 56.1641 58.875 56.2891 59.7578H55.7344C55.625 59.1875 55.2188 58.7656 54.5469 58.7656C53.5703 58.7656 53.0156 59.6406 53.0156 61.1797H53.0781C53.3672 60.6797 53.9141 60.3672 54.5469 60.3672C55.5312 60.3672 56.3516 61.1406 56.3516 62.2109C56.3516 63.2422 55.6016 64.0859 54.4609 64.0781ZM54.4609 63.5859C55.2344 63.5859 55.8125 62.9688 55.8125 62.2109C55.8125 61.4688 55.2344 60.8594 54.4688 60.8594C53.6719 60.8594 53.0703 61.5156 53.1094 62.2422C53.1641 63 53.7109 63.5859 54.4609 63.5859ZM59.0703 57.9844C60.1016 57.9922 60.8359 58.6094 60.8438 59.5C60.8359 60.3984 60.1016 61.0078 59.0703 61.0078C58.0391 61.0078 57.2969 60.3984 57.3047 59.5C57.2969 58.6094 58.0391 57.9922 59.0703 57.9844ZM59.0703 58.4062C58.3281 58.4062 57.7812 58.8672 57.7891 59.5C57.7812 60.1328 58.3281 60.5938 59.0703 60.5938C59.8125 60.5938 60.3672 60.1328 60.3672 59.5C60.3672 58.8672 59.8125 58.4062 59.0703 58.4062ZM62.7891 57.7188V61.2812H62.2969V57.7188H62.7891ZM62.7891 61.6328V63.2266H58.8516V64.1016H63.0547V64.5078H58.375V62.8438H62.3047V62.0391H58.3516V61.6328H62.7891ZM66.3906 61.8438C66.3906 60.3984 66.7734 59.1562 67.4531 58.1016H67.9297C67.3828 58.9688 66.9375 60.4609 66.9375 61.8438C66.9375 63.2344 67.3828 64.7266 67.9297 65.5938H67.4531C66.7734 64.5312 66.3906 63.2891 66.3906 61.8438ZM74.1406 61.3594V61.7656H71.9531V63.2969H74.8828V63.7109H68.5703V63.2969H71.4609V61.7656H69.4062V58.3125H74.0547V58.7266H69.9062V59.7969H73.9141V60.2109H69.9062V61.3594H74.1406ZM77.0547 61.8438C77.0547 63.2891 76.6719 64.5312 75.9922 65.5938H75.5156C76.0625 64.7266 76.5078 63.2344 76.5078 61.8438C76.5078 60.4609 76.0625 58.9688 75.5156 58.1016H75.9922C76.6719 59.1562 77.0547 60.3984 77.0547 61.8438Z" fill="#6C7381"/>
<path d="M37.3984 99.0781C36.2578 99.0781 35.4375 98.4141 35.4375 97.5078C35.4375 96.7969 35.9453 96.1875 36.6172 96.0703V96.0391C36.0391 95.8906 35.6484 95.3672 35.6484 94.75C35.6484 93.8984 36.3984 93.2656 37.3984 93.2656C38.3906 93.2656 39.1484 93.8984 39.1484 94.75C39.1484 95.3672 38.7578 95.8906 38.1875 96.0391V96.0703C38.8516 96.1875 39.3594 96.7969 39.3672 97.5078C39.3594 98.4141 38.5312 99.0781 37.3984 99.0781ZM37.3984 98.5859C38.2422 98.5859 38.8125 98.1172 38.8125 97.4766C38.8125 96.8203 38.2109 96.3125 37.3984 96.3125C36.5938 96.3125 35.9844 96.8203 35.9922 97.4766C35.9844 98.1172 36.5547 98.5859 37.3984 98.5859ZM37.3984 95.8438C38.0859 95.8438 38.6094 95.3984 38.6094 94.7812C38.6094 94.1797 38.1016 93.75 37.3984 93.75C36.6875 93.75 36.1875 94.1797 36.1875 94.7812C36.1875 95.3984 36.7031 95.8438 37.3984 95.8438ZM45.7344 92.7188V96.8047H45.2422V96.375H43.7969V96.0312H45.2422V92.7188H45.7344ZM40.0781 95.375C41.4141 95.3828 43.1328 95.3594 44.6328 95.1875L44.6641 95.5312C43.9727 95.625 43.2461 95.6836 42.5391 95.7188V96.8359H42.0547V95.7344C41.3711 95.7617 40.7188 95.7656 40.1406 95.7656L40.0781 95.375ZM45.7344 97.0703V98.4297H41.6641V99.1406H45.9922V99.5234H41.1797V98.0781H45.25V97.4375H41.1562V97.0703H45.7344ZM42.3359 92.8672C43.3594 92.8672 44.0391 93.2578 44.0391 93.9062C44.0391 94.5547 43.3594 94.9375 42.3359 94.9297C41.2969 94.9375 40.6328 94.5547 40.6328 93.9062C40.6328 93.2578 41.2969 92.8672 42.3359 92.8672ZM42.3359 93.2188C41.5859 93.2188 41.0938 93.5 41.1016 93.9062C41.0938 94.3047 41.5859 94.5859 42.3359 94.5781C43.0781 94.5859 43.5703 94.3047 43.5703 93.9062C43.5703 93.5 43.0781 93.2188 42.3359 93.2188ZM51.0078 93.3438V99H50.4453V93.9219H50.4141L49.0781 94.8047V94.2344L50.4297 93.3438H51.0078ZM52.75 99L55.3906 93.875V93.8438H52.3516V93.3438H55.9766V93.8672L53.3359 99H52.75ZM58.6172 92.9844C59.6484 92.9922 60.3828 93.6094 60.3906 94.5C60.3828 95.3984 59.6484 96.0078 58.6172 96.0078C57.5859 96.0078 56.8438 95.3984 56.8516 94.5C56.8438 93.6094 57.5859 92.9922 58.6172 92.9844ZM58.6172 93.4062C57.875 93.4062 57.3281 93.8672 57.3359 94.5C57.3281 95.1328 57.875 95.5938 58.6172 95.5938C59.3594 95.5938 59.9141 95.1328 59.9141 94.5C59.9141 93.8672 59.3594 93.4062 58.6172 93.4062ZM62.3359 92.7188V96.2812H61.8438V92.7188H62.3359ZM62.3359 96.6328V98.2266H58.3984V99.1016H62.6016V99.5078H57.9219V97.8438H61.8516V97.0391H57.8984V96.6328H62.3359ZM65.9375 96.8438C65.9375 95.3984 66.3203 94.1562 67 93.1016H67.4766C66.9297 93.9688 66.4844 95.4609 66.4844 96.8438C66.4844 98.2344 66.9297 99.7266 67.4766 100.594H67C66.3203 99.5312 65.9375 98.2891 65.9375 96.8438ZM70.0625 92.9844C71.0938 92.9922 71.8281 93.6094 71.8359 94.5C71.8281 95.3984 71.0938 96.0078 70.0625 96.0078C69.0312 96.0078 68.2891 95.3984 68.2969 94.5C68.2891 93.6094 69.0312 92.9922 70.0625 92.9844ZM70.0625 93.4062C69.3203 93.4062 68.7734 93.8672 68.7812 94.5C68.7734 95.1328 69.3203 95.5938 70.0625 95.5938C70.8047 95.5938 71.3594 95.1328 71.3594 94.5C71.3594 93.8672 70.8047 93.4062 70.0625 93.4062ZM73.7812 92.7188V96.2812H73.2891V92.7188H73.7812ZM73.7812 96.6328V98.2266H69.8438V99.1016H74.0469V99.5078H69.3672V97.8438H73.2969V97.0391H69.3438V96.6328H73.7812ZM76.6016 96.8438C76.6016 98.2891 76.2188 99.5312 75.5391 100.594H75.0625C75.6094 99.7266 76.0547 98.2344 76.0547 96.8438C76.0547 95.4609 75.6094 93.9688 75.0625 93.1016H75.5391C76.2188 94.1562 76.6016 95.3984 76.6016 96.8438Z" fill="#6C7381"/>
<path d="M59.5723 42.6562V44.043H62.1309V42.6562H62.8926V46.7871H58.8105V42.6562H59.5723ZM59.5723 46.1719H62.1309V44.6582H59.5723V46.1719ZM65.5195 42.1094V48.0176H64.7578V42.1094H65.5195ZM63.0977 47.7344C63.0879 48.9844 64.4844 49.8926 66.0273 50.1562L65.7344 50.752C64.4111 50.5176 63.2051 49.8486 62.6973 48.8281C62.1797 49.8486 60.9688 50.5176 59.6602 50.752L59.3574 50.1562C60.9004 49.8926 62.2969 48.9844 62.2969 47.7344V47.5195H63.0977V47.7344ZM74.1523 42.1094V46.6211H73.4004V42.1094H74.1523ZM74.1621 47.041V49.1113H69.2891V50.0781H74.4746V50.6934H68.5371V48.5352H73.4004V47.6465H68.5176V47.041H74.1621ZM70.1191 43.3398C70.1191 44.4727 71.0469 45.459 72.3555 45.8496L71.9746 46.4453C70.9492 46.123 70.1338 45.4346 69.748 44.541C69.3721 45.5176 68.542 46.2793 67.4824 46.6309L67.1211 46.0254C68.4199 45.5957 69.3477 44.5312 69.3477 43.3398V43.2422H67.3164V42.6074H72.1211V43.2422H70.1191V43.3398Z" fill="black"/>
<path d="M59.4746 77.4805V78.7305H62.0039V77.4805H62.7656V81.2598H58.7227V77.4805H59.4746ZM59.4746 80.6348H62.0039V79.3262H59.4746V80.6348ZM65.1387 77.1094V78.9941H66.4473V79.6387H65.1387V81.6016H64.377V77.1094H65.1387ZM65.1387 82.0117V84.1113H60.373V85.0684H65.4609V85.6934H59.6211V83.5254H64.377V82.627H59.6016V82.0117H65.1387ZM73.7129 77.1094V80.5273H75.168V81.1914H73.7129V85.791H72.9512V77.1094H73.7129ZM68.1172 77.8516V80.1465H70.6562V77.8516H71.418V83.7109H67.3555V77.8516H68.1172ZM68.1172 83.0664H70.6562V80.7617H68.1172V83.0664ZM82.4238 77.1094V79.3066H83.7324V79.9609H82.4238V82.2266H81.6621V77.1094H82.4238ZM82.4238 82.7051V85.8105H81.6621V83.3203H76.7402V82.7051H82.4238ZM79.9141 77.7246V78.3594H76.8086V80.9277C78.5518 80.918 79.543 80.874 80.7051 80.6348L80.8027 81.2598C79.582 81.5039 78.5469 81.5527 76.7207 81.5527H76.0469V77.7246H79.9141ZM89.0938 77.7832V78.2422C89.084 78.8086 89.084 79.6777 88.8691 80.8105L88.0977 80.752C88.3076 79.7119 88.3271 78.9746 88.3418 78.4277H84.7676V77.7832H89.0938ZM86.8574 79.707V81.5723C87.8193 81.5332 88.8154 81.4648 89.7188 81.3379L89.7676 81.9043C87.9512 82.2168 85.8516 82.2559 84.3086 82.2559L84.2305 81.6211C84.792 81.6162 85.4268 81.6113 86.0957 81.5918V79.707H86.8574ZM91.0859 77.1094V79.9414H92.3555V80.5957H91.0859V83.6426H90.3047V77.1094H91.0859ZM91.3691 84.9609V85.6055H85.5684V83.0566H86.3398V84.9609H91.3691ZM100.09 77.1094V85.8105H99.3281V77.1094H100.09ZM97.4531 77.9199V81.0059H94.2109V83.0566C95.6514 83.0566 96.9355 82.9932 98.4883 82.7441L98.5664 83.3887C96.9648 83.6426 95.6465 83.7012 94.1523 83.7012H93.4297V80.3809H96.6816V78.5547H93.4102V77.9199H97.4531Z" fill="black"/>
<path d="M39.3066 42.6074C41.1816 42.6172 42.5391 43.5352 42.5391 44.9316C42.5391 46.2451 41.4014 47.1094 39.7656 47.2461V48.9648H43.3301V49.7363H35.3223V48.9648H38.8477V47.2461C37.2217 47.1094 36.084 46.2451 36.084 44.9316C36.084 43.5352 37.4414 42.6172 39.3066 42.6074ZM39.3066 43.3691C37.959 43.3594 36.9824 43.9844 36.9824 44.9316C36.9824 45.918 37.959 46.5234 39.3066 46.5332C40.6641 46.5234 41.6406 45.918 41.6406 44.9316C41.6406 43.9844 40.6641 43.3594 39.3066 43.3691ZM51.0254 44.0723V44.8242H45.0195V42.207H45.9277V44.0723H51.0254ZM51.9629 45.5957V46.3379H43.9551V45.5957H51.9629ZM50.957 47.041V49.1797H45.8789V49.9902H51.2598V50.7227H44.9512V48.4961H50.0391V47.7637H44.9316V47.041H50.957Z" fill="#DD2525"/>
<path d="M42.8125 77.0801V85.8301H41.9238V81.3477H40.8008V85.3809H39.9316V77.2559H40.8008V80.5859H41.9238V77.0801H42.8125ZM36.6602 78.1152V82.7832C37.4707 82.7783 38.3545 82.7148 39.3457 82.5195L39.4434 83.3301C38.2422 83.5449 37.2363 83.6035 36.2988 83.6035H35.7324V78.1152H36.6602ZM46.4453 77.373C47.7637 77.3828 48.7305 78.1934 48.7402 79.3359C48.7305 80.4883 47.7637 81.2891 46.4453 81.2891C45.1172 81.2891 44.1406 80.4883 44.1406 79.3359C44.1406 78.1934 45.1172 77.3828 46.4453 77.373ZM46.4453 78.1543C45.6348 78.1445 45.0391 78.623 45.0488 79.3359C45.0391 80.0586 45.6348 80.5371 46.4453 80.5371C47.2461 80.5371 47.8418 80.0586 47.8418 79.3359C47.8418 78.623 47.2461 78.1445 46.4453 78.1543ZM51.2207 77.0801V81.5332H50.293V77.0801H51.2207ZM51.2207 81.9336V84.1406H46.3965V84.9805H51.5137V85.7227H45.498V83.4473H50.3027V82.6758H45.4688V81.9336H51.2207Z" fill="#F97F42"/>
<path d="M21.3691 11.6533V16.0078H23.1338V17.1631H21.3691V23.1426H19.96V11.6533H21.3691ZM18.2207 12.7451V13.8877H14.2598V19.1562C16.0435 19.1562 17.4526 19.0674 19.0332 18.7881L19.1982 19.9814C17.4209 20.2861 15.8721 20.3369 13.8027 20.3369H12.8506V12.7451H18.2207ZM32.6045 11.6533V16.1348H34.3057V17.3154H32.6045V23.1045H31.1953V11.6533H32.6045ZM29.5703 12.8467C29.5703 16.2236 28.1738 19.1816 24.3525 21.0605L23.5527 19.9688C26.3457 18.5786 27.8564 16.6235 28.1484 14.0146H24.1748V12.8467H29.5703ZM40.0693 12.3008C42.5322 12.3008 44.3477 13.5322 44.3477 15.3984C44.3477 17.1187 42.8687 18.2676 40.7676 18.4707V20.5781H45.3379V21.7334H34.8516V20.5781H39.3711V18.4707C37.2827 18.2676 35.8037 17.1187 35.8164 15.3984C35.8037 13.5322 37.6191 12.3008 40.0693 12.3008ZM40.0693 13.4434C38.3936 13.4307 37.1875 14.1924 37.2002 15.3984C37.1875 16.6426 38.3936 17.3789 40.0693 17.3789C41.7705 17.3789 42.9639 16.6426 42.9639 15.3984C42.9639 14.1924 41.7705 13.4307 40.0693 13.4434ZM55.3799 14.9033V16.0205H47.4326V12.0723H48.8291V14.9033H55.3799ZM56.5605 17.3535V18.4707H46.0742V17.3535H56.5605ZM55.4561 21.7207V22.8633H47.3311V19.4863H48.7402V21.7207H55.4561ZM63.6572 12.0215C65.3965 12.0215 66.6914 13.1006 66.7041 14.6113C66.6914 16.1348 65.3965 17.2012 63.6572 17.2012C61.9053 17.2012 60.6104 16.1348 60.6104 14.6113C60.6104 13.1006 61.9053 12.0215 63.6572 12.0215ZM63.6572 13.1895C62.6924 13.1895 61.9814 13.7354 61.9814 14.6113C61.9814 15.5 62.6924 16.0586 63.6572 16.0586C64.6221 16.0586 65.333 15.5 65.333 14.6113C65.333 13.7354 64.6221 13.1895 63.6572 13.1895ZM69.9668 11.6533V17.4551H68.5449V11.6533H69.9668ZM69.9668 17.9502V20.9463H63.7588V21.873H70.3096V22.9902H62.375V19.9053H68.5576V19.0547H62.3496V17.9502H69.9668ZM81.2529 11.6533V18.4707H79.8438V15.665H77.8887V14.5098H79.8438V11.6533H81.2529ZM77.3682 18.7627C79.8057 18.7627 81.291 19.5625 81.291 20.9463C81.291 22.3301 79.8057 23.1299 77.3682 23.1299C74.9434 23.1299 73.458 22.3301 73.4707 20.9463C73.458 19.5625 74.9434 18.7627 77.3682 18.7627ZM77.3682 19.8418C75.7686 19.8418 74.8672 20.2227 74.8672 20.9463C74.8672 21.6572 75.7686 22.0381 77.3682 22.0381C78.9678 22.0381 79.8818 21.6572 79.8818 20.9463C79.8818 20.2227 78.9678 19.8418 77.3682 19.8418ZM75.8574 13.6211C75.8574 15.0176 76.7842 16.4268 78.5615 17.0234L77.8506 18.1406C76.5747 17.709 75.667 16.833 75.1719 15.7539C74.6641 16.979 73.7056 17.9565 72.3408 18.4453L71.6045 17.3281C73.4453 16.6934 74.4229 15.1445 74.4229 13.6338V13.5449H72.0361V12.4023H78.2314V13.5449H75.8574V13.6211Z" fill="black"/>
</svg>
