<svg width="256" height="127" viewBox="0 0 256 127" fill="none" xmlns="http://www.w3.org/2000/svg">
<rect x="0.15" y="0.15" width="255.7" height="126.7" rx="9.85" fill="white"/>
<rect x="0.15" y="0.15" width="255.7" height="126.7" rx="9.85" stroke="#DADADA" stroke-width="0.3"/>
<rect x="224.15" y="10.15" width="20.7" height="20.7" rx="5.85" stroke="#DADADA" stroke-width="0.3"/>
<path d="M230.292 23.7083H230.945L235.425 19.2281L234.772 18.575L230.292 23.0552V23.7083ZM229.833 24.625C229.703 24.625 229.595 24.581 229.507 24.493C229.419 24.405 229.375 24.2962 229.375 24.1667V23.0552C229.375 22.933 229.398 22.8164 229.444 22.7055C229.49 22.5946 229.555 22.4973 229.639 22.4135L235.425 16.6385C235.517 16.5545 235.618 16.4896 235.729 16.4438C235.84 16.3979 235.956 16.375 236.078 16.375C236.2 16.375 236.318 16.3979 236.433 16.4438C236.548 16.4896 236.648 16.5583 236.731 16.65L237.361 17.2917C237.453 17.3757 237.52 17.475 237.562 17.5896C237.604 17.7042 237.625 17.8188 237.625 17.9333C237.625 18.0556 237.604 18.1721 237.562 18.283C237.52 18.394 237.453 18.4951 237.361 18.5865L231.586 24.3615C231.502 24.4455 231.405 24.5104 231.294 24.5563C231.183 24.6021 231.067 24.625 230.945 24.625H229.833ZM235.093 18.9073L234.772 18.575L235.425 19.2281L235.093 18.9073Z" fill="black"/>
<circle cx="25" cy="50" r="5" fill="#FFF0DD"/>
<circle cx="25" cy="86" r="5" fill="#DFEFDE"/>
<circle cx="25" cy="68" r="5" fill="#FFDFDD"/>
<circle cx="25" cy="104" r="5" fill="#FAFAEA"/>
<path d="M39.2969 46.7539C41.123 46.7539 42.4219 47.6328 42.4219 48.9707C42.4219 50.2402 41.2695 51.0752 39.6094 51.168V53.0918H43.2715V53.6191H35.3809V53.0918H38.9941V51.168C37.3389 51.0801 36.1816 50.2402 36.1816 48.9707C36.1816 47.6328 37.4805 46.7539 39.2969 46.7539ZM39.2969 47.2617C37.8418 47.2617 36.7676 47.9551 36.7676 48.9707C36.7676 49.9863 37.8418 50.6797 39.2969 50.6797C40.752 50.6797 41.8359 49.9863 41.8359 48.9707C41.8359 47.9551 40.752 47.2617 39.2969 47.2617ZM51.123 46.1484V52.4766H50.5078V49.0977H48.6133V48.5801H50.5078V46.1484H51.123ZM51.377 54.0391V54.5566H45.6543V51.9004H46.2695V54.0391H51.377ZM46.9336 47.9551C46.9336 49.0977 47.8809 50.1914 49.1016 50.6113L48.7793 51.1094C47.8027 50.748 47.0068 49.9961 46.6406 49.0684C46.2744 50.1084 45.4248 50.9287 44.4043 51.3242L44.082 50.8164C45.3125 50.377 46.3184 49.2344 46.3184 47.9551V47.418H44.2969V46.8906H48.9258V47.418H46.9336V47.9551ZM57.6172 54.0977C56.1035 54.0977 55.2246 52.7598 55.2246 50.4648C55.2246 48.1797 56.1133 46.832 57.6172 46.832C59.1113 46.832 60 48.1797 60 50.4648C60 52.7598 59.1211 54.0977 57.6172 54.0977ZM57.6172 53.4727C58.6914 53.4727 59.3262 52.3789 59.3262 50.4648C59.3262 48.5508 58.6816 47.4473 57.6172 47.4473C56.543 47.4473 55.9082 48.5508 55.9082 50.4648C55.9082 52.3789 56.543 53.4727 57.6172 53.4727ZM61.2402 54L64.541 47.5938V47.5547H60.7422V46.9297H65.2734V47.584L61.9727 54H61.2402ZM66.6602 53.043C66.3672 53.043 66.1328 52.8086 66.1328 52.5254C66.1328 52.2324 66.3672 51.998 66.6602 51.998C66.9434 51.998 67.1777 52.2324 67.1777 52.5254C67.1777 52.8086 66.9434 53.043 66.6602 53.043ZM66.6602 48.9316C66.3672 48.9316 66.1328 48.6973 66.1328 48.4141C66.1328 48.1211 66.3672 47.8867 66.6602 47.8867C66.9434 47.8867 67.1777 48.1211 67.1777 48.4141C67.1777 48.6973 66.9434 48.9316 66.6602 48.9316ZM68.5742 54V53.4922L70.9668 50.9043C71.875 49.918 72.2461 49.4199 72.2559 48.7559C72.2461 47.9746 71.6113 47.4473 70.7715 47.4473C69.873 47.4473 69.2969 48.0332 69.2969 48.8633H68.6328C68.6328 47.6719 69.5508 46.832 70.791 46.832C72.0215 46.832 72.9004 47.6719 72.9004 48.7559C72.9004 49.5469 72.5391 50.1426 71.3184 51.4316L69.5605 53.3262V53.375H73.1152V54H68.5742ZM76.8359 54.0977C75.4785 54.0977 74.4922 53.3359 74.4531 52.2227H75.1562C75.1953 52.9746 75.918 53.4727 76.8262 53.4727C77.8223 53.4727 78.5254 52.8965 78.5352 52.0957C78.5254 51.2656 77.832 50.6797 76.6895 50.6797H76.25V50.0547H76.6895C77.6172 50.0547 78.2812 49.5371 78.291 48.7363C78.2812 47.9746 77.7148 47.4473 76.8457 47.4473C76.0156 47.4473 75.3125 47.9355 75.293 48.6973H74.6191C74.6484 47.5938 75.625 46.832 76.8555 46.832C78.1445 46.832 78.9648 47.6816 78.9551 48.707C78.9648 49.5176 78.4766 50.1133 77.7148 50.3281V50.377C78.6426 50.543 79.2188 51.1973 79.209 52.1055C79.2188 53.248 78.2031 54.0977 76.8359 54.0977Z" fill="#6C7381"/>
<path d="M39.2969 64.7539C41.123 64.7539 42.4219 65.6328 42.4219 66.9707C42.4219 68.2402 41.2695 69.0752 39.6094 69.168V71.0918H43.2715V71.6191H35.3809V71.0918H38.9941V69.168C37.3389 69.0801 36.1816 68.2402 36.1816 66.9707C36.1816 65.6328 37.4805 64.7539 39.2969 64.7539ZM39.2969 65.2617C37.8418 65.2617 36.7676 65.9551 36.7676 66.9707C36.7676 67.9863 37.8418 68.6797 39.2969 68.6797C40.752 68.6797 41.8359 67.9863 41.8359 66.9707C41.8359 65.9551 40.752 65.2617 39.2969 65.2617ZM51.123 64.1484V70.4766H50.5078V67.0977H48.6133V66.5801H50.5078V64.1484H51.123ZM51.377 72.0391V72.5566H45.6543V69.9004H46.2695V72.0391H51.377ZM46.9336 65.9551C46.9336 67.0977 47.8809 68.1914 49.1016 68.6113L48.7793 69.1094C47.8027 68.748 47.0068 67.9961 46.6406 67.0684C46.2744 68.1084 45.4248 68.9287 44.4043 69.3242L44.082 68.8164C45.3125 68.377 46.3184 67.2344 46.3184 65.9551V65.418H44.2969V64.8906H48.9258V65.418H46.9336V65.9551ZM57.6172 72.0977C56.1035 72.0977 55.2246 70.7598 55.2246 68.4648C55.2246 66.1797 56.1133 64.832 57.6172 64.832C59.1113 64.832 60 66.1797 60 68.4648C60 70.7598 59.1211 72.0977 57.6172 72.0977ZM57.6172 71.4727C58.6914 71.4727 59.3262 70.3789 59.3262 68.4648C59.3262 66.5508 58.6816 65.4473 57.6172 65.4473C56.543 65.4473 55.9082 66.5508 55.9082 68.4648C55.9082 70.3789 56.543 71.4727 57.6172 71.4727ZM63.4668 64.832C64.6973 64.8418 65.9375 65.6621 65.9375 68.1621C65.9375 70.5059 65.0586 72.0977 63.3691 72.0977C62.168 72.0977 61.3379 71.3359 61.1816 70.2129H61.875C62.0117 70.9453 62.5293 71.4727 63.3691 71.4727C64.5801 71.4727 65.2832 70.3789 65.2832 68.4355H65.2051C64.8438 69.0605 64.1504 69.4512 63.3691 69.4512C62.1289 69.4512 61.1133 68.4844 61.1133 67.1562C61.1133 65.877 62.041 64.8223 63.4668 64.832ZM63.4668 65.4473C62.5 65.4473 61.7773 66.2188 61.7871 67.1465C61.7871 68.0938 62.5 68.8359 63.4668 68.8359C64.4531 68.8359 65.2148 68.0156 65.1562 67.1074C65.0879 66.1797 64.4043 65.4473 63.4668 65.4473ZM67.7539 71.043C67.4609 71.043 67.2266 70.8086 67.2266 70.5254C67.2266 70.2324 67.4609 69.998 67.7539 69.998C68.0371 69.998 68.2715 70.2324 68.2715 70.5254C68.2715 70.8086 68.0371 71.043 67.7539 71.043ZM67.7539 66.9316C67.4609 66.9316 67.2266 66.6973 67.2266 66.4141C67.2266 66.1211 67.4609 65.8867 67.7539 65.8867C68.0371 65.8867 68.2715 66.1211 68.2715 66.4141C68.2715 66.6973 68.0371 66.9316 67.7539 66.9316ZM72.041 72.0977C70.6836 72.0977 69.6973 71.3359 69.6582 70.2227H70.3613C70.4004 70.9746 71.123 71.4727 72.0312 71.4727C73.0273 71.4727 73.7305 70.8965 73.7402 70.0957C73.7305 69.2656 73.0371 68.6797 71.8945 68.6797H71.4551V68.0547H71.8945C72.8223 68.0547 73.4863 67.5371 73.4961 66.7363C73.4863 65.9746 72.9199 65.4473 72.0508 65.4473C71.2207 65.4473 70.5176 65.9355 70.498 66.6973H69.8242C69.8535 65.5938 70.8301 64.832 72.0605 64.832C73.3496 64.832 74.1699 65.6816 74.1602 66.707C74.1699 67.5176 73.6816 68.1133 72.9199 68.3281V68.377C73.8477 68.543 74.4238 69.1973 74.4141 70.1055C74.4238 71.248 73.4082 72.0977 72.041 72.0977ZM75.5859 70.4961V69.9297L78.8086 64.9297H79.6484V69.8809H80.6152V70.4961H79.6484V72H78.9844V70.4961H75.5859ZM76.3574 69.8809H78.9844V65.8574H78.916L76.3574 69.832V69.8809Z" fill="#6C7381"/>
<path d="M39.2969 82.7539C41.123 82.7539 42.4219 83.6328 42.4219 84.9707C42.4219 86.2402 41.2695 87.0752 39.6094 87.168V89.0918H43.2715V89.6191H35.3809V89.0918H38.9941V87.168C37.3389 87.0801 36.1816 86.2402 36.1816 84.9707C36.1816 83.6328 37.4805 82.7539 39.2969 82.7539ZM39.2969 83.2617C37.8418 83.2617 36.7676 83.9551 36.7676 84.9707C36.7676 85.9863 37.8418 86.6797 39.2969 86.6797C40.752 86.6797 41.8359 85.9863 41.8359 84.9707C41.8359 83.9551 40.752 83.2617 39.2969 83.2617ZM51.4062 83.1641V83.6816H44.4434V83.1641H47.6367V82.0801H48.252V83.1641H51.4062ZM51.9141 87.7246V88.252H48.252V90.7715H47.6367V88.252H44.0234V87.7246H51.9141ZM47.9395 84.2285C49.668 84.2285 50.7031 84.7363 50.7031 85.6543C50.7031 86.5527 49.668 87.0703 47.9395 87.0703C46.2109 87.0703 45.1758 86.5527 45.1855 85.6543C45.1758 84.7363 46.2109 84.2285 47.9395 84.2285ZM47.9395 84.707C46.6211 84.707 45.8105 85.0684 45.8203 85.6543C45.8105 86.2305 46.6211 86.5918 47.9395 86.582C49.2578 86.5918 50.0586 86.2305 50.0684 85.6543C50.0586 85.0684 49.2578 84.707 47.9395 84.707ZM57.6172 90.0977C56.1035 90.0977 55.2246 88.7598 55.2246 86.4648C55.2246 84.1797 56.1133 82.832 57.6172 82.832C59.1113 82.832 60 84.1797 60 86.4648C60 88.7598 59.1211 90.0977 57.6172 90.0977ZM57.6172 89.4727C58.6914 89.4727 59.3262 88.3789 59.3262 86.4648C59.3262 84.5508 58.6816 83.4473 57.6172 83.4473C56.543 83.4473 55.9082 84.5508 55.9082 86.4648C55.9082 88.3789 56.543 89.4727 57.6172 89.4727ZM61.2207 90V89.4922L63.6133 86.9043C64.5215 85.918 64.8926 85.4199 64.9023 84.7559C64.8926 83.9746 64.2578 83.4473 63.418 83.4473C62.5195 83.4473 61.9434 84.0332 61.9434 84.8633H61.2793C61.2793 83.6719 62.1973 82.832 63.4375 82.832C64.668 82.832 65.5469 83.6719 65.5469 84.7559C65.5469 85.5469 65.1855 86.1426 63.9648 87.4316L62.207 89.3262V89.375H65.7617V90H61.2207ZM67.6465 89.043C67.3535 89.043 67.1191 88.8086 67.1191 88.5254C67.1191 88.2324 67.3535 87.998 67.6465 87.998C67.9297 87.998 68.1641 88.2324 68.1641 88.5254C68.1641 88.8086 67.9297 89.043 67.6465 89.043ZM67.6465 84.9316C67.3535 84.9316 67.1191 84.6973 67.1191 84.4141C67.1191 84.1211 67.3535 83.8867 67.6465 83.8867C67.9297 83.8867 68.1641 84.1211 68.1641 84.4141C68.1641 84.6973 67.9297 84.9316 67.6465 84.9316ZM71.9336 90.0977C70.5762 90.0977 69.5898 89.3359 69.5508 88.2227H70.2539C70.293 88.9746 71.0156 89.4727 71.9238 89.4727C72.9199 89.4727 73.623 88.8965 73.6328 88.0957C73.623 87.2656 72.9297 86.6797 71.7871 86.6797H71.3477V86.0547H71.7871C72.7148 86.0547 73.3789 85.5371 73.3887 84.7363C73.3789 83.9746 72.8125 83.4473 71.9434 83.4473C71.1133 83.4473 70.4102 83.9355 70.3906 84.6973H69.7168C69.7461 83.5938 70.7227 82.832 71.9531 82.832C73.2422 82.832 74.0625 83.6816 74.0527 84.707C74.0625 85.5176 73.5742 86.1133 72.8125 86.3281V86.377C73.7402 86.543 74.3164 87.1973 74.3066 88.1055C74.3164 89.248 73.3008 90.0977 71.9336 90.0977ZM75.8594 90L79.1602 83.5938V83.5547H75.3613V82.9297H79.8926V83.584L76.5918 90H75.8594Z" fill="#6C7381"/>
<path d="M39.2969 100.754C41.123 100.754 42.4219 101.633 42.4219 102.971C42.4219 104.24 41.2695 105.075 39.6094 105.168V107.092H43.2715V107.619H35.3809V107.092H38.9941V105.168C37.3389 105.08 36.1816 104.24 36.1816 102.971C36.1816 101.633 37.4805 100.754 39.2969 100.754ZM39.2969 101.262C37.8418 101.262 36.7676 101.955 36.7676 102.971C36.7676 103.986 37.8418 104.68 39.2969 104.68C40.752 104.68 41.8359 103.986 41.8359 102.971C41.8359 101.955 40.752 101.262 39.2969 101.262ZM51.4062 101.164V101.682H44.4434V101.164H47.6367V100.08H48.252V101.164H51.4062ZM51.9141 105.725V106.252H48.252V108.771H47.6367V106.252H44.0234V105.725H51.9141ZM47.9395 102.229C49.668 102.229 50.7031 102.736 50.7031 103.654C50.7031 104.553 49.668 105.07 47.9395 105.07C46.2109 105.07 45.1758 104.553 45.1855 103.654C45.1758 102.736 46.2109 102.229 47.9395 102.229ZM47.9395 102.707C46.6211 102.707 45.8105 103.068 45.8203 103.654C45.8105 104.23 46.6211 104.592 47.9395 104.582C49.2578 104.592 50.0586 104.23 50.0684 103.654C50.0586 103.068 49.2578 102.707 47.9395 102.707ZM57.6172 108.098C56.1035 108.098 55.2246 106.76 55.2246 104.465C55.2246 102.18 56.1133 100.832 57.6172 100.832C59.1113 100.832 60 102.18 60 104.465C60 106.76 59.1211 108.098 57.6172 108.098ZM57.6172 107.473C58.6914 107.473 59.3262 106.379 59.3262 104.465C59.3262 102.551 58.6816 101.447 57.6172 101.447C56.543 101.447 55.9082 102.551 55.9082 104.465C55.9082 106.379 56.543 107.473 57.6172 107.473ZM63.4668 100.832C64.6973 100.842 65.9375 101.662 65.9375 104.162C65.9375 106.506 65.0586 108.098 63.3691 108.098C62.168 108.098 61.3379 107.336 61.1816 106.213H61.875C62.0117 106.945 62.5293 107.473 63.3691 107.473C64.5801 107.473 65.2832 106.379 65.2832 104.436H65.2051C64.8438 105.061 64.1504 105.451 63.3691 105.451C62.1289 105.451 61.1133 104.484 61.1133 103.156C61.1133 101.877 62.041 100.822 63.4668 100.832ZM63.4668 101.447C62.5 101.447 61.7773 102.219 61.7871 103.146C61.7871 104.094 62.5 104.836 63.4668 104.836C64.4531 104.836 65.2148 104.016 65.1562 103.107C65.0879 102.18 64.4043 101.447 63.4668 101.447ZM67.7539 107.043C67.4609 107.043 67.2266 106.809 67.2266 106.525C67.2266 106.232 67.4609 105.998 67.7539 105.998C68.0371 105.998 68.2715 106.232 68.2715 106.525C68.2715 106.809 68.0371 107.043 67.7539 107.043ZM67.7539 102.932C67.4609 102.932 67.2266 102.697 67.2266 102.414C67.2266 102.121 67.4609 101.887 67.7539 101.887C68.0371 101.887 68.2715 102.121 68.2715 102.414C68.2715 102.697 68.0371 102.932 67.7539 102.932ZM71.8555 108.098C70.6152 108.098 69.6875 107.316 69.6582 106.223H70.332C70.3711 106.945 71.0156 107.482 71.8555 107.482C72.8418 107.482 73.5547 106.74 73.5449 105.773C73.5449 104.758 72.793 104.055 71.8066 104.045C71.2109 104.045 70.7227 104.24 70.4395 104.699H69.7461L70.2344 100.93H73.916V101.555H70.8203L70.5176 103.889H70.5762C70.8887 103.596 71.3965 103.42 71.9238 103.42C73.2227 103.42 74.2285 104.387 74.2285 105.764C74.2285 107.111 73.2324 108.098 71.8555 108.098ZM77.8613 108.098C76.6309 108.088 75.4004 107.268 75.4004 104.748C75.4004 102.414 76.2695 100.832 77.9688 100.832C79.1699 100.832 79.9902 101.594 80.1465 102.697H79.4531C79.3164 101.984 78.8086 101.457 77.9688 101.457C76.748 101.457 76.0547 102.551 76.0547 104.475H76.1328C76.4941 103.85 77.1777 103.459 77.9688 103.459C79.1992 103.459 80.2246 104.426 80.2246 105.764C80.2246 107.053 79.2871 108.107 77.8613 108.098ZM77.8613 107.482C78.8281 107.482 79.5508 106.711 79.5508 105.764C79.5508 104.836 78.8281 104.074 77.8711 104.074C76.875 104.074 76.123 104.895 76.1719 105.803C76.2402 106.75 76.9238 107.482 77.8613 107.482Z" fill="#6C7381"/>
<path d="M96.4062 46.9395V49.0586H98.291V46.9395H99.0039V52.623H95.6738V46.9395H96.4062ZM96.4062 51.9883H98.291V49.6836H96.4062V51.9883ZM102.793 46.1094V54.791H102.051V50.1914H100.84V54.3516H100.107V46.2949H100.84V49.5566H102.051V46.1094H102.793ZM111.191 46.1191V52.5449H110.42V50.2109H108.369V51.0605H104.434V46.6953H105.195V48.2383H107.617V46.6953H108.369V47.7109H110.42V46.1191H111.191ZM111.387 53.9609V54.6055H105.576V51.9102H106.348V53.9609H111.387ZM105.195 50.4258H107.617V48.8438H105.195V50.4258ZM108.369 49.5762H110.42V48.3555H108.369V49.5762Z" fill="black"/>
<path d="M97.6758 64.7832C98.9551 64.793 99.8633 65.9648 99.873 67.8105C99.8633 69.6562 98.9551 70.8281 97.6758 70.8281C96.3867 70.8281 95.4883 69.6562 95.4883 67.8105C95.4883 65.9648 96.3867 64.793 97.6758 64.7832ZM97.6758 65.4668C96.8164 65.4766 96.2109 66.3945 96.2109 67.8105C96.2109 69.2266 96.8164 70.1445 97.6758 70.1445C98.5449 70.1445 99.1309 69.2266 99.1309 67.8105C99.1309 66.3945 98.5449 65.4766 97.6758 65.4668ZM102.07 64.1094V67.5762H103.525V68.2402H102.07V72.791H101.309V64.1094H102.07ZM107.148 65.877C107.148 66.9805 108.096 67.957 109.395 68.3281L109.033 68.9336C108.008 68.626 107.183 67.957 106.787 67.0879C106.396 68.04 105.576 68.7773 104.541 69.1191L104.17 68.5234C105.459 68.1035 106.387 67.0586 106.387 65.877V65.7598H104.385V65.1445H106.387V64.0703H107.158V65.1445H109.141V65.7598H107.148V65.877ZM111.162 64.1191V69.2656H110.4V64.1191H111.162ZM111.162 69.7051V72.6738H105.518V69.7051H111.162ZM106.27 70.3301V72.0488H110.41V70.3301H106.27ZM115.713 65.3691C115.703 66.6387 116.621 67.7617 117.91 68.2109L117.52 68.8164C116.514 68.4502 115.718 67.6982 115.332 66.7363C114.946 67.7666 114.141 68.5771 113.125 68.9727L112.725 68.3672C114.023 67.8887 114.932 66.6777 114.932 65.3691V64.5391H115.713V65.3691ZM119.805 69.7734V72.791H119.043V70.4082H113.965V69.7734H119.805ZM119.805 64.1094V69.3438H119.043V64.1094H119.805ZM124.189 66.4434C124.189 67.9766 125.205 69.5488 126.436 70.1543L125.967 70.7695C125.01 70.2666 124.209 69.2412 123.828 68.0352C123.438 69.3193 122.617 70.4131 121.641 70.9355L121.152 70.3203C122.422 69.6953 123.428 68.0254 123.438 66.4434V64.8613H124.189V66.4434ZM127.998 64.1094V67.6348H129.453V68.2988H127.998V72.791H127.236V64.1094H127.998Z" fill="black"/>
<path d="M97.7441 82.6367C98.4766 82.6318 99.1016 82.9053 99.502 83.3691H101.777V82.1094H102.549V87.2559H101.777V86.0156H99.5117C99.1016 86.4795 98.4766 86.7529 97.7441 86.748C96.4453 86.7578 95.4883 85.9082 95.4883 84.6973C95.4883 83.4766 96.4453 82.627 97.7441 82.6367ZM97.7441 83.3008C96.8555 83.291 96.2207 83.877 96.2207 84.6973C96.2207 85.5078 96.8555 86.0938 97.7441 86.0938C98.6035 86.0938 99.248 85.5078 99.248 84.6973C99.248 83.877 98.6035 83.291 97.7441 83.3008ZM99.668 87.4609C101.465 87.4609 102.578 88.0664 102.578 89.1113C102.578 90.166 101.465 90.7715 99.668 90.7715C97.8613 90.7715 96.7578 90.166 96.7578 89.1113C96.7578 88.0664 97.8613 87.4609 99.668 87.4609ZM99.668 88.0566C98.3398 88.0566 97.5098 88.457 97.5098 89.1113C97.5098 89.7656 98.3398 90.1562 99.668 90.1562C101.006 90.1562 101.826 89.7656 101.826 89.1113C101.826 88.457 101.006 88.0566 99.668 88.0566ZM99.873 83.9941C99.9463 84.209 99.9902 84.4434 99.9902 84.6973C99.9902 84.9414 99.9463 85.1709 99.873 85.3809H101.777V83.9941H99.873ZM112.07 83.4277V84.0625H110.781V85.2734H112.07V85.918H110.781V87.2656H110.02V82.1094H110.781V83.4277H112.07ZM106.436 82.6367C107.754 82.627 108.711 83.4668 108.721 84.6777C108.711 85.8887 107.754 86.709 106.436 86.7188C105.117 86.709 104.15 85.8887 104.16 84.6777C104.15 83.4668 105.117 82.627 106.436 82.6367ZM106.436 83.291C105.557 83.2812 104.902 83.8574 104.912 84.6777C104.902 85.498 105.557 86.0645 106.436 86.0742C107.324 86.0645 107.969 85.498 107.969 84.6777C107.969 83.8574 107.324 83.2812 106.436 83.291ZM107.998 87.5293C109.766 87.5391 110.859 88.125 110.859 89.1602C110.859 90.1758 109.766 90.7715 107.998 90.7715C106.221 90.7715 105.117 90.1758 105.117 89.1602C105.117 88.125 106.221 87.5391 107.998 87.5293ZM107.998 88.1543C106.689 88.1543 105.879 88.5254 105.889 89.1602C105.879 89.7852 106.689 90.1562 107.998 90.1562C109.316 90.1562 110.117 89.7852 110.117 89.1602C110.117 88.5254 109.316 88.1543 107.998 88.1543ZM120.059 82.1094V90.791H119.326V82.1094H120.059ZM118.301 82.3242V90.3418H117.578V85.8691H116.113V85.2441H117.578V82.3242H118.301ZM115.186 84.5898C115.186 86.0938 115.859 87.5879 117.061 88.2812L116.592 88.8477C115.737 88.335 115.132 87.3975 114.834 86.2891C114.517 87.4854 113.887 88.5059 113.018 89.0527L112.529 88.4766C113.74 87.7539 114.443 86.1719 114.443 84.5898V83.7695H112.773V83.1348H116.777V83.7695H115.186V84.5898Z" fill="black"/>
<path d="M96.4746 100.48V101.73H99.0039V100.48H99.7656V104.26H95.7227V100.48H96.4746ZM96.4746 103.635H99.0039V102.326H96.4746V103.635ZM102.139 100.109V101.994H103.447V102.639H102.139V104.602H101.377V100.109H102.139ZM102.139 105.012V107.111H97.373V108.068H102.461V108.693H96.6211V106.525H101.377V105.627H96.6016V105.012H102.139ZM110.713 100.109V103.527H112.168V104.191H110.713V108.791H109.951V100.109H110.713ZM105.117 100.852V103.146H107.656V100.852H108.418V106.711H104.355V100.852H105.117ZM105.117 106.066H107.656V103.762H105.117V106.066ZM119.424 100.109V102.307H120.732V102.961H119.424V105.227H118.662V100.109H119.424ZM119.424 105.705V108.811H118.662V106.32H113.74V105.705H119.424ZM116.914 100.725V101.359H113.809V103.928C115.552 103.918 116.543 103.874 117.705 103.635L117.803 104.26C116.582 104.504 115.547 104.553 113.721 104.553H113.047V100.725H116.914ZM126.094 100.783V101.242C126.084 101.809 126.084 102.678 125.869 103.811L125.098 103.752C125.308 102.712 125.327 101.975 125.342 101.428H121.768V100.783H126.094ZM123.857 102.707V104.572C124.819 104.533 125.815 104.465 126.719 104.338L126.768 104.904C124.951 105.217 122.852 105.256 121.309 105.256L121.23 104.621C121.792 104.616 122.427 104.611 123.096 104.592V102.707H123.857ZM128.086 100.109V102.941H129.355V103.596H128.086V106.643H127.305V100.109H128.086ZM128.369 107.961V108.605H122.568V106.057H123.34V107.961H128.369ZM137.09 100.109V108.811H136.328V100.109H137.09ZM134.453 100.92V104.006H131.211V106.057C132.651 106.057 133.936 105.993 135.488 105.744L135.566 106.389C133.965 106.643 132.646 106.701 131.152 106.701H130.43V103.381H133.682V101.555H130.41V100.92H134.453Z" fill="black"/>
<path d="M25.17 21.84H25.99V24.09H25.17V21.84ZM25.58 17.32C26.22 17.32 26.7867 17.42 27.28 17.62C27.7733 17.8133 28.16 18.0867 28.44 18.44C28.7267 18.7933 28.87 19.21 28.87 19.69C28.87 20.17 28.7267 20.59 28.44 20.95C28.16 21.3033 27.7733 21.5767 27.28 21.77C26.7867 21.9633 26.22 22.06 25.58 22.06C24.9467 22.06 24.38 21.9633 23.88 21.77C23.3867 21.5767 23 21.3033 22.72 20.95C22.44 20.59 22.3 20.17 22.3 19.69C22.3 19.21 22.44 18.7933 22.72 18.44C23 18.0867 23.3867 17.8133 23.88 17.62C24.38 17.42 24.9467 17.32 25.58 17.32ZM25.58 17.99C25.1 17.99 24.6733 18.06 24.3 18.2C23.9267 18.34 23.6333 18.54 23.42 18.8C23.2067 19.0533 23.1 19.35 23.1 19.69C23.1 20.03 23.2067 20.33 23.42 20.59C23.6333 20.85 23.9267 21.05 24.3 21.19C24.6733 21.33 25.1 21.4 25.58 21.4C26.06 21.4 26.4867 21.33 26.86 21.19C27.2333 21.05 27.5267 20.85 27.74 20.59C27.96 20.33 28.07 20.03 28.07 19.69C28.07 19.35 27.96 19.0533 27.74 18.8C27.5267 18.54 27.2333 18.34 26.86 18.2C26.4867 18.06 26.06 17.99 25.58 17.99ZM21.5 23.93H29.7V24.62H21.5V23.93ZM31.7992 18.88H37.9292V19.56H31.7992V18.88ZM30.6892 20.44H38.8892V21.12H30.6892V20.44ZM31.7992 16.87H32.6092V19.2H31.7992V16.87ZM31.7092 21.92H37.8492V24.05H32.5592V25.21H31.7292V23.43H37.0292V22.57H31.7092V21.92ZM31.7292 25H38.1592V25.66H31.7292V25ZM45.8709 17.8H46.6609C46.6609 18.3867 46.6076 18.9633 46.5009 19.53C46.4009 20.0967 46.2243 20.6433 45.9709 21.17C45.7176 21.69 45.3676 22.18 44.9209 22.64C44.4743 23.1 43.9109 23.52 43.2309 23.9L42.7609 23.31C43.3676 22.9767 43.8709 22.61 44.2709 22.21C44.6709 21.81 44.9876 21.3833 45.2209 20.93C45.4609 20.47 45.6276 19.99 45.7209 19.49C45.8209 18.9833 45.8709 18.4633 45.8709 17.93V17.8ZM43.1909 17.8H46.1809V18.48H43.1909V17.8ZM45.7709 19.89V20.52L42.8709 20.81L42.7509 20.09L45.7709 19.89ZM45.9509 20.3H48.0309V20.98H45.9509V20.3ZM49.6009 16.73H50.4009V25.78H49.6009V16.73ZM47.7209 16.97H48.5009V25.32H47.7209V16.97ZM54.3202 17.43C54.7602 17.43 55.1502 17.56 55.4902 17.82C55.8302 18.0733 56.0935 18.4367 56.2802 18.91C56.4735 19.3833 56.5702 19.94 56.5702 20.58C56.5702 21.22 56.4735 21.7767 56.2802 22.25C56.0935 22.7233 55.8302 23.09 55.4902 23.35C55.1502 23.61 54.7602 23.74 54.3202 23.74C53.8868 23.74 53.4968 23.61 53.1502 23.35C52.8102 23.09 52.5435 22.7233 52.3502 22.25C52.1635 21.7767 52.0702 21.22 52.0702 20.58C52.0702 19.94 52.1635 19.3833 52.3502 18.91C52.5435 18.4367 52.8102 18.0733 53.1502 17.82C53.4968 17.56 53.8868 17.43 54.3202 17.43ZM54.3202 18.17C54.0335 18.17 53.7802 18.27 53.5602 18.47C53.3402 18.6633 53.1668 18.9433 53.0402 19.31C52.9202 19.67 52.8602 20.0933 52.8602 20.58C52.8602 21.0667 52.9202 21.4933 53.0402 21.86C53.1668 22.22 53.3402 22.5 53.5602 22.7C53.7802 22.9 54.0335 23 54.3202 23C54.6135 23 54.8702 22.9 55.0902 22.7C55.3102 22.5 55.4802 22.22 55.6002 21.86C55.7268 21.4933 55.7902 21.0667 55.7902 20.58C55.7902 20.0933 55.7268 19.67 55.6002 19.31C55.4802 18.9433 55.3102 18.6633 55.0902 18.47C54.8702 18.27 54.6135 18.17 54.3202 18.17ZM58.5302 16.73H59.3502V25.79H58.5302V16.73ZM56.3002 20.18H58.9002V20.85H56.3002V20.18ZM70.5119 16.73H71.3419V25.78H70.5119V16.73ZM67.8619 17.71H68.6819C68.6819 18.3633 68.6019 18.9933 68.4419 19.6C68.2885 20.2067 68.0452 20.7833 67.7119 21.33C67.3785 21.87 66.9452 22.3733 66.4119 22.84C65.8785 23.3067 65.2319 23.7233 64.4719 24.09L64.0319 23.42C64.9052 23 65.6252 22.51 66.1919 21.95C66.7585 21.39 67.1785 20.7667 67.4519 20.08C67.7252 19.3867 67.8619 18.64 67.8619 17.84V17.71ZM64.4519 17.71H68.2119V18.38H64.4519V17.71ZM73.1111 21.71H81.3111V22.39H73.1111V21.71ZM74.1511 16.96H80.2611V19.16H74.9911V20.37H74.1711V18.54H79.4411V17.62H74.1511V16.96ZM74.1711 20.1H80.4511V20.76H74.1711V20.1ZM76.8011 20.44H77.6211V22.04H76.8011V20.44ZM74.0311 23.08H80.3111V25.69H79.4811V23.75H74.0311V23.08Z" fill="black"/>
<path d="M87.5547 24V23.5938L89.4688 21.5234C90.1953 20.7344 90.4922 20.3359 90.5 19.8047C90.4922 19.1797 89.9844 18.7578 89.3125 18.7578C88.5938 18.7578 88.1328 19.2266 88.1328 19.8906H87.6016C87.6016 18.9375 88.3359 18.2656 89.3281 18.2656C90.3125 18.2656 91.0156 18.9375 91.0156 19.8047C91.0156 20.4375 90.7266 20.9141 89.75 21.9453L88.3438 23.4609V23.5H91.1875V24H87.5547ZM94.0469 24.0781C92.8359 24.0781 92.1328 23.0078 92.1328 21.1719C92.1328 19.3438 92.8438 18.2656 94.0469 18.2656C95.2422 18.2656 95.9531 19.3438 95.9531 21.1719C95.9531 23.0078 95.25 24.0781 94.0469 24.0781ZM94.0469 23.5781C94.9062 23.5781 95.4141 22.7031 95.4141 21.1719C95.4141 19.6406 94.8984 18.7578 94.0469 18.7578C93.1875 18.7578 92.6797 19.6406 92.6797 21.1719C92.6797 22.7031 93.1875 23.5781 94.0469 23.5781ZM96.9297 24V23.5938L98.8438 21.5234C99.5703 20.7344 99.8672 20.3359 99.875 19.8047C99.8672 19.1797 99.3594 18.7578 98.6875 18.7578C97.9688 18.7578 97.5078 19.2266 97.5078 19.8906H96.9766C96.9766 18.9375 97.7109 18.2656 98.7031 18.2656C99.6875 18.2656 100.391 18.9375 100.391 19.8047C100.391 20.4375 100.102 20.9141 99.125 21.9453L97.7188 23.4609V23.5H100.562V24H96.9297ZM103.391 24.0781C102.398 24.0781 101.656 23.4531 101.633 22.5781H102.172C102.203 23.1562 102.719 23.5859 103.391 23.5859C104.18 23.5859 104.75 22.9922 104.742 22.2188C104.742 21.4062 104.141 20.8438 103.352 20.8359C102.875 20.8359 102.484 20.9922 102.258 21.3594H101.703L102.094 18.3438H105.039V18.8438H102.562L102.32 20.7109H102.367C102.617 20.4766 103.023 20.3359 103.445 20.3359C104.484 20.3359 105.289 21.1094 105.289 22.2109C105.289 23.2891 104.492 24.0781 103.391 24.0781ZM108.648 20.9219V21.4219H106.273V20.9219H108.648ZM111.492 24.0781C110.281 24.0781 109.578 23.0078 109.578 21.1719C109.578 19.3438 110.289 18.2656 111.492 18.2656C112.688 18.2656 113.398 19.3438 113.398 21.1719C113.398 23.0078 112.695 24.0781 111.492 24.0781ZM111.492 23.5781C112.352 23.5781 112.859 22.7031 112.859 21.1719C112.859 19.6406 112.344 18.7578 111.492 18.7578C110.633 18.7578 110.125 19.6406 110.125 21.1719C110.125 22.7031 110.633 23.5781 111.492 23.5781ZM116.219 24.0781C115.078 24.0781 114.258 23.4141 114.258 22.5078C114.258 21.7969 114.766 21.1875 115.438 21.0703V21.0391C114.859 20.8906 114.469 20.3672 114.469 19.75C114.469 18.8984 115.219 18.2656 116.219 18.2656C117.211 18.2656 117.969 18.8984 117.969 19.75C117.969 20.3672 117.578 20.8906 117.008 21.0391V21.0703C117.672 21.1875 118.18 21.7969 118.188 22.5078C118.18 23.4141 117.352 24.0781 116.219 24.0781ZM116.219 23.5859C117.062 23.5859 117.633 23.1172 117.633 22.4766C117.633 21.8203 117.031 21.3125 116.219 21.3125C115.414 21.3125 114.805 21.8203 114.812 22.4766C114.805 23.1172 115.375 23.5859 116.219 23.5859ZM116.219 20.8438C116.906 20.8438 117.43 20.3984 117.43 19.7812C117.43 19.1797 116.922 18.75 116.219 18.75C115.508 18.75 115.008 19.1797 115.008 19.7812C115.008 20.3984 115.523 20.8438 116.219 20.8438ZM121.516 20.9219V21.4219H119.141V20.9219H121.516ZM124.383 18.3438V24H123.82V18.9219H123.789L122.453 19.8047V19.2344L123.805 18.3438H124.383ZM127.836 24.0781C126.852 24.0703 125.867 23.4141 125.867 21.3984C125.867 19.5312 126.562 18.2656 127.922 18.2656C128.883 18.2656 129.539 18.875 129.664 19.7578H129.109C129 19.1875 128.594 18.7656 127.922 18.7656C126.945 18.7656 126.391 19.6406 126.391 21.1797H126.453C126.742 20.6797 127.289 20.3672 127.922 20.3672C128.906 20.3672 129.727 21.1406 129.727 22.2109C129.727 23.2422 128.977 24.0859 127.836 24.0781ZM127.836 23.5859C128.609 23.5859 129.188 22.9688 129.188 22.2109C129.188 21.4688 128.609 20.8594 127.844 20.8594C127.047 20.8594 126.445 21.5156 126.484 22.2422C126.539 23 127.086 23.5859 127.836 23.5859Z" fill="#707070"/>
</svg>
