<svg width="253" height="155" viewBox="0 0 253 155" fill="none" xmlns="http://www.w3.org/2000/svg">
<rect x="0.15" y="0.15" width="252.7" height="154.7" rx="5.85" fill="#F9FAFB"/>
<rect x="0.15" y="0.15" width="252.7" height="154.7" rx="5.85" stroke="#DADADA" stroke-width="0.3"/>
<path d="M18.17 43.84H18.99V46.09H18.17V43.84ZM18.58 39.32C19.22 39.32 19.7867 39.42 20.28 39.62C20.7733 39.8133 21.16 40.0867 21.44 40.44C21.7267 40.7933 21.87 41.21 21.87 41.69C21.87 42.17 21.7267 42.59 21.44 42.95C21.16 43.3033 20.7733 43.5767 20.28 43.77C19.7867 43.9633 19.22 44.06 18.58 44.06C17.9467 44.06 17.38 43.9633 16.88 43.77C16.3867 43.5767 16 43.3033 15.72 42.95C15.44 42.59 15.3 42.17 15.3 41.69C15.3 41.21 15.44 40.7933 15.72 40.44C16 40.0867 16.3867 39.8133 16.88 39.62C17.38 39.42 17.9467 39.32 18.58 39.32ZM18.58 39.99C18.1 39.99 17.6733 40.06 17.3 40.2C16.9267 40.34 16.6333 40.54 16.42 40.8C16.2067 41.0533 16.1 41.35 16.1 41.69C16.1 42.03 16.2067 42.33 16.42 42.59C16.6333 42.85 16.9267 43.05 17.3 43.19C17.6733 43.33 18.1 43.4 18.58 43.4C19.06 43.4 19.4867 43.33 19.86 43.19C20.2333 43.05 20.5267 42.85 20.74 42.59C20.96 42.33 21.07 42.03 21.07 41.69C21.07 41.35 20.96 41.0533 20.74 40.8C20.5267 40.54 20.2333 40.34 19.86 40.2C19.4867 40.06 19.06 39.99 18.58 39.99ZM14.5 45.93H22.7V46.62H14.5V45.93ZM28.4892 41.23H30.7792V41.91H28.4892V41.23ZM30.3092 38.74H31.1392V45.37H30.3092V38.74ZM25.3692 46.9H31.3892V47.58H25.3692V46.9ZM25.3692 44.78H26.1892V47.24H25.3692V44.78ZM25.9992 39.86H26.6792V40.59C26.6792 41.1367 26.5726 41.6533 26.3592 42.14C26.1526 42.62 25.8592 43.04 25.4792 43.4C25.0992 43.7533 24.6592 44.0267 24.1592 44.22L23.7292 43.55C24.0626 43.43 24.3659 43.27 24.6392 43.07C24.9192 42.87 25.1626 42.64 25.3692 42.38C25.5759 42.12 25.7326 41.8367 25.8392 41.53C25.9459 41.2233 25.9992 40.91 25.9992 40.59V39.86ZM26.1592 39.86H26.8392V40.59C26.8392 40.9767 26.9292 41.3533 27.1092 41.72C27.2892 42.0867 27.5459 42.4133 27.8792 42.7C28.2126 42.98 28.5959 43.1967 29.0292 43.35L28.6092 44.01C28.1159 43.83 27.6859 43.57 27.3192 43.23C26.9526 42.8833 26.6659 42.4833 26.4592 42.03C26.2592 41.5767 26.1592 41.0967 26.1592 40.59V39.86ZM23.9892 39.47H28.8192V40.15H23.9892V39.47Z" fill="#515151"/>
<path d="M18.17 99.84H18.99V102.09H18.17V99.84ZM18.58 95.32C19.22 95.32 19.7867 95.42 20.28 95.62C20.7733 95.8133 21.16 96.0867 21.44 96.44C21.7267 96.7933 21.87 97.21 21.87 97.69C21.87 98.17 21.7267 98.59 21.44 98.95C21.16 99.3033 20.7733 99.5767 20.28 99.77C19.7867 99.9633 19.22 100.06 18.58 100.06C17.9467 100.06 17.38 99.9633 16.88 99.77C16.3867 99.5767 16 99.3033 15.72 98.95C15.44 98.59 15.3 98.17 15.3 97.69C15.3 97.21 15.44 96.7933 15.72 96.44C16 96.0867 16.3867 95.8133 16.88 95.62C17.38 95.42 17.9467 95.32 18.58 95.32ZM18.58 95.99C18.1 95.99 17.6733 96.06 17.3 96.2C16.9267 96.34 16.6333 96.54 16.42 96.8C16.2067 97.0533 16.1 97.35 16.1 97.69C16.1 98.03 16.2067 98.33 16.42 98.59C16.6333 98.85 16.9267 99.05 17.3 99.19C17.6733 99.33 18.1 99.4 18.58 99.4C19.06 99.4 19.4867 99.33 19.86 99.19C20.2333 99.05 20.5267 98.85 20.74 98.59C20.96 98.33 21.07 98.03 21.07 97.69C21.07 97.35 20.96 97.0533 20.74 96.8C20.5267 96.54 20.2333 96.34 19.86 96.2C19.4867 96.06 19.06 95.99 18.58 95.99ZM14.5 101.93H22.7V102.62H14.5V101.93ZM28.4892 97.23H30.7792V97.91H28.4892V97.23ZM30.3092 94.74H31.1392V101.37H30.3092V94.74ZM25.3692 102.9H31.3892V103.58H25.3692V102.9ZM25.3692 100.78H26.1892V103.24H25.3692V100.78ZM25.9992 95.86H26.6792V96.59C26.6792 97.1367 26.5726 97.6533 26.3592 98.14C26.1526 98.62 25.8592 99.04 25.4792 99.4C25.0992 99.7533 24.6592 100.027 24.1592 100.22L23.7292 99.55C24.0626 99.43 24.3659 99.27 24.6392 99.07C24.9192 98.87 25.1626 98.64 25.3692 98.38C25.5759 98.12 25.7326 97.8367 25.8392 97.53C25.9459 97.2233 25.9992 96.91 25.9992 96.59V95.86ZM26.1592 95.86H26.8392V96.59C26.8392 96.9767 26.9292 97.3533 27.1092 97.72C27.2892 98.0867 27.5459 98.4133 27.8792 98.7C28.2126 98.98 28.5959 99.1967 29.0292 99.35L28.6092 100.01C28.1159 99.83 27.6859 99.57 27.3192 99.23C26.9526 98.8833 26.6659 98.4833 26.4592 98.03C26.2592 97.5767 26.1592 97.0967 26.1592 96.59V95.86ZM23.9892 95.47H28.8192V96.15H23.9892V95.47Z" fill="#515151"/>
<rect x="14.15" y="57.15" width="51.7" height="24.7" rx="5.85" fill="#DDEFFF" stroke="#DADADA" stroke-width="0.3"/>
<rect x="14.15" y="113.15" width="51.7" height="24.7" rx="5.85" fill="#E6E6A8" stroke="#DADADA" stroke-width="0.3"/>
<rect x="70.15" y="57.15" width="51.7" height="24.7" rx="5.85" fill="#FFF0DD" stroke="#DADADA" stroke-width="0.3"/>
<rect x="70.15" y="113.15" width="51.7" height="24.7" rx="5.85" fill="#FFF0DD" stroke="#DADADA" stroke-width="0.3"/>
<rect x="126.15" y="57.15" width="41.7" height="24.7" rx="5.85" fill="#DFEFDE" stroke="#DADADA" stroke-width="0.3"/>
<rect x="126.15" y="113.15" width="41.7" height="24.7" rx="5.85" fill="#F0FFF0" stroke="#DADADA" stroke-width="0.3"/>
<path d="M24.9 66.43C25.3467 66.43 25.74 66.56 26.08 66.82C26.42 67.0733 26.6867 67.4367 26.88 67.91C27.0733 68.3833 27.17 68.94 27.17 69.58C27.17 70.22 27.0733 70.7767 26.88 71.25C26.6867 71.7233 26.42 72.09 26.08 72.35C25.74 72.61 25.3467 72.74 24.9 72.74C24.46 72.74 24.0667 72.61 23.72 72.35C23.38 72.09 23.1133 71.7233 22.92 71.25C22.7267 70.7767 22.63 70.22 22.63 69.58C22.63 68.94 22.7267 68.3833 22.92 67.91C23.1133 67.4367 23.38 67.0733 23.72 66.82C24.0667 66.56 24.46 66.43 24.9 66.43ZM24.9 67.17C24.6133 67.17 24.3567 67.27 24.13 67.47C23.91 67.6633 23.7367 67.9433 23.61 68.31C23.4833 68.67 23.42 69.0933 23.42 69.58C23.42 70.0667 23.4833 70.4933 23.61 70.86C23.7367 71.22 23.91 71.5 24.13 71.7C24.3567 71.9 24.6167 72 24.91 72C25.1967 72 25.45 71.9 25.67 71.7C25.8967 71.5 26.07 71.22 26.19 70.86C26.3167 70.4933 26.38 70.0667 26.38 69.58C26.38 69.0933 26.3167 68.67 26.19 68.31C26.07 67.9433 25.8967 67.6633 25.67 67.47C25.45 67.27 25.1933 67.17 24.9 67.17ZM28.62 65.73H29.45V74.78H28.62V65.73ZM29.26 69.34H30.93V70.04H29.26V69.34ZM34.1492 67.18H34.8292V67.57C34.8292 68.0967 34.7226 68.5867 34.5092 69.04C34.2959 69.4867 33.9959 69.8767 33.6092 70.21C33.2292 70.5367 32.7826 70.7833 32.2692 70.95L31.8692 70.31C32.2092 70.1967 32.5159 70.05 32.7892 69.87C33.0692 69.6833 33.3092 69.47 33.5092 69.23C33.7159 68.99 33.8726 68.73 33.9792 68.45C34.0926 68.1633 34.1492 67.87 34.1492 67.57V67.18ZM34.2892 67.18H34.9692V67.57C34.9692 67.85 35.0259 68.1233 35.1392 68.39C35.2526 68.65 35.4126 68.8933 35.6192 69.12C35.8259 69.34 36.0692 69.5367 36.3492 69.71C36.6359 69.8767 36.9459 70.01 37.2792 70.11L36.8892 70.76C36.3826 70.6067 35.9326 70.3767 35.5392 70.07C35.1459 69.7567 34.8392 69.3867 34.6192 68.96C34.3992 68.5333 34.2892 68.07 34.2892 67.57V67.18ZM32.0992 66.79H37.0092V67.46H32.0992V66.79ZM34.1492 65.69H34.9792V67.09H34.1492V65.69ZM38.2792 65.74H39.1092V71.09H38.2792V65.74ZM33.2692 71.55H39.1092V74.66H33.2692V71.55ZM38.2992 72.22H34.0792V73.98H38.2992V72.22ZM43.2484 66.16H43.9384V67.04C43.9384 67.6133 43.8318 68.15 43.6184 68.65C43.4118 69.15 43.1151 69.5867 42.7284 69.96C42.3484 70.3267 41.9051 70.6067 41.3984 70.8L40.9784 70.14C41.3184 70.0133 41.6251 69.8467 41.8984 69.64C42.1784 69.4267 42.4184 69.1833 42.6184 68.91C42.8251 68.6367 42.9818 68.34 43.0884 68.02C43.1951 67.7 43.2484 67.3733 43.2484 67.04V66.16ZM43.3984 66.16H44.0884V67.04C44.0884 67.3667 44.1418 67.68 44.2484 67.98C44.3618 68.28 44.5184 68.56 44.7184 68.82C44.9184 69.08 45.1551 69.31 45.4284 69.51C45.7084 69.71 46.0151 69.8667 46.3484 69.98L45.9384 70.64C45.4384 70.4533 44.9951 70.1867 44.6084 69.84C44.2284 69.4867 43.9318 69.07 43.7184 68.59C43.5051 68.11 43.3984 67.5933 43.3984 67.04V66.16ZM42.2684 71.63H48.3084V74.78H47.4784V72.31H42.2684V71.63ZM47.4784 65.73H48.3084V71.17H47.4784V65.73ZM52.3077 66.51H52.9877V68.13C52.9877 68.63 52.9243 69.12 52.7977 69.6C52.6777 70.08 52.5043 70.53 52.2777 70.95C52.051 71.37 51.7843 71.7433 51.4777 72.07C51.171 72.3967 50.8377 72.6567 50.4777 72.85L49.9677 72.18C50.301 72.0133 50.6077 71.79 50.8877 71.51C51.1743 71.2233 51.4243 70.8967 51.6377 70.53C51.851 70.1633 52.0143 69.7767 52.1277 69.37C52.2477 68.9567 52.3077 68.5433 52.3077 68.13V66.51ZM52.4577 66.51H53.1277V68.13C53.1277 68.53 53.1843 68.9267 53.2977 69.32C53.4177 69.7133 53.5843 70.0833 53.7977 70.43C54.011 70.7767 54.2543 71.0867 54.5277 71.36C54.8077 71.6333 55.1077 71.85 55.4277 72.01L54.9177 72.67C54.5643 72.49 54.2377 72.2433 53.9377 71.93C53.6443 71.6167 53.3843 71.26 53.1577 70.86C52.9377 70.4533 52.7643 70.02 52.6377 69.56C52.5177 69.0933 52.4577 68.6167 52.4577 68.13V66.51ZM56.2177 65.73H57.0477V74.78H56.2177V65.73ZM56.8577 69.39H58.5277V70.1H56.8577V69.39Z" fill="black"/>
<path d="M29.11 121.73H29.94V130.79H29.11V121.73ZM27.17 125.02H29.35V125.7H27.17V125.02ZM24.79 123.02H25.46V124.38C25.46 124.867 25.3933 125.347 25.26 125.82C25.1333 126.287 24.9533 126.727 24.72 127.14C24.4933 127.553 24.2233 127.92 23.91 128.24C23.6033 128.56 23.2733 128.813 22.92 129L22.42 128.34C22.7467 128.18 23.0533 127.96 23.34 127.68C23.6267 127.4 23.8767 127.083 24.09 126.73C24.31 126.37 24.48 125.99 24.6 125.59C24.7267 125.183 24.79 124.78 24.79 124.38V123.02ZM24.97 123.02H25.63V124.38C25.63 124.753 25.69 125.133 25.81 125.52C25.93 125.9 26.0967 126.26 26.31 126.6C26.53 126.94 26.7833 127.247 27.07 127.52C27.3567 127.787 27.6633 127.997 27.99 128.15L27.5 128.81C27.14 128.63 26.8067 128.387 26.5 128.08C26.1933 127.773 25.9233 127.423 25.69 127.03C25.4633 126.63 25.2867 126.203 25.16 125.75C25.0333 125.297 24.97 124.84 24.97 124.38V123.02ZM22.76 122.66H27.67V123.34H22.76V122.66ZM32.2292 122.29H33.0492V126.26H32.2292V122.29ZM32.2292 126.08H32.8992C33.3992 126.08 33.8626 126.073 34.2892 126.06C34.7159 126.04 35.1259 126.007 35.5192 125.96C35.9192 125.913 36.3292 125.85 36.7492 125.77L36.8592 126.46C36.4259 126.54 36.0026 126.607 35.5892 126.66C35.1826 126.707 34.7592 126.74 34.3192 126.76C33.8859 126.78 33.4126 126.79 32.8992 126.79H32.2292V126.08ZM33.0892 127.63H39.1392V130.78H38.3092V128.32H33.0892V127.63ZM38.3092 121.73H39.1392V127.2H38.3092V121.73ZM35.7692 122.83H38.5292V123.48H35.7692V122.83ZM35.7692 124.47H38.5292V125.12H35.7692V124.47ZM43.2484 122.16H43.9384V123.04C43.9384 123.613 43.8318 124.15 43.6184 124.65C43.4118 125.15 43.1151 125.587 42.7284 125.96C42.3484 126.327 41.9051 126.607 41.3984 126.8L40.9784 126.14C41.3184 126.013 41.6251 125.847 41.8984 125.64C42.1784 125.427 42.4184 125.183 42.6184 124.91C42.8251 124.637 42.9818 124.34 43.0884 124.02C43.1951 123.7 43.2484 123.373 43.2484 123.04V122.16ZM43.3984 122.16H44.0884V123.04C44.0884 123.367 44.1418 123.68 44.2484 123.98C44.3618 124.28 44.5184 124.56 44.7184 124.82C44.9184 125.08 45.1551 125.31 45.4284 125.51C45.7084 125.71 46.0151 125.867 46.3484 125.98L45.9384 126.64C45.4384 126.453 44.9951 126.187 44.6084 125.84C44.2284 125.487 43.9318 125.07 43.7184 124.59C43.5051 124.11 43.3984 123.593 43.3984 123.04V122.16ZM42.2684 127.63H48.3084V130.78H47.4784V128.31H42.2684V127.63ZM47.4784 121.73H48.3084V127.17H47.4784V121.73ZM52.3077 122.51H52.9877V124.13C52.9877 124.63 52.9243 125.12 52.7977 125.6C52.6777 126.08 52.5043 126.53 52.2777 126.95C52.051 127.37 51.7843 127.743 51.4777 128.07C51.171 128.397 50.8377 128.657 50.4777 128.85L49.9677 128.18C50.301 128.013 50.6077 127.79 50.8877 127.51C51.1743 127.223 51.4243 126.897 51.6377 126.53C51.851 126.163 52.0143 125.777 52.1277 125.37C52.2477 124.957 52.3077 124.543 52.3077 124.13V122.51ZM52.4577 122.51H53.1277V124.13C53.1277 124.53 53.1843 124.927 53.2977 125.32C53.4177 125.713 53.5843 126.083 53.7977 126.43C54.011 126.777 54.2543 127.087 54.5277 127.36C54.8077 127.633 55.1077 127.85 55.4277 128.01L54.9177 128.67C54.5643 128.49 54.2377 128.243 53.9377 127.93C53.6443 127.617 53.3843 127.26 53.1577 126.86C52.9377 126.453 52.7643 126.02 52.6377 125.56C52.5177 125.093 52.4577 124.617 52.4577 124.13V122.51ZM56.2177 121.73H57.0477V130.78H56.2177V121.73ZM56.8577 125.39H58.5277V126.1H56.8577V125.39Z" fill="black"/>
<path d="M86.62 67.04H89.37V67.71H86.62V67.04ZM86.62 69.12H89.37V69.8H86.62V69.12ZM84.97 66.27C85.41 66.27 85.8033 66.3633 86.15 66.55C86.5033 66.73 86.78 66.9833 86.98 67.31C87.1867 67.63 87.29 68 87.29 68.42C87.29 68.84 87.1867 69.2133 86.98 69.54C86.78 69.86 86.5033 70.1133 86.15 70.3C85.8033 70.48 85.41 70.57 84.97 70.57C84.5233 70.57 84.1233 70.48 83.77 70.3C83.4233 70.1133 83.1467 69.86 82.94 69.54C82.74 69.2133 82.64 68.84 82.64 68.42C82.64 68 82.74 67.63 82.94 67.31C83.1467 66.9833 83.4233 66.73 83.77 66.55C84.1233 66.3633 84.5233 66.27 84.97 66.27ZM84.97 66.98C84.6767 66.98 84.4133 67.04 84.18 67.16C83.9467 67.28 83.7633 67.45 83.63 67.67C83.4967 67.8833 83.43 68.1333 83.43 68.42C83.43 68.7 83.4967 68.95 83.63 69.17C83.7633 69.3833 83.9467 69.5533 84.18 69.68C84.4133 69.8 84.6767 69.86 84.97 69.86C85.2633 69.86 85.5233 69.8 85.75 69.68C85.9833 69.5533 86.1667 69.3833 86.3 69.17C86.4333 68.95 86.5 68.7 86.5 68.42C86.5 68.1333 86.4333 67.8833 86.3 67.67C86.1667 67.45 85.9833 67.28 85.75 67.16C85.5233 67.04 85.2633 66.98 84.97 66.98ZM89.11 65.73H89.94V71.08H89.11V65.73ZM86.96 71.3C87.5867 71.3 88.1233 71.37 88.57 71.51C89.0167 71.6433 89.36 71.84 89.6 72.1C89.8467 72.3533 89.97 72.6633 89.97 73.03C89.97 73.39 89.8467 73.7 89.6 73.96C89.36 74.22 89.0167 74.4167 88.57 74.55C88.1233 74.69 87.5867 74.76 86.96 74.76C86.34 74.76 85.8033 74.69 85.35 74.55C84.9033 74.4167 84.5567 74.22 84.31 73.96C84.07 73.7 83.95 73.39 83.95 73.03C83.95 72.6633 84.07 72.3533 84.31 72.1C84.5567 71.84 84.9033 71.6433 85.35 71.51C85.8033 71.37 86.34 71.3 86.96 71.3ZM86.96 71.95C86.5067 71.95 86.1133 71.9933 85.78 72.08C85.4533 72.1667 85.2 72.29 85.02 72.45C84.8467 72.61 84.76 72.8033 84.76 73.03C84.76 73.25 84.8467 73.44 85.02 73.6C85.2 73.76 85.4533 73.8833 85.78 73.97C86.1133 74.0567 86.5067 74.1 86.96 74.1C87.42 74.1 87.8133 74.0567 88.14 73.97C88.4667 73.8833 88.7167 73.76 88.89 73.6C89.07 73.44 89.16 73.25 89.16 73.03C89.16 72.8033 89.07 72.61 88.89 72.45C88.7167 72.29 88.4667 72.1667 88.14 72.08C87.8133 71.9933 87.42 71.95 86.96 71.95ZM98.4692 67.08H100.029V67.77H98.4692V67.08ZM98.4692 69.01H100.029V69.7H98.4692V69.01ZM94.2192 66.27C94.6792 66.27 95.0859 66.36 95.4392 66.54C95.7926 66.72 96.0692 66.97 96.2692 67.29C96.4759 67.61 96.5792 67.98 96.5792 68.4C96.5792 68.8267 96.4759 69.2 96.2692 69.52C96.0692 69.8333 95.7926 70.08 95.4392 70.26C95.0859 70.44 94.6792 70.53 94.2192 70.53C93.7726 70.53 93.3692 70.44 93.0092 70.26C92.6559 70.08 92.3759 69.8333 92.1692 69.52C91.9626 69.2 91.8592 68.8267 91.8592 68.4C91.8592 67.98 91.9626 67.61 92.1692 67.29C92.3759 66.97 92.6559 66.72 93.0092 66.54C93.3692 66.36 93.7726 66.27 94.2192 66.27ZM94.2192 66.97C93.9259 66.97 93.6626 67.0333 93.4292 67.16C93.1959 67.28 93.0092 67.4467 92.8692 67.66C92.7359 67.8733 92.6692 68.12 92.6692 68.4C92.6692 68.6867 92.7359 68.9367 92.8692 69.15C93.0092 69.3633 93.1959 69.53 93.4292 69.65C93.6626 69.77 93.9259 69.83 94.2192 69.83C94.5192 69.83 94.7859 69.77 95.0192 69.65C95.2526 69.53 95.4359 69.3633 95.5692 69.15C95.7092 68.9367 95.7792 68.6867 95.7792 68.4C95.7792 68.12 95.7092 67.8733 95.5692 67.66C95.4359 67.4467 95.2526 67.28 95.0192 67.16C94.7859 67.0333 94.5192 66.97 94.2192 66.97ZM97.8892 65.73H98.7192V71.09H97.8892V65.73ZM95.8392 71.37C96.4459 71.37 96.9726 71.44 97.4192 71.58C97.8659 71.7133 98.2092 71.9067 98.4492 72.16C98.6892 72.4067 98.8092 72.71 98.8092 73.07C98.8092 73.4233 98.6892 73.7267 98.4492 73.98C98.2092 74.2267 97.8659 74.4167 97.4192 74.55C96.9726 74.69 96.4459 74.76 95.8392 74.76C95.2259 74.76 94.6959 74.69 94.2492 74.55C93.8026 74.4167 93.4592 74.2267 93.2192 73.98C92.9792 73.7267 92.8592 73.4233 92.8592 73.07C92.8592 72.71 92.9792 72.4067 93.2192 72.16C93.4592 71.9067 93.8026 71.7133 94.2492 71.58C94.6959 71.44 95.2259 71.37 95.8392 71.37ZM95.8392 72.04C95.3926 72.04 95.0059 72.08 94.6792 72.16C94.3592 72.24 94.1126 72.3567 93.9392 72.51C93.7659 72.6633 93.6792 72.85 93.6792 73.07C93.6792 73.2833 93.7659 73.4667 93.9392 73.62C94.1126 73.7733 94.3592 73.89 94.6792 73.97C95.0059 74.05 95.3926 74.09 95.8392 74.09C96.2859 74.09 96.6692 74.05 96.9892 73.97C97.3092 73.89 97.5559 73.7733 97.7292 73.62C97.9026 73.4667 97.9892 73.2833 97.9892 73.07C97.9892 72.85 97.9026 72.6633 97.7292 72.51C97.5559 72.3567 97.3092 72.24 96.9892 72.16C96.6692 72.08 96.2859 72.04 95.8392 72.04ZM107.778 65.73H108.568V74.78H107.778V65.73ZM104.478 68.98H106.218V69.66H104.478V68.98ZM105.968 65.94H106.748V74.31H105.968V65.94ZM102.748 67.14H103.388V68.29C103.388 68.7833 103.342 69.2667 103.248 69.74C103.155 70.2067 103.018 70.6467 102.838 71.06C102.658 71.4667 102.438 71.8367 102.178 72.17C101.918 72.4967 101.625 72.7633 101.298 72.97L100.788 72.35C101.208 72.0967 101.562 71.7567 101.848 71.33C102.142 70.9033 102.365 70.4267 102.518 69.9C102.672 69.3733 102.748 68.8367 102.748 68.29V67.14ZM102.918 67.14H103.548V68.29C103.548 68.81 103.622 69.32 103.768 69.82C103.922 70.32 104.138 70.7733 104.418 71.18C104.705 71.58 105.055 71.9 105.468 72.14L104.968 72.76C104.528 72.4867 104.155 72.1233 103.848 71.67C103.548 71.21 103.318 70.69 103.158 70.11C102.998 69.5233 102.918 68.9167 102.918 68.29V67.14ZM101.038 66.79H105.168V67.47H101.038V66.79Z" fill="black"/>
<path d="M86.62 123.04H89.37V123.71H86.62V123.04ZM86.62 125.12H89.37V125.8H86.62V125.12ZM84.97 122.27C85.41 122.27 85.8033 122.363 86.15 122.55C86.5033 122.73 86.78 122.983 86.98 123.31C87.1867 123.63 87.29 124 87.29 124.42C87.29 124.84 87.1867 125.213 86.98 125.54C86.78 125.86 86.5033 126.113 86.15 126.3C85.8033 126.48 85.41 126.57 84.97 126.57C84.5233 126.57 84.1233 126.48 83.77 126.3C83.4233 126.113 83.1467 125.86 82.94 125.54C82.74 125.213 82.64 124.84 82.64 124.42C82.64 124 82.74 123.63 82.94 123.31C83.1467 122.983 83.4233 122.73 83.77 122.55C84.1233 122.363 84.5233 122.27 84.97 122.27ZM84.97 122.98C84.6767 122.98 84.4133 123.04 84.18 123.16C83.9467 123.28 83.7633 123.45 83.63 123.67C83.4967 123.883 83.43 124.133 83.43 124.42C83.43 124.7 83.4967 124.95 83.63 125.17C83.7633 125.383 83.9467 125.553 84.18 125.68C84.4133 125.8 84.6767 125.86 84.97 125.86C85.2633 125.86 85.5233 125.8 85.75 125.68C85.9833 125.553 86.1667 125.383 86.3 125.17C86.4333 124.95 86.5 124.7 86.5 124.42C86.5 124.133 86.4333 123.883 86.3 123.67C86.1667 123.45 85.9833 123.28 85.75 123.16C85.5233 123.04 85.2633 122.98 84.97 122.98ZM89.11 121.73H89.94V127.08H89.11V121.73ZM86.96 127.3C87.5867 127.3 88.1233 127.37 88.57 127.51C89.0167 127.643 89.36 127.84 89.6 128.1C89.8467 128.353 89.97 128.663 89.97 129.03C89.97 129.39 89.8467 129.7 89.6 129.96C89.36 130.22 89.0167 130.417 88.57 130.55C88.1233 130.69 87.5867 130.76 86.96 130.76C86.34 130.76 85.8033 130.69 85.35 130.55C84.9033 130.417 84.5567 130.22 84.31 129.96C84.07 129.7 83.95 129.39 83.95 129.03C83.95 128.663 84.07 128.353 84.31 128.1C84.5567 127.84 84.9033 127.643 85.35 127.51C85.8033 127.37 86.34 127.3 86.96 127.3ZM86.96 127.95C86.5067 127.95 86.1133 127.993 85.78 128.08C85.4533 128.167 85.2 128.29 85.02 128.45C84.8467 128.61 84.76 128.803 84.76 129.03C84.76 129.25 84.8467 129.44 85.02 129.6C85.2 129.76 85.4533 129.883 85.78 129.97C86.1133 130.057 86.5067 130.1 86.96 130.1C87.42 130.1 87.8133 130.057 88.14 129.97C88.4667 129.883 88.7167 129.76 88.89 129.6C89.07 129.44 89.16 129.25 89.16 129.03C89.16 128.803 89.07 128.61 88.89 128.45C88.7167 128.29 88.4667 128.167 88.14 128.08C87.8133 127.993 87.42 127.95 86.96 127.95ZM98.4692 123.08H100.029V123.77H98.4692V123.08ZM98.4692 125.01H100.029V125.7H98.4692V125.01ZM94.2192 122.27C94.6792 122.27 95.0859 122.36 95.4392 122.54C95.7926 122.72 96.0692 122.97 96.2692 123.29C96.4759 123.61 96.5792 123.98 96.5792 124.4C96.5792 124.827 96.4759 125.2 96.2692 125.52C96.0692 125.833 95.7926 126.08 95.4392 126.26C95.0859 126.44 94.6792 126.53 94.2192 126.53C93.7726 126.53 93.3692 126.44 93.0092 126.26C92.6559 126.08 92.3759 125.833 92.1692 125.52C91.9626 125.2 91.8592 124.827 91.8592 124.4C91.8592 123.98 91.9626 123.61 92.1692 123.29C92.3759 122.97 92.6559 122.72 93.0092 122.54C93.3692 122.36 93.7726 122.27 94.2192 122.27ZM94.2192 122.97C93.9259 122.97 93.6626 123.033 93.4292 123.16C93.1959 123.28 93.0092 123.447 92.8692 123.66C92.7359 123.873 92.6692 124.12 92.6692 124.4C92.6692 124.687 92.7359 124.937 92.8692 125.15C93.0092 125.363 93.1959 125.53 93.4292 125.65C93.6626 125.77 93.9259 125.83 94.2192 125.83C94.5192 125.83 94.7859 125.77 95.0192 125.65C95.2526 125.53 95.4359 125.363 95.5692 125.15C95.7092 124.937 95.7792 124.687 95.7792 124.4C95.7792 124.12 95.7092 123.873 95.5692 123.66C95.4359 123.447 95.2526 123.28 95.0192 123.16C94.7859 123.033 94.5192 122.97 94.2192 122.97ZM97.8892 121.73H98.7192V127.09H97.8892V121.73ZM95.8392 127.37C96.4459 127.37 96.9726 127.44 97.4192 127.58C97.8659 127.713 98.2092 127.907 98.4492 128.16C98.6892 128.407 98.8092 128.71 98.8092 129.07C98.8092 129.423 98.6892 129.727 98.4492 129.98C98.2092 130.227 97.8659 130.417 97.4192 130.55C96.9726 130.69 96.4459 130.76 95.8392 130.76C95.2259 130.76 94.6959 130.69 94.2492 130.55C93.8026 130.417 93.4592 130.227 93.2192 129.98C92.9792 129.727 92.8592 129.423 92.8592 129.07C92.8592 128.71 92.9792 128.407 93.2192 128.16C93.4592 127.907 93.8026 127.713 94.2492 127.58C94.6959 127.44 95.2259 127.37 95.8392 127.37ZM95.8392 128.04C95.3926 128.04 95.0059 128.08 94.6792 128.16C94.3592 128.24 94.1126 128.357 93.9392 128.51C93.7659 128.663 93.6792 128.85 93.6792 129.07C93.6792 129.283 93.7659 129.467 93.9392 129.62C94.1126 129.773 94.3592 129.89 94.6792 129.97C95.0059 130.05 95.3926 130.09 95.8392 130.09C96.2859 130.09 96.6692 130.05 96.9892 129.97C97.3092 129.89 97.5559 129.773 97.7292 129.62C97.9026 129.467 97.9892 129.283 97.9892 129.07C97.9892 128.85 97.9026 128.663 97.7292 128.51C97.5559 128.357 97.3092 128.24 96.9892 128.16C96.6692 128.08 96.2859 128.04 95.8392 128.04ZM107.778 121.73H108.568V130.78H107.778V121.73ZM104.478 124.98H106.218V125.66H104.478V124.98ZM105.968 121.94H106.748V130.31H105.968V121.94ZM102.748 123.14H103.388V124.29C103.388 124.783 103.342 125.267 103.248 125.74C103.155 126.207 103.018 126.647 102.838 127.06C102.658 127.467 102.438 127.837 102.178 128.17C101.918 128.497 101.625 128.763 101.298 128.97L100.788 128.35C101.208 128.097 101.562 127.757 101.848 127.33C102.142 126.903 102.365 126.427 102.518 125.9C102.672 125.373 102.748 124.837 102.748 124.29V123.14ZM102.918 123.14H103.548V124.29C103.548 124.81 103.622 125.32 103.768 125.82C103.922 126.32 104.138 126.773 104.418 127.18C104.705 127.58 105.055 127.9 105.468 128.14L104.968 128.76C104.528 128.487 104.155 128.123 103.848 127.67C103.548 127.21 103.318 126.69 103.158 126.11C102.998 125.523 102.918 124.917 102.918 124.29V123.14ZM101.038 122.79H105.168V123.47H101.038V122.79Z" fill="black"/>
<path d="M138.82 66.59H139.61V68.79H141.51V66.59H142.28V72.52H138.82V66.59ZM139.61 69.46V71.84H141.51V69.46H139.61ZM145.39 65.73H146.19V74.78H145.39V65.73ZM143.94 69.31H145.68V70H143.94V69.31ZM143.38 65.92H144.17V74.32H143.38V65.92ZM152.019 67.39H154.619V68.07H152.019V67.39ZM152.019 69.34H154.639V70.02H152.019V69.34ZM154.309 65.74H155.139V72.43H154.309V65.74ZM149.329 73.9H155.349V74.58H149.329V73.9ZM149.329 71.78H150.159V74.24H149.329V71.78ZM148.139 66.34H148.969V67.93H151.409V66.34H152.229V70.89H148.139V66.34ZM148.969 68.58V70.22H151.409V68.58H148.969Z" fill="black"/>
<path d="M138.82 122.59H139.61V124.79H141.51V122.59H142.28V128.52H138.82V122.59ZM139.61 125.46V127.84H141.51V125.46H139.61ZM145.39 121.73H146.19V130.78H145.39V121.73ZM143.94 125.31H145.68V126H143.94V125.31ZM143.38 121.92H144.17V130.32H143.38V121.92ZM152.019 123.39H154.619V124.07H152.019V123.39ZM152.019 125.34H154.639V126.02H152.019V125.34ZM154.309 121.74H155.139V128.43H154.309V121.74ZM149.329 129.9H155.349V130.58H149.329V129.9ZM149.329 127.78H150.159V130.24H149.329V127.78ZM148.139 122.34H148.969V123.93H151.409V122.34H152.229V126.89H148.139V122.34ZM148.969 124.58V126.22H151.409V124.58H148.969Z" fill="black"/>
<path d="M24.3594 12.6152V24.168H22.7979V12.6152H24.3594ZM21.9092 12.8184V23.6475H20.3984V18.1504H18.3291V16.8301H20.3984V12.8184H21.9092ZM19.1162 13.9229V15.2178H16.2852V20.2451C17.5229 20.2388 18.4561 20.1753 19.5352 19.9531L19.6621 21.2734C18.3545 21.54 17.1865 21.5908 15.498 21.5908H14.6982V13.9229H19.1162ZM28.8662 12.958C30.6182 12.958 31.9512 14.0498 31.9512 15.5986C31.9512 17.1221 30.6182 18.2266 28.8662 18.2266C27.0762 18.2266 25.7559 17.1221 25.7559 15.5986C25.7559 14.0498 27.0762 12.958 28.8662 12.958ZM28.8662 14.2783C27.9775 14.2783 27.3174 14.7607 27.3301 15.5986C27.3174 16.4238 27.9775 16.9189 28.8662 16.9189C29.7422 16.9189 30.3896 16.4238 30.3896 15.5986C30.3896 14.7607 29.7422 14.2783 28.8662 14.2783ZM35.252 12.6152V18.4043H33.627V12.6152H35.252ZM35.252 18.8867V22.0225H29.1074V22.7715H35.5693V24.041H27.5205V20.8418H33.6396V20.1309H27.4951V18.8867H35.252ZM46.5 12.6152V24.1934H44.8877V12.6152H46.5ZM42.9199 13.5801V18.0361H39.1113V20.1562C40.8696 20.1499 42.3677 20.0483 44.0625 19.7754L44.2021 21.083C42.2979 21.4131 40.584 21.4893 38.4766 21.4893H37.4355V16.7539H41.2695V14.8877H37.4229V13.5801H42.9199ZM57.3926 12.9707V16.4111H50.9307V17.376H57.6592V18.6709H49.293V15.1924H55.7295V14.2783H49.2549V12.9707H57.3926ZM58.6113 19.5342V20.8291H54.1172V24.1934H52.4922V20.8291H48.0361V19.5342H58.6113ZM68.958 12.6279V21.1719H67.333V12.6279H68.958ZM69.2627 22.6699V23.9648H61.2139V20.4102H62.8516V22.6699H69.2627ZM65.5176 13.4912V14.7861H61.5439V15.8779H65.1748V17.1221H61.5439V18.2266C63.5752 18.2266 64.8638 18.2012 66.3301 17.96L66.4951 19.2041C64.8447 19.4961 63.3848 19.5215 60.9092 19.5215H59.9189V13.4912H65.5176Z" fill="black"/>
</svg>
