<svg width="253" height="239" viewBox="0 0 253 239" fill="none" xmlns="http://www.w3.org/2000/svg">
<rect x="0.15" y="0.15" width="252.7" height="238.7" rx="5.85" fill="#F9FAFB"/>
<rect x="0.15" y="0.15" width="252.7" height="238.7" rx="5.85" stroke="#DADADA" stroke-width="0.3"/>
<path d="M18.17 75.84H18.99V78.09H18.17V75.84ZM18.58 71.32C19.22 71.32 19.7867 71.42 20.28 71.62C20.7733 71.8133 21.16 72.0867 21.44 72.44C21.7267 72.7933 21.87 73.21 21.87 73.69C21.87 74.17 21.7267 74.59 21.44 74.95C21.16 75.3033 20.7733 75.5767 20.28 75.77C19.7867 75.9633 19.22 76.06 18.58 76.06C17.9467 76.06 17.38 75.9633 16.88 75.77C16.3867 75.5767 16 75.3033 15.72 74.95C15.44 74.59 15.3 74.17 15.3 73.69C15.3 73.21 15.44 72.7933 15.72 72.44C16 72.0867 16.3867 71.8133 16.88 71.62C17.38 71.42 17.9467 71.32 18.58 71.32ZM18.58 71.99C18.1 71.99 17.6733 72.06 17.3 72.2C16.9267 72.34 16.6333 72.54 16.42 72.8C16.2067 73.0533 16.1 73.35 16.1 73.69C16.1 74.03 16.2067 74.33 16.42 74.59C16.6333 74.85 16.9267 75.05 17.3 75.19C17.6733 75.33 18.1 75.4 18.58 75.4C19.06 75.4 19.4867 75.33 19.86 75.19C20.2333 75.05 20.5267 74.85 20.74 74.59C20.96 74.33 21.07 74.03 21.07 73.69C21.07 73.35 20.96 73.0533 20.74 72.8C20.5267 72.54 20.2333 72.34 19.86 72.2C19.4867 72.06 19.06 71.99 18.58 71.99ZM14.5 77.93H22.7V78.62H14.5V77.93ZM28.4892 73.23H30.7792V73.91H28.4892V73.23ZM30.3092 70.74H31.1392V77.37H30.3092V70.74ZM25.3692 78.9H31.3892V79.58H25.3692V78.9ZM25.3692 76.78H26.1892V79.24H25.3692V76.78ZM25.9992 71.86H26.6792V72.59C26.6792 73.1367 26.5726 73.6533 26.3592 74.14C26.1526 74.62 25.8592 75.04 25.4792 75.4C25.0992 75.7533 24.6592 76.0267 24.1592 76.22L23.7292 75.55C24.0626 75.43 24.3659 75.27 24.6392 75.07C24.9192 74.87 25.1626 74.64 25.3692 74.38C25.5759 74.12 25.7326 73.8367 25.8392 73.53C25.9459 73.2233 25.9992 72.91 25.9992 72.59V71.86ZM26.1592 71.86H26.8392V72.59C26.8392 72.9767 26.9292 73.3533 27.1092 73.72C27.2892 74.0867 27.5459 74.4133 27.8792 74.7C28.2126 74.98 28.5959 75.1967 29.0292 75.35L28.6092 76.01C28.1159 75.83 27.6859 75.57 27.3192 75.23C26.9526 74.8833 26.6659 74.4833 26.4592 74.03C26.2592 73.5767 26.1592 73.0967 26.1592 72.59V71.86ZM23.9892 71.47H28.8192V72.15H23.9892V71.47Z" fill="#515151"/>
<path d="M18.17 156.84H18.99V159.09H18.17V156.84ZM18.58 152.32C19.22 152.32 19.7867 152.42 20.28 152.62C20.7733 152.813 21.16 153.087 21.44 153.44C21.7267 153.793 21.87 154.21 21.87 154.69C21.87 155.17 21.7267 155.59 21.44 155.95C21.16 156.303 20.7733 156.577 20.28 156.77C19.7867 156.963 19.22 157.06 18.58 157.06C17.9467 157.06 17.38 156.963 16.88 156.77C16.3867 156.577 16 156.303 15.72 155.95C15.44 155.59 15.3 155.17 15.3 154.69C15.3 154.21 15.44 153.793 15.72 153.44C16 153.087 16.3867 152.813 16.88 152.62C17.38 152.42 17.9467 152.32 18.58 152.32ZM18.58 152.99C18.1 152.99 17.6733 153.06 17.3 153.2C16.9267 153.34 16.6333 153.54 16.42 153.8C16.2067 154.053 16.1 154.35 16.1 154.69C16.1 155.03 16.2067 155.33 16.42 155.59C16.6333 155.85 16.9267 156.05 17.3 156.19C17.6733 156.33 18.1 156.4 18.58 156.4C19.06 156.4 19.4867 156.33 19.86 156.19C20.2333 156.05 20.5267 155.85 20.74 155.59C20.96 155.33 21.07 155.03 21.07 154.69C21.07 154.35 20.96 154.053 20.74 153.8C20.5267 153.54 20.2333 153.34 19.86 153.2C19.4867 153.06 19.06 152.99 18.58 152.99ZM14.5 158.93H22.7V159.62H14.5V158.93ZM24.1292 152.76H31.3992V153.44H24.1292V152.76ZM23.6992 157.6H31.8992V158.28H23.6992V157.6ZM27.3692 158.15H28.1892V160.79H27.3692V158.15ZM27.7792 153.96C28.6992 153.96 29.4192 154.09 29.9392 154.35C30.4592 154.61 30.7192 154.983 30.7192 155.47C30.7192 155.943 30.4592 156.313 29.9392 156.58C29.4192 156.84 28.6992 156.97 27.7792 156.97C26.8592 156.97 26.1392 156.84 25.6192 156.58C25.0992 156.313 24.8392 155.943 24.8392 155.47C24.8392 154.983 25.0992 154.61 25.6192 154.35C26.1392 154.09 26.8592 153.96 27.7792 153.96ZM27.7792 154.59C27.1192 154.59 26.6059 154.667 26.2392 154.82C25.8792 154.967 25.6992 155.183 25.6992 155.47C25.6992 155.743 25.8792 155.957 26.2392 156.11C26.6059 156.263 27.1192 156.34 27.7792 156.34C28.4392 156.34 28.9492 156.263 29.3092 156.11C29.6759 155.957 29.8592 155.743 29.8592 155.47C29.8592 155.183 29.6759 154.967 29.3092 154.82C28.9492 154.667 28.4392 154.59 27.7792 154.59ZM27.3692 151.68H28.1892V153.21H27.3692V151.68Z" fill="#515151"/>
<rect x="14.15" y="89.15" width="66.7" height="24.7" rx="5.85" fill="#DDEFFF" stroke="#DADADA" stroke-width="0.3"/>
<rect x="14.15" y="119.15" width="66.7" height="24.7" rx="5.85" stroke="#DADADA" stroke-width="0.3"/>
<rect x="14.15" y="200.15" width="66.7" height="24.7" rx="5.85" stroke="#DADADA" stroke-width="0.3"/>
<rect x="14.15" y="170.15" width="64.7" height="24.7" rx="5.85" fill="#E6E6A8" stroke="#DADADA" stroke-width="0.3"/>
<rect x="85.15" y="89.15" width="60.7" height="24.7" rx="5.85" fill="#FFF0DD" stroke="#DADADA" stroke-width="0.3"/>
<rect x="85.15" y="170.15" width="60.7" height="24.7" rx="5.85" fill="#FFF0DD" stroke="#DADADA" stroke-width="0.3"/>
<rect x="156.15" y="89.15" width="50.7" height="24.7" rx="5.85" fill="#DFEFDE" stroke="#DADADA" stroke-width="0.3"/>
<rect x="156.15" y="170.15" width="48.7" height="24.7" rx="5.85" fill="#F0FFF0" stroke="#DADADA" stroke-width="0.3"/>
<path d="M24.9 98.43C25.3467 98.43 25.74 98.56 26.08 98.82C26.42 99.0733 26.6867 99.4367 26.88 99.91C27.0733 100.383 27.17 100.94 27.17 101.58C27.17 102.22 27.0733 102.777 26.88 103.25C26.6867 103.723 26.42 104.09 26.08 104.35C25.74 104.61 25.3467 104.74 24.9 104.74C24.46 104.74 24.0667 104.61 23.72 104.35C23.38 104.09 23.1133 103.723 22.92 103.25C22.7267 102.777 22.63 102.22 22.63 101.58C22.63 100.94 22.7267 100.383 22.92 99.91C23.1133 99.4367 23.38 99.0733 23.72 98.82C24.0667 98.56 24.46 98.43 24.9 98.43ZM24.9 99.17C24.6133 99.17 24.3567 99.27 24.13 99.47C23.91 99.6633 23.7367 99.9433 23.61 100.31C23.4833 100.67 23.42 101.093 23.42 101.58C23.42 102.067 23.4833 102.493 23.61 102.86C23.7367 103.22 23.91 103.5 24.13 103.7C24.3567 103.9 24.6167 104 24.91 104C25.1967 104 25.45 103.9 25.67 103.7C25.8967 103.5 26.07 103.22 26.19 102.86C26.3167 102.493 26.38 102.067 26.38 101.58C26.38 101.093 26.3167 100.67 26.19 100.31C26.07 99.9433 25.8967 99.6633 25.67 99.47C25.45 99.27 25.1933 99.17 24.9 99.17ZM28.62 97.73H29.45V106.78H28.62V97.73ZM29.26 101.34H30.93V102.04H29.26V101.34ZM34.1492 99.18H34.8292V99.57C34.8292 100.097 34.7226 100.587 34.5092 101.04C34.2959 101.487 33.9959 101.877 33.6092 102.21C33.2292 102.537 32.7826 102.783 32.2692 102.95L31.8692 102.31C32.2092 102.197 32.5159 102.05 32.7892 101.87C33.0692 101.683 33.3092 101.47 33.5092 101.23C33.7159 100.99 33.8726 100.73 33.9792 100.45C34.0926 100.163 34.1492 99.87 34.1492 99.57V99.18ZM34.2892 99.18H34.9692V99.57C34.9692 99.85 35.0259 100.123 35.1392 100.39C35.2526 100.65 35.4126 100.893 35.6192 101.12C35.8259 101.34 36.0692 101.537 36.3492 101.71C36.6359 101.877 36.9459 102.01 37.2792 102.11L36.8892 102.76C36.3826 102.607 35.9326 102.377 35.5392 102.07C35.1459 101.757 34.8392 101.387 34.6192 100.96C34.3992 100.533 34.2892 100.07 34.2892 99.57V99.18ZM32.0992 98.79H37.0092V99.46H32.0992V98.79ZM34.1492 97.69H34.9792V99.09H34.1492V97.69ZM38.2792 97.74H39.1092V103.09H38.2792V97.74ZM33.2692 103.55H39.1092V106.66H33.2692V103.55ZM38.2992 104.22H34.0792V105.98H38.2992V104.22ZM43.2484 98.16H43.9384V99.04C43.9384 99.6133 43.8318 100.15 43.6184 100.65C43.4118 101.15 43.1151 101.587 42.7284 101.96C42.3484 102.327 41.9051 102.607 41.3984 102.8L40.9784 102.14C41.3184 102.013 41.6251 101.847 41.8984 101.64C42.1784 101.427 42.4184 101.183 42.6184 100.91C42.8251 100.637 42.9818 100.34 43.0884 100.02C43.1951 99.7 43.2484 99.3733 43.2484 99.04V98.16ZM43.3984 98.16H44.0884V99.04C44.0884 99.3667 44.1418 99.68 44.2484 99.98C44.3618 100.28 44.5184 100.56 44.7184 100.82C44.9184 101.08 45.1551 101.31 45.4284 101.51C45.7084 101.71 46.0151 101.867 46.3484 101.98L45.9384 102.64C45.4384 102.453 44.9951 102.187 44.6084 101.84C44.2284 101.487 43.9318 101.07 43.7184 100.59C43.5051 100.11 43.3984 99.5933 43.3984 99.04V98.16ZM42.2684 103.63H48.3084V106.78H47.4784V104.31H42.2684V103.63ZM47.4784 97.73H48.3084V103.17H47.4784V97.73ZM52.3077 98.51H52.9877V100.13C52.9877 100.63 52.9243 101.12 52.7977 101.6C52.6777 102.08 52.5043 102.53 52.2777 102.95C52.051 103.37 51.7843 103.743 51.4777 104.07C51.171 104.397 50.8377 104.657 50.4777 104.85L49.9677 104.18C50.301 104.013 50.6077 103.79 50.8877 103.51C51.1743 103.223 51.4243 102.897 51.6377 102.53C51.851 102.163 52.0143 101.777 52.1277 101.37C52.2477 100.957 52.3077 100.543 52.3077 100.13V98.51ZM52.4577 98.51H53.1277V100.13C53.1277 100.53 53.1843 100.927 53.2977 101.32C53.4177 101.713 53.5843 102.083 53.7977 102.43C54.011 102.777 54.2543 103.087 54.5277 103.36C54.8077 103.633 55.1077 103.85 55.4277 104.01L54.9177 104.67C54.5643 104.49 54.2377 104.243 53.9377 103.93C53.6443 103.617 53.3843 103.26 53.1577 102.86C52.9377 102.453 52.7643 102.02 52.6377 101.56C52.5177 101.093 52.4577 100.617 52.4577 100.13V98.51ZM56.2177 97.73H57.0477V106.78H56.2177V97.73ZM56.8577 101.39H58.5277V102.1H56.8577V101.39Z" fill="black"/>
<path d="M29.11 178.73H29.94V187.79H29.11V178.73ZM27.17 182.02H29.35V182.7H27.17V182.02ZM24.79 180.02H25.46V181.38C25.46 181.867 25.3933 182.347 25.26 182.82C25.1333 183.287 24.9533 183.727 24.72 184.14C24.4933 184.553 24.2233 184.92 23.91 185.24C23.6033 185.56 23.2733 185.813 22.92 186L22.42 185.34C22.7467 185.18 23.0533 184.96 23.34 184.68C23.6267 184.4 23.8767 184.083 24.09 183.73C24.31 183.37 24.48 182.99 24.6 182.59C24.7267 182.183 24.79 181.78 24.79 181.38V180.02ZM24.97 180.02H25.63V181.38C25.63 181.753 25.69 182.133 25.81 182.52C25.93 182.9 26.0967 183.26 26.31 183.6C26.53 183.94 26.7833 184.247 27.07 184.52C27.3567 184.787 27.6633 184.997 27.99 185.15L27.5 185.81C27.14 185.63 26.8067 185.387 26.5 185.08C26.1933 184.773 25.9233 184.423 25.69 184.03C25.4633 183.63 25.2867 183.203 25.16 182.75C25.0333 182.297 24.97 181.84 24.97 181.38V180.02ZM22.76 179.66H27.67V180.34H22.76V179.66ZM32.2292 179.29H33.0492V183.26H32.2292V179.29ZM32.2292 183.08H32.8992C33.3992 183.08 33.8626 183.073 34.2892 183.06C34.7159 183.04 35.1259 183.007 35.5192 182.96C35.9192 182.913 36.3292 182.85 36.7492 182.77L36.8592 183.46C36.4259 183.54 36.0026 183.607 35.5892 183.66C35.1826 183.707 34.7592 183.74 34.3192 183.76C33.8859 183.78 33.4126 183.79 32.8992 183.79H32.2292V183.08ZM33.0892 184.63H39.1392V187.78H38.3092V185.32H33.0892V184.63ZM38.3092 178.73H39.1392V184.2H38.3092V178.73ZM35.7692 179.83H38.5292V180.48H35.7692V179.83ZM35.7692 181.47H38.5292V182.12H35.7692V181.47ZM43.2484 179.16H43.9384V180.04C43.9384 180.613 43.8318 181.15 43.6184 181.65C43.4118 182.15 43.1151 182.587 42.7284 182.96C42.3484 183.327 41.9051 183.607 41.3984 183.8L40.9784 183.14C41.3184 183.013 41.6251 182.847 41.8984 182.64C42.1784 182.427 42.4184 182.183 42.6184 181.91C42.8251 181.637 42.9818 181.34 43.0884 181.02C43.1951 180.7 43.2484 180.373 43.2484 180.04V179.16ZM43.3984 179.16H44.0884V180.04C44.0884 180.367 44.1418 180.68 44.2484 180.98C44.3618 181.28 44.5184 181.56 44.7184 181.82C44.9184 182.08 45.1551 182.31 45.4284 182.51C45.7084 182.71 46.0151 182.867 46.3484 182.98L45.9384 183.64C45.4384 183.453 44.9951 183.187 44.6084 182.84C44.2284 182.487 43.9318 182.07 43.7184 181.59C43.5051 181.11 43.3984 180.593 43.3984 180.04V179.16ZM42.2684 184.63H48.3084V187.78H47.4784V185.31H42.2684V184.63ZM47.4784 178.73H48.3084V184.17H47.4784V178.73ZM52.3077 179.51H52.9877V181.13C52.9877 181.63 52.9243 182.12 52.7977 182.6C52.6777 183.08 52.5043 183.53 52.2777 183.95C52.051 184.37 51.7843 184.743 51.4777 185.07C51.171 185.397 50.8377 185.657 50.4777 185.85L49.9677 185.18C50.301 185.013 50.6077 184.79 50.8877 184.51C51.1743 184.223 51.4243 183.897 51.6377 183.53C51.851 183.163 52.0143 182.777 52.1277 182.37C52.2477 181.957 52.3077 181.543 52.3077 181.13V179.51ZM52.4577 179.51H53.1277V181.13C53.1277 181.53 53.1843 181.927 53.2977 182.32C53.4177 182.713 53.5843 183.083 53.7977 183.43C54.011 183.777 54.2543 184.087 54.5277 184.36C54.8077 184.633 55.1077 184.85 55.4277 185.01L54.9177 185.67C54.5643 185.49 54.2377 185.243 53.9377 184.93C53.6443 184.617 53.3843 184.26 53.1577 183.86C52.9377 183.453 52.7643 183.02 52.6377 182.56C52.5177 182.093 52.4577 181.617 52.4577 181.13V179.51ZM56.2177 178.73H57.0477V187.78H56.2177V178.73ZM56.8577 182.39H58.5277V183.1H56.8577V182.39Z" fill="black"/>
<path d="M101.62 99.04H104.37V99.71H101.62V99.04ZM101.62 101.12H104.37V101.8H101.62V101.12ZM99.97 98.27C100.41 98.27 100.803 98.3633 101.15 98.55C101.503 98.73 101.78 98.9833 101.98 99.31C102.187 99.63 102.29 100 102.29 100.42C102.29 100.84 102.187 101.213 101.98 101.54C101.78 101.86 101.503 102.113 101.15 102.3C100.803 102.48 100.41 102.57 99.97 102.57C99.5233 102.57 99.1233 102.48 98.77 102.3C98.4233 102.113 98.1467 101.86 97.94 101.54C97.74 101.213 97.64 100.84 97.64 100.42C97.64 100 97.74 99.63 97.94 99.31C98.1467 98.9833 98.4233 98.73 98.77 98.55C99.1233 98.3633 99.5233 98.27 99.97 98.27ZM99.97 98.98C99.6767 98.98 99.4133 99.04 99.18 99.16C98.9467 99.28 98.7633 99.45 98.63 99.67C98.4967 99.8833 98.43 100.133 98.43 100.42C98.43 100.7 98.4967 100.95 98.63 101.17C98.7633 101.383 98.9467 101.553 99.18 101.68C99.4133 101.8 99.6767 101.86 99.97 101.86C100.263 101.86 100.523 101.8 100.75 101.68C100.983 101.553 101.167 101.383 101.3 101.17C101.433 100.95 101.5 100.7 101.5 100.42C101.5 100.133 101.433 99.8833 101.3 99.67C101.167 99.45 100.983 99.28 100.75 99.16C100.523 99.04 100.263 98.98 99.97 98.98ZM104.11 97.73H104.94V103.08H104.11V97.73ZM101.96 103.3C102.587 103.3 103.123 103.37 103.57 103.51C104.017 103.643 104.36 103.84 104.6 104.1C104.847 104.353 104.97 104.663 104.97 105.03C104.97 105.39 104.847 105.7 104.6 105.96C104.36 106.22 104.017 106.417 103.57 106.55C103.123 106.69 102.587 106.76 101.96 106.76C101.34 106.76 100.803 106.69 100.35 106.55C99.9033 106.417 99.5567 106.22 99.31 105.96C99.07 105.7 98.95 105.39 98.95 105.03C98.95 104.663 99.07 104.353 99.31 104.1C99.5567 103.84 99.9033 103.643 100.35 103.51C100.803 103.37 101.34 103.3 101.96 103.3ZM101.96 103.95C101.507 103.95 101.113 103.993 100.78 104.08C100.453 104.167 100.2 104.29 100.02 104.45C99.8467 104.61 99.76 104.803 99.76 105.03C99.76 105.25 99.8467 105.44 100.02 105.6C100.2 105.76 100.453 105.883 100.78 105.97C101.113 106.057 101.507 106.1 101.96 106.1C102.42 106.1 102.813 106.057 103.14 105.97C103.467 105.883 103.717 105.76 103.89 105.6C104.07 105.44 104.16 105.25 104.16 105.03C104.16 104.803 104.07 104.61 103.89 104.45C103.717 104.29 103.467 104.167 103.14 104.08C102.813 103.993 102.42 103.95 101.96 103.95ZM113.469 99.08H115.029V99.77H113.469V99.08ZM113.469 101.01H115.029V101.7H113.469V101.01ZM109.219 98.27C109.679 98.27 110.086 98.36 110.439 98.54C110.793 98.72 111.069 98.97 111.269 99.29C111.476 99.61 111.579 99.98 111.579 100.4C111.579 100.827 111.476 101.2 111.269 101.52C111.069 101.833 110.793 102.08 110.439 102.26C110.086 102.44 109.679 102.53 109.219 102.53C108.773 102.53 108.369 102.44 108.009 102.26C107.656 102.08 107.376 101.833 107.169 101.52C106.963 101.2 106.859 100.827 106.859 100.4C106.859 99.98 106.963 99.61 107.169 99.29C107.376 98.97 107.656 98.72 108.009 98.54C108.369 98.36 108.773 98.27 109.219 98.27ZM109.219 98.97C108.926 98.97 108.663 99.0333 108.429 99.16C108.196 99.28 108.009 99.4467 107.869 99.66C107.736 99.8733 107.669 100.12 107.669 100.4C107.669 100.687 107.736 100.937 107.869 101.15C108.009 101.363 108.196 101.53 108.429 101.65C108.663 101.77 108.926 101.83 109.219 101.83C109.519 101.83 109.786 101.77 110.019 101.65C110.253 101.53 110.436 101.363 110.569 101.15C110.709 100.937 110.779 100.687 110.779 100.4C110.779 100.12 110.709 99.8733 110.569 99.66C110.436 99.4467 110.253 99.28 110.019 99.16C109.786 99.0333 109.519 98.97 109.219 98.97ZM112.889 97.73H113.719V103.09H112.889V97.73ZM110.839 103.37C111.446 103.37 111.973 103.44 112.419 103.58C112.866 103.713 113.209 103.907 113.449 104.16C113.689 104.407 113.809 104.71 113.809 105.07C113.809 105.423 113.689 105.727 113.449 105.98C113.209 106.227 112.866 106.417 112.419 106.55C111.973 106.69 111.446 106.76 110.839 106.76C110.226 106.76 109.696 106.69 109.249 106.55C108.803 106.417 108.459 106.227 108.219 105.98C107.979 105.727 107.859 105.423 107.859 105.07C107.859 104.71 107.979 104.407 108.219 104.16C108.459 103.907 108.803 103.713 109.249 103.58C109.696 103.44 110.226 103.37 110.839 103.37ZM110.839 104.04C110.393 104.04 110.006 104.08 109.679 104.16C109.359 104.24 109.113 104.357 108.939 104.51C108.766 104.663 108.679 104.85 108.679 105.07C108.679 105.283 108.766 105.467 108.939 105.62C109.113 105.773 109.359 105.89 109.679 105.97C110.006 106.05 110.393 106.09 110.839 106.09C111.286 106.09 111.669 106.05 111.989 105.97C112.309 105.89 112.556 105.773 112.729 105.62C112.903 105.467 112.989 105.283 112.989 105.07C112.989 104.85 112.903 104.663 112.729 104.51C112.556 104.357 112.309 104.24 111.989 104.16C111.669 104.08 111.286 104.04 110.839 104.04ZM122.778 97.73H123.568V106.78H122.778V97.73ZM119.478 100.98H121.218V101.66H119.478V100.98ZM120.968 97.94H121.748V106.31H120.968V97.94ZM117.748 99.14H118.388V100.29C118.388 100.783 118.342 101.267 118.248 101.74C118.155 102.207 118.018 102.647 117.838 103.06C117.658 103.467 117.438 103.837 117.178 104.17C116.918 104.497 116.625 104.763 116.298 104.97L115.788 104.35C116.208 104.097 116.562 103.757 116.848 103.33C117.142 102.903 117.365 102.427 117.518 101.9C117.672 101.373 117.748 100.837 117.748 100.29V99.14ZM117.918 99.14H118.548V100.29C118.548 100.81 118.622 101.32 118.768 101.82C118.922 102.32 119.138 102.773 119.418 103.18C119.705 103.58 120.055 103.9 120.468 104.14L119.968 104.76C119.528 104.487 119.155 104.123 118.848 103.67C118.548 103.21 118.318 102.69 118.158 102.11C117.998 101.523 117.918 100.917 117.918 100.29V99.14ZM116.038 98.79H120.168V99.47H116.038V98.79Z" fill="black"/>
<path d="M101.62 180.04H104.37V180.71H101.62V180.04ZM101.62 182.12H104.37V182.8H101.62V182.12ZM99.97 179.27C100.41 179.27 100.803 179.363 101.15 179.55C101.503 179.73 101.78 179.983 101.98 180.31C102.187 180.63 102.29 181 102.29 181.42C102.29 181.84 102.187 182.213 101.98 182.54C101.78 182.86 101.503 183.113 101.15 183.3C100.803 183.48 100.41 183.57 99.97 183.57C99.5233 183.57 99.1233 183.48 98.77 183.3C98.4233 183.113 98.1467 182.86 97.94 182.54C97.74 182.213 97.64 181.84 97.64 181.42C97.64 181 97.74 180.63 97.94 180.31C98.1467 179.983 98.4233 179.73 98.77 179.55C99.1233 179.363 99.5233 179.27 99.97 179.27ZM99.97 179.98C99.6767 179.98 99.4133 180.04 99.18 180.16C98.9467 180.28 98.7633 180.45 98.63 180.67C98.4967 180.883 98.43 181.133 98.43 181.42C98.43 181.7 98.4967 181.95 98.63 182.17C98.7633 182.383 98.9467 182.553 99.18 182.68C99.4133 182.8 99.6767 182.86 99.97 182.86C100.263 182.86 100.523 182.8 100.75 182.68C100.983 182.553 101.167 182.383 101.3 182.17C101.433 181.95 101.5 181.7 101.5 181.42C101.5 181.133 101.433 180.883 101.3 180.67C101.167 180.45 100.983 180.28 100.75 180.16C100.523 180.04 100.263 179.98 99.97 179.98ZM104.11 178.73H104.94V184.08H104.11V178.73ZM101.96 184.3C102.587 184.3 103.123 184.37 103.57 184.51C104.017 184.643 104.36 184.84 104.6 185.1C104.847 185.353 104.97 185.663 104.97 186.03C104.97 186.39 104.847 186.7 104.6 186.96C104.36 187.22 104.017 187.417 103.57 187.55C103.123 187.69 102.587 187.76 101.96 187.76C101.34 187.76 100.803 187.69 100.35 187.55C99.9033 187.417 99.5567 187.22 99.31 186.96C99.07 186.7 98.95 186.39 98.95 186.03C98.95 185.663 99.07 185.353 99.31 185.1C99.5567 184.84 99.9033 184.643 100.35 184.51C100.803 184.37 101.34 184.3 101.96 184.3ZM101.96 184.95C101.507 184.95 101.113 184.993 100.78 185.08C100.453 185.167 100.2 185.29 100.02 185.45C99.8467 185.61 99.76 185.803 99.76 186.03C99.76 186.25 99.8467 186.44 100.02 186.6C100.2 186.76 100.453 186.883 100.78 186.97C101.113 187.057 101.507 187.1 101.96 187.1C102.42 187.1 102.813 187.057 103.14 186.97C103.467 186.883 103.717 186.76 103.89 186.6C104.07 186.44 104.16 186.25 104.16 186.03C104.16 185.803 104.07 185.61 103.89 185.45C103.717 185.29 103.467 185.167 103.14 185.08C102.813 184.993 102.42 184.95 101.96 184.95ZM113.469 180.08H115.029V180.77H113.469V180.08ZM113.469 182.01H115.029V182.7H113.469V182.01ZM109.219 179.27C109.679 179.27 110.086 179.36 110.439 179.54C110.793 179.72 111.069 179.97 111.269 180.29C111.476 180.61 111.579 180.98 111.579 181.4C111.579 181.827 111.476 182.2 111.269 182.52C111.069 182.833 110.793 183.08 110.439 183.26C110.086 183.44 109.679 183.53 109.219 183.53C108.773 183.53 108.369 183.44 108.009 183.26C107.656 183.08 107.376 182.833 107.169 182.52C106.963 182.2 106.859 181.827 106.859 181.4C106.859 180.98 106.963 180.61 107.169 180.29C107.376 179.97 107.656 179.72 108.009 179.54C108.369 179.36 108.773 179.27 109.219 179.27ZM109.219 179.97C108.926 179.97 108.663 180.033 108.429 180.16C108.196 180.28 108.009 180.447 107.869 180.66C107.736 180.873 107.669 181.12 107.669 181.4C107.669 181.687 107.736 181.937 107.869 182.15C108.009 182.363 108.196 182.53 108.429 182.65C108.663 182.77 108.926 182.83 109.219 182.83C109.519 182.83 109.786 182.77 110.019 182.65C110.253 182.53 110.436 182.363 110.569 182.15C110.709 181.937 110.779 181.687 110.779 181.4C110.779 181.12 110.709 180.873 110.569 180.66C110.436 180.447 110.253 180.28 110.019 180.16C109.786 180.033 109.519 179.97 109.219 179.97ZM112.889 178.73H113.719V184.09H112.889V178.73ZM110.839 184.37C111.446 184.37 111.973 184.44 112.419 184.58C112.866 184.713 113.209 184.907 113.449 185.16C113.689 185.407 113.809 185.71 113.809 186.07C113.809 186.423 113.689 186.727 113.449 186.98C113.209 187.227 112.866 187.417 112.419 187.55C111.973 187.69 111.446 187.76 110.839 187.76C110.226 187.76 109.696 187.69 109.249 187.55C108.803 187.417 108.459 187.227 108.219 186.98C107.979 186.727 107.859 186.423 107.859 186.07C107.859 185.71 107.979 185.407 108.219 185.16C108.459 184.907 108.803 184.713 109.249 184.58C109.696 184.44 110.226 184.37 110.839 184.37ZM110.839 185.04C110.393 185.04 110.006 185.08 109.679 185.16C109.359 185.24 109.113 185.357 108.939 185.51C108.766 185.663 108.679 185.85 108.679 186.07C108.679 186.283 108.766 186.467 108.939 186.62C109.113 186.773 109.359 186.89 109.679 186.97C110.006 187.05 110.393 187.09 110.839 187.09C111.286 187.09 111.669 187.05 111.989 186.97C112.309 186.89 112.556 186.773 112.729 186.62C112.903 186.467 112.989 186.283 112.989 186.07C112.989 185.85 112.903 185.663 112.729 185.51C112.556 185.357 112.309 185.24 111.989 185.16C111.669 185.08 111.286 185.04 110.839 185.04ZM122.778 178.73H123.568V187.78H122.778V178.73ZM119.478 181.98H121.218V182.66H119.478V181.98ZM120.968 178.94H121.748V187.31H120.968V178.94ZM117.748 180.14H118.388V181.29C118.388 181.783 118.342 182.267 118.248 182.74C118.155 183.207 118.018 183.647 117.838 184.06C117.658 184.467 117.438 184.837 117.178 185.17C116.918 185.497 116.625 185.763 116.298 185.97L115.788 185.35C116.208 185.097 116.562 184.757 116.848 184.33C117.142 183.903 117.365 183.427 117.518 182.9C117.672 182.373 117.748 181.837 117.748 181.29V180.14ZM117.918 180.14H118.548V181.29C118.548 181.81 118.622 182.32 118.768 182.82C118.922 183.32 119.138 183.773 119.418 184.18C119.705 184.58 120.055 184.9 120.468 185.14L119.968 185.76C119.528 185.487 119.155 185.123 118.848 184.67C118.548 184.21 118.318 183.69 118.158 183.11C117.998 182.523 117.918 181.917 117.918 181.29V180.14ZM116.038 179.79H120.168V180.47H116.038V179.79Z" fill="black"/>
<path d="M168.82 98.59H169.61V100.79H171.51V98.59H172.28V104.52H168.82V98.59ZM169.61 101.46V103.84H171.51V101.46H169.61ZM175.39 97.73H176.19V106.78H175.39V97.73ZM173.94 101.31H175.68V102H173.94V101.31ZM173.38 97.92H174.17V106.32H173.38V97.92ZM182.019 99.39H184.619V100.07H182.019V99.39ZM182.019 101.34H184.639V102.02H182.019V101.34ZM184.309 97.74H185.139V104.43H184.309V97.74ZM179.329 105.9H185.349V106.58H179.329V105.9ZM179.329 103.78H180.159V106.24H179.329V103.78ZM178.139 98.34H178.969V99.93H181.409V98.34H182.229V102.89H178.139V98.34ZM178.969 100.58V102.22H181.409V100.58H178.969Z" fill="black"/>
<path d="M168.82 179.59H169.61V181.79H171.51V179.59H172.28V185.52H168.82V179.59ZM169.61 182.46V184.84H171.51V182.46H169.61ZM175.39 178.73H176.19V187.78H175.39V178.73ZM173.94 182.31H175.68V183H173.94V182.31ZM173.38 178.92H174.17V187.32H173.38V178.92ZM182.019 180.39H184.619V181.07H182.019V180.39ZM182.019 182.34H184.639V183.02H182.019V182.34ZM184.309 178.74H185.139V185.43H184.309V178.74ZM179.329 186.9H185.349V187.58H179.329V186.9ZM179.329 184.78H180.159V187.24H179.329V184.78ZM178.139 179.34H178.969V180.93H181.409V179.34H182.229V183.89H178.139V179.34ZM178.969 181.58V183.22H181.409V181.58H178.969Z" fill="black"/>
<path d="M20.373 13.7197C20.3604 17.2871 19.4971 20.2578 15.1807 22.416L14.292 21.1973C16.2217 20.2388 17.3706 19.166 18.0244 17.8838L14.6094 18.2012L14.4062 16.8174L18.5195 16.5635C18.6338 16.0811 18.7163 15.5605 18.7607 15.0146H15.0156V13.7197H20.373ZM23.458 12.6152V17.0459H25.0957V18.3789H23.458V24.1426H21.833V12.6152H23.458ZM30.25 13.8975V15.167H27.4697V17.0078H29.793V18.2393H27.4697V20.3086C28.7075 20.3022 29.6216 20.2324 30.6943 20.0547L30.834 21.3623C29.5137 21.6035 28.3965 21.6162 26.708 21.6162H25.9336V13.8975H30.25ZM35.5947 12.6152V24.168H34.0332V12.6152H35.5947ZM33.1445 12.8184V23.6475H31.6338V18.125H30.3389V16.8301H31.6338V12.8184H33.1445ZM46.335 13.6182V14.71C46.335 16.1572 46.335 17.7822 45.8652 20.2324L44.2402 20.0674C44.6782 17.8838 44.6973 16.2588 44.71 14.9004H37.9053V13.6182H46.335ZM47.3506 21.4385V22.7588H36.8135V21.4385H40.584V17.4648H42.1963V21.4385H47.3506ZM57.7354 12.6152V24.1934H56.123V12.6152H57.7354ZM54.1553 13.5801V18.0361H50.3467V20.1562C52.105 20.1499 53.603 20.0483 55.2979 19.7754L55.4375 21.083C53.5332 21.4131 51.8193 21.4893 49.7119 21.4893H48.6709V16.7539H52.5049V14.8877H48.6582V13.5801H54.1553ZM72.0176 12.6152V18.4932H70.4053V15.624H68.2344V14.3418H70.4053V12.6152H72.0176ZM72.0176 18.9756V22.0605H65.9492V22.7715H72.3477V24.041H64.3496V20.8799H70.418V20.2197H64.3369V18.9756H72.0176ZM66.6094 13.834C66.5967 15.2178 67.4092 16.5508 69.25 17.0967L68.3994 18.3408C67.1616 17.9409 66.2983 17.1665 65.7969 16.1699C65.2954 17.2808 64.3813 18.1567 63.0293 18.582L62.1914 17.2998C64.1084 16.7412 64.959 15.332 64.9717 13.834V12.9961H66.6094V13.834ZM83.2529 12.6152V19.4707H81.6406V16.7412H79.8379V15.4336H81.6406V12.6152H83.2529ZM79.3047 19.7246C81.7676 19.7373 83.2783 20.5498 83.291 21.959C83.2783 23.3555 81.7676 24.1807 79.3047 24.1807C76.8418 24.1807 75.3311 23.3555 75.3311 21.959C75.3311 20.5498 76.8418 19.7373 79.3047 19.7246ZM79.3047 20.9688C77.7686 20.9688 76.9434 21.2861 76.9434 21.959C76.9434 22.6191 77.7686 22.9492 79.3047 22.9492C80.8408 22.9492 81.6787 22.6191 81.6787 21.959C81.6787 21.2861 80.8408 20.9688 79.3047 20.9688ZM80.1807 13.3135V14.6084H77.8828C77.9209 15.9541 78.7334 17.3125 80.5361 17.9092L79.7363 19.1787C78.4604 18.7661 77.5845 17.9282 77.083 16.8809C76.5688 18.0615 75.6484 19.0137 74.2773 19.4834L73.4395 18.2012C75.3374 17.5664 76.188 16.0557 76.2324 14.6084H73.9092V13.3135H80.1807Z" fill="black"/>
<path d="M22.7012 41.2451V50.9561H21.541V41.2451H22.7012ZM20.6602 41.4385V50.4834H19.543V45.8213H17.6738V44.8438H19.543V41.4385H20.6602ZM18.3398 42.3838V43.3398H15.8154V47.7334C16.9648 47.7227 17.7866 47.6743 18.7373 47.4756L18.834 48.4531C17.7383 48.6787 16.7715 48.7217 15.2998 48.7324H14.6445V42.3838H18.3398ZM26.5791 41.5566C28.0508 41.5566 29.1465 42.4697 29.1572 43.748C29.1465 45.0371 28.0508 45.9395 26.5791 45.9395C25.0967 45.9395 24.001 45.0371 24.001 43.748C24.001 42.4697 25.0967 41.5566 26.5791 41.5566ZM26.5791 42.5449C25.7627 42.5449 25.1611 43.0068 25.1611 43.748C25.1611 44.5 25.7627 44.9727 26.5791 44.9727C27.3955 44.9727 27.9971 44.5 27.9971 43.748C27.9971 43.0068 27.3955 42.5449 26.5791 42.5449ZM31.918 41.2451V46.1543H30.7148V41.2451H31.918ZM31.918 46.5732V49.1084H26.665V49.8926H32.208V50.8379H25.4941V48.2275H30.7256V47.5078H25.4727V46.5732H31.918ZM41.4248 41.2451V50.9668H40.2432V41.2451H41.4248ZM38.4385 42.0938V45.7354H35.0977V47.6904C36.6284 47.6797 37.9497 47.6045 39.459 47.3467L39.5664 48.3242C37.9121 48.6143 36.4619 48.668 34.7217 48.668H33.873V44.79H37.2246V43.0605H33.8623V42.0938H38.4385ZM50.6738 41.5781V44.3389H45.0986V45.3057H50.8887V46.2617H43.8955V43.4365H49.4492V42.5449H43.874V41.5781H50.6738ZM51.7051 47.0889V48.0449H47.8486V50.9668H46.6562V48.0449H42.832V47.0889H51.7051ZM60.4385 41.2559V48.4424H59.2354V41.2559H60.4385ZM60.707 49.7959V50.7627H54.0146V47.8086H55.2178V49.7959H60.707ZM57.5811 41.9971V42.9531H54.1006V44.0166H57.3018V44.9404H54.1006V46.0254C55.916 46.0254 57.0225 45.9985 58.3008 45.7891L58.4189 46.7129C57.0225 46.96 55.8086 46.9922 53.7139 46.9922H52.8867V41.9971H57.5811Z" fill="black"/>
<path d="M70.5 103.025L71.5875 104.112C71.6563 104.181 71.7438 104.216 71.85 104.216C71.9563 104.216 72.0438 104.181 72.1125 104.112C72.1813 104.044 72.2156 103.956 72.2156 103.85C72.2156 103.744 72.1813 103.656 72.1125 103.587L71.025 102.5L72.1125 101.413C72.1813 101.344 72.2156 101.256 72.2156 101.15C72.2156 101.044 72.1813 100.956 72.1125 100.887C72.0438 100.819 71.9563 100.784 71.85 100.784C71.7438 100.784 71.6563 100.819 71.5875 100.887L70.5 101.975L69.4125 100.887C69.3438 100.819 69.2563 100.784 69.15 100.784C69.0438 100.784 68.9563 100.819 68.8875 100.887C68.8188 100.956 68.7844 101.044 68.7844 101.15C68.7844 101.256 68.8188 101.344 68.8875 101.413L69.975 102.5L68.8875 103.587C68.8188 103.656 68.7844 103.744 68.7844 103.85C68.7844 103.956 68.8188 104.044 68.8875 104.112C68.9563 104.181 69.0438 104.216 69.15 104.216C69.2563 104.216 69.3438 104.181 69.4125 104.112L70.5 103.025ZM70.5 106.25C69.9813 106.25 69.4938 106.151 69.0375 105.954C68.5813 105.757 68.1844 105.49 67.8469 105.153C67.5094 104.816 67.2423 104.419 67.0455 103.962C66.8488 103.506 66.7503 103.019 66.75 102.5C66.7498 101.981 66.8483 101.494 67.0455 101.038C67.2428 100.581 67.5099 100.184 67.8469 99.8469C68.1839 99.5096 68.5808 99.2425 69.0375 99.0455C69.4943 98.8485 69.9818 98.75 70.5 98.75C71.0183 98.75 71.5058 98.8485 71.9625 99.0455C72.4193 99.2425 72.8161 99.5096 73.1531 99.8469C73.4901 100.184 73.7574 100.581 73.9549 101.038C74.1524 101.494 74.2508 101.981 74.25 102.5C74.2493 103.019 74.1508 103.506 73.9545 103.962C73.7583 104.419 73.4911 104.816 73.1531 105.153C72.8151 105.49 72.4183 105.758 71.9625 105.955C71.5068 106.152 71.0193 106.25 70.5 106.25Z" fill="black"/>
<path d="M69.5 184.025L70.5875 185.112C70.6563 185.181 70.7438 185.216 70.85 185.216C70.9563 185.216 71.0438 185.181 71.1125 185.112C71.1813 185.044 71.2156 184.956 71.2156 184.85C71.2156 184.744 71.1813 184.656 71.1125 184.587L70.025 183.5L71.1125 182.413C71.1813 182.344 71.2156 182.256 71.2156 182.15C71.2156 182.044 71.1813 181.956 71.1125 181.887C71.0438 181.819 70.9563 181.784 70.85 181.784C70.7438 181.784 70.6563 181.819 70.5875 181.887L69.5 182.975L68.4125 181.887C68.3438 181.819 68.2563 181.784 68.15 181.784C68.0438 181.784 67.9563 181.819 67.8875 181.887C67.8188 181.956 67.7844 182.044 67.7844 182.15C67.7844 182.256 67.8188 182.344 67.8875 182.413L68.975 183.5L67.8875 184.587C67.8188 184.656 67.7844 184.744 67.7844 184.85C67.7844 184.956 67.8188 185.044 67.8875 185.112C67.9563 185.181 68.0438 185.216 68.15 185.216C68.2563 185.216 68.3438 185.181 68.4125 185.112L69.5 184.025ZM69.5 187.25C68.9813 187.25 68.4938 187.151 68.0375 186.954C67.5813 186.757 67.1844 186.49 66.8469 186.153C66.5094 185.816 66.2423 185.419 66.0455 184.962C65.8488 184.506 65.7503 184.019 65.75 183.5C65.7498 182.981 65.8483 182.494 66.0455 182.038C66.2428 181.581 66.5099 181.184 66.8469 180.847C67.1839 180.51 67.5808 180.243 68.0375 180.046C68.4943 179.849 68.9818 179.75 69.5 179.75C70.0183 179.75 70.5058 179.849 70.9625 180.046C71.4193 180.243 71.8161 180.51 72.1531 180.847C72.4901 181.184 72.7574 181.581 72.9549 182.038C73.1524 182.494 73.2508 182.981 73.25 183.5C73.2493 184.019 73.1508 184.506 72.9545 184.962C72.7583 185.419 72.4911 185.816 72.1531 186.153C71.8151 186.49 71.4183 186.758 70.9625 186.955C70.5068 187.152 70.0193 187.25 69.5 187.25Z" fill="black"/>
<path d="M136.5 184.025L137.588 185.112C137.656 185.181 137.744 185.216 137.85 185.216C137.956 185.216 138.044 185.181 138.113 185.112C138.181 185.044 138.216 184.956 138.216 184.85C138.216 184.744 138.181 184.656 138.113 184.587L137.025 183.5L138.113 182.413C138.181 182.344 138.216 182.256 138.216 182.15C138.216 182.044 138.181 181.956 138.113 181.887C138.044 181.819 137.956 181.784 137.85 181.784C137.744 181.784 137.656 181.819 137.588 181.887L136.5 182.975L135.413 181.887C135.344 181.819 135.256 181.784 135.15 181.784C135.044 181.784 134.956 181.819 134.888 181.887C134.819 181.956 134.784 182.044 134.784 182.15C134.784 182.256 134.819 182.344 134.888 182.413L135.975 183.5L134.888 184.587C134.819 184.656 134.784 184.744 134.784 184.85C134.784 184.956 134.819 185.044 134.888 185.112C134.956 185.181 135.044 185.216 135.15 185.216C135.256 185.216 135.344 185.181 135.413 185.112L136.5 184.025ZM136.5 187.25C135.981 187.25 135.494 187.151 135.038 186.954C134.581 186.757 134.184 186.49 133.847 186.153C133.509 185.816 133.242 185.419 133.046 184.962C132.849 184.506 132.75 184.019 132.75 183.5C132.75 182.981 132.848 182.494 133.046 182.038C133.243 181.581 133.51 181.184 133.847 180.847C134.184 180.51 134.581 180.243 135.038 180.046C135.494 179.849 135.982 179.75 136.5 179.75C137.018 179.75 137.506 179.849 137.963 180.046C138.419 180.243 138.816 180.51 139.153 180.847C139.49 181.184 139.757 181.581 139.955 182.038C140.152 182.494 140.251 182.981 140.25 183.5C140.249 184.019 140.151 184.506 139.955 184.962C139.758 185.419 139.491 185.816 139.153 186.153C138.815 186.49 138.418 186.758 137.963 186.955C137.507 187.152 137.019 187.25 136.5 187.25Z" fill="black"/>
<path d="M195.5 184.025L196.588 185.112C196.656 185.181 196.744 185.216 196.85 185.216C196.956 185.216 197.044 185.181 197.113 185.112C197.181 185.044 197.216 184.956 197.216 184.85C197.216 184.744 197.181 184.656 197.113 184.587L196.025 183.5L197.113 182.413C197.181 182.344 197.216 182.256 197.216 182.15C197.216 182.044 197.181 181.956 197.113 181.887C197.044 181.819 196.956 181.784 196.85 181.784C196.744 181.784 196.656 181.819 196.588 181.887L195.5 182.975L194.413 181.887C194.344 181.819 194.256 181.784 194.15 181.784C194.044 181.784 193.956 181.819 193.888 181.887C193.819 181.956 193.784 182.044 193.784 182.15C193.784 182.256 193.819 182.344 193.888 182.413L194.975 183.5L193.888 184.587C193.819 184.656 193.784 184.744 193.784 184.85C193.784 184.956 193.819 185.044 193.888 185.112C193.956 185.181 194.044 185.216 194.15 185.216C194.256 185.216 194.344 185.181 194.413 185.112L195.5 184.025ZM195.5 187.25C194.981 187.25 194.494 187.151 194.038 186.954C193.581 186.757 193.184 186.49 192.847 186.153C192.509 185.816 192.242 185.419 192.046 184.962C191.849 184.506 191.75 184.019 191.75 183.5C191.75 182.981 191.848 182.494 192.046 182.038C192.243 181.581 192.51 181.184 192.847 180.847C193.184 180.51 193.581 180.243 194.038 180.046C194.494 179.849 194.982 179.75 195.5 179.75C196.018 179.75 196.506 179.849 196.963 180.046C197.419 180.243 197.816 180.51 198.153 180.847C198.49 181.184 198.757 181.581 198.955 182.038C199.152 182.494 199.251 182.981 199.25 183.5C199.249 184.019 199.151 184.506 198.955 184.962C198.758 185.419 198.491 185.816 198.153 186.153C197.815 186.49 197.418 186.758 196.963 186.955C196.507 187.152 196.019 187.25 195.5 187.25Z" fill="black"/>
<path d="M137.5 103.025L138.588 104.112C138.656 104.181 138.744 104.216 138.85 104.216C138.956 104.216 139.044 104.181 139.113 104.112C139.181 104.044 139.216 103.956 139.216 103.85C139.216 103.744 139.181 103.656 139.113 103.587L138.025 102.5L139.113 101.413C139.181 101.344 139.216 101.256 139.216 101.15C139.216 101.044 139.181 100.956 139.113 100.887C139.044 100.819 138.956 100.784 138.85 100.784C138.744 100.784 138.656 100.819 138.588 100.887L137.5 101.975L136.413 100.887C136.344 100.819 136.256 100.784 136.15 100.784C136.044 100.784 135.956 100.819 135.888 100.887C135.819 100.956 135.784 101.044 135.784 101.15C135.784 101.256 135.819 101.344 135.888 101.413L136.975 102.5L135.888 103.587C135.819 103.656 135.784 103.744 135.784 103.85C135.784 103.956 135.819 104.044 135.888 104.112C135.956 104.181 136.044 104.216 136.15 104.216C136.256 104.216 136.344 104.181 136.413 104.112L137.5 103.025ZM137.5 106.25C136.981 106.25 136.494 106.151 136.038 105.954C135.581 105.757 135.184 105.49 134.847 105.153C134.509 104.816 134.242 104.419 134.046 103.962C133.849 103.506 133.75 103.019 133.75 102.5C133.75 101.981 133.848 101.494 134.046 101.038C134.243 100.581 134.51 100.184 134.847 99.8469C135.184 99.5096 135.581 99.2425 136.038 99.0455C136.494 98.8485 136.982 98.75 137.5 98.75C138.018 98.75 138.506 98.8485 138.963 99.0455C139.419 99.2425 139.816 99.5096 140.153 99.8469C140.49 100.184 140.757 100.581 140.955 101.038C141.152 101.494 141.251 101.981 141.25 102.5C141.249 103.019 141.151 103.506 140.955 103.962C140.758 104.419 140.491 104.816 140.153 105.153C139.815 105.49 139.418 105.758 138.963 105.955C138.507 106.152 138.019 106.25 137.5 106.25Z" fill="black"/>
<path d="M199.5 103.025L200.588 104.112C200.656 104.181 200.744 104.216 200.85 104.216C200.956 104.216 201.044 104.181 201.113 104.112C201.181 104.044 201.216 103.956 201.216 103.85C201.216 103.744 201.181 103.656 201.113 103.587L200.025 102.5L201.113 101.413C201.181 101.344 201.216 101.256 201.216 101.15C201.216 101.044 201.181 100.956 201.113 100.887C201.044 100.819 200.956 100.784 200.85 100.784C200.744 100.784 200.656 100.819 200.588 100.887L199.5 101.975L198.413 100.887C198.344 100.819 198.256 100.784 198.15 100.784C198.044 100.784 197.956 100.819 197.888 100.887C197.819 100.956 197.784 101.044 197.784 101.15C197.784 101.256 197.819 101.344 197.888 101.413L198.975 102.5L197.888 103.587C197.819 103.656 197.784 103.744 197.784 103.85C197.784 103.956 197.819 104.044 197.888 104.112C197.956 104.181 198.044 104.216 198.15 104.216C198.256 104.216 198.344 104.181 198.413 104.112L199.5 103.025ZM199.5 106.25C198.981 106.25 198.494 106.151 198.038 105.954C197.581 105.757 197.184 105.49 196.847 105.153C196.509 104.816 196.242 104.419 196.046 103.962C195.849 103.506 195.75 103.019 195.75 102.5C195.75 101.981 195.848 101.494 196.046 101.038C196.243 100.581 196.51 100.184 196.847 99.8469C197.184 99.5096 197.581 99.2425 198.038 99.0455C198.494 98.8485 198.982 98.75 199.5 98.75C200.018 98.75 200.506 98.8485 200.963 99.0455C201.419 99.2425 201.816 99.5096 202.153 99.8469C202.49 100.184 202.757 100.581 202.955 101.038C203.152 101.494 203.251 101.981 203.25 102.5C203.249 103.019 203.151 103.506 202.955 103.962C202.758 104.419 202.491 104.816 202.153 105.153C201.815 105.49 201.418 105.758 200.963 105.955C200.507 106.152 200.019 106.25 199.5 106.25Z" fill="black"/>
<path d="M26.8281 129.016V130.719H22.5781V131.711H26.9766V132.133H22.0859V130.32H26.3281V129.422H22.0625V129.016H26.8281ZM27.6016 132.922V133.328H24.6875V135.617H24.1953V133.328H21.2969V132.922H27.6016ZM33.8828 128.719V133.852H33.3906V128.719H33.8828ZM34.1094 135.031V135.445H29.4844V133.398H29.9766V135.031H34.1094ZM29.1719 132.25C30.6953 132.25 31.5234 132.219 32.5156 132.047L32.5703 132.453C31.5469 132.633 30.7188 132.656 29.1719 132.664H28.625V129.266H31.9219V129.68H29.125V130.734H31.7344V131.141H29.125V132.25H29.1719ZM42.7422 128.719V135.617H42.2578V131.742H40.4766V133.836H37.3516V129.258H37.8438V131.094H40V129.258H40.4766V131.328H42.2578V128.719H42.7422ZM37.8438 133.422H40V131.5H37.8438V133.422ZM50.2578 132.57V132.977H43.9688V132.57H50.2578ZM49.5859 135.031V135.445H44.8047V133.531H45.2969V135.031H49.5859ZM49.4922 131.445V131.844H44.8203V128.984H49.4609V129.391H45.3203V130.203H49.2656V130.602H45.3203V131.445H49.4922ZM59.1016 132.898V133.312H56.2031V135.617H55.7188V133.312H52.8203V132.898H59.1016ZM56.2031 130.062C56.2031 131 57.5469 131.742 58.6719 131.906L58.4922 132.312C57.4766 132.141 56.3906 131.59 55.9688 130.789C55.5352 131.602 54.4414 132.141 53.4219 132.312L53.2422 131.906C54.3672 131.742 55.7109 131 55.7188 130.062V130H53.4453V129.586H55.7188V128.703H56.2031V129.586H58.4844V130H56.2031V130.062ZM65.0391 128.719V131.57H66.2031V131.992H65.0391V135.609H64.5469V128.719H65.0391ZM63.2734 129.469C63.2656 131.383 62.3125 133.156 60.0859 134.258L59.8125 133.867C61.6484 132.961 62.6484 131.547 62.7734 129.883H60.1172V129.469H63.2734ZM70.4922 133.945V132.43H68.9844V131.922H70.4922V130.414H71V131.922H72.5156V132.43H71V133.945H70.4922Z" fill="#989898"/>
<path d="M26.8281 210.016V211.719H22.5781V212.711H26.9766V213.133H22.0859V211.32H26.3281V210.422H22.0625V210.016H26.8281ZM27.6016 213.922V214.328H24.6875V216.617H24.1953V214.328H21.2969V213.922H27.6016ZM33.8828 209.719V214.852H33.3906V209.719H33.8828ZM34.1094 216.031V216.445H29.4844V214.398H29.9766V216.031H34.1094ZM29.1719 213.25C30.6953 213.25 31.5234 213.219 32.5156 213.047L32.5703 213.453C31.5469 213.633 30.7188 213.656 29.1719 213.664H28.625V210.266H31.9219V210.68H29.125V211.734H31.7344V212.141H29.125V213.25H29.1719ZM42.7422 209.719V216.617H42.2578V212.742H40.4766V214.836H37.3516V210.258H37.8438V212.094H40V210.258H40.4766V212.328H42.2578V209.719H42.7422ZM37.8438 214.422H40V212.5H37.8438V214.422ZM50.2578 213.57V213.977H43.9688V213.57H50.2578ZM49.5859 216.031V216.445H44.8047V214.531H45.2969V216.031H49.5859ZM49.4922 212.445V212.844H44.8203V209.984H49.4609V210.391H45.3203V211.203H49.2656V211.602H45.3203V212.445H49.4922ZM59.1016 213.898V214.312H56.2031V216.617H55.7188V214.312H52.8203V213.898H59.1016ZM56.2031 211.062C56.2031 212 57.5469 212.742 58.6719 212.906L58.4922 213.312C57.4766 213.141 56.3906 212.59 55.9688 211.789C55.5352 212.602 54.4414 213.141 53.4219 213.312L53.2422 212.906C54.3672 212.742 55.7109 212 55.7188 211.062V211H53.4453V210.586H55.7188V209.703H56.2031V210.586H58.4844V211H56.2031V211.062ZM65.0391 209.719V212.57H66.2031V212.992H65.0391V216.609H64.5469V209.719H65.0391ZM63.2734 210.469C63.2656 212.383 62.3125 214.156 60.0859 215.258L59.8125 214.867C61.6484 213.961 62.6484 212.547 62.7734 210.883H60.1172V210.469H63.2734ZM70.4922 214.945V213.43H68.9844V212.922H70.4922V211.414H71V212.922H72.5156V213.43H71V214.945H70.4922Z" fill="#989898"/>
</svg>
